<svg id="Capa_1" data-name="Capa 1" xmlns="http://www.w3.org/2000/svg" viewBox="0 0 745.11 956.51"><defs><style>.cls-1{fill:#241e1b;}.cls-2{fill:#646468;}.cls-3{fill:#211915;}</style></defs><title>ce</title><path class="cls-1" d="M718,531.9c-1.5-.74-3.14-.49-4.7-.59A247.06,247.06,0,0,1,574,476.75Q512.9,427,490.88,351.35a241.16,241.16,0,0,1-8.57-47.26,248.28,248.28,0,0,1,.48-47.06,244.66,244.66,0,0,1,35.48-104q38.37-61.93,104-93.84a243.25,243.25,0,0,1,63.64-20.65,250.32,250.32,0,0,1,30.89-3.56c.41,0,1,.25,1.23-.34h3.48a10.7,10.7,0,0,0,5.91,0H740.6c.48.64,1.17.27,1.74.31A122.18,122.18,0,0,1,754.87,36v74.47a191,191,0,0,0-52.69,1,168.78,168.78,0,0,0-69.86,27.8q-55.86,38.52-71.8,104.62c-.5,2-.49,2,1.54,2q70.55,0,141.1,0c1.53,0,2,.3,2,1.94q-.09,35.32,0,70.64c0,1.78-.45,2.14-2.18,2.14q-70.46-.08-140.92,0c-2.05,0-2,0-1.57,2.05a153.1,153.1,0,0,0,5,17.48c17.35,48.15,49.44,82.67,96.26,103.21,29.73,13.05,61,16.35,93.06,12.72V530.5c-4,.69-8.12.79-12.18,1.08-.58,0-1.27-.32-1.74.32H727.37a10.61,10.61,0,0,0-5.91,0Z" transform="translate(-34.3 -34.59)"/><path class="cls-1" d="M318.12,34.59c2.16.69,4.42.3,6.62.61a58.61,58.61,0,0,0,6.07.46c1.18,0,1.55.45,1.53,1.66-.07,4.46,0,8.93,0,13.39V108.3c0,2.11,0,2.09-2.07,1.88a201.43,201.43,0,0,0-39.59-.16,168.24,168.24,0,0,0-53.47,14q-54.69,24.52-83.26,77.24a162.05,162.05,0,0,0-19.08,60c-6.33,57.7,11,107.28,52.57,147.9,23.83,23.31,52.57,37.93,85.23,44.68a186.55,186.55,0,0,0,51.56,3q3.56-.27,7.09-.69c.77-.08,1.1.09,1,.89a8.22,8.22,0,0,0,0,.86q0,35.49,0,71c0,1.58-.49,1.95-1.93,2-3.53.15-7.05.46-10.58.7-.28,0-.59,0-.69.34H304.89a11.77,11.77,0,0,0-6.26,0H295.5c-.41-.64-1.05-.32-1.58-.35a249.17,249.17,0,0,1-36.32-4.65A248.42,248.42,0,0,1,59.18,296.3c0-.36.2-.83-.33-1.05v-24c.53-.22.31-.69.33-1.05A242.76,242.76,0,0,1,69.84,210Q94.43,131.76,160.3,82.87A243.17,243.17,0,0,1,234.43,45.5,248,248,0,0,1,293.25,35c.51,0,1.17.28,1.55-.39Z" transform="translate(-34.3 -34.59)"/><path class="cls-2" d="M298.63,531.9a11.77,11.77,0,0,1,6.26,0Z" transform="translate(-34.3 -34.59)"/><path class="cls-2" d="M727.37,34.59a10.7,10.7,0,0,1-5.91,0Z" transform="translate(-34.3 -34.59)"/><path class="cls-2" d="M721.46,531.9a10.61,10.61,0,0,1,5.91,0Z" transform="translate(-34.3 -34.59)"/><path class="cls-3" d="M151.35,937.54H89.45V639.38h61.9Z" transform="translate(-34.3 -34.59)"/><path class="cls-3" d="M384.07,639.38H448.8L347.14,937.54H288.29L187.45,639.38H254l64.73,226.35Z" transform="translate(-34.3 -34.59)"/><path class="cls-3" d="M660.62,645.86q31.36,10.3,50.81,37.82a132.71,132.71,0,0,1,21.25,48.14,231,231,0,0,1,5.67,49.36q0,59.46-23.88,100.73-32.4,55.64-100,55.63H485.91V639.38H614.46Q642.2,639.79,660.62,645.86ZM546.39,691.17V885.76h57.54q44.16,0,61.59-43.49Q675,818.41,675,785.43q0-45.51-14.28-69.89t-56.83-24.37Z" transform="translate(-34.3 -34.59)"/><path class="cls-3" d="M779.41,991.1H34.3V587.46H779.41ZM46.89,978.52H766.83V600H46.89Z" transform="translate(-34.3 -34.59)"/></svg>