<svg id="Capa_1" data-name="Capa 1" xmlns="http://www.w3.org/2000/svg" viewBox="0 0 1226.38 876.25"><defs><style>.cls-1{fill:#241e1b;}.cls-2{fill:#646468;}</style></defs><title>ce</title><path class="cls-1" d="M1161.38,876.25c-2.63-1.3-5.52-.85-8.27-1a435.48,435.48,0,0,1-245.5-96.15Q800,691.43,761.24,558.12a423.75,423.75,0,0,1-15.1-83.26,436.82,436.82,0,0,1,.85-82.93c7-65.79,27.65-127,62.51-183.33Q877.09,99.48,992.66,43.25A428.42,428.42,0,0,1,1104.8,6.87,439.71,439.71,0,0,1,1159.22.59c.73,0,1.68.44,2.16-.59h6.13c3.48,1.21,7,.73,10.42,0h23.31c.85,1.12,2.06.48,3.07.54,7.37.47,14.76.69,22.07,1.91V133.68a336.06,336.06,0,0,0-92.83,1.75c-44.67,7.16-85.87,23.32-123.1,49Q912,252.27,883.94,368.74c-.88,3.61-.87,3.62,2.71,3.62q124.32,0,248.63-.06c2.69,0,3.54.52,3.54,3.42q-.16,62.23,0,124.47c0,3.13-.78,3.78-3.82,3.77q-124.15-.13-248.32-.07c-3.61,0-3.58,0-2.75,3.6a267.23,267.23,0,0,0,8.88,30.82c30.56,84.83,87.1,145.65,169.6,181.85,52.38,23,107.42,28.8,164,22.41V873.79c-7.11,1.21-14.3,1.39-21.46,1.9-1,.07-2.23-.57-3.07.56h-23.92c-3.47-.76-6.94-1.21-10.42,0Z"/><path class="cls-1" d="M456.83,0c3.8,1.21,7.79.52,11.67,1.06a100.39,100.39,0,0,0,10.69.82c2.09.07,2.74.79,2.71,2.92-.13,7.86,0,15.73,0,23.6V129.86c0,3.74,0,3.7-3.65,3.32a354.17,354.17,0,0,0-69.75-.27,296.23,296.23,0,0,0-94.22,24.63q-96.35,43.2-146.7,136.1C149.59,326.68,138,362,133.9,399.33c-11.14,101.68,19.45,189,92.63,260.61,42,41.07,92.64,66.83,150.18,78.72,30,6.2,60.34,7.5,90.85,5.28,4.18-.31,8.34-.73,12.5-1.2,1.35-.16,1.94.15,1.79,1.55-.05.5,0,1,0,1.53q0,62.53.07,125.07c0,2.78-.86,3.42-3.4,3.53-6.22.27-12.43.81-18.64,1.24-.49,0-1-.09-1.22.59H433.52c-3.67-.79-7.35-1.2-11,0H417c-.71-1.12-1.85-.57-2.77-.62a439,439,0,0,1-64-8.19A437.73,437.73,0,0,1,.59,461.13c0-.64.34-1.47-.59-1.85V417c.93-.38.55-1.22.59-1.85A427,427,0,0,1,19.37,309.05q43.3-137.84,159.38-224A428.42,428.42,0,0,1,309.37,19.22,437.57,437.57,0,0,1,413,.67c.92-.05,2.07.5,2.74-.67Z"/><path class="cls-2" d="M422.49,876.25c3.68-1.2,7.36-.79,11,0Z"/><path class="cls-2" d="M1177.93,0c-3.47.73-6.94,1.21-10.42,0Z"/><path class="cls-2" d="M1167.51,876.25c3.48-1.21,7-.76,10.42,0Z"/></svg>