<?xml version="1.0" encoding="utf-8"?>
<!-- Generator: Adobe Illustrator 22.1.0, SVG Export Plug-In . SVG Version: 6.00 Build 0)  -->
<svg version="1.1" id="Capa_1" xmlns="http://www.w3.org/2000/svg" xmlns:xlink="http://www.w3.org/1999/xlink" x="0px" y="0px"
	 viewBox="0 0 319.1 256.6" style="enable-background:new 0 0 319.1 256.6;" xml:space="preserve">
<style type="text/css">
	.st0{fill:#2A466F;}
</style>
<g>
	<path class="st0" d="M209.8,214.9c16.1-13,30.4-26.3,45.5-39.8c-1.7-0.8-3-1.3-4.3-1.9c-19.7-8.2-31.4-27.8-30.1-50.1
		c1.2-19.8,16.2-38.1,35.7-43.6c21.3-6,44.3,3.4,55.5,22.5c11.5,19.7,8.7,44.8-7.9,60.6c-15.2,14.4-32.1,26.9-47.7,41.1
		c-10.5,9.5-21.3,18.7-32.1,27.8c-35.6,30.1-74.8,31-116,13.9c-16-6.7-29.7-17-42.9-28c-2.8-2.3-2.7-3.8,0.2-6
		c3.7-2.8,7.3-5.8,10.6-9.1c2.2-2.1,3.6-1.9,5.8-0.1c7.7,6.3,15.7,12.3,24.5,17.2c2.4,1.3,3.4,1.4,3.4-1.8
		c0.6-58.8,0.9-117.6,0.5-176.5c0-0.1-0.2-0.2-0.7-0.9C94,52.1,79.9,66.1,64.9,79.1c0.8,1.9,2.5,1.9,3.7,2.4
		c25,11,36.5,40.1,25.8,65.3c-10.7,25.1-39.1,36.5-64.6,25.9c-33.3-13.9-40.6-59.6-12.1-83c25.1-20.7,48.8-42.8,74-63.4
		c14.4-11.8,29.9-21.9,48.8-24.9c23.4-3.8,45.7,0.2,67,10.4c16,7.7,30.7,17.3,44.7,28.1c1.2,0.9,2.2,2.1,3.3,3c2.1,1.6,2,3,0,4.7
		c-3.5,3.1-6.9,6.3-10.1,9.7c-2.1,2.2-3.5,2.1-5.8,0.2c-7.9-6.7-16.1-12.9-24.9-18.4c-3.6-2.3-4.6-2-4.6,2.5
		c0,52.7-0.2,105.3-0.3,158C209.8,204.3,209.8,209,209.8,214.9z M149.7,22.8c-4.2,0.4-8.1,1.4-12,2.2c-4.3,0.9-5.7,2.9-5.7,7.4
		c0,61.5-0.1,123-0.3,184.4c0,14-0.1,14,14,15.8c0.2,0,0.3,0.1,0.5,0.1c2,0.7,2.7-0.1,2.7-2.1c0-1.5,0.1-3,0.1-4.5
		c0.3-66.5,0.6-133,0.8-199.4C150,25.5,149.8,24.2,149.7,22.8z M171.3,128.9c-0.2,0-0.3,0-0.5,0c0,30.8,0,61.6,0,92.4
		c0,13.4-0.1,13.3,12.7,9c3.3-1.1,4.5-2.7,4.5-6.3c0-39.3,0.3-78.5,0.4-117.8c0.1-22.5,0.2-45,0.3-67.4c0.1-12.3,0.1-12.2-12.2-14.3
		c-4.1-0.7-5.4,0.2-5.4,4.6C171.4,62.3,171.3,95.6,171.3,128.9z M269.2,154.3c15.9-0.1,28.2-11.8,28.2-26.9
		c0.1-15.1-12.4-27.2-28-27c-15.2,0.1-27.6,12.6-27.3,27.4C242.4,142.2,254.9,154.4,269.2,154.3z M21.8,126.8
		c-0.2,15.1,11.8,27.1,27.1,27.4c15.1,0.2,27.9-11.8,28-26.6c0.2-15-11.9-27.1-27.2-27.2C34.3,100.2,22,111.9,21.8,126.8z"/>
</g>
</svg>
