<?xml version="1.0" encoding="utf-8"?>
<!-- Generator: Adobe Illustrator 22.1.0, SVG Export Plug-In . SVG Version: 6.00 Build 0)  -->
<svg version="1.1" id="Capa_1" xmlns="http://www.w3.org/2000/svg" xmlns:xlink="http://www.w3.org/1999/xlink" x="0px" y="0px"
	 viewBox="0 0 418 667" style="enable-background:new 0 0 418 667;" xml:space="preserve">
<style type="text/css">
	.st0{fill:#2A385D;stroke:#2A385D;stroke-width:27;stroke-miterlimit:10;}
</style>
<g>
	<path class="st0" d="M205.7,637l-6.3-2.7c-7.7-3.2-182-75.7-182-172.5c0-37.8,25.7-76.1,77-113.5l0.5-0.5l31.5,18.5l-0.9,0.5
		c-34.2,23-74.8,58.6-74.8,95c0,56.8,97.3,114,155.4,139.2c57.7-25.2,155.4-82.4,155.4-139.2c0-62.2-116.2-121.2-160.4-141l-4.1-1.8
		c-20.3-9.5-121.6-59.9-121.6-129.3C75.5,119,181.8,67.6,198.1,60l0.9-0.5c14.9-6.8,39.6-20.7,60.8-37.4l0.5-0.5l31.5,17.1l-1.4,0.9
		c-14,12.2-30.2,23.9-49.1,34.7c36,20.7,94.6,62.6,94.6,115.3c0,51.8-57.7,93.7-93.2,114.4C299.9,332,394,390.2,394,461.8
		c0,96.8-174.8,169.4-182,172.5L205.7,637z M205.7,92.9c-12.2,5.9-97.3,50-97.3,96.8s85.1,91,97.3,96.8c11.7-5.9,97.3-50,97.3-96.8
		C302.6,142.9,217.4,98.7,205.7,92.9z"/>
</g>
</svg>
