<?xml version="1.0" encoding="utf-8"?>
<!-- Generator: Adobe Illustrator 22.0.1, SVG Export Plug-In . SVG Version: 6.00 Build 0)  -->
<svg version="1.1" id="Capa_1" xmlns="http://www.w3.org/2000/svg" xmlns:xlink="http://www.w3.org/1999/xlink" x="0px" y="0px"
	 viewBox="0 0 765.1 151.3" style="enable-background:new 0 0 765.1 151.3;" xml:space="preserve">
<style type="text/css">
	.st0{fill:#2A385D;}
	.st1{fill-rule:evenodd;clip-rule:evenodd;fill:#00385D;}
	.st2{fill:#00385D;}
</style>
<g>
	<path class="st0" d="M52.2,145.7l-1.4-0.6c-1.7-0.7-40.4-16.8-40.4-38.3c0-8.4,5.7-16.9,17.1-25.2l0.1-0.1l7,4.1l-0.2,0.1
		c-7.6,5.1-16.6,13-16.6,21.1c0,12.6,21.6,25.3,34.5,30.9c12.8-5.6,34.5-18.3,34.5-30.9c0-13.8-25.8-26.9-35.6-31.3l-0.9-0.4
		c-4.5-2.1-27-13.3-27-28.7c0-15.7,23.6-27.1,27.2-28.8l0.2-0.1c3.3-1.5,8.8-4.6,13.5-8.3l0.1-0.1l7,3.8L71,13.1
		c-3.1,2.7-6.7,5.3-10.9,7.7c8,4.6,21,13.9,21,25.6c0,11.5-12.8,20.8-20.7,25.4C73.1,78,94,90.9,94,106.8
		c0,21.5-38.8,37.6-40.4,38.3L52.2,145.7z M52.2,24.9C49.5,26.2,30.6,36,30.6,46.4c0,10.4,18.9,20.2,21.6,21.5
		c2.6-1.3,21.6-11.1,21.6-21.5C73.7,36,54.8,26.2,52.2,24.9z"/>
</g>
<path class="st1" d="M156.9,34.8c-8.7,0-15.9,3.1-21.6,9.4c-5.7,6.3-8.5,14.2-8.5,23.8c0,9.8,2.7,17.8,8.2,24
	c5.4,6.2,12.7,9.3,21.9,9.3c9.1,0,16.3-3.1,21.7-9.3c5.4-6.2,8-14.2,8-24c0-1.4,0-2.4-0.1-3.1h-30.4v4.6h25.3
	c-0.3,8.1-2.7,14.7-7,19.6c-4.3,4.9-10.1,7.4-17.5,7.4c-7.5,0-13.4-2.6-17.9-7.9c-4.4-5.3-6.7-12.1-6.7-20.5s2.3-15.2,6.8-20.5
	c4.6-5.3,10.5-7.9,17.7-7.9c4.5,0,8.6,1.1,12.1,3.3c3.6,2.1,6.4,5.2,8.5,9l4.7-2.3c-2.7-4.7-6.2-8.3-10.6-11
	C167.3,36.1,162.4,34.8,156.9,34.8"/>
<path class="st1" d="M232.4,60.1c4.1,4.6,6.2,10.3,6.2,17.2c0,1,0,1.8-0.1,2.3h-38.3c0.4,5.1,2.3,9.2,5.6,12.4
	c3.3,3.1,7.5,4.7,12.5,4.7c6.2,0,10.9-2,14-6.1l4.5,1.9c-4.2,5.8-10.3,8.7-18.5,8.7c-7.1,0-12.7-2.2-16.9-6.7
	c-4.2-4.5-6.3-10.2-6.3-17.2c0-6.8,2-12.5,6.1-17.1c4-4.6,9.3-6.9,15.7-6.9C223.1,53.3,228.3,55.6,232.4,60.1 M205.2,62.9
	c-3.1,3.2-4.7,7.4-5.1,12.6h33.3c-0.4-5.2-2.1-9.5-5.1-12.7c-3-3.2-6.9-4.8-11.6-4.9C212.1,58,208.3,59.6,205.2,62.9"/>
<path class="st1" d="M270.4,53.3c5,0,9,1.6,12.1,4.9c3.1,3.2,4.7,7.7,4.7,13.3v28.6h-4.9V70.5c0-3.7-1.2-6.7-3.5-9
	c-2.3-2.4-5.3-3.6-9.1-3.6c-4,0-7.6,1.5-10.9,4.4c-3.3,2.9-5,6.8-5,11.7v26.1h-4.9V54.4h4.9v8.5c1.5-2.6,3.7-4.8,6.6-6.7
	C263.2,54.2,266.6,53.3,270.4,53.3"/>
<path class="st1" d="M334.3,60.1c4.1,4.6,6.2,10.3,6.2,17.2c0,1,0,1.8-0.1,2.3h-38.3c0.4,5.1,2.3,9.2,5.6,12.4
	c3.3,3.1,7.5,4.7,12.5,4.7c6.2,0,10.9-2,14-6.1l4.5,1.9c-4.2,5.8-10.4,8.7-18.5,8.7c-7.1,0-12.7-2.2-16.9-6.7
	c-4.2-4.5-6.3-10.2-6.3-17.2c0-6.8,2-12.5,6.1-17.1c4-4.6,9.3-6.9,15.7-6.9C325,53.3,330.2,55.6,334.3,60.1 M307.2,62.9
	c-3.1,3.2-4.7,7.4-5.1,12.6h33.3c-0.4-5.2-2.1-9.5-5.1-12.7c-3-3.2-6.9-4.8-11.6-4.9C314,58,310.2,59.6,307.2,62.9"/>
<path class="st1" d="M375.7,34.8c9,0,16.9,2.8,23.7,8.4l-7.7,9.3c-2.4-2.1-4.9-3.6-7.5-4.5c-2.7-1-5.4-1.5-8.3-1.5
	c-3.3,0-5.9,0.7-7.8,2.2c-1.4,1.1-2.1,2.6-2.1,4.3c0,1.9,0.9,3.4,2.7,4.6c1.4,0.9,4.8,2.2,10.1,3.7c6.3,1.6,11,3.4,14.1,5.3
	c5.4,3.6,8.2,8.6,8.2,15c0,5.9-2.5,10.7-7.6,14.6c-4.6,3.4-10.4,5.1-17.5,5.1c-10.3,0-19.3-3.5-26.8-10.6l7.3-9.3
	c2.2,2.2,5,4.1,8.4,5.8c3.5,1.8,7.2,2.7,11.1,2.7c3.6,0,6.5-0.8,8.6-2.3c1.9-1.5,2.9-3.3,2.9-5.4c0-2.1-1-3.8-2.9-5.1
	c-1.4-1-4.7-2.2-9.9-3.6c-6.6-1.9-11.3-3.6-14-5.2c-5.6-3.3-8.4-8.1-8.4-14.3c0-5.7,2.2-10.3,6.7-13.8
	C363.3,36.5,368.9,34.8,375.7,34.8"/>
<path class="st1" d="M408.1,54.4h12.5v29c0,2.7,0.9,4.9,2.7,6.7c1.8,1.8,4,2.7,6.6,2.7c3.3-0.1,6-1.4,8.3-3.7c2.3-2.4,3.4-5,3.4-8
	V54.4h12.6v40.7c0,16.6-9.2,24.9-27.6,24.9c-7.3,0-13.9-1.5-19.8-4.6l3.6-10.1c5.2,2.7,10.4,4,15.7,4c5.3,0,9.2-1.1,11.7-3.4
	c2.5-2.3,3.8-6.3,3.8-11.9c-4.2,4.8-9.5,7.2-15.9,7.2c-5.1,0-9.3-1.7-12.6-4.9c-3.3-3.3-5-7.7-5-13.1V54.4z"/>
<path class="st1" d="M486.1,53.3c3.6,0,7.1,0.6,10.7,1.9c3.6,1.2,6.7,3,9.4,5.2l-6.1,7.8c-4.8-3.4-9.6-5.1-14.2-5.1
	c-3.9,0-5.9,1.2-5.9,3.4c0,2.1,2.9,3.8,8.7,5.3c4.6,1.1,8.2,2.3,10.6,3.7c4.4,2.7,6.6,6.4,6.6,11.2c0,4.5-2,8.2-5.9,10.9
	c-3.6,2.4-8.2,3.6-14,3.6c-4.1,0-8.1-0.7-12-2c-3.8-1.3-7.1-3.1-9.8-5.3l6.3-7.8c4.7,3.7,9.8,5.5,15.3,5.5c2.2,0,4-0.4,5.4-1.2
	c1.3-0.8,1.9-1.8,1.9-3c0-1.4-0.7-2.5-2.1-3.3c-1.5-0.9-3.7-1.6-6.6-2.3c-4.4-1-7.8-2.2-10.3-3.6c-4.5-2.5-6.7-6.1-6.7-10.7
	c0-4.2,1.8-7.6,5.3-10.2C476.4,54.7,480.9,53.3,486.1,53.3"/>
<path class="st1" d="M518.5,54.4V39.8H531v14.6h8.3v9.8H531v22.3c0,3,1.5,4.6,4.4,4.6c1.5,0,3-0.6,4.7-1.9l3.8,8.2
	c-3.4,2.6-7.1,3.9-11.4,3.9c-4.3,0-7.7-1.3-10.2-3.8c-2.5-2.5-3.8-5.9-3.8-10V64.2h-6.1v-9.8H518.5z"/>
<path class="st1" d="M593.9,60c4.6,4.6,6.9,10.4,6.9,17.3c0,0.7-0.1,2-0.3,3.8h-36.9c0.6,3.6,2.1,6.4,4.5,8.5
	c2.4,2.1,5.5,3.2,9.1,3.2c4.7,0,8.7-1.9,11.8-5.7l9.9,4.6c-2.3,3-5.4,5.3-9.3,7c-3.9,1.7-8.1,2.5-12.5,2.5c-7.9,0-14.4-2.3-19.5-6.8
	c-5.1-4.5-7.6-10.2-7.6-17.2c0-6.9,2.4-12.7,7.3-17.3c4.8-4.6,11-6.9,18.5-6.9C583.3,53.2,589.4,55.5,593.9,60 M567.8,65.1
	c-2.1,2.1-3.5,4.9-4.2,8.4h24.2c-0.6-3.5-2-6.3-4.1-8.4c-2.1-2.1-4.8-3.2-8-3.2C572.6,61.9,569.9,63,567.8,65.1"/>
<path class="st1" d="M638.4,53.2c6.9,0,11.8,2.9,14.6,8.8c4.9-5.9,10.4-8.8,16.6-8.8c5,0,9,1.6,12,4.9c3,3.3,4.5,7.6,4.5,13.1v28.9
	h-12.6V71.3c0-2.8-0.7-5-2.2-6.8c-1.5-1.8-3.4-2.6-5.9-2.6c-3.3,0.1-5.9,1.3-7.7,3.6c-1.9,2.3-2.8,5-2.8,8.1v26.6h-12.6V71.3
	c0-2.8-0.7-5-2.2-6.8c-1.4-1.8-3.4-2.6-5.9-2.6c-3.3,0.1-5.9,1.3-7.8,3.6c-1.9,2.3-2.8,5-2.8,8.1v26.6h-12.6V54.4h12.6v6
	C627.9,55.7,632.8,53.2,638.4,53.2"/>
<path class="st1" d="M717.6,53.3c3.6,0,7.1,0.6,10.7,1.9c3.6,1.2,6.7,3,9.4,5.2l-6.1,7.8c-4.8-3.4-9.6-5.1-14.2-5.1
	c-3.9,0-5.9,1.2-5.9,3.4c0,2.1,2.9,3.8,8.7,5.3c4.6,1.1,8.2,2.3,10.6,3.7c4.4,2.7,6.6,6.4,6.6,11.2c0,4.5-2,8.2-5.9,10.9
	c-3.6,2.4-8.2,3.6-14,3.6c-4.1,0-8.1-0.7-12-2c-3.8-1.3-7.1-3.1-9.8-5.3l6.3-7.8c4.7,3.7,9.8,5.5,15.3,5.5c2.2,0,4-0.4,5.4-1.2
	c1.3-0.8,1.9-1.8,1.9-3c0-1.4-0.7-2.5-2.1-3.3c-1.5-0.9-3.7-1.6-6.6-2.3c-4.4-1-7.8-2.2-10.3-3.6c-4.5-2.5-6.7-6.1-6.7-10.7
	c0-4.2,1.8-7.6,5.3-10.2C707.8,54.7,712.3,53.3,717.6,53.3"/>
<path class="st2" d="M740.6,55.8c0-5.4,4.1-9.5,9.5-9.5c5.4,0,9.6,4.1,9.6,9.5c0,5.4-4.1,9.5-9.6,9.5
	C744.7,65.3,740.6,61.2,740.6,55.8 M757.4,55.8c0-4.2-3.1-7.4-7.3-7.4c-4.1,0-7.2,3.1-7.2,7.4c0,4.2,3.1,7.4,7.2,7.4
	C754.3,63.2,757.4,60,757.4,55.8 M745.8,58.1c-0.2-0.5-0.3-1.1-0.3-2.3c0-1.2,0.1-1.8,0.3-2.4c0.7-2,2.3-3,4.6-3
	c1.7,0,3.1,0.8,3.9,1.9c0.1,0.1,0.1,0.3-0.1,0.4l-1.8,1.1c-0.1,0.1-0.3,0.1-0.4-0.1c-0.5-0.6-0.9-0.9-1.6-0.9
	c-0.8,0-1.5,0.4-1.7,1.2c-0.1,0.3-0.2,0.6-0.2,1.7c0,1,0.1,1.4,0.2,1.7c0.2,0.8,0.9,1.2,1.7,1.2c0.7,0,1.2-0.3,1.6-0.8
	c0.1-0.1,0.2-0.2,0.4-0.1l1.8,1.2c0.2,0.1,0.2,0.2,0.1,0.4c-0.7,1.1-2.1,1.9-3.9,1.9C748.2,61.1,746.5,60.1,745.8,58.1"/>
</svg>
