<?xml version="1.0" encoding="utf-8"?>
<!-- Generator: Adobe Illustrator 23.0.1, SVG Export Plug-In . SVG Version: 6.00 Build 0)  -->
<svg version="1.1" id="Capa_1" xmlns="http://www.w3.org/2000/svg" xmlns:xlink="http://www.w3.org/1999/xlink" x="0px" y="0px"
	 viewBox="0 0 756.9 148.6" style="enable-background:new 0 0 756.9 148.6;" xml:space="preserve">
<style type="text/css">
	.st0{fill:#FFFFFF;}
	.st1{fill:#78BAC7;stroke:#78BAC7;stroke-miterlimit:10;}
	.st2{fill:#78BAC7;}
</style>
<g>
	<path class="st0" d="M50.4,62.8c7.9-4.6,20.7-13.9,20.7-25.4c0-11.7-13-21-21-25.6c4.2-2.4,7.8-5,10.9-7.7l0.3-0.2l-7-3.8l-0.1,0.1
		C49.5,3.9,44,7,40.7,8.5l-0.2,0.1c-3.6,1.7-27.2,13.1-27.2,28.8c0,15.4,22.5,26.6,27,28.7l0.9,0.4C51,70.9,76.8,84,76.8,97.8
		c0,12.6-21.7,25.3-34.5,30.9c-12.9-5.6-34.5-18.3-34.5-30.9c0-8.1,9-16,16.6-21.1l0.2-0.1l-7-4.1l-0.1,0.1
		C6.1,80.9,0.4,89.4,0.4,97.8c0,21.5,38.7,37.6,40.4,38.3l1.4,0.6l1.4-0.6c1.6-0.7,40.4-16.8,40.4-38.3C84,81.9,63.1,69,50.4,62.8z
		 M20.6,37.4c0-10.4,18.9-20.2,21.6-21.5c2.6,1.3,21.5,11.1,21.6,21.5c0,10.4-19,20.2-21.6,21.5C39.5,57.6,20.6,47.8,20.6,37.4z"/>
	<path class="st0" d="M146.1,55.9v4.6h25.3c-0.3,8.1-2.7,14.7-7,19.6s-10.1,7.4-17.5,7.4c-7.5,0-13.4-2.6-17.9-7.9
		c-4.4-5.3-6.7-12.1-6.7-20.5s2.3-15.2,6.8-20.5c4.6-5.3,10.5-7.9,17.7-7.9c4.5,0,8.6,1.1,12.1,3.3c3.6,2.1,6.4,5.2,8.5,9l4.7-2.3
		c-2.7-4.7-6.2-8.3-10.6-11c-4.2-2.6-9.1-3.9-14.6-3.9c-8.7,0-15.9,3.1-21.6,9.4s-8.5,14.2-8.5,23.8c0,9.8,2.7,17.8,8.2,24
		c5.4,6.2,12.7,9.3,21.9,9.3c9.1,0,16.3-3.1,21.7-9.3c5.4-6.2,8-14.2,8-24c0-1.4,0-2.4-0.1-3.1H146.1z"/>
	<path class="st0" d="M206.9,44.3c-6.4,0-11.7,2.3-15.7,6.9c-4.1,4.6-6.1,10.3-6.1,17.1c0,7,2.1,12.7,6.3,17.2s9.8,6.7,16.9,6.7
		c8.2,0,14.3-2.9,18.5-8.7l-4.5-1.9c-3.1,4.1-7.8,6.1-14,6.1c-5,0-9.2-1.6-12.5-4.7c-3.3-3.2-5.2-7.3-5.6-12.4h38.3
		c0.1-0.5,0.1-1.3,0.1-2.3c0-6.9-2.1-12.6-6.2-17.2C218.3,46.6,213.1,44.3,206.9,44.3z M190.1,66.5c0.4-5.2,2-9.4,5.1-12.6
		c3.1-3.3,6.9-4.9,11.5-5c4.7,0.1,8.6,1.7,11.6,4.9s4.7,7.5,5.1,12.7H190.1z"/>
	<path class="st0" d="M260.4,44.3c-3.8,0-7.2,0.9-10,2.9c-2.9,1.9-5.1,4.1-6.6,6.7v-8.5h-4.9v45.7h4.9V65c0-4.9,1.7-8.8,5-11.7
		s6.9-4.4,10.9-4.4c3.8,0,6.8,1.2,9.1,3.6c2.3,2.3,3.5,5.3,3.5,9v29.6h4.9V62.5c0-5.6-1.6-10.1-4.7-13.3
		C269.4,45.9,265.4,44.3,260.4,44.3z"/>
	<path class="st0" d="M308.8,44.3c-6.4,0-11.7,2.3-15.7,6.9c-4.1,4.6-6.1,10.3-6.1,17.1c0,7,2.1,12.7,6.3,17.2
		c4.2,4.5,9.8,6.7,16.9,6.7c8.1,0,14.3-2.9,18.5-8.7l-4.5-1.9c-3.1,4.1-7.8,6.1-14,6.1c-5,0-9.2-1.6-12.5-4.7
		c-3.3-3.2-5.2-7.3-5.6-12.4h38.3c0.1-0.5,0.1-1.3,0.1-2.3c0-6.9-2.1-12.6-6.2-17.2C320.2,46.6,315,44.3,308.8,44.3z M292.1,66.5
		c0.4-5.2,2-9.4,5.1-12.6c3-3.3,6.8-4.9,11.5-5c4.7,0.1,8.6,1.7,11.6,4.9s4.7,7.5,5.1,12.7H292.1z"/>
	<path class="st0" d="M382.9,57.6c-3.1-1.9-7.8-3.7-14.1-5.3c-5.3-1.5-8.7-2.8-10.1-3.7c-1.8-1.2-2.7-2.7-2.7-4.6
		c0-1.7,0.7-3.2,2.1-4.3c1.9-1.5,4.5-2.2,7.8-2.2c2.9,0,5.6,0.5,8.3,1.5c2.6,0.9,5.1,2.4,7.5,4.5l7.7-9.3
		c-6.8-5.6-14.7-8.4-23.7-8.4c-6.8,0-12.4,1.7-16.7,5.4c-4.5,3.5-6.7,8.1-6.7,13.8c0,6.2,2.8,11,8.4,14.3c2.7,1.6,7.4,3.3,14,5.2
		c5.2,1.4,8.5,2.6,9.9,3.6c1.9,1.3,2.9,3,2.9,5.1s-1,3.9-2.9,5.4c-2.1,1.5-5,2.3-8.6,2.3c-3.9,0-7.6-0.9-11.1-2.7
		c-3.4-1.7-6.2-3.6-8.4-5.8l-7.3,9.3c7.5,7.1,16.5,10.6,26.8,10.6c7.1,0,12.9-1.7,17.5-5.1c5.1-3.9,7.6-8.7,7.6-14.6
		C391.1,66.2,388.3,61.2,382.9,57.6z"/>
	<path class="st0" d="M431.6,72.1c0,3-1.1,5.6-3.4,8c-2.3,2.3-5,3.6-8.3,3.7c-2.6,0-4.8-0.9-6.6-2.7c-1.8-1.8-2.7-4-2.7-6.7v-29
		h-12.5v28.8c0,5.4,1.7,9.8,5,13.1c3.3,3.2,7.5,4.9,12.6,4.9c6.4,0,11.7-2.4,15.9-7.2c0,5.6-1.3,9.6-3.8,11.9s-6.4,3.4-11.7,3.4
		s-10.5-1.3-15.7-4l-3.6,10.1c5.9,3.1,12.5,4.6,19.8,4.6c18.4,0,27.6-8.3,27.6-24.9V45.4h-12.6L431.6,72.1L431.6,72.1z"/>
	<path class="st0" d="M475.9,54.1c4.6,0,9.4,1.7,14.2,5.1l6.1-7.8c-2.7-2.2-5.8-4-9.4-5.2c-3.6-1.3-7.1-1.9-10.7-1.9
		c-5.2,0-9.7,1.4-13.4,4c-3.5,2.6-5.3,6-5.3,10.2c0,4.6,2.2,8.2,6.7,10.7c2.5,1.4,5.9,2.6,10.3,3.6c2.9,0.7,5.1,1.4,6.6,2.3
		c1.4,0.8,2.1,1.9,2.1,3.3c0,1.2-0.6,2.2-1.9,3c-1.4,0.8-3.2,1.2-5.4,1.2c-5.5,0-10.6-1.8-15.3-5.5l-6.3,7.8c2.7,2.2,6,4,9.8,5.3
		c3.9,1.3,7.9,2,12,2c5.8,0,10.4-1.2,14-3.6c3.9-2.7,5.9-6.4,5.9-10.9c0-4.8-2.2-8.5-6.6-11.2c-2.4-1.4-6-2.6-10.6-3.7
		c-5.8-1.5-8.7-3.2-8.7-5.3C470,55.3,472,54.1,475.9,54.1z"/>
	<path class="st0" d="M525.4,82.1c-2.9,0-4.4-1.6-4.4-4.6V55.2h8.3v-9.8H521V30.8h-12.5v14.6h-6.1v9.8h6.1v23.3
		c0,4.1,1.3,7.5,3.8,10s5.9,3.8,10.2,3.8s8-1.3,11.4-3.9l-3.8-8.2C528.4,81.5,526.9,82.1,525.4,82.1z"/>
	<path class="st0" d="M565.8,44c-7.5,0-13.7,2.3-18.5,6.9c-4.9,4.6-7.3,10.4-7.3,17.3c0,7,2.5,12.7,7.6,17.2s11.6,6.8,19.5,6.8
		c4.4,0,8.6-0.8,12.5-2.5s7-4,9.3-7l-9.9-4.6c-3.1,3.8-7.1,5.7-11.8,5.7c-3.6,0-6.7-1.1-9.1-3.2s-3.9-4.9-4.5-8.5h36.9
		c0.2-1.8,0.3-3.1,0.3-3.8c0-6.9-2.3-12.7-6.9-17.3C579.4,46.5,573.3,44.2,565.8,44z M553.6,64.5c0.7-3.5,2.1-6.3,4.2-8.4
		c2.1-2.1,4.8-3.2,7.9-3.2c3.2,0,5.9,1.1,8,3.2c2.1,2.1,3.5,4.9,4.1,8.4H553.6z"/>
	<path class="st0" d="M659.6,44.2c-6.2,0-11.7,2.9-16.6,8.8c-2.8-5.9-7.7-8.8-14.6-8.8c-5.6,0-10.5,2.5-14.8,7.2v-6H601v45.8h12.6
		V64.6c0-3.1,0.9-5.8,2.8-8.1c1.9-2.3,4.5-3.5,7.8-3.6c2.5,0,4.5,0.8,5.9,2.6c1.5,1.8,2.2,4,2.2,6.8v28.9h12.6V64.6
		c0-3.1,0.9-5.8,2.8-8.1c1.8-2.3,4.4-3.5,7.7-3.6c2.5,0,4.4,0.8,5.9,2.6s2.2,4,2.2,6.8v28.8h12.6V62.2c0-5.5-1.5-9.8-4.5-13.1
		S664.6,44.2,659.6,44.2z"/>
	<path class="st0" d="M707.4,54.1c4.6,0,9.4,1.7,14.2,5.1l6.1-7.8c-2.7-2.2-5.8-4-9.4-5.2c-3.6-1.3-7.1-1.9-10.7-1.9
		c-5.3,0-9.8,1.4-13.4,4c-3.5,2.6-5.3,6-5.3,10.2c0,4.6,2.2,8.2,6.7,10.7c2.5,1.4,5.9,2.6,10.3,3.6c2.9,0.7,5.1,1.4,6.6,2.3
		c1.4,0.8,2.1,1.9,2.1,3.3c0,1.2-0.6,2.2-1.9,3c-1.4,0.8-3.2,1.2-5.4,1.2c-5.5,0-10.6-1.8-15.3-5.5l-6.3,7.8c2.7,2.2,6,4,9.8,5.3
		c3.9,1.3,7.9,2,12,2c5.8,0,10.4-1.2,14-3.6c3.9-2.7,5.9-6.4,5.9-10.9c0-4.8-2.2-8.5-6.6-11.2c-2.4-1.4-6-2.6-10.6-3.7
		c-5.8-1.5-8.7-3.2-8.7-5.3C701.5,55.3,703.5,54.1,707.4,54.1z"/>
	<path class="st0" d="M740.1,37.3c-5.4,0-9.5,4.1-9.5,9.5s4.1,9.5,9.5,9.5c5.5,0,9.6-4.1,9.6-9.5C749.7,41.4,745.5,37.3,740.1,37.3z
		 M740.1,54.2c-4.1,0-7.2-3.2-7.2-7.4c0-4.3,3.1-7.4,7.2-7.4c4.2,0,7.3,3.2,7.3,7.4C747.4,51,744.3,54.2,740.1,54.2z"/>
	<path class="st0" d="M744.2,49.9l-1.8-1.2c-0.2-0.1-0.3,0-0.4,0.1c-0.4,0.5-0.9,0.8-1.6,0.8c-0.8,0-1.5-0.4-1.7-1.2
		c-0.1-0.3-0.2-0.7-0.2-1.7c0-1.1,0.1-1.4,0.2-1.7c0.2-0.8,0.9-1.2,1.7-1.2c0.7,0,1.1,0.3,1.6,0.9c0.1,0.2,0.3,0.2,0.4,0.1l1.8-1.1
		c0.2-0.1,0.2-0.3,0.1-0.4c-0.8-1.1-2.2-1.9-3.9-1.9c-2.3,0-3.9,1-4.6,3c-0.2,0.6-0.3,1.2-0.3,2.4s0.1,1.8,0.3,2.3
		c0.7,2,2.4,3,4.6,3.1c1.8,0,3.2-0.8,3.9-1.9C744.4,50.1,744.4,50,744.2,49.9z"/>
</g>
<g>
	<g>
		<path class="st1" d="M533.5,137c-1.7,0-3.2-0.3-4.7-0.9c-1.4-0.6-2.6-1.5-3.7-2.6c-1-1.1-1.8-2.5-2.4-4c-0.6-1.5-0.9-3.2-0.9-5.1
			v-1c0-2,0.3-3.8,0.9-5.4c0.6-1.6,1.4-3,2.4-4.1s2.2-2,3.5-2.6c1.3-0.6,2.7-0.9,4.2-0.9c1.6,0,3.1,0.3,4.4,0.9
			c1.3,0.6,2.3,1.4,3.2,2.5s1.5,2.3,2,3.8c0.4,1.5,0.7,3,0.7,4.8v1.7h-18.5v0.5c0,1.4,0.2,2.8,0.6,4c0.4,1.3,1,2.3,1.8,3.3
			c0.8,0.9,1.7,1.7,2.8,2.2s2.3,0.8,3.6,0.8c1.5,0,2.9-0.3,4.1-0.8c1.2-0.6,2.2-1.5,3.2-2.7l1.8,1.4c-0.4,0.6-0.9,1.2-1.5,1.8
			c-0.6,0.6-1.2,1-2,1.5s-1.6,0.7-2.5,1C535.8,136.9,534.7,137,533.5,137z M533,112.6c-1.1,0-2.1,0.2-3,0.6s-1.7,1-2.5,1.8
			s-1.3,1.7-1.7,2.8c-0.5,1.1-0.8,2.3-0.9,3.6h15.5v-0.3c0-1.1-0.2-2.1-0.5-3.1c-0.3-1-0.8-1.9-1.4-2.7c-0.6-0.8-1.4-1.4-2.3-1.9
			S534.2,112.6,533,112.6z"/>
		<path class="st1" d="M553.3,104.1v6.6h5.4v2.3h-5.4v17.3c0,0.9,0.1,1.6,0.3,2.2c0.2,0.6,0.4,1,0.7,1.3c0.3,0.3,0.7,0.5,1.1,0.6
			c0.4,0.1,0.8,0.2,1.3,0.2c0.4,0,0.8,0,1.2-0.1s0.8-0.1,1.1-0.2l0.1,2.3c-0.4,0.1-0.8,0.2-1.4,0.3c-0.6,0.1-1.1,0.1-1.7,0.1
			c-0.8,0-1.6-0.1-2.3-0.3c-0.7-0.2-1.3-0.6-1.8-1.1c-0.5-0.5-0.9-1.2-1.2-2.1c-0.3-0.9-0.4-1.9-0.4-3.2V113h-4.8v-2.3h4.8v-6.6
			H553.3z"/>
		<path class="st1" d="M580.9,136.6c-0.2-0.4-0.3-1-0.4-1.6c-0.1-0.6-0.1-1.3-0.2-2c-0.4,0.6-0.9,1.1-1.5,1.6
			c-0.6,0.5-1.3,0.9-2,1.3c-0.7,0.4-1.5,0.7-2.4,0.9c-0.9,0.2-1.8,0.3-2.8,0.3c-1.3,0-2.4-0.2-3.4-0.6c-1-0.4-1.9-0.9-2.6-1.5
			c-0.7-0.7-1.3-1.4-1.7-2.3c-0.4-0.9-0.6-1.9-0.6-2.9c0-1.3,0.3-2.4,0.8-3.4c0.5-1,1.3-1.9,2.3-2.6c1-0.7,2.3-1.3,3.7-1.6
			c1.5-0.4,3.1-0.6,4.9-0.6h5.3v-2.9c0-1.9-0.6-3.3-1.7-4.4c-1.1-1.1-2.8-1.6-5-1.6c-1,0-1.9,0.1-2.8,0.4s-1.6,0.6-2.2,1.1
			c-0.6,0.5-1.1,1-1.4,1.7c-0.3,0.6-0.5,1.3-0.5,2l-2.9,0c0-1,0.2-1.9,0.7-2.8s1.2-1.7,2-2.4c0.9-0.7,1.9-1.3,3.1-1.7
			c1.2-0.4,2.6-0.6,4.1-0.6c1.4,0,2.6,0.2,3.8,0.5c1.2,0.4,2.1,0.9,3,1.6c0.8,0.7,1.5,1.6,1.9,2.6s0.7,2.3,0.7,3.7v12.5
			c0,0.4,0,0.9,0,1.4c0,0.5,0.1,0.9,0.2,1.4c0.1,0.4,0.2,0.9,0.3,1.3c0.1,0.4,0.2,0.8,0.3,1.1v0.3H580.9z M571.9,134.5
			c1,0,2-0.1,2.9-0.4c0.9-0.3,1.7-0.6,2.4-1.1s1.3-1,1.9-1.6c0.5-0.6,0.9-1.3,1.3-2v-5.7h-4.9c-1.5,0-2.8,0.1-3.9,0.4
			c-1.2,0.3-2.1,0.6-2.9,1.1c-0.8,0.5-1.4,1.1-1.8,1.8c-0.4,0.7-0.6,1.5-0.6,2.4c0,0.7,0.1,1.4,0.4,2s0.7,1.1,1.2,1.6
			c0.5,0.5,1.1,0.8,1.8,1.1C570.2,134.4,571,134.5,571.9,134.5z"/>
		<path class="st1" d="M610.8,132.6l7.9-21.9h2.9l-9.7,25.9h-2.3l-9.7-25.9h2.9L610.8,132.6z"/>
		<path class="st1" d="M636,137c-1.7,0-3.2-0.3-4.7-0.9s-2.6-1.5-3.7-2.6c-1-1.1-1.8-2.5-2.4-4c-0.6-1.5-0.9-3.2-0.9-5.1v-1
			c0-2,0.3-3.8,0.9-5.4c0.6-1.6,1.4-3,2.4-4.1c1-1.1,2.2-2,3.5-2.6c1.3-0.6,2.7-0.9,4.2-0.9c1.6,0,3.1,0.3,4.4,0.9
			c1.3,0.6,2.3,1.4,3.2,2.5c0.9,1.1,1.5,2.3,2,3.8c0.4,1.5,0.7,3,0.7,4.8v1.7h-18.5v0.5c0,1.4,0.2,2.8,0.6,4c0.4,1.3,1,2.3,1.8,3.3
			s1.7,1.7,2.8,2.2c1.1,0.5,2.3,0.8,3.6,0.8c1.5,0,2.9-0.3,4.1-0.8c1.2-0.6,2.2-1.5,3.2-2.7l1.8,1.4c-0.4,0.6-0.9,1.2-1.5,1.8
			c-0.6,0.6-1.2,1-2,1.5c-0.8,0.4-1.6,0.7-2.5,1C638.2,136.9,637.2,137,636,137z M635.5,112.6c-1.1,0-2.1,0.2-3,0.6
			c-0.9,0.4-1.7,1-2.5,1.8c-0.7,0.8-1.3,1.7-1.7,2.8c-0.5,1.1-0.8,2.3-0.9,3.6h15.5v-0.3c0-1.1-0.2-2.1-0.5-3.1
			c-0.3-1-0.8-1.9-1.4-2.7s-1.4-1.4-2.3-1.9S636.7,112.6,635.5,112.6z"/>
		<path class="st1" d="M663.3,113.1c-0.6-0.1-1.3-0.2-1.9-0.2c-1,0-1.9,0.1-2.6,0.4c-0.8,0.3-1.5,0.7-2.1,1.2
			c-0.6,0.5-1.1,1.1-1.5,1.8c-0.4,0.7-0.7,1.5-1,2.4v17.8h-2.8v-25.9h2.8l0,4.1c0.7-1.4,1.7-2.5,2.9-3.4c1.2-0.8,2.7-1.2,4.4-1.2
			c0.4,0,0.7,0,1.1,0.1c0.4,0.1,0.6,0.1,0.8,0.2L663.3,113.1z"/>
		<path class="st1" d="M683.3,130c0-0.5-0.1-1.1-0.3-1.6c-0.2-0.5-0.5-1-1-1.5c-0.5-0.5-1.2-0.9-2.1-1.3c-0.9-0.4-2.1-0.8-3.5-1.1
			c-1.4-0.3-2.7-0.7-3.8-1.1c-1.1-0.4-2.1-0.9-2.8-1.4c-0.8-0.6-1.4-1.2-1.8-2c-0.4-0.8-0.6-1.7-0.6-2.8c0-1,0.2-1.9,0.6-2.7
			c0.4-0.9,1-1.6,1.8-2.2c0.8-0.6,1.7-1.1,2.9-1.5c1.1-0.4,2.4-0.6,3.8-0.6c1.5,0,2.8,0.2,4,0.6c1.2,0.4,2.2,0.9,3,1.6
			c0.8,0.7,1.4,1.5,1.9,2.5c0.4,0.9,0.6,2,0.6,3.1h-2.9c0-0.7-0.1-1.3-0.4-2c-0.3-0.6-0.7-1.2-1.3-1.7c-0.6-0.5-1.3-0.9-2.1-1.2
			c-0.8-0.3-1.8-0.5-2.9-0.5c-1.1,0-2.1,0.1-2.9,0.4c-0.8,0.3-1.4,0.6-1.9,1.1c-0.5,0.4-0.9,0.9-1.1,1.4c-0.2,0.5-0.3,1.1-0.3,1.6
			c0,0.6,0.1,1.1,0.3,1.6c0.2,0.5,0.5,0.9,1,1.3c0.5,0.4,1.2,0.8,2.1,1.1c0.9,0.3,2.1,0.7,3.5,1c1.6,0.4,2.9,0.8,4,1.2
			s2.1,1,2.8,1.6c0.7,0.6,1.3,1.3,1.7,2.1c0.4,0.8,0.5,1.7,0.5,2.7c0,1.1-0.2,2-0.7,2.9c-0.4,0.9-1.1,1.6-1.9,2.3
			c-0.8,0.6-1.8,1.1-3,1.5c-1.2,0.4-2.5,0.5-3.9,0.5c-1.6,0-3.1-0.2-4.4-0.6c-1.3-0.4-2.3-1-3.2-1.7s-1.5-1.5-2-2.5
			c-0.4-0.9-0.7-1.9-0.7-2.9h2.9c0.1,1,0.3,1.9,0.8,2.5c0.5,0.7,1,1.2,1.7,1.6c0.7,0.4,1.4,0.7,2.3,0.9c0.8,0.2,1.7,0.3,2.5,0.3
			c1.1,0,2-0.1,2.9-0.4c0.8-0.3,1.5-0.6,2.1-1s1-0.9,1.3-1.5S683.3,130.6,683.3,130z"/>
		<path class="st1" d="M692.4,103.2c0-0.5,0.2-1,0.5-1.4c0.4-0.4,0.8-0.6,1.4-0.6c0.6,0,1.1,0.2,1.4,0.6c0.4,0.4,0.5,0.8,0.5,1.4
			c0,0.5-0.2,1-0.5,1.4c-0.4,0.4-0.8,0.5-1.4,0.5c-0.6,0-1.1-0.2-1.4-0.5C692.6,104.2,692.4,103.7,692.4,103.2z M695.8,136.6h-2.9
			v-25.9h2.9V136.6z"/>
		<path class="st1" d="M702,123.2c0-1.9,0.3-3.6,0.8-5.2c0.6-1.6,1.3-3,2.3-4.1c1-1.2,2.2-2.1,3.6-2.7c1.4-0.7,3-1,4.7-1
			c1.8,0,3.4,0.3,4.8,1c1.4,0.7,2.6,1.6,3.6,2.7c1,1.2,1.8,2.5,2.3,4.1c0.5,1.6,0.8,3.3,0.8,5.2v0.8c0,1.9-0.3,3.6-0.8,5.2
			c-0.5,1.6-1.3,3-2.3,4.1c-1,1.2-2.2,2.1-3.6,2.7c-1.4,0.6-3,1-4.8,1c-1.8,0-3.3-0.3-4.8-1c-1.4-0.6-2.6-1.5-3.6-2.7
			c-1-1.2-1.8-2.5-2.3-4.1c-0.5-1.6-0.8-3.3-0.8-5.2V123.2z M704.9,124c0,1.4,0.2,2.8,0.6,4.1c0.4,1.3,0.9,2.4,1.7,3.4
			c0.7,1,1.6,1.7,2.7,2.3c1.1,0.6,2.3,0.9,3.7,0.9c1.4,0,2.6-0.3,3.7-0.9c1.1-0.6,2-1.3,2.7-2.3c0.7-1,1.3-2.1,1.7-3.4
			c0.4-1.3,0.6-2.6,0.6-4.1v-0.8c0-1.4-0.2-2.7-0.6-4s-0.9-2.4-1.7-3.4s-1.6-1.8-2.7-2.3c-1.1-0.6-2.3-0.9-3.7-0.9
			c-1.4,0-2.6,0.3-3.7,0.9c-1.1,0.6-2,1.4-2.7,2.3c-0.7,1-1.3,2.1-1.7,3.4s-0.6,2.6-0.6,4V124z"/>
		<path class="st1" d="M733.7,110.7l0.1,4.4c0.4-0.7,1-1.4,1.5-2c0.6-0.6,1.2-1.1,2-1.6s1.5-0.8,2.3-1c0.8-0.2,1.7-0.3,2.6-0.3
			c1.3,0,2.4,0.2,3.5,0.5s1.9,0.9,2.6,1.7c0.7,0.8,1.3,1.8,1.6,3c0.4,1.2,0.6,2.7,0.6,4.4v16.8h-2.8v-16.9c0-1.3-0.1-2.5-0.4-3.3
			c-0.3-0.9-0.7-1.6-1.2-2.2c-0.5-0.5-1.2-0.9-1.9-1.2c-0.8-0.2-1.6-0.3-2.5-0.3c-1,0-1.9,0.2-2.8,0.5s-1.6,0.8-2.2,1.4
			s-1.2,1.2-1.7,2c-0.5,0.7-0.8,1.5-1.1,2.3v17.7H731v-25.9H733.7z"/>
	</g>
</g>
<g>
	<g>
		<path class="st2" d="M509.1,116.4c1.5,0.4,2.9,1.1,4.1,2.1c2.3,2,3.5,4.4,3.6,7.5c0.1,2.9-0.4,5.5-2.3,7.8c-2.4,3-5.7,4.3-9.5,4.2
			c-2.9,0-5.5-0.9-7.8-3c0,0.3-0.1,0.4-0.1,0.6c0.1,3.3,0.1,6.6,0.2,9.9c0,1.4-0.9,2.5-2.2,2.7c-1.3,0.1-2.5-0.8-2.6-2.2
			c-0.2-2.4-0.3-4.8-0.3-7.2c-0.1-4.2,0-8.3,0-12.5c0-4.6,0-9.2,0-13.7c0-2.7,0.5-5.4,1.6-7.9c2.9-6.2,9.7-7.3,14.1-5.4
			c3.5,1.5,5.3,4.2,5.5,7.9c0.3,3.6-1,6.6-3.9,8.8c-0.2,0.1-0.4,0.3-0.5,0.4C509.1,116.3,509.1,116.3,509.1,116.4z M497.2,120.4
			C497.2,120.4,497.2,120.4,497.2,120.4c0,2.7,0,5.4,0,8.2c0,1.1,0.4,2,1.1,2.7c2.2,2.1,4.7,3.2,7.8,2.6c4.1-0.8,6.2-4.9,5.6-8.5
			c-0.6-3.7-3.3-5.6-6-6.2c-0.7-0.1-1.5-0.2-2.2-0.3c-1.1-0.1-1.6-0.4-1.6-1.5c-0.1-1.7,0.2-2.1,1.5-2.2c2.4-0.3,4.1-1.5,5-3.7
			c0.8-2,0.8-4,0-5.9c-0.6-1.5-1.8-2.6-3.4-3c-2.8-0.7-5.3,0.6-6.5,3.4c-0.9,1.9-1.2,3.9-1.2,6C497.1,114.8,497.2,117.6,497.2,120.4
			z"/>
	</g>
</g>
</svg>
