<?xml version="1.0" encoding="utf-8"?>
<!-- Generator: Adobe Illustrator 23.0.2, SVG Export Plug-In . SVG Version: 6.00 Build 0)  -->
<svg version="1.1" id="Capa_1" xmlns="http://www.w3.org/2000/svg" xmlns:xlink="http://www.w3.org/1999/xlink" x="0px" y="0px"
	 viewBox="0 0 254.3 248.5" style="enable-background:new 0 0 254.3 248.5;" xml:space="preserve">
<style type="text/css">
	.st0{opacity:0.2;enable-background:new    ;}
	.st1{fill:#272425;}
	.st2{fill:#C64B46;}
	.st3{fill:#FFFFFF;}
	.st4{enable-background:new    ;}
</style>
<g>
	<g class="st0">
		<path class="st1" d="M228.9,49.5C188.3-0.6,114-7.3,65,35.5C19.6,75.2,13.2,144.2,50.4,191.7c35.5,45.4,98.2,56.4,146.5,28.7
			l40.8,20.7c3.3,1.6,6.8-1.6,5.6-5l-15.5-41.5C262.1,153.6,263.9,92.7,228.9,49.5z"/>
	</g>
	<g>
		<path class="st2" d="M207.8,47.3C168.2-1.7,96.3-9.2,47.3,30.4S-9.2,141.9,30.4,190.9c35.7,44.1,97.6,54.6,145.3,27.3l50,25.3
			l-19.1-51.1C241,151.4,242.8,90.5,207.8,47.3z"/>
		<path class="st3" d="M225.7,248.5c-0.8,0-1.5-0.2-2.3-0.5l-47.6-24.1c-23.7,12.9-51.4,17.3-78.2,12.4c-28-5.1-53.2-20.1-71.1-42.2
			C-14.8,142.9-6.9,67.8,44.2,26.5C68.9,6.5,100-2.7,131.6,0.7c31.7,3.3,60.1,18.8,80.1,43.5c35.2,43.4,35.3,105.7,0.6,149.2
			l18.1,48.4c0.7,1.9,0.2,4.1-1.3,5.5C228.1,248.1,226.9,248.5,225.7,248.5z M175.7,213.2c0.8,0,1.5,0.2,2.3,0.5l38.6,19.5
			l-14.6-39.1c-0.6-1.7-0.3-3.6,0.9-5c33.5-39.9,34-98.2,1.1-138.7c0,0,0,0,0,0c-18.3-22.6-44.4-36.8-73.4-39.8
			c-29-3-57.4,5.4-80.1,23.7c-22.6,18.3-36.8,44.4-39.8,73.4c-3,29,5.4,57.4,23.7,80.1c16.4,20.2,39.5,34,65.2,38.6
			c25.4,4.6,51.6,0.2,73.8-12.5C174,213.4,174.8,213.2,175.7,213.2z"/>
	</g>
</g>
<g class="st4">
	<path class="st3" d="M54.2,91.2l20.3,32.7h0.1V91.2h10v48.7H74l-20.3-32.6h-0.1v32.6h-10V91.2H54.2z"/>
	<path class="st3" d="M130.5,91.2v9h-25.7v10.4h23.6v8.3h-23.6v11.9h26.3v9h-37V91.2H130.5z"/>
	<path class="st3" d="M174,139.9l-8.3-33.1h-0.1l-8.1,33.1h-10.8l-12.9-48.7h10.7l7.7,33.1h0.1l8.5-33.1h10l8.3,33.6h0.1l8-33.6
		h10.5l-13.1,48.7H174z"/>
</g>
</svg>
