<?xml version="1.0" encoding="utf-8"?>
<!-- Generator: Adobe Illustrator 23.0.2, SVG Export Plug-In . SVG Version: 6.00 Build 0)  -->
<svg version="1.1" id="Capa_1" xmlns="http://www.w3.org/2000/svg" xmlns:xlink="http://www.w3.org/1999/xlink" x="0px" y="0px"
	 viewBox="0 0 115.2 126.1" style="enable-background:new 0 0 115.2 126.1;" xml:space="preserve">
<style type="text/css">
	.st0{fill:#3A3A3A;}
	.st1{opacity:7.000000e-02;enable-background:new    ;}
	.st2{fill:#FFFFFF;}
	.st3{fill:#A21724;}
	.st4{fill:#DC2028;}
	.st5{fill:#EFEFEF;}
	.st6{enable-background:new    ;}
</style>
<g>
	<g>
		<g>
			<g>
				<g>
					<g>
						<path class="st0" d="M1.9,121.7c2.1-2.3,3.6-4,3.6-4L1.9,121.7z"/>
					</g>
					<g>
						<path class="st0" d="M1.9,121.7L1.9,121.7L1.9,121.7z"/>
					</g>
					<g>
						<g>
							<path class="st0" d="M115.1,0.2L115.1,0.2L115.1,0.2z"/>
						</g>
						<g>
							<path class="st0" d="M45.7,3.5L2.2,56.8C0.8,58.6,0,60.7,0,63v57.7v3.1c0,0.9,0.1,1.6,0.2,2.3c0-0.3-0.3-2.3,1.7-4.4l0,0
								l109-119.4c2.1-2.3,3.8-2.2,4.2-2.1c-0.6-0.1-1.3-0.2-2.2-0.2l0,0H53.2C50.3,0,47.5,1.3,45.7,3.5z"/>
						</g>
					</g>
				</g>
			</g>
		</g>
		<g>
			<g class="st1">
				<polygon class="st2" points="8.6,49 28.7,92.3 46.6,72.7 25.7,28 				"/>
			</g>
			<g class="st1">
				<polygon class="st2" points="33.6,18.3 54.8,63.7 66,51.4 44.4,5 				"/>
			</g>
			<g>
				<path class="st3" d="M1.9,121.7L1.9,121.7l3.6-4C5.5,117.7,4,119.4,1.9,121.7l5.6-6.2v-0.1L1.9,121.7z"/>
			</g>
			<g>
				<path class="st3" d="M0.1,125.1c0,0.2,0.1,0.4,0.1,0.6c0,0.1,0,0.2,0.1,0.3c-0.1-0.4-0.1-2.3,1.7-4.3l0,0l0,0l0,0l0,0l-2,2.1
					C0,124.3,0,124.7,0.1,125.1z"/>
			</g>
			<g>
				<path class="st4" d="M1.9,121.7L1.9,121.7c2.1-2.3,3.6-4,3.6-4L1.9,121.7z"/>
			</g>
			<g>
				<path class="st4" d="M1.9,121.7L1.9,121.7L1.9,121.7z"/>
			</g>
		</g>
		<g>
			<g>
				<rect x="1" y="116.7" transform="matrix(0.6689 -0.7434 0.7434 0.6689 -86.1922 40.6376)" class="st5" width="3" height="0.8"/>
			</g>
			<g>
				<polygon class="st5" points="106.1,2.5 108.1,0.2 107.8,0 107.3,0 105.5,2 				"/>
			</g>
			<g>
				<rect x="5" y="112.2" transform="matrix(0.6688 -0.7434 0.7434 0.6688 -81.5479 42.1116)" class="st5" width="3" height="0.8"/>
			</g>
			<g>
				<rect x="81.2" y="27.5" transform="matrix(0.6688 -0.7435 0.7435 0.6688 6.6552 70.7655)" class="st5" width="3" height="0.8"/>
			</g>
			<g>
				<rect x="85.3" y="23" transform="matrix(0.669 -0.7433 0.7433 0.669 11.3657 72.2373)" class="st5" width="3" height="0.8"/>
			</g>
			<g>
				<rect x="49.2" y="63.2" transform="matrix(0.669 -0.7433 0.7433 0.669 -30.5038 58.7048)" class="st5" width="3" height="0.8"/>
			</g>
			<g>
				<rect x="77.2" y="31.9" transform="matrix(0.6688 -0.7435 0.7435 0.6688 2.0363 69.2147)" class="st5" width="3" height="0.8"/>
			</g>
			<g>
				
					<rect x="45.1" y="67.6" transform="matrix(0.6689 -0.7433 0.7433 0.6689 -35.1266 57.1578)" class="st5" width="3" height="0.8"/>
			</g>
			<g>
				<rect x="89.3" y="18.5" transform="matrix(0.669 -0.7433 0.7433 0.669 15.984 73.7868)" class="st5" width="3" height="0.8"/>
			</g>
			<g>
				
					<rect x="61.2" y="49.8" transform="matrix(0.6688 -0.7434 0.7434 0.6688 -16.5213 63.238)" class="st5" width="3" height="0.8"/>
			</g>
			<g>
				
					<rect x="73.2" y="36.4" transform="matrix(0.6689 -0.7434 0.7434 0.6689 -2.6133 67.7311)" class="st5" width="3" height="0.8"/>
			</g>
			<g>
				
					<rect x="65.2" y="45.3" transform="matrix(0.6689 -0.7433 0.7433 0.6689 -11.8808 64.6998)" class="st5" width="3" height="0.8"/>
			</g>
			<g>
				<rect x="69.2" y="40.9" transform="matrix(0.669 -0.7432 0.7432 0.669 -7.2671 66.2389)" class="st5" width="3" height="0.8"/>
			</g>
			<g>
				
					<rect x="41.1" y="72.1" transform="matrix(0.6688 -0.7434 0.7434 0.6688 -39.771 55.6972)" class="st5" width="3" height="0.8"/>
			</g>
			<g>
				
					<rect x="53.1" y="58.7" transform="matrix(0.6688 -0.7435 0.7435 0.6688 -25.8619 60.2019)" class="st5" width="3" height="0.8"/>
			</g>
			<g>
				
					<rect x="25.1" y="89.9" transform="matrix(0.6689 -0.7433 0.7433 0.6689 -58.2941 49.6405)" class="st5" width="3" height="0.8"/>
			</g>
			<g>
				
					<rect x="37.1" y="76.5" transform="matrix(0.6689 -0.7433 0.7433 0.6689 -44.3869 54.135)" class="st5" width="3" height="0.8"/>
			</g>
			<g>
				<rect x="21" y="94.4" transform="matrix(0.6689 -0.7433 0.7433 0.6689 -63.0151 48.143)" class="st5" width="3" height="0.8"/>
			</g>
			<g>
				<rect x="17" y="98.8" transform="matrix(0.6689 -0.7434 0.7434 0.6689 -67.6407 46.6044)" class="st5" width="3" height="0.8"/>
			</g>
			<g>
				
					<rect x="101.3" y="5.2" transform="matrix(0.6688 -0.7434 0.7434 0.6688 29.8996 78.2953)" class="st5" width="3" height="0.8"/>
			</g>
			<g>
				<rect x="97.3" y="9.6" transform="matrix(0.6688 -0.7434 0.7434 0.6688 25.2803 76.7457)" class="st5" width="3" height="0.8"/>
			</g>
			<g>
				<rect x="13" y="103.3" transform="matrix(0.6689 -0.7433 0.7433 0.6689 -72.275 45.1209)" class="st5" width="3" height="0.8"/>
			</g>
			<g>
				<rect x="33.1" y="81" transform="matrix(0.6689 -0.7433 0.7433 0.6689 -49.0305 52.6628)" class="st5" width="3" height="0.8"/>
			</g>
			<g>
				<rect x="93.3" y="14.1" transform="matrix(0.6688 -0.7435 0.7435 0.6688 20.645 75.2818)" class="st5" width="3" height="0.8"/>
			</g>
			<g>
				<rect x="9" y="107.8" transform="matrix(0.6689 -0.7433 0.7433 0.6689 -76.921 43.6479)" class="st5" width="3" height="0.8"/>
			</g>
			<g>
				
					<rect x="29.1" y="85.5" transform="matrix(0.6688 -0.7435 0.7435 0.6688 -53.6812 51.214)" class="st5" width="3" height="0.8"/>
			</g>
			<g>
				
					<rect x="57.2" y="54.2" transform="matrix(0.6689 -0.7434 0.7434 0.6689 -21.142 61.6882)" class="st5" width="3" height="0.8"/>
			</g>
			<g>
				
					<rect x="9.3" y="51.1" transform="matrix(0.6378 -0.7702 0.7702 0.6378 -35.7343 26.9541)" class="st5" width="3" height="0.7"/>
			</g>
			<g>
				
					<rect x="13.1" y="46.5" transform="matrix(0.6378 -0.7702 0.7702 0.6378 -30.816 28.2394)" class="st5" width="3" height="0.7"/>
			</g>
			<g>
				<rect x="39.9" y="14.1" transform="matrix(0.6378 -0.7702 0.7702 0.6378 3.8197 37.1146)" class="st5" width="3" height="0.7"/>
			</g>
			<g>
				<rect x="47.6" y="4.9" transform="matrix(0.6378 -0.7702 0.7702 0.6378 13.7391 39.7065)" class="st5" width="3" height="0.7"/>
			</g>
			<g>
				<path class="st5" d="M52.3,2.1c0.7-0.7,1.4-1.3,2.3-1.8L54.3,0h-0.8c-0.7,0.5-1.3,1-1.9,1.6L52.3,2.1z"/>
			</g>
			<g>
				<polygon class="st5" points="0,63.9 0,63.9 0,65.1 0.6,64.4 				"/>
			</g>
			<g>
				<rect x="43.8" y="9.5" transform="matrix(0.6378 -0.7702 0.7702 0.6378 8.8212 38.4202)" class="st5" width="3" height="0.7"/>
			</g>
			<g>
				
					<rect x="24.6" y="32.6" transform="matrix(0.6379 -0.7702 0.7702 0.6379 -15.958 32.0336)" class="st5" width="3" height="0.7"/>
			</g>
			<g>
				<rect x="17" y="41.9" transform="matrix(0.6379 -0.7702 0.7702 0.6379 -25.8158 29.5452)" class="st5" width="3" height="0.7"/>
			</g>
			<g>
				
					<rect x="1.7" y="60.3" transform="matrix(0.6377 -0.7703 0.7703 0.6377 -45.5864 24.4247)" class="st5" width="3" height="0.8"/>
			</g>
			<g>
				
					<rect x="20.8" y="37.2" transform="matrix(0.6378 -0.7702 0.7702 0.6378 -20.8756 30.7487)" class="st5" width="3" height="0.7"/>
			</g>
			<g>
				<rect x="5.5" y="55.7" transform="matrix(0.6378 -0.7702 0.7702 0.6378 -40.654 25.6686)" class="st5" width="3" height="0.7"/>
			</g>
			<g>
				<rect x="36" y="18.7" transform="matrix(0.6378 -0.7702 0.7702 0.6378 -1.0983 35.8286)" class="st5" width="3" height="0.7"/>
			</g>
			<g>
				
					<rect x="32.3" y="23.4" transform="matrix(0.6379 -0.7702 0.7702 0.6379 -6.0387 34.6255)" class="st5" width="3" height="0.7"/>
			</g>
			<g>
				<rect x="28.5" y="28" transform="matrix(0.6378 -0.7702 0.7702 0.6378 -10.97 33.3836)" class="st5" width="3" height="0.8"/>
			</g>
		</g>
	</g>
</g>
<g class="st6">
	<path class="st2" d="M19.4,66c-0.6-1.1-0.9-2.2-1.1-3.3c-0.1-1.1,0-2.3,0.4-3.4s1-2.2,1.9-3.2c0.9-1,1.9-1.8,3-2.3
		c1.1-0.5,2.2-0.7,3.3-0.7c1.1,0,2.3,0.3,3.4,0.7c1.1,0.5,2.2,1.1,3.2,2c1,0.9,1.7,1.8,2.3,2.9s0.9,2.1,1,3.2c0.1,1.1,0,2.2-0.4,3.4
		c-0.4,1.1-1,2.2-1.9,3.2c-0.9,1-1.9,1.8-3,2.3c-1.1,0.5-2.2,0.7-3.3,0.7s-2.2-0.2-3.3-0.7s-2.1-1.1-3.1-2
		C20.7,68.1,19.9,67.1,19.4,66z M26.2,67.3c0.6,0.3,1.3,0.6,2,0.7s1.4,0,2-0.2c0.7-0.2,1.3-0.7,1.9-1.3c0.6-0.7,1-1.3,1.1-2
		c0.2-0.7,0.2-1.4,0-2c-0.2-0.7-0.5-1.3-0.9-1.9s-0.9-1.2-1.4-1.7c-0.6-0.5-1.2-1-1.9-1.3s-1.3-0.6-2-0.7c-0.7-0.1-1.4,0-2,0.2
		c-0.7,0.2-1.3,0.7-1.9,1.3c-0.6,0.7-1,1.3-1.1,2c-0.2,0.7-0.2,1.4,0,2c0.2,0.7,0.5,1.3,0.9,1.9s0.9,1.2,1.5,1.7
		C24.9,66.5,25.5,67,26.2,67.3z"/>
	<path class="st2" d="M31.9,44.2L42.7,54l5.8-6.5l2.5,2.2l-8.4,9.4L29.2,47.2L31.9,44.2z"/>
	<path class="st2" d="M45,29.7c0.8-0.9,1.6-1.5,2.6-2c0.9-0.5,1.9-0.8,2.9-0.8c1,0,2.1,0.1,3.2,0.6c1.1,0.4,2.2,1.1,3.3,2.1
		c1,0.9,1.7,1.8,2.3,2.8c0.6,1,1,2,1.1,3c0.1,1,0,2.1-0.3,3.1c-0.3,1.1-1,2.1-1.9,3.1l-5.2,5.7L39.8,35.4L45,29.7z M55.6,39.6
		c0.4-0.4,0.7-0.9,0.9-1.4c0.2-0.5,0.3-1.1,0.3-1.7c0-0.6-0.2-1.2-0.6-1.9c-0.3-0.6-0.9-1.3-1.6-2c-0.7-0.6-1.3-1.1-2-1.4
		c-0.7-0.4-1.3-0.6-2-0.6c-0.7,0-1.3,0.1-1.9,0.4c-0.6,0.3-1.3,0.8-1.9,1.5l-1.9,2.1l8.4,7.5L55.6,39.6z"/>
</g>
</svg>
