<?xml version="1.0" encoding="utf-8"?>
<!-- Generator: Adobe Illustrator 23.0.1, SVG Export Plug-In . SVG Version: 6.00 Build 0)  -->
<svg version="1.1" id="Capa_1" xmlns="http://www.w3.org/2000/svg" xmlns:xlink="http://www.w3.org/1999/xlink" x="0px" y="0px"
	 viewBox="0 0 515.04 206.19" style="enable-background:new 0 0 515.04 206.19;" xml:space="preserve">
<style type="text/css">
	.st0{opacity:0.54;}
	.st1{fill:none;stroke:#1E447F;stroke-miterlimit:10;stroke-dasharray:4,3;}
	.st2{fill:#1E447F;}
</style>
<g class="st0">
	<g>
		<path class="st1" d="M130.09,112.39c-11.04-2.89-40.02,5.94-49.6,37.42c-8.99,29.54-44.67,37.99-62.96,33.8"/>
		<g>
			<polygon class="st2" points="9.73,180.28 22.63,180.21 18.18,183.68 18.99,189.26 			"/>
		</g>
	</g>
</g>
<g class="st0">
	<g>
		<path class="st1" d="M503,103.03c8.65-17.3,4.04-66.75-48.46-56.54c-67.69,13.17-88.58-4.27-92.27-29.96"/>
		<g>
			<polygon class="st2" points="361.64,8.08 367.55,19.54 362.44,17.15 357.83,20.4 			"/>
		</g>
	</g>
</g>
<g class="st0">
	<path class="st2" d="M148.1,118.04c-1.46,3.48-3.3,7.67-5.46,8.5c-0.49,0.18-0.99,0.18-1.48-0.55c-0.52-0.78-1.04-1.69-0.52-3.22
		c0.78-2.34,2.99-3.9,5.56-4.91c0.26-0.6,0.52-1.25,0.81-1.87c-0.81,0.83-1.79,1.51-2.83,1.43c-1.87-0.16-1.92-2.05-1.33-3.77
		c0.57-1.66,1.85-4.24,3.54-6.58c0.21-0.29,0.47-0.26,0.65,0c0.62,0.83,0.47,1.92-0.49,3.46c-0.94,1.51-1.51,2.57-2,3.8
		c-0.52,1.27-0.47,2.18,0.13,2.24c1.01,0.08,2.31-1.59,3.64-3.85c1.12-1.92,2.24-4.26,3.15-5.59c0.23-0.34,0.42-0.39,0.65-0.18
		c0.36,0.47,0.57,1.59-0.1,2.91c-0.78,1.51-2.37,4.63-3.46,7.15c2.03-1.09,3.56-2.57,4.6-4c0.13-0.18,0.36-0.21,0.42,0.05
		c0.05,0.23-0.03,0.83-0.47,1.51C152.08,116.17,150.26,117.16,148.1,118.04z M141.68,125.12c0.34,0.49,2.47-2.34,4.08-6.16
		C142.38,120.9,141.21,124.47,141.68,125.12z"/>
	<path class="st2" d="M169.47,117.52c-1.69,0-2.34-1.04-2.13-2.55c-0.91,1.2-2.24,2.57-3.72,2.44c-1.85-0.16-1.9-2.05-1.33-3.77
		c0.21-0.65,0.55-1.43,0.99-2.24c-0.73,0.34-1.53,0.55-2.34,0.47c-0.6,2.18-2.18,4.76-4.03,5.38c-0.96,0.31-2.29,0.21-3.3-1.14
		c-1.14-1.53-0.75-3.77,0.39-5.85c0.99-1.79,2.6-3.25,4.16-3.35c0.78-0.05,1.22,0.18,1.77,0.88c0.62,0.78,1.35,0.94,1.22,2.86
		c0,0.16-0.03,0.31-0.05,0.52c1.48-0.03,2.91-1.25,3.8-2.68c0.26-0.42,0.68-0.99,0.99-1.43c0.21-0.29,0.44-0.26,0.65-0.03
		c0.57,0.86,0.44,1.95-0.49,3.48s-1.53,2.57-2.03,3.8c-0.52,1.27-0.44,2.18,0.13,2.24c1.01,0.08,2.47-1.69,3.85-3.95
		c1.61-2.63,2.37-4.42,3.17-5.54c0.23-0.34,0.44-0.39,0.65-0.16c0.39,0.47,0.6,1.59-0.03,2.89c-0.57,1.17-1.85,3.07-2.44,4.42
		c-0.68,1.51-0.57,2.57,0.36,2.52c1.07-0.05,2.42-1.77,3.41-3.59c0.13-0.23,0.34-0.26,0.47-0.03c0.13,0.23,0.13,0.91-0.23,1.61
		C172.59,116.22,171,117.52,169.47,117.52z M157.59,108.84c-0.68,0.57-1.46,1.46-2.03,2.47c-1.09,1.95-1.46,4.32-0.78,4.91
		c0.68,0.6,2.29-0.34,3.59-2.7c0.42-0.75,0.68-1.46,0.91-2.11C158.39,110.92,157.59,109.91,157.59,108.84z M158.86,108.89
		c-0.08,0.7,0.13,1.35,0.6,1.77c0.21-0.75,0.23-1.4,0.18-1.85C159.54,107.98,158.94,108.16,158.86,108.89z"/>
	<path class="st2" d="M186.26,108.48c0.55,1.09-0.49,2.47-1.01,3.87c-0.1,0.31-0.21,0.39-0.55,0.21c-0.62-0.31-0.99-1.09-0.62-2.26
		c0.29-0.94,1.07-2.05,0.7-2.34c-0.44-0.36-2.39,1.3-3.56,3.67c-1.43,2.94-0.88,5.1,0.65,5.12c2.18,0.03,4.06-2.05,5.12-3.69
		c0.13-0.21,0.36-0.23,0.47,0.03c0.08,0.21-0.03,0.86-0.47,1.56c-0.99,1.53-3.04,2.81-5.02,2.83c-3.3,0.05-4.42-3.17-2.73-6.53
		c1.66-3.28,4.29-4.68,5.59-3.9C185.54,107.46,185.95,107.88,186.26,108.48z"/>
	<path class="st2" d="M195.86,107.04c0.23-0.34,0.44-0.39,0.62-0.16c0.39,0.47,0.6,1.59-0.03,2.89c-0.57,1.17-1.87,3.12-2.5,4.5
		c-0.65,1.46-0.68,2.57,0.21,2.52c1.07-0.05,2.5-1.82,3.41-3.61c0.13-0.23,0.31-0.26,0.42-0.03c0.1,0.23,0.1,0.88-0.23,1.61
		c-0.68,1.43-2.31,2.86-3.74,2.78c-1.4-0.08-2.13-0.91-2.13-2.13c-0.83,1.07-2,2.03-3.25,2.03c-2.42,0-2.91-3.3-0.75-6.45
		c2.11-3.07,4.16-4.24,5.46-4.24c1.12,0,1.64,0.86,1.59,1.87C195.26,108.01,195.57,107.46,195.86,107.04z M193.78,108.11
		c-0.83-0.08-2.73,1.61-4.16,3.93c-1.38,2.24-1.72,4.52-0.7,4.55c1.07,0.03,2.42-1.64,3.74-3.93
		C194.3,109.8,194.53,108.19,193.78,108.11z"/>
	<path class="st2" d="M205.04,106.89c0.86,0.13,1.66,1.4,1.01,2.76c-0.55,1.14-1.82,3.07-2.42,4.42c-0.68,1.51-0.52,2.73,0.42,2.68
		c1.07-0.05,2.34-1.77,3.33-3.59c0.13-0.23,0.31-0.23,0.44-0.03c0.18,0.29,0.13,0.88-0.23,1.64c-0.7,1.46-2.34,2.78-3.85,2.78
		c-2.21,0-2.73-1.61-1.98-3.87c0.86-2.55,3.15-5.3,2.68-5.51c-0.26-0.1-1.77,0.62-3.43,2.44c-1.53,1.66-2.68,4.16-3.8,6.6
		c-0.1,0.23-0.26,0.34-0.49,0.1c-0.52-0.52-0.68-1.38-0.26-2.68c0.52-1.64,2.52-5.25,4.16-7.67c0.18-0.29,0.39-0.26,0.55,0
		c0.39,0.65,0.36,1.53,0.08,2.47C202.41,108.19,204.18,106.76,205.04,106.89z"/>
	<path class="st2" d="M222.14,107.04c0.23-0.34,0.44-0.39,0.62-0.16c0.39,0.47,0.6,1.59-0.03,2.89c-0.57,1.17-1.87,3.12-2.5,4.5
		c-0.65,1.46-0.68,2.57,0.21,2.52c1.07-0.05,2.5-1.82,3.41-3.61c0.13-0.23,0.31-0.26,0.42-0.03c0.1,0.23,0.1,0.88-0.23,1.61
		c-0.68,1.43-2.31,2.86-3.74,2.78c-1.4-0.08-2.13-0.91-2.13-2.13c-0.83,1.07-2,2.03-3.25,2.03c-2.42,0-2.91-3.3-0.75-6.45
		c2.11-3.07,4.16-4.24,5.46-4.24c1.12,0,1.64,0.86,1.59,1.87C221.55,108.01,221.86,107.46,222.14,107.04z M220.06,108.11
		c-0.83-0.08-2.73,1.61-4.16,3.93c-1.38,2.24-1.72,4.52-0.7,4.55c1.07,0.03,2.42-1.64,3.74-3.93
		C220.58,109.8,220.82,108.19,220.06,108.11z"/>
	<path class="st2" d="M233.74,113.18c0.16-0.36,0.44-0.26,0.49,0c0.05,0.23,0.1,0.91-0.34,1.72c-0.99,1.79-2.76,2.65-4.63,2.78
		c-1.66,0.1-2.76-0.13-3.67-0.96c-0.55-0.49-0.81-1.09-0.88-1.74c-1.22,2.24-2.55,4.89-3.8,7.77c-0.1,0.23-0.29,0.29-0.44,0.05
		c-0.39-0.55-0.52-1.27-0.03-2.86c0.78-2.52,5.15-10.76,6.79-12.95c0.26-0.34,0.49-0.29,0.62,0.03c0.13,0.34,0.18,0.73,0.16,1.17
		c1.14-0.99,2.68-1.72,3.8-0.55c1.25,1.33,0.68,3.64-0.29,5.77c-0.78,1.72-1.74,2.96-2.73,3.56
		C231.35,116.82,232.91,114.95,233.74,113.18z M226.12,116.17c0.83,0.68,2.52-1.22,3.74-3.72c1.01-2.08,1.3-4.24,0.65-4.55
		c-0.62-0.31-2.24,0.99-3.46,2.99c-0.29,0.47-0.57,0.94-0.88,1.48C225.52,114.01,225.39,115.57,226.12,116.17z"/>
	<path class="st2" d="M243.78,113.18c0.16-0.36,0.44-0.26,0.49,0c0.05,0.23,0.1,0.91-0.34,1.72c-0.99,1.79-2.76,2.65-4.63,2.78
		c-1.66,0.1-2.76-0.13-3.67-0.96c-0.55-0.49-0.81-1.09-0.88-1.74c-1.22,2.24-2.55,4.89-3.8,7.77c-0.1,0.23-0.29,0.29-0.44,0.05
		c-0.39-0.55-0.52-1.27-0.03-2.86c0.78-2.52,5.15-10.76,6.79-12.95c0.26-0.34,0.49-0.29,0.62,0.03c0.13,0.34,0.18,0.73,0.16,1.17
		c1.14-0.99,2.68-1.72,3.8-0.55c1.25,1.33,0.68,3.64-0.29,5.77c-0.78,1.72-1.74,2.96-2.73,3.56
		C241.38,116.82,242.94,114.95,243.78,113.18z M236.16,116.17c0.83,0.68,2.52-1.22,3.74-3.72c1.01-2.08,1.3-4.24,0.65-4.55
		c-0.62-0.31-2.24,0.99-3.46,2.99c-0.29,0.47-0.57,0.94-0.88,1.48C235.56,114.01,235.43,115.57,236.16,116.17z"/>
	<path class="st2" d="M245.75,116.69c1.25,0.1,3.07-1.77,4.08-3.77c0.18-0.34,0.47-0.36,0.57,0c0.13,0.42,0.03,0.99-0.26,1.61
		c-0.36,0.78-2.26,2.94-4.34,2.89c-1.79-0.05-2.76-1.3-2.16-4.11c0.96-4.52,3.93-9.23,6.58-11.99c0.39-0.42,0.75-0.47,1.12-0.13
		c0.75,0.68,0.91,1.64,0.6,2.86c-0.81,3.2-3.72,6.32-6.03,7.83C244.87,114.43,244.58,116.59,245.75,116.69z M251.06,103.51
		c-0.34-0.21-2.26,2.68-4.06,6.01c-0.23,0.42-0.44,0.83-0.62,1.25C249.94,107.88,251.39,103.72,251.06,103.51z"/>
	<path class="st2" d="M254.38,118.04c-1.46,3.48-3.3,7.67-5.46,8.5c-0.49,0.18-0.99,0.18-1.48-0.55c-0.52-0.78-1.04-1.69-0.52-3.22
		c0.78-2.34,2.99-3.9,5.56-4.91c0.26-0.6,0.52-1.25,0.81-1.87c-0.81,0.83-1.79,1.51-2.83,1.43c-1.87-0.16-1.92-2.05-1.33-3.77
		c0.57-1.66,1.85-4.24,3.54-6.58c0.21-0.29,0.47-0.26,0.65,0c0.62,0.83,0.47,1.92-0.49,3.46c-0.94,1.51-1.51,2.57-2,3.8
		c-0.52,1.27-0.47,2.18,0.13,2.24c1.01,0.08,2.31-1.59,3.64-3.85c1.12-1.92,2.24-4.26,3.15-5.59c0.23-0.34,0.42-0.39,0.65-0.18
		c0.36,0.47,0.57,1.59-0.1,2.91c-0.78,1.51-2.37,4.63-3.46,7.15c2.03-1.09,3.56-2.57,4.6-4c0.13-0.18,0.36-0.21,0.42,0.05
		c0.05,0.23-0.03,0.83-0.47,1.51C258.36,116.17,256.54,117.16,254.38,118.04z M247.96,125.12c0.34,0.49,2.47-2.34,4.08-6.16
		C248.66,120.9,247.49,124.47,247.96,125.12z"/>
	<path class="st2" d="M274.17,107.04c0.23-0.34,0.44-0.39,0.62-0.16c0.39,0.47,0.6,1.59-0.03,2.89c-0.57,1.17-1.87,3.12-2.5,4.5
		c-0.65,1.46-0.68,2.57,0.21,2.52c1.07-0.05,2.5-1.82,3.41-3.61c0.13-0.23,0.31-0.26,0.42-0.03c0.1,0.23,0.1,0.88-0.23,1.61
		c-0.68,1.43-2.31,2.86-3.74,2.78c-1.4-0.08-2.13-0.91-2.13-2.13c-0.83,1.07-2,2.03-3.25,2.03c-2.42,0-2.91-3.3-0.75-6.45
		c2.11-3.07,4.16-4.24,5.46-4.24c1.12,0,1.64,0.86,1.59,1.87C273.57,108.01,273.88,107.46,274.17,107.04z M272.09,108.11
		c-0.83-0.08-2.73,1.61-4.16,3.93c-1.38,2.24-1.72,4.52-0.7,4.55c1.07,0.03,2.42-1.64,3.74-3.93
		C272.61,109.8,272.84,108.19,272.09,108.11z"/>
	<path class="st2" d="M283.35,106.89c0.86,0.13,1.66,1.4,1.01,2.76c-0.55,1.14-1.82,3.07-2.42,4.42c-0.68,1.51-0.52,2.73,0.42,2.68
		c1.07-0.05,2.34-1.77,3.33-3.59c0.13-0.23,0.31-0.23,0.44-0.03c0.18,0.29,0.13,0.88-0.23,1.64c-0.7,1.46-2.34,2.78-3.85,2.78
		c-2.21,0-2.73-1.61-1.98-3.87c0.86-2.55,3.15-5.3,2.68-5.51c-0.26-0.1-1.77,0.62-3.43,2.44c-1.53,1.66-2.68,4.16-3.8,6.6
		c-0.1,0.23-0.26,0.34-0.49,0.1c-0.52-0.52-0.68-1.38-0.26-2.68c0.52-1.64,2.52-5.25,4.16-7.67c0.18-0.29,0.39-0.26,0.55,0
		c0.39,0.65,0.36,1.53,0.08,2.47C280.72,108.19,282.49,106.76,283.35,106.89z"/>
	<path class="st2" d="M290.29,118.04c-1.46,3.48-3.3,7.67-5.46,8.5c-0.49,0.18-0.99,0.18-1.48-0.55c-0.52-0.78-1.04-1.69-0.52-3.22
		c0.78-2.34,2.99-3.9,5.56-4.91c0.26-0.6,0.52-1.25,0.81-1.87c-0.81,0.83-1.79,1.51-2.83,1.43c-1.87-0.16-1.92-2.05-1.33-3.77
		c0.57-1.66,1.85-4.24,3.54-6.58c0.21-0.29,0.47-0.26,0.65,0c0.62,0.83,0.47,1.92-0.49,3.46c-0.94,1.51-1.51,2.57-2,3.8
		c-0.52,1.27-0.47,2.18,0.13,2.24c1.01,0.08,2.31-1.59,3.64-3.85c1.12-1.92,2.24-4.26,3.15-5.59c0.23-0.34,0.42-0.39,0.65-0.18
		c0.36,0.47,0.57,1.59-0.1,2.91c-0.78,1.51-2.37,4.63-3.46,7.15c2.03-1.09,3.56-2.57,4.6-4c0.13-0.18,0.36-0.21,0.42,0.05
		c0.05,0.23-0.03,0.83-0.47,1.51C294.27,116.17,292.45,117.16,290.29,118.04z M283.87,125.12c0.34,0.49,2.47-2.34,4.08-6.16
		C284.57,120.9,283.4,124.47,283.87,125.12z"/>
	<path class="st2" d="M304.82,115.31c0,0.29-0.03,0.57-0.05,0.88c0.99-0.65,2.03-1.95,2.7-3.3c0.16-0.31,0.42-0.34,0.55,0.03
		c0.13,0.39-0.03,0.96-0.26,1.56c-0.26,0.62-1.56,2.16-3.12,2.7c-0.42,2.63-1.56,5.51-2.81,7.07c-0.88,1.09-1.53,1.2-2.31,0.52
		c-0.65-0.55-1.43-1.56-1.14-3.77c0.73-5.8,6.71-15.76,9.59-20.07c0.21-0.31,0.55-0.29,0.65,0.03c0.31,0.88,0.23,2-0.88,3.9
		c-1.07,1.77-2.86,4.71-4.26,7.44C304.46,112.61,304.85,113.6,304.82,115.31z M299.8,123.76c0.57,0.75,2.52-2.83,3.38-6.4
		c-0.75-0.08-1.27-0.42-1.59-1.04C300.14,119.79,299.21,123.01,299.8,123.76z M303.57,114.74c0.03-0.96-0.23-1.77-0.42-1.69
		c-0.26,0.1-0.49,1.48-0.52,2.08c-0.03,0.83,0.21,1.38,0.7,1.48C303.47,115.99,303.55,115.34,303.57,114.74z"/>
	<path class="st2" d="M307.14,113.68c0.65-1.9,2.37-4.97,3.33-6.32c0.23-0.31,0.42-0.39,0.62-0.16c0.39,0.42,0.6,1.53-0.03,2.83
		c-0.55,1.14-1.64,2.91-2.18,4.21c-0.62,1.51-0.57,2.52,0.26,2.47c1.17-0.05,2.6-1.77,3.38-3.56c0.13-0.23,0.31-0.21,0.42,0
		c0.21,0.42,0.13,0.96-0.18,1.61c-0.78,1.61-2.42,2.7-3.87,2.7C306.9,117.47,306.41,115.81,307.14,113.68z M312.93,106.89
		c-0.34,0.36-1.07,0.29-1.46-0.39c-0.42-0.7-0.29-1.48,0.13-1.92c0.42-0.44,1.17-0.13,1.51,0.57
		C313.45,105.82,313.27,106.53,312.93,106.89z"/>
	<path class="st2" d="M314.62,116.69c1.25,0.1,3.07-1.77,4.08-3.77c0.18-0.34,0.47-0.36,0.57,0c0.13,0.42,0.03,0.99-0.26,1.61
		c-0.36,0.78-2.26,2.94-4.34,2.89c-1.79-0.05-2.76-1.3-2.16-4.11c0.96-4.52,3.93-9.23,6.58-11.99c0.39-0.42,0.75-0.47,1.12-0.13
		c0.75,0.68,0.91,1.64,0.6,2.86c-0.81,3.2-3.72,6.32-6.03,7.83C313.74,114.43,313.45,116.59,314.62,116.69z M319.93,103.51
		c-0.34-0.21-2.26,2.68-4.06,6.01c-0.23,0.42-0.44,0.83-0.62,1.25C318.81,107.88,320.27,103.72,319.93,103.51z"/>
	<path class="st2" d="M319.77,106.29c-0.26-0.36-0.1-0.55,0.29-0.52c0.73,0.03,1.46-0.03,2.16-0.1c0.81-1.43,1.53-2.65,1.98-3.22
		c0.23-0.34,0.49-0.31,0.62,0c0.29,0.73,0.29,1.59-0.34,2.94c1.01-0.03,1.4,0.44,1.61,0.78c0.18,0.31,0.08,0.49-0.31,0.49
		c-0.57-0.08-1.38,0-2.03,0.1c-1.01,1.74-2.5,4.26-3.48,6.45c-0.86,1.9-0.57,3.51,0.52,3.56c1.17,0.05,2.65-1.79,3.61-3.74
		c0.16-0.31,0.44-0.36,0.55,0c0.13,0.42,0,0.88-0.26,1.48c-0.34,0.75-2.05,3.04-4.13,2.96c-1.72-0.05-3.09-1.98-1.85-4.97
		c0.55-1.3,1.64-3.48,2.76-5.54C320.58,106.97,319.98,106.58,319.77,106.29z"/>
	<path class="st2" d="M336.96,117.47c-1.98-0.1-2.76-1.87-2.11-3.98c0.55-1.74,2.11-3.67,3.22-4.91c-1.14,0.73-2.31,0.99-3.12,0.99
		c-2.16,4.52-4.97,7.8-8.06,7.85c-3.3,0.05-4.42-3.17-2.73-6.5c1.64-3.22,4.29-4.68,5.59-3.93c0.65,0.39,1.12,0.75,1.53,1.33
		c0.44,0.62,0.18,2.16-0.86,3.48c-1.22,1.59-2.96,2.24-4.78,0.78c-0.83,2.37-0.18,4.06,1.14,4.11c2.86,0.13,5.72-3.98,7.15-7.28
		c-2-0.83,0.55-4.29,1.64-4.34c0.81-0.03,0.55,1.56-0.1,3.25c0.91-0.13,1.82-0.55,2.83-1.22c0.31-0.21,0.55-0.34,0.73-0.08
		c0.52,0.57,1.17,1.82,0.39,2.68c-1.22,1.35-2.55,3.12-2.99,4.52c-0.44,1.43-0.13,2.47,0.65,2.5c1.09,0.05,2.42-1.66,3.25-3.59
		c0.1-0.21,0.29-0.26,0.39-0.03c0.13,0.29,0.18,0.96-0.13,1.69C339.95,116.35,338.39,117.55,336.96,117.47z M328.95,110.74
		c0.83-1.07,1.38-2.42,1.04-2.7c-0.57-0.49-2.7,1.14-3.9,3.54c-0.08,0.13-0.13,0.31-0.21,0.44
		C327.16,112.79,328.17,111.73,328.95,110.74z"/>
	<path class="st2" d="M359.16,117.55c-2-0.1-2.81-1.85-2.16-3.98c0.52-1.74,2.16-3.67,3.25-4.94c-1.17,0.75-2.31,1.01-3.15,1.01
		c-0.73,1.17-1.79,2.05-3.22,2.11c-0.52,2.21-2.13,4.89-4.06,5.51c-0.94,0.31-2.29,0.26-3.3-1.12c-1.12-1.53-0.73-3.8,0.39-5.85
		c0.99-1.79,2.63-3.25,4.19-3.38c0.78-0.08,1.2,0.18,1.74,0.88c0.62,0.81,1.38,0.96,1.25,2.86c0,0.13-0.05,0.26-0.05,0.42
		c0.73-0.13,1.48-0.62,2.03-1.61c-1.92-0.83,0.62-4.26,1.66-4.29c0.91-0.03,0.44,1.87-0.08,3.25c0.91-0.13,1.82-0.57,2.81-1.25
		c0.34-0.23,0.57-0.31,0.78-0.05c0.47,0.55,1.12,1.77,0.34,2.65c-1.22,1.38-2.47,3.15-2.94,4.52c-0.49,1.43-0.18,2.44,0.65,2.5
		c1.04,0.08,2.37-1.66,3.2-3.56c0.1-0.23,0.29-0.29,0.39-0.05c0.13,0.31,0.23,1.01-0.08,1.69
		C362.1,116.43,360.59,117.63,359.16,117.55z M350.5,108.87c-0.7,0.6-1.43,1.46-2,2.44c-1.12,1.98-1.48,4.34-0.81,4.94
		s2.29-0.34,3.59-2.7c0.42-0.78,0.73-1.48,0.91-2.13C351.18,110.84,350.53,109.8,350.5,108.87z M352.56,108.84
		c-0.1-0.86-0.68-0.65-0.78,0.1c-0.08,0.65,0.16,1.3,0.65,1.72C352.58,109.91,352.61,109.28,352.56,108.84z"/>
	<path class="st2" d="M375.78,108.48c0.55,1.09-0.49,2.47-1.01,3.87c-0.1,0.31-0.21,0.39-0.55,0.21c-0.62-0.31-0.99-1.09-0.62-2.26
		c0.29-0.94,1.07-2.05,0.7-2.34c-0.44-0.36-2.39,1.3-3.56,3.67c-1.43,2.94-0.88,5.1,0.65,5.12c2.18,0.03,4.06-2.05,5.12-3.69
		c0.13-0.21,0.36-0.23,0.47,0.03c0.08,0.21-0.03,0.86-0.47,1.56c-0.99,1.53-3.04,2.81-5.02,2.83c-3.3,0.05-4.42-3.17-2.73-6.53
		c1.66-3.28,4.29-4.68,5.59-3.9C375.05,107.46,375.46,107.88,375.78,108.48z"/>
	<path class="st2" d="M382.54,117.5c-2.18,0-2.73-1.59-1.95-3.85c0.86-2.52,3.12-5.23,2.7-5.46c-0.36-0.21-3.2,1.56-4.71,4.03
		c-0.94,1.53-1.9,3.35-2.52,4.94c-0.1,0.23-0.29,0.29-0.44,0.1c-0.42-0.47-0.65-1.2-0.1-2.76c0.91-2.6,6.32-11.75,8.42-14.38
		c0.23-0.31,0.49-0.29,0.62,0.03c0.34,0.75,0.26,2.05-0.73,3.69c-0.62,1.04-2,3.15-3.12,4.89c1.07-1.04,2.42-1.9,3.12-1.82
		c0.88,0.1,1.69,1.4,1.01,2.73c-0.57,1.14-1.82,3.04-2.42,4.39c-0.65,1.51-0.52,2.73,0.44,2.68c1.07-0.05,2.5-1.92,3.3-3.59
		c0.1-0.23,0.36-0.23,0.47-0.03c0.13,0.29,0.13,0.83-0.26,1.61C385.66,116.2,384.07,117.5,382.54,117.5z"/>
	<path class="st2" d="M395.17,107.04c0.23-0.34,0.44-0.39,0.62-0.16c0.39,0.47,0.6,1.59-0.03,2.89c-0.57,1.17-1.87,3.12-2.5,4.5
		c-0.65,1.46-0.68,2.57,0.21,2.52c1.07-0.05,2.5-1.82,3.41-3.61c0.13-0.23,0.31-0.26,0.42-0.03c0.1,0.23,0.1,0.88-0.23,1.61
		c-0.68,1.43-2.31,2.86-3.74,2.78c-1.4-0.08-2.13-0.91-2.13-2.13c-0.83,1.07-2,2.03-3.25,2.03c-2.42,0-2.91-3.3-0.75-6.45
		c2.11-3.07,4.16-4.24,5.46-4.24c1.12,0,1.64,0.86,1.59,1.87C394.57,108.01,394.89,107.46,395.17,107.04z M393.09,108.11
		c-0.83-0.08-2.73,1.61-4.16,3.93c-1.38,2.24-1.72,4.52-0.7,4.55c1.07,0.03,2.42-1.64,3.74-3.93
		C393.61,109.8,393.85,108.19,393.09,108.11z"/>
	<path class="st2" d="M404.35,106.89c0.86,0.13,1.66,1.4,1.01,2.76c-0.55,1.14-1.82,3.07-2.42,4.42c-0.68,1.51-0.52,2.73,0.42,2.68
		c1.07-0.05,2.34-1.77,3.33-3.59c0.13-0.23,0.31-0.23,0.44-0.03c0.18,0.29,0.13,0.88-0.23,1.64c-0.7,1.46-2.34,2.78-3.85,2.78
		c-2.21,0-2.73-1.61-1.98-3.87c0.86-2.55,3.15-5.3,2.68-5.51c-0.26-0.1-1.77,0.62-3.43,2.44c-1.53,1.66-2.68,4.16-3.8,6.6
		c-0.1,0.23-0.26,0.34-0.49,0.1c-0.52-0.52-0.68-1.38-0.26-2.68c0.52-1.64,2.52-5.25,4.16-7.67c0.18-0.29,0.39-0.26,0.55,0
		c0.39,0.65,0.36,1.53,0.08,2.47C401.72,108.19,403.49,106.76,404.35,106.89z"/>
	<path class="st2" d="M412.07,118.15c-1.43,3.48-3.28,7.62-5.38,8.45c-0.52,0.21-1.04,0.13-1.51-0.55
		c-0.55-0.78-1.01-1.69-0.52-3.22c0.75-2.34,2.99-3.93,5.56-4.91c0.26-0.57,0.49-1.2,0.75-1.79c-0.75,0.75-1.66,1.3-2.63,1.3
		c-2.39,0-2.86-3.25-0.75-6.37c2.03-3.02,4.13-4.19,5.46-4.19c1.04,0,1.56,0.81,1.53,1.72c0.31-0.52,0.6-0.99,0.86-1.43
		c0.21-0.36,0.47-0.39,0.65-0.16c0.39,0.47,0.6,1.59-0.05,2.86c-0.78,1.56-2.42,4.71-3.51,7.23c2.18-1.09,3.61-2.52,4.65-3.9
		c0.16-0.21,0.39-0.21,0.44,0.05c0.05,0.23-0.08,0.81-0.52,1.51C416.1,116.33,414.23,117.37,412.07,118.15z M405.7,125.14
		c0.34,0.49,2.39-2.21,4.08-6.16C406.4,120.96,405.26,124.52,405.7,125.14z M413.45,108.19c-0.81-0.05-2.7,1.61-4.13,3.87
		c-1.4,2.24-1.69,4.52-0.65,4.55c1.01,0.03,2.34-1.61,3.67-3.9C413.97,109.85,414.2,108.24,413.45,108.19z"/>
	<path class="st2" d="M420.31,116.74c2.16,0.1,4.06-1.98,5.17-3.69c0.13-0.21,0.34-0.21,0.44,0.03c0.1,0.21,0.03,0.94-0.44,1.61
		c-1.09,1.59-3.09,2.78-5.1,2.81c-3.3,0.05-4.45-3.2-2.76-6.55c1.69-3.35,4.34-4.71,5.64-3.95c0.65,0.39,1.12,0.78,1.53,1.35
		c0.47,0.62,0.26,2.21-0.83,3.54c-1.27,1.56-3.02,2.24-4.84,0.75C418.31,115.03,418.93,116.67,420.31,116.74z M422.47,110.76
		c0.83-1.09,1.4-2.44,1.04-2.73c-0.55-0.44-2.7,1.12-3.93,3.59c-0.08,0.16-0.16,0.31-0.21,0.44
		C420.65,112.87,421.72,111.75,422.47,110.76z"/>
	<path class="st2" d="M432.35,106.29c-0.26-0.36-0.1-0.55,0.29-0.52c0.73,0.03,1.46-0.03,2.16-0.1c0.81-1.43,1.53-2.65,1.98-3.22
		c0.23-0.34,0.49-0.31,0.62,0c0.29,0.73,0.29,1.59-0.34,2.94c1.01-0.03,1.4,0.44,1.61,0.78c0.18,0.31,0.08,0.49-0.31,0.49
		c-0.57-0.08-1.38,0-2.03,0.1c-1.01,1.74-2.5,4.26-3.48,6.45c-0.86,1.9-0.57,3.51,0.52,3.56c1.17,0.05,2.65-1.79,3.61-3.74
		c0.16-0.31,0.44-0.36,0.55,0c0.13,0.42,0,0.88-0.26,1.48c-0.34,0.75-2.05,3.04-4.13,2.96c-1.72-0.05-3.09-1.98-1.85-4.97
		c0.55-1.3,1.64-3.48,2.76-5.54C433.16,106.97,432.56,106.58,432.35,106.29z"/>
	<path class="st2" d="M442.88,117.5c-2.18,0-2.73-1.59-1.95-3.85c0.86-2.52,3.12-5.23,2.7-5.46c-0.36-0.21-3.2,1.56-4.71,4.03
		c-0.94,1.53-1.9,3.35-2.52,4.94c-0.1,0.23-0.29,0.29-0.44,0.1c-0.42-0.47-0.65-1.2-0.1-2.76c0.91-2.6,6.32-11.75,8.42-14.38
		c0.23-0.31,0.49-0.29,0.62,0.03c0.34,0.75,0.26,2.05-0.73,3.69c-0.62,1.04-2,3.15-3.12,4.89c1.07-1.04,2.42-1.9,3.12-1.82
		c0.88,0.1,1.69,1.4,1.01,2.73c-0.57,1.14-1.82,3.04-2.42,4.39c-0.65,1.51-0.52,2.73,0.44,2.68c1.07-0.05,2.5-1.92,3.3-3.59
		c0.1-0.23,0.36-0.23,0.47-0.03c0.13,0.29,0.13,0.83-0.26,1.61C446,116.2,444.41,117.5,442.88,117.5z"/>
	<path class="st2" d="M449.72,116.74c2.16,0.1,4.06-1.98,5.17-3.69c0.13-0.21,0.34-0.21,0.44,0.03c0.1,0.21,0.03,0.94-0.44,1.61
		c-1.09,1.59-3.09,2.78-5.1,2.81c-3.3,0.05-4.45-3.2-2.76-6.55c1.69-3.35,4.34-4.71,5.64-3.95c0.65,0.39,1.12,0.78,1.53,1.35
		c0.47,0.62,0.26,2.21-0.83,3.54c-1.27,1.56-3.02,2.24-4.84,0.75C447.72,115.03,448.34,116.67,449.72,116.74z M451.88,110.76
		c0.83-1.09,1.4-2.44,1.04-2.73c-0.55-0.44-2.71,1.12-3.93,3.59c-0.08,0.16-0.16,0.31-0.21,0.44
		C450.06,112.87,451.12,111.75,451.88,110.76z"/>
	<path class="st2" d="M461.75,106.29c-0.26-0.36-0.1-0.55,0.29-0.52c0.73,0.03,1.46-0.03,2.16-0.1c0.81-1.43,1.53-2.65,1.98-3.22
		c0.23-0.34,0.49-0.31,0.62,0c0.29,0.73,0.29,1.59-0.34,2.94c1.01-0.03,1.4,0.44,1.61,0.78c0.18,0.31,0.08,0.49-0.31,0.49
		c-0.57-0.08-1.38,0-2.03,0.1c-1.01,1.74-2.5,4.26-3.48,6.45c-0.86,1.9-0.57,3.51,0.52,3.56c1.17,0.05,2.65-1.79,3.61-3.74
		c0.16-0.31,0.44-0.36,0.55,0c0.13,0.42,0,0.88-0.26,1.48c-0.34,0.75-2.05,3.04-4.13,2.96c-1.72-0.05-3.09-1.98-1.85-4.97
		c0.55-1.3,1.64-3.48,2.76-5.54C462.56,106.97,461.96,106.58,461.75,106.29z"/>
	<path class="st2" d="M475.12,107.04c0.23-0.34,0.44-0.39,0.62-0.16c0.39,0.47,0.6,1.59-0.03,2.89c-0.57,1.17-1.87,3.12-2.5,4.5
		c-0.65,1.46-0.68,2.57,0.21,2.52c1.07-0.05,2.5-1.82,3.41-3.61c0.13-0.23,0.31-0.26,0.42-0.03c0.1,0.23,0.1,0.88-0.23,1.61
		c-0.68,1.43-2.31,2.86-3.74,2.78c-1.4-0.08-2.13-0.91-2.13-2.13c-0.83,1.07-2,2.03-3.25,2.03c-2.42,0-2.91-3.3-0.75-6.45
		c2.11-3.07,4.16-4.24,5.46-4.24c1.12,0,1.64,0.86,1.59,1.87C474.52,108.01,474.83,107.46,475.12,107.04z M473.04,108.11
		c-0.83-0.08-2.73,1.61-4.16,3.93c-1.38,2.24-1.72,4.52-0.7,4.55c1.07,0.03,2.42-1.64,3.74-3.93
		C473.56,109.8,473.79,108.19,473.04,108.11z"/>
	<path class="st2" d="M480.11,117.37c-1.38,0-2.26-0.7-2.73-1.85c-0.23,0.55-0.52,1.17-0.75,1.72c-0.1,0.26-0.26,0.29-0.42,0.08
		c-0.39-0.52-0.65-1.27-0.13-2.86c0.7-2.16,5.8-11.78,7.59-14.27c0.23-0.34,0.44-0.34,0.65,0.03c0.39,0.73,0.39,1.9-0.68,3.85
		c-0.39,0.73-1.51,2.52-2.31,3.95c0.75-0.68,1.56-1.09,2.24-1.09c2.21,0,2.31,3.07,0.88,6.24
		C483.23,115.89,481.62,117.37,480.11,117.37z M481.28,109.02c-1.17,1.22-2.42,3.38-3.38,5.38c0.05,0.75,0.39,1.59,1.09,1.74
		c0.91,0.21,2.11-0.57,3.61-3.59c1.48-2.94,1.17-4.52,0.57-4.58C482.63,107.93,482.06,108.22,481.28,109.02z"/>
</g>
<g class="st0">
	<path class="st2" d="M87.01,65.67c-1.56,0.05-2.68-0.52-2.96-1.48c-0.08-0.23,0.03-0.36,0.29-0.34c2.31,0.18,6.63-0.78,8.11-0.73
		c1.09,0.03,2.08,0.31,2.47,1.33c0.08,0.21,0.03,0.42-0.31,0.39c-1.27-0.13-2.91,0.13-4.42,0.39c0.03,0.62-0.16,1.48-0.86,2.76
		c-1.56,2.83-3.77,6.47-5.8,11.23c-0.1,0.26-0.23,0.26-0.42,0.08c-0.36-0.34-0.68-1.12-0.34-2.37c0.6-2.13,3.41-7.77,5.82-11.44
		C87.99,65.59,87.47,65.64,87.01,65.67z"/>
	<path class="st2" d="M95.92,73.88c-0.55,2.21-2.18,4.84-4.11,5.49c-0.94,0.31-2.24,0.21-3.28-1.14c-1.14-1.51-0.75-3.77,0.42-5.85
		c0.99-1.77,2.57-3.28,4.13-3.38c0.81-0.05,1.25,0.18,1.77,0.88c0.6,0.81,1.38,0.99,1.22,2.86c-0.03,0.21-0.03,0.39-0.05,0.6
		c0.16,0,0.31-0.05,0.52-0.05c0.18,0,0.18,0.13,0.08,0.26C96.44,73.75,96.18,73.86,95.92,73.88z M93.71,73.23
		c-0.55-0.42-1.17-1.33-1.2-2.29c-0.7,0.6-1.46,1.46-2,2.44c-1.09,1.98-1.48,4.37-0.81,4.94c0.73,0.6,2.31-0.31,3.59-2.7
		c0.39-0.73,0.7-1.46,0.91-2.08C94.03,73.47,93.87,73.36,93.71,73.23z M94.6,70.92c-0.13-0.83-0.65-0.68-0.78,0.08
		c-0.13,0.7,0.16,1.46,0.57,1.85C94.6,72.04,94.68,71.39,94.6,70.92z"/>
	<path class="st2" d="M106.09,70.4c0.13-1.01,0.39-1.51,0.94-2c0.57-0.52,1.17-0.62,1.4-0.39c0.26,0.26,0.13,0.55-0.21,1.14
		c-0.1,0.16-0.18,0.31-0.29,0.49c-0.18,2.39,0.31,4.42,0.23,6.21c-0.05,1.01-0.23,2.11-1.17,2.73c1.74-0.65,2.83-2.21,3.48-3.61
		c0.13-0.29,0.39-0.21,0.49,0c0.1,0.23,0.08,0.91-0.36,1.72c-0.99,1.79-2.76,2.78-4.6,2.86c-1.51,0.05-2.96-0.34-3.85-1.95
		c-0.62-1.17-0.55-2.89,0.34-3.61c0.31-0.26,0.52-0.16,0.55,0.26c0.03,0.21,0.03,0.42,0.05,0.62
		C104.17,73.41,105.34,71.72,106.09,70.4z M103.33,76.27c0.39,1.51,1.14,2.57,2,2.31c1.2-0.36,0.81-4.45,0.7-6.53
		C105.28,73.44,104.32,74.87,103.33,76.27z"/>
	<path class="st2" d="M111.5,68.34c-0.26-0.36-0.1-0.55,0.29-0.52c0.73,0.03,1.46-0.03,2.16-0.1c0.81-1.43,1.53-2.65,1.98-3.22
		c0.23-0.34,0.49-0.31,0.62,0c0.29,0.73,0.29,1.59-0.34,2.94c1.01-0.03,1.4,0.44,1.61,0.78c0.18,0.31,0.08,0.49-0.31,0.49
		c-0.57-0.08-1.38,0-2.03,0.1c-1.01,1.74-2.5,4.26-3.48,6.45c-0.86,1.9-0.57,3.51,0.52,3.56c1.17,0.05,2.65-1.79,3.61-3.74
		c0.16-0.31,0.44-0.36,0.55,0c0.13,0.42,0,0.88-0.26,1.48c-0.34,0.75-2.05,3.04-4.13,2.96c-1.72-0.05-3.09-1.98-1.85-4.97
		c0.55-1.3,1.64-3.48,2.76-5.54C112.3,69.02,111.7,68.63,111.5,68.34z"/>
	<path class="st2" d="M117.66,79.42c-2.39,0-2.91-3.3-0.75-6.42c2.08-2.99,4.13-4.19,5.46-4.19c1.01,0,1.53,0.81,1.53,1.72
		c0.39-0.65,0.73-1.17,0.91-1.43c0.21-0.31,0.42-0.39,0.62-0.16c0.42,0.47,0.6,1.56,0.03,2.86c-0.52,1.17-1.9,3.2-2.47,4.52
		c-0.62,1.48-0.52,2.44,0.29,2.37c1.66-0.16,4-3.35,5.23-7.18c-2.11-0.75,0.36-4.29,1.4-4.37c0.81-0.05,0.55,1.48,0,3.28
		c0.94-0.1,1.9-0.55,2.89-1.22c0.36-0.26,0.55-0.31,0.78-0.05c0.49,0.55,1.12,1.74,0.36,2.63c-1.22,1.4-2.55,3.22-2.96,4.52
		c-0.44,1.43-0.16,2.44,0.65,2.5c1.09,0.08,2.39-1.64,3.22-3.59c0.1-0.21,0.29-0.26,0.39,0c0.13,0.31,0.21,0.96-0.1,1.69
		c-0.68,1.56-2.21,2.7-3.64,2.65c-1.98-0.08-2.76-1.87-2.13-3.95c0.52-1.72,2.11-3.64,3.22-4.89c-1.14,0.68-2.26,0.96-3.07,0.96
		c-1.27,3.67-3.61,7.59-6.4,7.8c-1.43,0.1-2.21-0.81-2.18-2.13C120.1,78.41,118.93,79.42,117.66,79.42z M118.62,74.04
		c-1.4,2.24-1.69,4.5-0.68,4.52c1.04,0.03,2.39-1.56,3.72-3.9c1.61-2.83,1.85-4.47,1.09-4.52
		C121.95,70.09,120.05,71.75,118.62,74.04z"/>
	<path class="st2" d="M135.99,68.34c-0.26-0.36-0.1-0.55,0.29-0.52c0.73,0.03,1.46-0.03,2.16-0.1c0.81-1.43,1.53-2.65,1.98-3.22
		c0.23-0.34,0.49-0.31,0.62,0c0.29,0.73,0.29,1.59-0.34,2.94c1.01-0.03,1.4,0.44,1.61,0.78c0.18,0.31,0.08,0.49-0.31,0.49
		c-0.57-0.08-1.38,0-2.03,0.1c-1.01,1.74-2.5,4.26-3.48,6.45c-0.86,1.9-0.57,3.51,0.52,3.56c1.17,0.05,2.65-1.79,3.61-3.74
		c0.16-0.31,0.44-0.36,0.55,0c0.13,0.42,0,0.88-0.26,1.48c-0.34,0.75-2.05,3.04-4.13,2.96c-1.72-0.05-3.09-1.98-1.85-4.97
		c0.55-1.3,1.64-3.48,2.76-5.54C136.79,69.02,136.2,68.63,135.99,68.34z"/>
	<path class="st2" d="M154.55,68.94c0.29-0.29,0.44-0.23,0.49,0.1c0.08,0.55-0.23,1.22-1.07,2.26c-1.3,1.64-3.67,4.13-6.16,8.09
		c-0.13,0.21-0.26,0.39-0.52,0.26c-1.01-0.49-1.38-1.01-1.3-2.39c0.1-1.82,0.81-5.54,1.69-8.24c0.1-0.29,0.31-0.39,0.52-0.21
		c0.86,0.73,0.99,1.69,0.62,3.28c-0.47,2-0.99,3.46-1.35,6.29C149.33,75.34,152.78,70.76,154.55,68.94z"/>
	<path class="st2" d="M153.17,75.73c0.65-1.9,2.37-4.97,3.33-6.32c0.23-0.31,0.42-0.39,0.62-0.16c0.39,0.42,0.6,1.53-0.03,2.83
		c-0.55,1.14-1.64,2.91-2.18,4.21c-0.62,1.51-0.57,2.52,0.26,2.47c1.17-0.05,2.6-1.77,3.38-3.56c0.13-0.23,0.31-0.21,0.42,0
		c0.21,0.42,0.13,0.96-0.18,1.61c-0.78,1.61-2.42,2.7-3.87,2.7C152.94,79.52,152.45,77.86,153.17,75.73z M158.97,68.94
		c-0.34,0.36-1.07,0.29-1.46-0.39c-0.42-0.7-0.29-1.48,0.13-1.92c0.42-0.44,1.17-0.13,1.51,0.57
		C159.49,67.88,159.31,68.58,158.97,68.94z"/>
	<path class="st2" d="M162.14,70.4c0.13-1.01,0.39-1.51,0.94-2c0.57-0.52,1.17-0.62,1.4-0.39c0.26,0.26,0.13,0.55-0.21,1.14
		c-0.1,0.16-0.18,0.31-0.29,0.49c-0.18,2.39,0.31,4.42,0.23,6.21c-0.05,1.01-0.23,2.11-1.17,2.73c1.74-0.65,2.83-2.21,3.48-3.61
		c0.13-0.29,0.39-0.21,0.49,0c0.1,0.23,0.08,0.91-0.36,1.72c-0.99,1.79-2.76,2.78-4.6,2.86c-1.51,0.05-2.96-0.34-3.85-1.95
		c-0.62-1.17-0.55-2.89,0.34-3.61c0.31-0.26,0.52-0.16,0.55,0.26c0.03,0.21,0.03,0.42,0.05,0.62
		C160.22,73.41,161.39,71.72,162.14,70.4z M159.39,76.27c0.39,1.51,1.14,2.57,2,2.31c1.2-0.36,0.81-4.45,0.7-6.53
		C161.34,73.44,160.38,74.87,159.39,76.27z"/>
	<path class="st2" d="M167.34,79.47c-1.85-0.13-1.9-2.05-1.33-3.77c0.57-1.72,1.9-4.26,3.59-6.63c0.21-0.29,0.47-0.26,0.68-0.03
		c0.57,0.86,0.44,2.03-0.49,3.51c-0.96,1.53-1.48,2.57-2.03,3.82c-0.55,1.27-0.47,2.21,0.13,2.26c1.01,0.08,2.44-1.74,3.85-4
		c1.64-2.65,2.39-4.45,3.22-5.56c0.26-0.36,0.44-0.42,0.65-0.16c0.39,0.47,0.6,1.61-0.03,2.91c-0.57,1.17-1.87,3.12-2.47,4.45
		c-0.68,1.48-0.57,2.57,0.36,2.52c1.09-0.05,2.42-1.77,3.43-3.59c0.13-0.23,0.36-0.26,0.47-0.03c0.1,0.21,0.13,0.91-0.23,1.64
		c-0.75,1.46-2.37,2.78-3.9,2.78c-1.69,0-2.37-1.07-2.16-2.57C170.18,78.25,168.8,79.58,167.34,79.47z"/>
	<path class="st2" d="M185.86,69.1c0.23-0.34,0.44-0.39,0.62-0.16c0.39,0.47,0.6,1.59-0.03,2.89c-0.57,1.17-1.87,3.12-2.5,4.5
		c-0.65,1.46-0.68,2.57,0.21,2.52c1.07-0.05,2.5-1.82,3.41-3.61c0.13-0.23,0.31-0.26,0.42-0.03c0.1,0.23,0.1,0.88-0.23,1.61
		c-0.68,1.43-2.31,2.86-3.74,2.78c-1.4-0.08-2.13-0.91-2.13-2.13c-0.83,1.07-2,2.03-3.25,2.03c-2.42,0-2.91-3.3-0.75-6.45
		c2.11-3.07,4.16-4.24,5.46-4.24c1.12,0,1.64,0.86,1.59,1.87C185.26,70.06,185.57,69.51,185.86,69.1z M183.78,70.16
		c-0.83-0.08-2.73,1.61-4.16,3.93c-1.38,2.24-1.72,4.52-0.7,4.55c1.07,0.03,2.42-1.64,3.74-3.93
		C184.3,71.85,184.53,70.24,183.78,70.16z"/>
	<path class="st2" d="M189.47,78.74c1.25,0.1,3.07-1.77,4.08-3.77c0.18-0.34,0.47-0.36,0.57,0c0.13,0.42,0.03,0.99-0.26,1.61
		c-0.36,0.78-2.26,2.94-4.34,2.89c-1.79-0.05-2.76-1.3-2.16-4.11c0.96-4.52,3.93-9.23,6.58-11.99c0.39-0.42,0.75-0.47,1.12-0.13
		c0.75,0.68,0.91,1.64,0.6,2.86c-0.81,3.2-3.72,6.32-6.03,7.83C188.58,76.48,188.3,78.64,189.47,78.74z M194.77,65.56
		c-0.34-0.21-2.26,2.68-4.06,6.01c-0.23,0.42-0.44,0.83-0.62,1.25C193.66,69.93,195.11,65.77,194.77,65.56z"/>
	<path class="st2" d="M193.11,75.73c0.65-1.9,2.37-4.97,3.33-6.32c0.23-0.31,0.42-0.39,0.62-0.16c0.39,0.42,0.6,1.53-0.03,2.83
		c-0.55,1.14-1.64,2.91-2.18,4.21c-0.62,1.51-0.57,2.52,0.26,2.47c1.17-0.05,2.6-1.77,3.38-3.56c0.13-0.23,0.31-0.21,0.42,0
		c0.21,0.42,0.13,0.96-0.18,1.61c-0.78,1.61-2.42,2.7-3.87,2.7C192.87,79.52,192.38,77.86,193.11,75.73z M198.91,68.94
		c-0.34,0.36-1.07,0.29-1.46-0.39c-0.42-0.7-0.29-1.48,0.13-1.92c0.42-0.44,1.17-0.13,1.51,0.57
		C199.43,67.88,199.24,68.58,198.91,68.94z"/>
	<path class="st2" d="M203.33,77.73c-0.36-0.47-1.95-0.31-3.25,0.6c-0.18,0.13-0.36,0.18-0.44-0.03c-0.39-1.12,0.21-1.92,1.12-2.44
		c3.9-2.24,5.56-4.78,4.86-5.67s-4.24,0.96-6.24,3.46c-0.16,0.21-0.34,0.13-0.39-0.08c-0.21-0.68,0.1-1.87,1.07-2.81
		c1.04-1.01,2.52-1.74,3.77-1.9c1.17-0.16,1.92,0,2.57,0.94c0.62,0.88,0.7,2.08-0.1,3.46c-0.68,1.14-2.16,2.42-3.85,3.48
		c0.62-0.03,1.22,0.13,1.64,0.52c0.36,0.34,0.57,0.78,0.68,1.27c1.2-0.62,2.29-1.77,3.12-3.35c0.1-0.21,0.36-0.23,0.47,0
		c0.1,0.21,0,0.94-0.36,1.61c-0.6,1.12-2.08,2-3.17,2.47c0,2.78-2.7,6.71-4.34,7.62c-0.52,0.29-1.07,0.44-1.72-0.36
		c-0.55-0.68-1.22-1.59-0.6-3.04c0.96-2.24,3.12-3.51,5.33-4.42C203.59,78.51,203.56,78.04,203.33,77.73z M199.19,85.64
		c0.47,0.55,3.17-3.09,4.06-5.72C199.79,81.86,198.7,85.04,199.19,85.64z"/>
	<path class="st2" d="M207.38,75.73c0.65-1.9,2.37-4.97,3.33-6.32c0.23-0.31,0.42-0.39,0.62-0.16c0.39,0.42,0.6,1.53-0.03,2.83
		c-0.55,1.14-1.64,2.91-2.18,4.21c-0.62,1.51-0.57,2.52,0.26,2.47c1.17-0.05,2.6-1.77,3.38-3.56c0.13-0.23,0.31-0.21,0.42,0
		c0.21,0.42,0.13,0.96-0.18,1.61c-0.78,1.61-2.42,2.7-3.87,2.7C207.15,79.52,206.66,77.86,207.38,75.73z M213.18,68.94
		c-0.34,0.36-1.07,0.29-1.46-0.39c-0.42-0.7-0.29-1.48,0.13-1.92c0.42-0.44,1.17-0.13,1.51,0.57
		C213.7,67.88,213.52,68.58,213.18,68.94z"/>
	<path class="st2" d="M220.51,68.94c0.86,0.13,1.66,1.4,1.01,2.76c-0.55,1.14-1.82,3.07-2.42,4.42c-0.68,1.51-0.52,2.73,0.42,2.68
		c1.07-0.05,2.34-1.77,3.33-3.59c0.13-0.23,0.31-0.23,0.44-0.03c0.18,0.29,0.13,0.88-0.23,1.64c-0.7,1.46-2.34,2.78-3.85,2.78
		c-2.21,0-2.73-1.61-1.98-3.87c0.86-2.55,3.15-5.3,2.68-5.51c-0.26-0.1-1.77,0.62-3.43,2.44c-1.53,1.66-2.68,4.16-3.8,6.6
		c-0.1,0.23-0.26,0.34-0.49,0.1c-0.52-0.52-0.68-1.38-0.26-2.68c0.52-1.64,2.52-5.25,4.16-7.67c0.18-0.29,0.39-0.26,0.55,0
		c0.39,0.65,0.36,1.53,0.08,2.47C217.89,70.24,219.65,68.81,220.51,68.94z"/>
	<path class="st2" d="M228.23,80.2c-1.43,3.48-3.28,7.62-5.38,8.45c-0.52,0.21-1.04,0.13-1.51-0.55c-0.55-0.78-1.01-1.69-0.52-3.22
		c0.75-2.34,2.99-3.93,5.56-4.91c0.26-0.57,0.49-1.2,0.75-1.79c-0.75,0.75-1.66,1.3-2.63,1.3c-2.39,0-2.86-3.25-0.75-6.37
		c2.03-3.02,4.13-4.19,5.46-4.19c1.04,0,1.56,0.81,1.53,1.72c0.31-0.52,0.6-0.99,0.86-1.43c0.21-0.36,0.47-0.39,0.65-0.16
		c0.39,0.47,0.6,1.59-0.05,2.86c-0.78,1.56-2.42,4.71-3.51,7.23c2.18-1.09,3.61-2.52,4.65-3.9c0.16-0.21,0.39-0.21,0.44,0.05
		c0.05,0.23-0.08,0.81-0.52,1.51C232.26,78.38,230.39,79.42,228.23,80.2z M221.86,87.19c0.34,0.49,2.39-2.21,4.08-6.16
		C222.57,83.01,221.42,86.57,221.86,87.19z M229.61,70.24c-0.81-0.05-2.7,1.61-4.13,3.87c-1.4,2.24-1.69,4.52-0.65,4.55
		c1.01,0.03,2.34-1.61,3.67-3.9C230.13,71.91,230.37,70.29,229.61,70.24z"/>
	<path class="st2" d="M247.47,68.94c0.29-0.29,0.44-0.23,0.49,0.1c0.08,0.55-0.23,1.22-1.07,2.26c-1.3,1.64-3.67,4.13-6.16,8.09
		c-0.13,0.21-0.26,0.39-0.52,0.26c-1.01-0.49-1.38-1.01-1.3-2.39c0.1-1.82,0.81-5.54,1.69-8.24c0.1-0.29,0.31-0.39,0.52-0.21
		c0.86,0.73,0.99,1.69,0.62,3.28c-0.47,2-0.99,3.46-1.35,6.29C242.25,75.34,245.71,70.76,247.47,68.94z"/>
	<path class="st2" d="M248.07,79.42c-2.39,0-2.91-3.3-0.75-6.42c2.08-2.99,4.13-4.19,5.46-4.19c1.01,0,1.53,0.81,1.53,1.72
		c0.39-0.65,0.73-1.17,0.91-1.43c0.21-0.31,0.42-0.39,0.62-0.16c0.42,0.47,0.6,1.56,0.03,2.86c-0.52,1.17-1.9,3.2-2.47,4.52
		c-0.62,1.48-0.52,2.44,0.29,2.37c1.66-0.16,4-3.35,5.23-7.18c-2.11-0.75,0.36-4.29,1.4-4.37c0.81-0.05,0.55,1.48,0,3.28
		c0.94-0.1,1.9-0.55,2.89-1.22c0.36-0.26,0.55-0.31,0.78-0.05c0.49,0.55,1.12,1.74,0.36,2.63c-1.22,1.4-2.55,3.22-2.96,4.52
		c-0.44,1.43-0.16,2.44,0.65,2.5c1.09,0.08,2.39-1.64,3.22-3.59c0.1-0.21,0.29-0.26,0.39,0c0.13,0.31,0.21,0.96-0.1,1.69
		c-0.68,1.56-2.21,2.7-3.64,2.65c-1.98-0.08-2.76-1.87-2.13-3.95c0.52-1.72,2.11-3.64,3.22-4.89c-1.14,0.68-2.26,0.96-3.07,0.96
		c-1.27,3.67-3.61,7.59-6.4,7.8c-1.43,0.1-2.21-0.81-2.18-2.13C250.52,78.41,249.35,79.42,248.07,79.42z M249.03,74.04
		c-1.4,2.24-1.69,4.5-0.68,4.52c1.04,0.03,2.39-1.56,3.72-3.9c1.61-2.83,1.85-4.47,1.09-4.52
		C252.36,70.09,250.46,71.75,249.03,74.04z"/>
	<path class="st2" d="M264.84,75.73c0.65-1.9,2.37-4.97,3.33-6.32c0.23-0.31,0.42-0.39,0.62-0.16c0.39,0.42,0.6,1.53-0.03,2.83
		c-0.55,1.14-1.64,2.91-2.18,4.21c-0.62,1.51-0.57,2.52,0.26,2.47c1.17-0.05,2.6-1.77,3.38-3.56c0.13-0.23,0.31-0.21,0.42,0
		c0.21,0.42,0.13,0.96-0.18,1.61c-0.78,1.61-2.42,2.7-3.87,2.7C264.61,79.52,264.11,77.86,264.84,75.73z M270.64,68.94
		c-0.34,0.36-1.07,0.29-1.46-0.39c-0.42-0.7-0.29-1.48,0.13-1.92c0.42-0.44,1.17-0.13,1.51,0.57
		C271.16,67.88,270.98,68.58,270.64,68.94z"/>
	<path class="st2" d="M279.25,69.1c0.23-0.34,0.44-0.39,0.62-0.16c0.39,0.47,0.6,1.59-0.03,2.89c-0.57,1.17-1.87,3.12-2.5,4.5
		c-0.65,1.46-0.68,2.57,0.21,2.52c1.07-0.05,2.5-1.82,3.41-3.61c0.13-0.23,0.31-0.26,0.42-0.03c0.1,0.23,0.1,0.88-0.23,1.61
		c-0.68,1.43-2.31,2.86-3.74,2.78c-1.4-0.08-2.13-0.91-2.13-2.13c-0.83,1.07-2,2.03-3.25,2.03c-2.42,0-2.91-3.3-0.75-6.45
		c2.11-3.07,4.16-4.24,5.46-4.24c1.12,0,1.64,0.86,1.59,1.87C278.65,70.06,278.96,69.51,279.25,69.1z M277.17,70.16
		c-0.83-0.08-2.73,1.61-4.16,3.93c-1.38,2.24-1.72,4.52-0.7,4.55c1.07,0.03,2.42-1.64,3.74-3.93
		C277.69,71.85,277.92,70.24,277.17,70.16z"/>
	<path class="st2" d="M288.42,68.94c0.86,0.13,1.66,1.4,1.01,2.76c-0.55,1.14-1.82,3.07-2.42,4.42c-0.68,1.51-0.52,2.73,0.42,2.68
		c1.07-0.05,2.34-1.77,3.33-3.59c0.13-0.23,0.31-0.23,0.44-0.03c0.18,0.29,0.13,0.88-0.23,1.64c-0.7,1.46-2.34,2.78-3.85,2.78
		c-2.21,0-2.73-1.61-1.98-3.87c0.86-2.55,3.15-5.3,2.68-5.51c-0.26-0.1-1.77,0.62-3.43,2.44c-1.53,1.66-2.68,4.16-3.8,6.6
		c-0.1,0.23-0.26,0.34-0.49,0.1c-0.52-0.52-0.68-1.38-0.26-2.68c0.52-1.64,2.52-5.25,4.16-7.67c0.18-0.29,0.39-0.26,0.55,0
		c0.39,0.65,0.36,1.53,0.08,2.47C285.8,70.24,287.57,68.81,288.42,68.94z"/>
	<path class="st2" d="M291.91,68.34c-0.26-0.36-0.1-0.55,0.29-0.52c0.73,0.03,1.46-0.03,2.16-0.1c0.81-1.43,1.53-2.65,1.98-3.22
		c0.23-0.34,0.49-0.31,0.62,0c0.29,0.73,0.29,1.59-0.34,2.94c1.01-0.03,1.4,0.44,1.61,0.78c0.18,0.31,0.08,0.49-0.31,0.49
		c-0.57-0.08-1.38,0-2.03,0.1c-1.01,1.74-2.5,4.26-3.48,6.45c-0.86,1.9-0.57,3.51,0.52,3.56c1.17,0.05,2.65-1.79,3.61-3.74
		c0.16-0.31,0.44-0.36,0.55,0c0.13,0.42,0,0.88-0.26,1.48c-0.34,0.75-2.05,3.04-4.13,2.96c-1.72-0.05-3.09-1.98-1.85-4.97
		c0.55-1.3,1.64-3.48,2.76-5.54C292.71,69.02,292.12,68.63,291.91,68.34z"/>
	<path class="st2" d="M299.92,70.4c0.13-1.01,0.39-1.51,0.94-2c0.57-0.52,1.17-0.62,1.4-0.39c0.26,0.26,0.13,0.55-0.21,1.14
		c-0.1,0.16-0.18,0.31-0.29,0.49c-0.18,2.39,0.31,4.42,0.23,6.21c-0.05,1.01-0.23,2.11-1.17,2.73c1.74-0.65,2.83-2.21,3.48-3.61
		c0.13-0.29,0.39-0.21,0.49,0c0.1,0.23,0.08,0.91-0.36,1.72c-0.99,1.79-2.76,2.78-4.6,2.86c-1.51,0.05-2.96-0.34-3.85-1.95
		c-0.62-1.17-0.55-2.89,0.34-3.61c0.31-0.26,0.52-0.16,0.55,0.26c0.03,0.21,0.03,0.42,0.05,0.62
		C297.99,73.41,299.16,71.72,299.92,70.4z M297.16,76.27c0.39,1.51,1.14,2.57,2,2.31c1.2-0.36,0.81-4.45,0.7-6.53
		C299.11,73.44,298.15,74.87,297.16,76.27z"/>
</g>
<g>
	<path d="M-64,305.45h-2.46v-0.89h5.98v0.89h-2.47v7.2H-64V305.45z"/>
	<path d="M-55.2,309.69c0,2.15-1.49,3.08-2.89,3.08c-1.57,0-2.78-1.15-2.78-2.99c0-1.94,1.27-3.08,2.88-3.08
		C-56.33,306.71-55.2,307.92-55.2,309.69z M-59.81,309.75c0,1.27,0.73,2.23,1.76,2.23c1.01,0,1.76-0.95,1.76-2.25
		c0-0.98-0.49-2.23-1.74-2.23C-59.27,307.5-59.81,308.65-59.81,309.75z"/>
	<path d="M-51.47,311.56c0.31,0.2,0.86,0.42,1.39,0.42c0.77,0,1.13-0.38,1.13-0.86c0-0.5-0.3-0.78-1.08-1.07
		c-1.04-0.37-1.54-0.95-1.54-1.64c0-0.94,0.76-1.7,2-1.7c0.59,0,1.1,0.17,1.43,0.36l-0.26,0.77c-0.23-0.14-0.65-0.33-1.19-0.33
		c-0.62,0-0.97,0.36-0.97,0.79c0,0.48,0.35,0.7,1.1,0.98c1.01,0.38,1.52,0.89,1.52,1.75c0,1.02-0.79,1.74-2.17,1.74
		c-0.64,0-1.22-0.16-1.63-0.4L-51.47,311.56z"/>
	<path d="M-45.3,305.17v1.67h1.51v0.8h-1.51v3.13c0,0.72,0.2,1.13,0.79,1.13c0.28,0,0.48-0.04,0.61-0.07l0.05,0.79
		c-0.2,0.08-0.53,0.14-0.94,0.14c-0.49,0-0.89-0.16-1.14-0.44c-0.3-0.31-0.41-0.83-0.41-1.51v-3.17h-0.9v-0.8h0.9v-1.39
		L-45.3,305.17z"/>
	<path d="M-39.38,312.64l-0.08-0.73h-0.04c-0.32,0.46-0.95,0.86-1.78,0.86c-1.17,0-1.77-0.83-1.77-1.67c0-1.4,1.25-2.17,3.49-2.16
		v-0.12c0-0.48-0.13-1.34-1.32-1.34c-0.54,0-1.1,0.17-1.51,0.43l-0.24-0.7c0.48-0.31,1.17-0.52,1.91-0.52
		c1.78,0,2.21,1.21,2.21,2.38v2.17c0,0.5,0.02,1,0.1,1.39H-39.38z M-39.54,309.68c-1.15-0.02-2.46,0.18-2.46,1.31
		c0,0.68,0.46,1.01,1,1.01c0.76,0,1.24-0.48,1.4-0.97c0.04-0.11,0.06-0.23,0.06-0.34V309.68z"/>
	<path d="M-36.81,308.65c0-0.68-0.01-1.27-0.05-1.81h0.92l0.04,1.14h0.05c0.26-0.78,0.9-1.27,1.61-1.27c0.12,0,0.2,0.01,0.3,0.04v1
		c-0.11-0.02-0.22-0.04-0.36-0.04c-0.74,0-1.27,0.56-1.42,1.36c-0.02,0.14-0.05,0.31-0.05,0.49v3.09h-1.04V308.65z"/>
	<path d="M-31.33,305.17v1.67h1.51v0.8h-1.51v3.13c0,0.72,0.2,1.13,0.79,1.13c0.28,0,0.48-0.04,0.61-0.07l0.05,0.79
		c-0.2,0.08-0.53,0.14-0.94,0.14c-0.49,0-0.89-0.16-1.14-0.44c-0.3-0.31-0.41-0.83-0.41-1.51v-3.17h-0.9v-0.8h0.9v-1.39
		L-31.33,305.17z"/>
	<path d="M-25.68,306.84l1.14,3.26c0.19,0.53,0.35,1.01,0.47,1.49h0.04c0.13-0.48,0.3-0.96,0.49-1.49l1.13-3.26h1.1l-2.28,5.8h-1.01
		l-2.21-5.8H-25.68z"/>
	<path d="M-19.14,305.21c0.01,0.36-0.25,0.65-0.67,0.65c-0.37,0-0.64-0.29-0.64-0.65c0-0.37,0.28-0.66,0.66-0.66
		C-19.39,304.55-19.14,304.84-19.14,305.21z M-20.32,312.64v-5.8h1.05v5.8H-20.32z"/>
	<path d="M-17.65,311.56c0.31,0.2,0.86,0.42,1.39,0.42c0.77,0,1.13-0.38,1.13-0.86c0-0.5-0.3-0.78-1.08-1.07
		c-1.04-0.37-1.54-0.95-1.54-1.64c0-0.94,0.76-1.7,2-1.7c0.59,0,1.1,0.17,1.43,0.36l-0.26,0.77c-0.23-0.14-0.65-0.33-1.19-0.33
		c-0.62,0-0.97,0.36-0.97,0.79c0,0.48,0.35,0.7,1.1,0.98c1.01,0.38,1.52,0.89,1.52,1.75c0,1.02-0.79,1.74-2.17,1.74
		c-0.64,0-1.22-0.16-1.63-0.4L-17.65,311.56z"/>
	<path d="M-7.9,311.06c0,0.6,0.01,1.13,0.05,1.58h-0.94l-0.06-0.95h-0.02c-0.28,0.47-0.89,1.08-1.92,1.08c-0.91,0-2-0.5-2-2.54
		v-3.39h1.05v3.21c0,1.1,0.34,1.85,1.3,1.85c0.71,0,1.2-0.49,1.39-0.96c0.06-0.16,0.1-0.35,0.1-0.54v-3.56h1.05V311.06z"/>
	<path d="M-2.93,312.64l-0.08-0.73h-0.04c-0.32,0.46-0.95,0.86-1.78,0.86c-1.17,0-1.77-0.83-1.77-1.67c0-1.4,1.25-2.17,3.49-2.16
		v-0.12c0-0.48-0.13-1.34-1.32-1.34c-0.54,0-1.1,0.17-1.51,0.43l-0.24-0.7c0.48-0.31,1.17-0.52,1.91-0.52
		c1.78,0,2.21,1.21,2.21,2.38v2.17c0,0.5,0.02,1,0.1,1.39H-2.93z M-3.09,309.68c-1.15-0.02-2.46,0.18-2.46,1.31
		c0,0.68,0.46,1.01,1,1.01c0.76,0,1.24-0.48,1.4-0.97c0.04-0.11,0.06-0.23,0.06-0.34V309.68z"/>
	<path d="M-0.36,304.13H0.7v8.51h-1.05V304.13z"/>
	<path d="M3.65,305.21c0.01,0.36-0.25,0.65-0.67,0.65c-0.37,0-0.64-0.29-0.64-0.65c0-0.37,0.28-0.66,0.66-0.66
		C3.4,304.55,3.65,304.84,3.65,305.21z M2.47,312.64v-5.8h1.05v5.8H2.47z"/>
	<path d="M4.62,312.03l2.63-3.42c0.25-0.31,0.49-0.59,0.75-0.9v-0.02H4.86v-0.85h4.42l-0.01,0.66l-2.59,3.37
		c-0.24,0.32-0.48,0.61-0.74,0.91v0.02h3.39v0.84H4.62V312.03z"/>
	<path d="M11.59,305.21c0.01,0.36-0.25,0.65-0.67,0.65c-0.37,0-0.64-0.29-0.64-0.65c0-0.37,0.28-0.66,0.66-0.66
		C11.34,304.55,11.59,304.84,11.59,305.21z M10.42,312.64v-5.8h1.05v5.8H10.42z"/>
	<path d="M13.22,308.41c0-0.6-0.01-1.09-0.05-1.57h0.94l0.06,0.96h0.02c0.29-0.55,0.96-1.09,1.92-1.09c0.8,0,2.05,0.48,2.05,2.47
		v3.47h-1.05v-3.35c0-0.94-0.35-1.71-1.34-1.71c-0.7,0-1.24,0.49-1.42,1.08c-0.05,0.13-0.07,0.31-0.07,0.49v3.49h-1.05V308.41z"/>
	<path d="M24.89,306.84c-0.02,0.42-0.05,0.89-0.05,1.6v3.37c0,1.33-0.26,2.15-0.83,2.65c-0.56,0.53-1.38,0.7-2.11,0.7
		c-0.7,0-1.46-0.17-1.93-0.48l0.26-0.8c0.38,0.24,0.98,0.46,1.7,0.46c1.08,0,1.87-0.56,1.87-2.03v-0.65h-0.02
		c-0.32,0.54-0.95,0.97-1.85,0.97c-1.44,0-2.47-1.22-2.47-2.83c0-1.97,1.28-3.08,2.61-3.08c1.01,0,1.56,0.53,1.81,1.01h0.02
		l0.05-0.88H24.89z M23.79,309.13c0-0.18-0.01-0.34-0.06-0.48c-0.19-0.61-0.71-1.12-1.48-1.12c-1.01,0-1.73,0.85-1.73,2.2
		c0,1.14,0.58,2.09,1.71,2.09c0.65,0,1.24-0.41,1.46-1.08c0.06-0.18,0.08-0.38,0.08-0.56V309.13z"/>
	<path d="M29.54,306.84l1.14,3.26c0.19,0.53,0.35,1.01,0.47,1.49h0.04c0.13-0.48,0.3-0.96,0.49-1.49l1.13-3.26h1.1l-2.28,5.8h-1.01
		l-2.21-5.8H29.54z"/>
	<path d="M38.07,312.64l-0.08-0.73h-0.04c-0.32,0.46-0.95,0.86-1.78,0.86c-1.17,0-1.77-0.83-1.77-1.67c0-1.4,1.25-2.17,3.49-2.16
		v-0.12c0-0.48-0.13-1.34-1.32-1.34c-0.54,0-1.1,0.17-1.51,0.43l-0.24-0.7c0.48-0.31,1.17-0.52,1.91-0.52
		c1.78,0,2.21,1.21,2.21,2.38v2.17c0,0.5,0.02,1,0.1,1.39H38.07z M37.92,309.68c-1.15-0.02-2.46,0.18-2.46,1.31
		c0,0.68,0.46,1.01,1,1.01c0.76,0,1.24-0.48,1.4-0.97c0.04-0.11,0.06-0.23,0.06-0.34V309.68z"/>
	<path d="M40.64,308.65c0-0.68-0.01-1.27-0.05-1.81h0.92l0.04,1.14h0.05c0.26-0.78,0.9-1.27,1.61-1.27c0.12,0,0.2,0.01,0.3,0.04v1
		c-0.11-0.02-0.22-0.04-0.36-0.04c-0.74,0-1.27,0.56-1.42,1.36c-0.02,0.14-0.05,0.31-0.05,0.49v3.09h-1.04V308.65z"/>
	<path d="M45.79,305.21c0.01,0.36-0.25,0.65-0.67,0.65c-0.37,0-0.64-0.29-0.64-0.65c0-0.37,0.28-0.66,0.66-0.66
		C45.54,304.55,45.79,304.84,45.79,305.21z M44.62,312.64v-5.8h1.05v5.8H44.62z"/>
	<path d="M50.64,312.64l-0.08-0.73h-0.04c-0.32,0.46-0.95,0.86-1.78,0.86c-1.17,0-1.77-0.83-1.77-1.67c0-1.4,1.25-2.17,3.49-2.16
		v-0.12c0-0.48-0.13-1.34-1.32-1.34c-0.54,0-1.1,0.17-1.51,0.43l-0.24-0.7c0.48-0.31,1.17-0.52,1.91-0.52
		c1.78,0,2.21,1.21,2.21,2.38v2.17c0,0.5,0.02,1,0.1,1.39H50.64z M50.48,309.68c-1.15-0.02-2.46,0.18-2.46,1.31
		c0,0.68,0.46,1.01,1,1.01c0.76,0,1.24-0.48,1.4-0.97c0.04-0.11,0.06-0.23,0.06-0.34V309.68z"/>
	<path d="M53.21,308.41c0-0.6-0.01-1.09-0.05-1.57h0.94l0.06,0.96h0.02c0.29-0.55,0.96-1.09,1.92-1.09c0.8,0,2.05,0.48,2.05,2.47
		v3.47h-1.05v-3.35c0-0.94-0.35-1.71-1.34-1.71c-0.7,0-1.24,0.49-1.42,1.08c-0.05,0.13-0.07,0.31-0.07,0.49v3.49h-1.05V308.41z"/>
	<path d="M61.09,305.17v1.67h1.51v0.8h-1.51v3.13c0,0.72,0.2,1.13,0.79,1.13c0.28,0,0.48-0.04,0.61-0.07l0.05,0.79
		c-0.2,0.08-0.53,0.14-0.94,0.14c-0.49,0-0.89-0.16-1.14-0.44c-0.3-0.31-0.41-0.83-0.41-1.51v-3.17h-0.9v-0.8h0.9v-1.39
		L61.09,305.17z"/>
	<path d="M63.65,311.56c0.31,0.2,0.86,0.42,1.39,0.42c0.77,0,1.13-0.38,1.13-0.86c0-0.5-0.3-0.78-1.08-1.07
		c-1.04-0.37-1.54-0.95-1.54-1.64c0-0.94,0.76-1.7,2-1.7c0.59,0,1.1,0.17,1.43,0.36l-0.26,0.77c-0.23-0.14-0.65-0.33-1.19-0.33
		c-0.62,0-0.97,0.36-0.97,0.79c0,0.48,0.35,0.7,1.1,0.98c1.01,0.38,1.52,0.89,1.52,1.75c0,1.02-0.79,1.74-2.17,1.74
		c-0.64,0-1.22-0.16-1.63-0.4L63.65,311.56z"/>
	<path d="M-63.73,327.04v-3.43l-2.56-4.65h1.19l1.14,2.23c0.31,0.61,0.55,1.1,0.8,1.67h0.02c0.23-0.53,0.5-1.06,0.82-1.67l1.16-2.23
		h1.19l-2.71,4.64v3.44H-63.73z"/>
	<path d="M-54.73,324.09c0,2.15-1.49,3.08-2.89,3.08c-1.57,0-2.78-1.15-2.78-2.99c0-1.94,1.27-3.08,2.88-3.08
		C-55.86,321.11-54.73,322.32-54.73,324.09z M-59.34,324.15c0,1.27,0.73,2.23,1.76,2.23c1.01,0,1.76-0.95,1.76-2.25
		c0-0.98-0.49-2.23-1.74-2.23C-58.8,321.9-59.34,323.05-59.34,324.15z"/>
	<path d="M-48.54,325.46c0,0.6,0.01,1.13,0.05,1.58h-0.94l-0.06-0.95h-0.02c-0.28,0.47-0.89,1.08-1.92,1.08c-0.91,0-2-0.5-2-2.54
		v-3.39h1.05v3.21c0,1.1,0.34,1.85,1.3,1.85c0.71,0,1.2-0.49,1.39-0.96c0.06-0.16,0.1-0.35,0.1-0.54v-3.56h1.05V325.46z"/>
	<path d="M-40.11,326.83c-0.28,0.14-0.89,0.34-1.67,0.34c-1.75,0-2.89-1.19-2.89-2.96c0-1.79,1.22-3.08,3.12-3.08
		c0.62,0,1.17,0.16,1.46,0.3l-0.24,0.82c-0.25-0.14-0.65-0.28-1.22-0.28c-1.33,0-2.05,0.98-2.05,2.19c0,1.34,0.86,2.17,2.01,2.17
		c0.6,0,1-0.16,1.29-0.29L-40.11,326.83z"/>
	<path d="M-35.65,327.04l-0.08-0.73h-0.04c-0.32,0.46-0.95,0.86-1.78,0.86c-1.17,0-1.77-0.83-1.77-1.67c0-1.4,1.25-2.17,3.49-2.16
		v-0.12c0-0.48-0.13-1.34-1.32-1.34c-0.54,0-1.1,0.17-1.51,0.43l-0.24-0.7c0.48-0.31,1.17-0.52,1.91-0.52
		c1.78,0,2.21,1.21,2.21,2.37v2.17c0,0.5,0.02,1,0.1,1.39H-35.65z M-35.81,324.08c-1.15-0.02-2.46,0.18-2.46,1.31
		c0,0.68,0.46,1.01,1,1.01c0.76,0,1.24-0.48,1.4-0.97c0.04-0.11,0.06-0.23,0.06-0.34V324.08z"/>
	<path d="M-33.08,322.81c0-0.6-0.01-1.09-0.05-1.57h0.94l0.06,0.96h0.02c0.29-0.55,0.96-1.09,1.92-1.09c0.8,0,2.05,0.48,2.05,2.47
		v3.47h-1.05v-3.35c0-0.94-0.35-1.72-1.34-1.72c-0.7,0-1.24,0.49-1.42,1.08c-0.05,0.13-0.07,0.31-0.07,0.49v3.49h-1.05V322.81z"/>
	<path d="M-20.66,327.04l-0.08-0.73h-0.04c-0.32,0.46-0.95,0.86-1.78,0.86c-1.17,0-1.77-0.83-1.77-1.67c0-1.4,1.25-2.17,3.49-2.16
		v-0.12c0-0.48-0.13-1.34-1.32-1.34c-0.54,0-1.1,0.17-1.51,0.43l-0.24-0.7c0.48-0.31,1.17-0.52,1.91-0.52
		c1.78,0,2.21,1.21,2.21,2.37v2.17c0,0.5,0.02,1,0.1,1.39H-20.66z M-20.82,324.08c-1.15-0.02-2.46,0.18-2.46,1.31
		c0,0.68,0.46,1.01,1,1.01c0.76,0,1.24-0.48,1.4-0.97c0.04-0.11,0.06-0.23,0.06-0.34V324.08z"/>
	<path d="M-18.09,323.13c0-0.74-0.02-1.34-0.05-1.89h0.95l0.05,1h0.02c0.43-0.71,1.12-1.13,2.06-1.13c1.4,0,2.46,1.19,2.46,2.95
		c0,2.09-1.27,3.12-2.64,3.12c-0.77,0-1.44-0.34-1.79-0.91h-0.02v3.15h-1.04V323.13z M-17.05,324.68c0,0.16,0.02,0.3,0.05,0.43
		c0.19,0.73,0.83,1.24,1.58,1.24c1.12,0,1.76-0.91,1.76-2.24c0-1.16-0.61-2.16-1.73-2.16c-0.72,0-1.39,0.52-1.59,1.31
		c-0.04,0.13-0.07,0.29-0.07,0.43V324.68z"/>
	<path d="M-11.27,323.13c0-0.74-0.02-1.34-0.05-1.89h0.95l0.05,1h0.02c0.43-0.71,1.12-1.13,2.06-1.13c1.4,0,2.46,1.19,2.46,2.95
		c0,2.09-1.27,3.12-2.64,3.12c-0.77,0-1.44-0.34-1.79-0.91h-0.02v3.15h-1.04V323.13z M-10.22,324.68c0,0.16,0.02,0.3,0.05,0.43
		c0.19,0.73,0.83,1.24,1.58,1.24c1.12,0,1.76-0.91,1.76-2.24c0-1.16-0.61-2.16-1.73-2.16c-0.72,0-1.39,0.52-1.59,1.31
		c-0.04,0.13-0.07,0.29-0.07,0.43V324.68z"/>
	<path d="M-4.44,318.53h1.05v8.52h-1.05V318.53z"/>
	<path d="M-1.22,321.24l1.27,3.43c0.13,0.38,0.28,0.84,0.37,1.19h0.02c0.11-0.35,0.23-0.79,0.37-1.21l1.15-3.41h1.12l-1.58,4.14
		c-0.75,1.99-1.27,3.01-1.99,3.63c-0.52,0.46-1.03,0.64-1.3,0.68l-0.26-0.89c0.26-0.08,0.61-0.25,0.92-0.52
		c0.29-0.23,0.65-0.64,0.89-1.17c0.05-0.11,0.08-0.19,0.08-0.25c0-0.06-0.02-0.14-0.07-0.28l-2.15-5.35H-1.22z"/>
	<path d="M9.8,327.04l-0.08-0.73H9.68c-0.32,0.46-0.95,0.86-1.78,0.86c-1.17,0-1.77-0.83-1.77-1.67c0-1.4,1.25-2.17,3.49-2.16v-0.12
		c0-0.48-0.13-1.34-1.32-1.34c-0.54,0-1.1,0.17-1.51,0.43l-0.24-0.7c0.48-0.31,1.17-0.52,1.91-0.52c1.78,0,2.21,1.21,2.21,2.37v2.17
		c0,0.5,0.02,1,0.1,1.39H9.8z M9.65,324.08c-1.15-0.02-2.46,0.18-2.46,1.31c0,0.68,0.46,1.01,1,1.01c0.76,0,1.24-0.48,1.4-0.97
		c0.04-0.11,0.06-0.23,0.06-0.34V324.08z"/>
	<path d="M12.37,322.81c0-0.6-0.01-1.09-0.05-1.57h0.94l0.06,0.96h0.02c0.29-0.55,0.96-1.09,1.92-1.09c0.8,0,2.05,0.48,2.05,2.47
		v3.47h-1.05v-3.35c0-0.94-0.35-1.72-1.34-1.72c-0.7,0-1.24,0.49-1.42,1.08c-0.05,0.13-0.07,0.31-0.07,0.49v3.49h-1.05V322.81z"/>
	<path d="M19.26,321.24l1.27,3.43c0.13,0.38,0.28,0.84,0.37,1.19h0.02c0.11-0.35,0.23-0.79,0.37-1.21l1.15-3.41h1.12l-1.58,4.14
		c-0.75,1.99-1.27,3.01-1.99,3.63c-0.52,0.46-1.03,0.64-1.3,0.68l-0.26-0.89c0.26-0.08,0.61-0.25,0.92-0.52
		c0.29-0.23,0.65-0.64,0.89-1.17c0.05-0.11,0.08-0.19,0.08-0.25c0-0.06-0.02-0.14-0.07-0.28l-2.15-5.35H19.26z"/>
	<path d="M27.18,327.04v-5h-0.82v-0.8h0.82v-0.31c0-1.54,0.9-2.53,2.53-2.53c0.54,0,1.18,0.17,1.48,0.38l-0.3,0.8
		c-0.25-0.18-0.71-0.34-1.22-0.34c-1.12,0-1.44,0.78-1.44,1.7v0.29h3.37v5.8h-1.04v-5h-2.33v5H27.18z"/>
	<path d="M33.35,318.53h1.05v8.52h-1.05V318.53z"/>
	<path d="M37.45,319.57v1.67h1.51v0.8h-1.51v3.13c0,0.72,0.2,1.13,0.79,1.13c0.28,0,0.48-0.04,0.61-0.07l0.05,0.79
		c-0.2,0.08-0.53,0.14-0.94,0.14c-0.49,0-0.89-0.16-1.14-0.44c-0.3-0.31-0.41-0.83-0.41-1.51v-3.17h-0.9v-0.8h0.9v-1.39
		L37.45,319.57z"/>
	<path d="M40.67,324.33c0.02,1.43,0.94,2.02,1.99,2.02c0.76,0,1.21-0.13,1.61-0.3l0.18,0.75c-0.37,0.17-1.01,0.36-1.93,0.36
		c-1.79,0-2.85-1.18-2.85-2.93s1.03-3.13,2.72-3.13c1.89,0,2.4,1.67,2.4,2.73c0,0.22-0.02,0.38-0.04,0.49H40.67z M43.76,323.58
		c0.01-0.67-0.28-1.72-1.46-1.72c-1.07,0-1.54,0.98-1.62,1.72H43.76z"/>
	<path d="M46.09,323.05c0-0.68-0.01-1.27-0.05-1.81h0.92l0.04,1.14h0.05c0.26-0.78,0.9-1.27,1.61-1.27c0.12,0,0.2,0.01,0.3,0.04v1
		c-0.11-0.02-0.22-0.04-0.36-0.04c-0.74,0-1.27,0.56-1.42,1.36c-0.02,0.14-0.05,0.31-0.05,0.49v3.09h-1.04V323.05z"/>
	<path d="M57.81,324.09c0,2.15-1.49,3.08-2.89,3.08c-1.57,0-2.78-1.15-2.78-2.99c0-1.94,1.27-3.08,2.88-3.08
		C56.68,321.11,57.81,322.32,57.81,324.09z M53.21,324.15c0,1.27,0.73,2.23,1.76,2.23c1.01,0,1.76-0.95,1.76-2.25
		c0-0.98-0.49-2.23-1.74-2.23C53.75,321.9,53.21,323.05,53.21,324.15z"/>
	<path d="M59.15,323.05c0-0.68-0.01-1.27-0.05-1.81h0.92l0.04,1.14h0.05c0.26-0.78,0.9-1.27,1.61-1.27c0.12,0,0.2,0.01,0.3,0.04v1
		c-0.11-0.02-0.22-0.04-0.36-0.04c-0.74,0-1.27,0.56-1.42,1.36c-0.02,0.14-0.05,0.31-0.05,0.49v3.09h-1.04V323.05z"/>
	<path d="M69.75,326.83c-0.28,0.14-0.89,0.34-1.67,0.34c-1.75,0-2.89-1.19-2.89-2.96c0-1.79,1.22-3.08,3.12-3.08
		c0.62,0,1.17,0.16,1.46,0.3l-0.24,0.82c-0.25-0.14-0.65-0.28-1.22-0.28c-1.33,0-2.05,0.98-2.05,2.19c0,1.34,0.86,2.17,2.01,2.17
		c0.6,0,1-0.16,1.29-0.29L69.75,326.83z"/>
	<path d="M70.99,318.53h1.05v3.62h0.02c0.17-0.3,0.43-0.56,0.76-0.74c0.31-0.18,0.68-0.3,1.08-0.3c0.78,0,2.03,0.48,2.03,2.48v3.45
		h-1.05v-3.33c0-0.94-0.35-1.73-1.34-1.73c-0.68,0-1.22,0.48-1.42,1.06c-0.06,0.14-0.07,0.3-0.07,0.5v3.5h-1.05V318.53z"/>
	<path d="M80.87,327.04l-0.08-0.73h-0.04c-0.32,0.46-0.95,0.86-1.78,0.86c-1.17,0-1.77-0.83-1.77-1.67c0-1.4,1.25-2.17,3.49-2.16
		v-0.12c0-0.48-0.13-1.34-1.32-1.34c-0.54,0-1.1,0.17-1.51,0.43l-0.24-0.7c0.48-0.31,1.17-0.52,1.91-0.52
		c1.78,0,2.21,1.21,2.21,2.37v2.17c0,0.5,0.02,1,0.1,1.39H80.87z M80.71,324.08c-1.15-0.02-2.46,0.18-2.46,1.31
		c0,0.68,0.46,1.01,1,1.01c0.76,0,1.24-0.48,1.4-0.97c0.04-0.11,0.06-0.23,0.06-0.34V324.08z"/>
	<path d="M83.44,322.81c0-0.6-0.01-1.09-0.05-1.57h0.94l0.06,0.96h0.02c0.29-0.55,0.96-1.09,1.92-1.09c0.8,0,2.05,0.48,2.05,2.47
		v3.47h-1.05v-3.35c0-0.94-0.35-1.72-1.34-1.72c-0.7,0-1.24,0.49-1.42,1.08c-0.05,0.13-0.07,0.31-0.07,0.49v3.49h-1.05V322.81z"/>
	<path d="M95.1,321.24c-0.02,0.42-0.05,0.89-0.05,1.59v3.37c0,1.33-0.26,2.15-0.83,2.65c-0.56,0.53-1.38,0.7-2.11,0.7
		c-0.7,0-1.46-0.17-1.93-0.48l0.26-0.8c0.38,0.24,0.98,0.46,1.7,0.46c1.08,0,1.87-0.56,1.87-2.03v-0.65h-0.02
		c-0.32,0.54-0.95,0.97-1.85,0.97c-1.44,0-2.47-1.22-2.47-2.83c0-1.97,1.28-3.08,2.61-3.08c1.01,0,1.56,0.53,1.81,1.01h0.02
		l0.05-0.88H95.1z M94,323.53c0-0.18-0.01-0.34-0.06-0.48c-0.19-0.61-0.71-1.12-1.48-1.12c-1.01,0-1.73,0.85-1.73,2.2
		c0,1.14,0.58,2.09,1.71,2.09c0.65,0,1.24-0.41,1.46-1.08c0.06-0.18,0.08-0.38,0.08-0.56V323.53z"/>
	<path d="M97.39,324.33c0.02,1.43,0.94,2.02,1.99,2.02c0.76,0,1.21-0.13,1.61-0.3l0.18,0.75c-0.37,0.17-1.01,0.36-1.93,0.36
		c-1.79,0-2.85-1.18-2.85-2.93s1.03-3.13,2.72-3.13c1.89,0,2.4,1.67,2.4,2.73c0,0.22-0.02,0.38-0.04,0.49H97.39z M100.48,323.58
		c0.01-0.67-0.28-1.72-1.46-1.72c-1.07,0-1.54,0.98-1.62,1.72H100.48z"/>
	<path d="M106.63,319.57v1.67h1.51v0.8h-1.51v3.13c0,0.72,0.2,1.13,0.79,1.13c0.28,0,0.48-0.04,0.61-0.07l0.05,0.79
		c-0.2,0.08-0.53,0.14-0.94,0.14c-0.49,0-0.89-0.16-1.14-0.44c-0.3-0.31-0.41-0.83-0.41-1.51v-3.17h-0.9v-0.8h0.9v-1.39
		L106.63,319.57z"/>
	<path d="M109.33,318.53h1.05v3.62h0.02c0.17-0.3,0.43-0.56,0.76-0.74c0.31-0.18,0.68-0.3,1.08-0.3c0.78,0,2.03,0.48,2.03,2.48v3.45
		h-1.05v-3.33c0-0.94-0.35-1.73-1.34-1.73c-0.68,0-1.22,0.48-1.42,1.06c-0.06,0.14-0.07,0.3-0.07,0.5v3.5h-1.05V318.53z"/>
	<path d="M116.58,324.33c0.02,1.43,0.94,2.02,1.99,2.02c0.76,0,1.21-0.13,1.61-0.3l0.18,0.75c-0.37,0.17-1.01,0.36-1.93,0.36
		c-1.79,0-2.85-1.18-2.85-2.93s1.03-3.13,2.72-3.13c1.89,0,2.4,1.67,2.4,2.73c0,0.22-0.02,0.38-0.04,0.49H116.58z M119.67,323.58
		c0.01-0.67-0.28-1.72-1.46-1.72c-1.07,0-1.54,0.98-1.62,1.72H119.67z"/>
	<path d="M125.82,319.57v1.67h1.51v0.8h-1.51v3.13c0,0.72,0.2,1.13,0.79,1.13c0.28,0,0.48-0.04,0.61-0.07l0.05,0.79
		c-0.2,0.08-0.53,0.14-0.94,0.14c-0.49,0-0.89-0.16-1.14-0.44c-0.3-0.31-0.41-0.83-0.41-1.51v-3.17h-0.9v-0.8h0.9v-1.39
		L125.82,319.57z"/>
	<path d="M131.73,327.04l-0.08-0.73h-0.04c-0.32,0.46-0.95,0.86-1.78,0.86c-1.17,0-1.77-0.83-1.77-1.67c0-1.4,1.25-2.17,3.49-2.16
		v-0.12c0-0.48-0.13-1.34-1.32-1.34c-0.54,0-1.1,0.17-1.51,0.43l-0.24-0.7c0.48-0.31,1.17-0.52,1.91-0.52
		c1.78,0,2.21,1.21,2.21,2.37v2.17c0,0.5,0.02,1,0.1,1.39H131.73z M131.58,324.08c-1.15-0.02-2.46,0.18-2.46,1.31
		c0,0.68,0.46,1.01,1,1.01c0.76,0,1.24-0.48,1.4-0.97c0.04-0.11,0.06-0.23,0.06-0.34V324.08z"/>
	<path d="M134.25,327.04c0.02-0.4,0.05-0.98,0.05-1.5v-7.02h1.04v3.65h0.02c0.37-0.65,1.04-1.07,1.98-1.07
		c1.44,0,2.46,1.2,2.45,2.96c0,2.08-1.31,3.11-2.6,3.11c-0.84,0-1.51-0.32-1.94-1.09h-0.04l-0.05,0.96H134.25z M135.35,324.72
		c0,0.13,0.02,0.26,0.05,0.38c0.2,0.73,0.82,1.24,1.58,1.24c1.1,0,1.76-0.9,1.76-2.23c0-1.16-0.6-2.16-1.73-2.16
		c-0.72,0-1.39,0.49-1.61,1.3c-0.02,0.12-0.06,0.26-0.06,0.43V324.72z"/>
</g>
<g>
</g>
<g>
</g>
<g>
</g>
<g>
</g>
<g>
</g>
<g>
</g>
<g>
</g>
<g>
</g>
</svg>
