<?xml version="1.0" encoding="utf-8"?>
<!-- Generator: Adobe Illustrator 23.0.1, SVG Export Plug-In . SVG Version: 6.00 Build 0)  -->
<svg version="1.1" id="Capa_1" xmlns="http://www.w3.org/2000/svg" xmlns:xlink="http://www.w3.org/1999/xlink" x="0px" y="0px"
	 viewBox="0 0 515.04 206.19" style="enable-background:new 0 0 515.04 206.19;" xml:space="preserve">
<style type="text/css">
	.st0{opacity:0.54;}
	.st1{fill:none;stroke:#1E447F;stroke-miterlimit:10;stroke-dasharray:4,3;}
	.st2{fill:#1E447F;}
</style>
<g class="st0">
	<g>
		<path class="st1" d="M130.09,112.39c-11.04-2.89-40.02,5.94-49.6,37.42c-8.99,29.54-44.67,37.99-62.96,33.8"/>
		<g>
			<polygon class="st2" points="9.73,180.28 22.63,180.21 18.18,183.68 18.99,189.26 			"/>
		</g>
	</g>
</g>
<g class="st0">
	<g>
		<path class="st1" d="M503,103.03c8.65-17.3,4.04-66.75-48.46-56.54c-67.69,13.17-88.58-4.27-92.27-29.96"/>
		<g>
			<polygon class="st2" points="361.64,8.08 367.55,19.54 362.44,17.15 357.83,20.4 			"/>
		</g>
	</g>
</g>
<g class="st0">
	<path class="st2" d="M146.02,113.42c-0.78,1.33-1.46,2.6-1.98,3.74c-0.1,0.23-0.34,0.23-0.47,0.05c-0.31-0.42-0.42-1.2,0.13-2.65
		c0.16-0.39,0.39-0.91,0.7-1.48c-0.57-0.31-0.78-0.7-0.86-0.88c-0.13-0.34-0.08-0.44,0.31-0.39c0.36,0.05,0.75,0.1,1.17,0.13
		c2.03-3.54,5.64-8.68,8.4-10.95c0.42-0.34,0.68-0.34,0.94,0.03c0.26,0.36,0.34,0.42,0.6,1.07c0.26,0.62,0.23,1.2,0,1.9
		c-0.68,2.05-1.4,4.71-1.9,7.57c0.78,0.26,1.07,0.78,1.17,1.33c0.05,0.23-0.05,0.31-0.29,0.23c-0.31-0.08-0.68-0.13-1.12-0.16
		c-0.18,1.35-0.34,2.78-0.39,4.16c0,0.26-0.16,0.34-0.39,0.23c-0.52-0.23-0.94-0.88-0.96-2.37c0-0.52,0.03-1.2,0.1-1.98
		C149.35,113.13,147.24,113.44,146.02,113.42z M151.4,111.41c0.39-2.7,1.12-5.98,1.92-8.01c-1.98,2.21-4.34,5.36-6.32,8.45
		C148.59,111.73,150.18,111.44,151.4,111.41z"/>
	<path class="st2" d="M165.18,113.18c0.16-0.36,0.44-0.26,0.49,0c0.05,0.23,0.1,0.91-0.34,1.72c-0.99,1.79-2.76,2.65-4.63,2.78
		c-1.66,0.1-2.76-0.13-3.67-0.96c-0.55-0.49-0.81-1.09-0.88-1.74c-1.22,2.24-2.55,4.89-3.8,7.77c-0.1,0.23-0.29,0.29-0.44,0.05
		c-0.39-0.55-0.52-1.27-0.03-2.86c0.78-2.52,5.15-10.76,6.79-12.95c0.26-0.34,0.49-0.29,0.62,0.03c0.13,0.34,0.18,0.73,0.16,1.17
		c1.14-0.99,2.68-1.72,3.8-0.55c1.25,1.33,0.68,3.64-0.29,5.77c-0.78,1.72-1.74,2.96-2.73,3.56
		C162.79,116.82,164.35,114.95,165.18,113.18z M157.56,116.17c0.83,0.68,2.52-1.22,3.74-3.72c1.01-2.08,1.3-4.24,0.65-4.55
		c-0.62-0.31-2.24,0.99-3.46,2.99c-0.29,0.47-0.57,0.94-0.88,1.48C156.96,114.01,156.83,115.57,157.56,116.17z"/>
	<path class="st2" d="M167.15,116.69c1.25,0.1,3.07-1.77,4.08-3.77c0.18-0.34,0.47-0.36,0.57,0c0.13,0.42,0.03,0.99-0.26,1.61
		c-0.36,0.78-2.26,2.94-4.34,2.89c-1.79-0.05-2.76-1.3-2.16-4.11c0.96-4.52,3.93-9.23,6.58-11.99c0.39-0.42,0.75-0.47,1.12-0.13
		c0.75,0.68,0.91,1.64,0.6,2.86c-0.81,3.2-3.72,6.32-6.03,7.83C166.27,114.43,165.98,116.59,167.15,116.69z M172.46,103.51
		c-0.34-0.21-2.26,2.68-4.06,6.01c-0.23,0.42-0.44,0.83-0.62,1.25C171.34,107.88,172.8,103.72,172.46,103.51z"/>
	<path class="st2" d="M170.79,113.68c0.65-1.9,2.37-4.97,3.33-6.32c0.23-0.31,0.42-0.39,0.62-0.16c0.39,0.42,0.6,1.53-0.03,2.83
		c-0.55,1.14-1.64,2.91-2.18,4.21c-0.62,1.51-0.57,2.52,0.26,2.47c1.17-0.05,2.6-1.77,3.38-3.56c0.13-0.23,0.31-0.21,0.42,0
		c0.21,0.42,0.13,0.96-0.18,1.61c-0.78,1.61-2.42,2.7-3.87,2.7C170.56,117.47,170.07,115.81,170.79,113.68z M176.59,106.89
		c-0.34,0.36-1.07,0.29-1.46-0.39c-0.42-0.7-0.29-1.48,0.13-1.92c0.42-0.44,1.17-0.13,1.51,0.57
		C177.11,105.82,176.93,106.53,176.59,106.89z"/>
	<path class="st2" d="M183.82,108.48c0.55,1.09-0.49,2.47-1.01,3.87c-0.1,0.31-0.21,0.39-0.55,0.21c-0.62-0.31-0.99-1.09-0.62-2.26
		c0.29-0.94,1.07-2.05,0.7-2.34c-0.44-0.36-2.39,1.3-3.56,3.67c-1.43,2.94-0.88,5.1,0.65,5.12c2.18,0.03,4.06-2.05,5.12-3.69
		c0.13-0.21,0.36-0.23,0.47,0.03c0.08,0.21-0.03,0.86-0.47,1.56c-0.99,1.53-3.04,2.81-5.02,2.83c-3.3,0.05-4.42-3.17-2.73-6.53
		c1.66-3.28,4.29-4.68,5.59-3.9C183.09,107.46,183.51,107.88,183.82,108.48z"/>
	<path class="st2" d="M193.41,107.04c0.23-0.34,0.44-0.39,0.62-0.16c0.39,0.47,0.6,1.59-0.03,2.89c-0.57,1.17-1.87,3.12-2.5,4.5
		c-0.65,1.46-0.68,2.57,0.21,2.52c1.07-0.05,2.5-1.82,3.41-3.61c0.13-0.23,0.31-0.26,0.42-0.03c0.1,0.23,0.1,0.88-0.23,1.61
		c-0.68,1.43-2.31,2.86-3.74,2.78c-1.4-0.08-2.13-0.91-2.13-2.13c-0.83,1.07-2,2.03-3.25,2.03c-2.42,0-2.91-3.3-0.75-6.45
		c2.11-3.07,4.16-4.24,5.46-4.24c1.12,0,1.64,0.86,1.59,1.87C192.82,108.01,193.13,107.46,193.41,107.04z M191.33,108.11
		c-0.83-0.08-2.73,1.61-4.16,3.93c-1.38,2.24-1.72,4.52-0.7,4.55c1.07,0.03,2.42-1.64,3.74-3.93
		C191.85,109.8,192.09,108.19,191.33,108.11z"/>
	<path class="st2" d="M208.21,108.48c0.55,1.09-0.49,2.47-1.01,3.87c-0.1,0.31-0.21,0.39-0.55,0.21c-0.62-0.31-0.99-1.09-0.62-2.26
		c0.29-0.94,1.07-2.05,0.7-2.34c-0.44-0.36-2.39,1.3-3.56,3.67c-1.43,2.94-0.88,5.1,0.65,5.12c2.18,0.03,4.06-2.05,5.12-3.69
		c0.13-0.21,0.36-0.23,0.47,0.03c0.08,0.21-0.03,0.86-0.47,1.56c-0.99,1.53-3.04,2.81-5.02,2.83c-3.3,0.05-4.42-3.17-2.73-6.53
		c1.66-3.28,4.29-4.68,5.59-3.9C207.48,107.46,207.9,107.88,208.21,108.48z"/>
	<path class="st2" d="M209.74,117.42c-1.85-0.13-1.9-2.05-1.33-3.77c0.57-1.72,1.9-4.26,3.59-6.63c0.21-0.29,0.47-0.26,0.68-0.03
		c0.57,0.86,0.44,2.03-0.49,3.51c-0.96,1.53-1.48,2.57-2.03,3.82c-0.55,1.27-0.47,2.21,0.13,2.26c1.01,0.08,2.44-1.74,3.85-4
		c1.64-2.65,2.39-4.45,3.22-5.56c0.26-0.36,0.44-0.42,0.65-0.16c0.39,0.47,0.6,1.61-0.03,2.91c-0.57,1.17-1.87,3.12-2.47,4.45
		c-0.68,1.48-0.57,2.57,0.36,2.52c1.09-0.05,2.42-1.77,3.43-3.59c0.13-0.23,0.36-0.26,0.47-0.03c0.1,0.21,0.13,0.91-0.23,1.64
		c-0.75,1.46-2.37,2.78-3.9,2.78c-1.69,0-2.37-1.07-2.16-2.57C212.57,116.2,211.2,117.52,209.74,117.42z"/>
	<path class="st2" d="M228.25,107.04c0.23-0.34,0.44-0.39,0.62-0.16c0.39,0.47,0.6,1.59-0.03,2.89c-0.57,1.17-1.87,3.12-2.5,4.5
		c-0.65,1.46-0.68,2.57,0.21,2.52c1.07-0.05,2.5-1.82,3.41-3.61c0.13-0.23,0.31-0.26,0.42-0.03c0.1,0.23,0.1,0.88-0.23,1.61
		c-0.68,1.43-2.31,2.86-3.74,2.78c-1.4-0.08-2.13-0.91-2.13-2.13c-0.83,1.07-2,2.03-3.25,2.03c-2.42,0-2.91-3.3-0.75-6.45
		c2.11-3.07,4.16-4.24,5.46-4.24c1.12,0,1.64,0.86,1.59,1.87C227.66,108.01,227.97,107.46,228.25,107.04z M226.17,108.11
		c-0.83-0.08-2.73,1.61-4.16,3.93c-1.38,2.24-1.72,4.52-0.7,4.55c1.07,0.03,2.42-1.64,3.74-3.93
		C226.69,109.8,226.93,108.19,226.17,108.11z"/>
	<path class="st2" d="M231.87,116.69c1.25,0.1,3.07-1.77,4.08-3.77c0.18-0.34,0.47-0.36,0.57,0c0.13,0.42,0.03,0.99-0.26,1.61
		c-0.36,0.78-2.26,2.94-4.34,2.89c-1.79-0.05-2.76-1.3-2.16-4.11c0.96-4.52,3.93-9.23,6.58-11.99c0.39-0.42,0.75-0.47,1.12-0.13
		c0.75,0.68,0.91,1.64,0.6,2.86c-0.81,3.2-3.72,6.32-6.03,7.83C230.98,114.43,230.7,116.59,231.87,116.69z M237.17,103.51
		c-0.34-0.21-2.26,2.68-4.06,6.01c-0.23,0.42-0.44,0.83-0.62,1.25C236.05,107.88,237.51,103.72,237.17,103.51z"/>
	<path class="st2" d="M237.46,117.47c-2.42,0-2.91-3.28-0.75-6.45c2.05-2.99,4.16-4.19,5.46-4.19c1.14,0,1.66,0.91,1.59,1.87
		c0.44-0.78,0.88-1.43,1.12-1.66c0.29-0.29,0.44-0.21,0.65,0.08c0.31,0.65,0.29,1.79-0.57,3.33c-1.59,2.83-4.68,8.19-6.73,13.1
		c-0.13,0.29-0.29,0.31-0.47,0.1c-0.36-0.42-0.68-0.91-0.23-2.39c0.31-1.09,0.99-2.76,1.82-4.45
		C238.76,117.21,238.11,117.47,237.46,117.47z M242.61,108.16c-0.83-0.05-2.73,1.61-4.16,3.9c-1.4,2.24-1.72,4.6-0.7,4.6
		c1.07,0,2.42-1.64,3.74-3.95C243.13,109.85,243.36,108.22,242.61,108.16z"/>
	<path class="st2" d="M246.37,117.42c-1.85-0.13-1.9-2.05-1.33-3.77c0.57-1.72,1.9-4.26,3.59-6.63c0.21-0.29,0.47-0.26,0.68-0.03
		c0.57,0.86,0.44,2.03-0.49,3.51c-0.96,1.53-1.48,2.57-2.03,3.82c-0.55,1.27-0.47,2.21,0.13,2.26c1.01,0.08,2.44-1.74,3.85-4
		c1.64-2.65,2.39-4.45,3.22-5.56c0.26-0.36,0.44-0.42,0.65-0.16c0.39,0.47,0.6,1.61-0.03,2.91c-0.57,1.17-1.87,3.12-2.47,4.45
		c-0.68,1.48-0.57,2.57,0.36,2.52c1.09-0.05,2.42-1.77,3.43-3.59c0.13-0.23,0.36-0.26,0.47-0.03c0.1,0.21,0.13,0.91-0.23,1.64
		c-0.75,1.46-2.37,2.78-3.9,2.78c-1.69,0-2.37-1.07-2.16-2.57C249.21,116.2,247.83,117.52,246.37,117.42z"/>
	<path class="st2" d="M255.58,113.68c0.65-1.9,2.37-4.97,3.33-6.32c0.23-0.31,0.42-0.39,0.62-0.16c0.39,0.42,0.6,1.53-0.03,2.83
		c-0.55,1.14-1.64,2.91-2.18,4.21c-0.62,1.51-0.57,2.52,0.26,2.47c1.17-0.05,2.6-1.77,3.38-3.56c0.13-0.23,0.31-0.21,0.42,0
		c0.21,0.42,0.13,0.96-0.18,1.61c-0.78,1.61-2.42,2.7-3.87,2.7C255.34,117.47,254.85,115.81,255.58,113.68z M261.38,106.89
		c-0.34,0.36-1.07,0.29-1.46-0.39c-0.42-0.7-0.29-1.48,0.13-1.92c0.42-0.44,1.17-0.13,1.51,0.57
		C261.9,105.82,261.71,106.53,261.38,106.89z"/>
	<path class="st2" d="M274.45,117.47c-1.98-0.1-2.76-1.87-2.11-3.98c0.55-1.74,2.11-3.67,3.22-4.91c-1.14,0.73-2.31,0.99-3.12,0.99
		c-2.16,4.52-4.97,7.8-8.06,7.85c-3.3,0.05-4.42-3.17-2.73-6.5c1.64-3.22,4.29-4.68,5.59-3.93c0.65,0.39,1.12,0.75,1.53,1.33
		c0.44,0.62,0.18,2.16-0.86,3.48c-1.22,1.59-2.96,2.24-4.78,0.78c-0.83,2.37-0.18,4.06,1.14,4.11c2.86,0.13,5.72-3.98,7.15-7.28
		c-2-0.83,0.55-4.29,1.64-4.34c0.81-0.03,0.55,1.56-0.1,3.25c0.91-0.13,1.82-0.55,2.83-1.22c0.31-0.21,0.55-0.34,0.73-0.08
		c0.52,0.57,1.17,1.82,0.39,2.68c-1.22,1.35-2.55,3.12-2.99,4.52c-0.44,1.43-0.13,2.47,0.65,2.5c1.09,0.05,2.42-1.66,3.25-3.59
		c0.1-0.21,0.29-0.26,0.39-0.03c0.13,0.29,0.18,0.96-0.13,1.69C277.44,116.35,275.89,117.55,274.45,117.47z M266.45,110.74
		c0.83-1.07,1.38-2.42,1.04-2.7c-0.57-0.49-2.7,1.14-3.9,3.54c-0.08,0.13-0.13,0.31-0.21,0.44
		C264.65,112.79,265.67,111.73,266.45,110.74z"/>
	<path class="st2" d="M287.35,115.31c0,0.29-0.03,0.57-0.05,0.88c0.99-0.65,2.03-1.95,2.7-3.3c0.16-0.31,0.42-0.34,0.55,0.03
		c0.13,0.39-0.03,0.96-0.26,1.56c-0.26,0.62-1.56,2.16-3.12,2.7c-0.42,2.63-1.56,5.51-2.81,7.07c-0.88,1.09-1.53,1.2-2.31,0.52
		c-0.65-0.55-1.43-1.56-1.14-3.77c0.73-5.8,6.71-15.76,9.59-20.07c0.21-0.31,0.55-0.29,0.65,0.03c0.31,0.88,0.23,2-0.88,3.9
		c-1.07,1.77-2.86,4.71-4.26,7.44C286.99,112.61,287.38,113.6,287.35,115.31z M282.33,123.76c0.57,0.75,2.52-2.83,3.38-6.4
		c-0.75-0.08-1.27-0.42-1.59-1.04C282.67,119.79,281.73,123.01,282.33,123.76z M286.1,114.74c0.03-0.96-0.23-1.77-0.42-1.69
		c-0.26,0.1-0.49,1.48-0.52,2.08c-0.03,0.83,0.21,1.38,0.7,1.48C286,115.99,286.08,115.34,286.1,114.74z"/>
	<path class="st2" d="M289.66,113.68c0.65-1.9,2.37-4.97,3.33-6.32c0.23-0.31,0.42-0.39,0.62-0.16c0.39,0.42,0.6,1.53-0.03,2.83
		c-0.55,1.14-1.64,2.91-2.18,4.21c-0.62,1.51-0.57,2.52,0.26,2.47c1.17-0.05,2.6-1.77,3.38-3.56c0.13-0.23,0.31-0.21,0.42,0
		c0.21,0.42,0.13,0.96-0.18,1.61c-0.78,1.61-2.42,2.7-3.87,2.7C289.43,117.47,288.93,115.81,289.66,113.68z M295.46,106.89
		c-0.34,0.36-1.07,0.29-1.46-0.39c-0.42-0.7-0.29-1.48,0.13-1.92c0.42-0.44,1.17-0.13,1.51,0.57
		C295.98,105.82,295.8,106.53,295.46,106.89z"/>
	<path class="st2" d="M297.15,116.69c1.25,0.1,3.07-1.77,4.08-3.77c0.18-0.34,0.47-0.36,0.57,0c0.13,0.42,0.03,0.99-0.26,1.61
		c-0.36,0.78-2.26,2.94-4.34,2.89c-1.79-0.05-2.76-1.3-2.16-4.11c0.96-4.52,3.93-9.23,6.58-11.99c0.39-0.42,0.75-0.47,1.12-0.13
		c0.75,0.68,0.91,1.64,0.6,2.86c-0.81,3.2-3.72,6.32-6.03,7.83C296.27,114.43,295.98,116.59,297.15,116.69z M302.46,103.51
		c-0.34-0.21-2.26,2.68-4.06,6.01c-0.23,0.42-0.44,0.83-0.62,1.25C301.34,107.88,302.79,103.72,302.46,103.51z"/>
	<path class="st2" d="M312.15,117.52c-1.98-0.08-2.76-1.87-2.11-3.95c0.55-1.74,2.13-3.69,3.25-4.94c-1.17,0.73-2.31,0.99-3.17,0.99
		c-1.72,3.93-4.42,7.85-7.15,7.85c-1.74,0-3.15-1.98-1.9-4.97c0.52-1.27,1.64-3.48,2.76-5.49c-0.86-0.03-1.43-0.39-1.66-0.73
		s-0.1-0.55,0.29-0.52c0.83,0.05,1.51-0.03,2.13-0.08c0.81-1.43,1.51-2.65,1.98-3.22c0.23-0.36,0.49-0.34,0.62,0
		c0.29,0.7,0.26,1.61-0.36,2.99c0.83,0.05,1.33,0.49,1.56,0.91c0.16,0.29,0.03,0.42-0.36,0.39c-0.52-0.03-1.17-0.03-1.87,0.03
		c-1.01,1.77-2.52,4.26-3.51,6.45c-0.88,1.95-0.52,3.54,0.55,3.51c1.56-0.05,4.29-3.25,5.9-7.28c-1.95-0.78,0.6-4.29,1.66-4.34
		c0.86-0.05,0.6,1.56-0.1,3.25c0.91-0.08,1.87-0.52,2.83-1.2c0.34-0.23,0.52-0.31,0.75-0.05c0.49,0.57,1.17,1.74,0.39,2.63
		c-1.25,1.4-2.55,3.15-2.99,4.52c-0.47,1.43-0.13,2.47,0.65,2.5c1.07,0.05,2.39-1.64,3.25-3.59c0.1-0.21,0.29-0.26,0.39,0
		c0.13,0.31,0.18,0.96-0.13,1.69C315.14,116.43,313.58,117.58,312.15,117.52z"/>
	<path class="st2" d="M323.41,111.83c-0.55,2.21-2.18,4.84-4.11,5.49c-0.94,0.31-2.24,0.21-3.28-1.14
		c-1.14-1.51-0.75-3.77,0.42-5.85c0.99-1.77,2.57-3.28,4.13-3.38c0.81-0.05,1.25,0.18,1.77,0.88c0.6,0.81,1.38,0.99,1.22,2.86
		c-0.03,0.21-0.03,0.39-0.05,0.6c0.16,0,0.31-0.05,0.52-0.05c0.18,0,0.18,0.13,0.08,0.26C323.93,111.7,323.67,111.8,323.41,111.83z
		 M321.2,111.18c-0.55-0.42-1.17-1.33-1.2-2.29c-0.7,0.6-1.46,1.46-2,2.44c-1.09,1.98-1.48,4.37-0.81,4.94
		c0.73,0.6,2.31-0.31,3.59-2.7c0.39-0.73,0.7-1.46,0.91-2.08C321.51,111.41,321.36,111.31,321.2,111.18z M322.09,108.87
		c-0.13-0.83-0.65-0.68-0.78,0.08c-0.13,0.7,0.16,1.46,0.57,1.85C322.09,109.98,322.16,109.33,322.09,108.87z"/>
	<path class="st2" d="M337.76,111.83c-0.55,2.21-2.18,4.84-4.11,5.49c-0.94,0.31-2.24,0.21-3.28-1.14
		c-1.14-1.51-0.75-3.77,0.42-5.85c0.99-1.77,2.57-3.28,4.13-3.38c0.81-0.05,1.25,0.18,1.77,0.88c0.6,0.81,1.38,0.99,1.22,2.86
		c-0.03,0.21-0.03,0.39-0.05,0.6c0.16,0,0.31-0.05,0.52-0.05c0.18,0,0.18,0.13,0.08,0.26C338.28,111.7,338.02,111.8,337.76,111.83z
		 M335.55,111.18c-0.55-0.42-1.17-1.33-1.2-2.29c-0.7,0.6-1.46,1.46-2,2.44c-1.09,1.98-1.48,4.37-0.81,4.94
		c0.73,0.6,2.31-0.31,3.59-2.7c0.39-0.73,0.7-1.46,0.91-2.08C335.86,111.41,335.71,111.31,335.55,111.18z M336.44,108.87
		c-0.13-0.83-0.65-0.68-0.78,0.08c-0.13,0.7,0.16,1.46,0.57,1.85C336.44,109.98,336.51,109.33,336.44,108.87z"/>
	<path class="st2" d="M351.78,108.48c0.55,1.09-0.49,2.47-1.01,3.87c-0.1,0.31-0.21,0.39-0.55,0.21c-0.62-0.31-0.99-1.09-0.62-2.26
		c0.29-0.94,1.07-2.05,0.7-2.34c-0.44-0.36-2.39,1.3-3.56,3.67c-1.43,2.94-0.88,5.1,0.65,5.12c2.18,0.03,4.06-2.05,5.12-3.69
		c0.13-0.21,0.36-0.23,0.47,0.03c0.08,0.21-0.03,0.86-0.47,1.56c-0.99,1.53-3.04,2.81-5.02,2.83c-3.3,0.05-4.42-3.17-2.73-6.53
		c1.66-3.28,4.29-4.68,5.59-3.9C351.05,107.46,351.46,107.88,351.78,108.48z"/>
	<path class="st2" d="M361.37,107.04c0.23-0.34,0.44-0.39,0.62-0.16c0.39,0.47,0.6,1.59-0.03,2.89c-0.57,1.17-1.87,3.12-2.5,4.5
		c-0.65,1.46-0.68,2.57,0.21,2.52c1.07-0.05,2.5-1.82,3.41-3.61c0.13-0.23,0.31-0.26,0.42-0.03c0.1,0.23,0.1,0.88-0.23,1.61
		c-0.68,1.43-2.31,2.86-3.74,2.78c-1.4-0.08-2.13-0.91-2.13-2.13c-0.83,1.07-2,2.03-3.25,2.03c-2.42,0-2.91-3.3-0.75-6.45
		c2.11-3.07,4.16-4.24,5.46-4.24c1.12,0,1.64,0.86,1.59,1.87C360.77,108.01,361.08,107.46,361.37,107.04z M359.29,108.11
		c-0.83-0.08-2.73,1.61-4.16,3.93c-1.38,2.24-1.72,4.52-0.7,4.55c1.07,0.03,2.42-1.64,3.74-3.93
		C359.81,109.8,360.04,108.19,359.29,108.11z"/>
	<path class="st2" d="M370.73,106.86c0.88,0.03,1.35,1.4,1.01,2.55c1.25-1.22,2.99-2.44,3.85-2.42c0.94,0.03,1.14,1.56,0.62,2.86
		c-0.47,1.17-1.74,2.89-2.39,4.19c-0.73,1.48-0.36,2.68,0.57,2.65c1.07-0.03,2.24-1.74,3.25-3.56c0.13-0.23,0.34-0.23,0.47-0.05
		c0.13,0.18,0.05,1.04-0.23,1.64c-0.73,1.48-2.39,2.78-3.9,2.78c-2.26,0-3.09-1.79-2.13-3.93c0.96-2.16,3.28-5.07,2.89-5.2
		c-0.21-0.08-1.09,0.21-2.78,1.9c-2.16,2.16-3.43,4.65-4.52,7.1c-0.16,0.31-0.36,0.39-0.6,0.13c-0.44-0.39-0.81-1.4-0.05-3.28
		c0.86-2.16,3.67-5.75,3.15-5.93c-0.31-0.13-1.59,0.57-3.25,2.39c-1.53,1.66-2.78,4.08-3.82,6.53c-0.1,0.23-0.26,0.34-0.49,0.13
		c-0.57-0.49-0.7-1.35-0.26-2.68c0.55-1.64,2.44-5.3,4.08-7.75c0.18-0.29,0.39-0.26,0.55,0c0.44,0.73,0.36,1.74-0.03,2.78
		C367.84,108.37,369.79,106.84,370.73,106.86z"/>
	<path class="st2" d="M380.95,117.37c-1.38,0-2.26-0.7-2.73-1.85c-0.23,0.55-0.52,1.17-0.75,1.72c-0.1,0.26-0.26,0.29-0.42,0.08
		c-0.39-0.52-0.65-1.27-0.13-2.86c0.7-2.16,5.8-11.78,7.59-14.27c0.23-0.34,0.44-0.34,0.65,0.03c0.39,0.73,0.39,1.9-0.68,3.85
		c-0.39,0.73-1.51,2.52-2.31,3.95c0.75-0.68,1.56-1.09,2.24-1.09c2.21,0,2.31,3.07,0.88,6.24
		C384.07,115.89,382.46,117.37,380.95,117.37z M382.12,109.02c-1.17,1.22-2.42,3.38-3.38,5.38c0.05,0.75,0.39,1.59,1.09,1.74
		c0.91,0.21,2.11-0.57,3.61-3.59c1.48-2.94,1.17-4.52,0.57-4.58C383.47,107.93,382.9,108.22,382.12,109.02z"/>
	<path class="st2" d="M386.38,113.68c0.65-1.9,2.37-4.97,3.33-6.32c0.23-0.31,0.42-0.39,0.62-0.16c0.39,0.42,0.6,1.53-0.03,2.83
		c-0.55,1.14-1.64,2.91-2.18,4.21c-0.62,1.51-0.57,2.52,0.26,2.47c1.17-0.05,2.6-1.77,3.38-3.56c0.13-0.23,0.31-0.21,0.42,0
		c0.21,0.42,0.13,0.96-0.18,1.61c-0.78,1.61-2.42,2.7-3.87,2.7C386.15,117.47,385.65,115.81,386.38,113.68z M392.18,106.89
		c-0.34,0.36-1.07,0.29-1.46-0.39c-0.42-0.7-0.29-1.48,0.13-1.92c0.42-0.44,1.17-0.13,1.51,0.57
		C392.7,105.82,392.52,106.53,392.18,106.89z"/>
	<path class="st2" d="M400.78,107.04c0.23-0.34,0.44-0.39,0.62-0.16c0.39,0.47,0.6,1.59-0.03,2.89c-0.57,1.17-1.87,3.12-2.5,4.5
		c-0.65,1.46-0.68,2.57,0.21,2.52c1.07-0.05,2.5-1.82,3.41-3.61c0.13-0.23,0.31-0.26,0.42-0.03c0.1,0.23,0.1,0.88-0.23,1.61
		c-0.68,1.43-2.31,2.86-3.74,2.78c-1.4-0.08-2.13-0.91-2.13-2.13c-0.83,1.07-2,2.03-3.25,2.03c-2.42,0-2.91-3.3-0.75-6.45
		c2.11-3.07,4.16-4.24,5.46-4.24c1.12,0,1.64,0.86,1.59,1.87C400.19,108.01,400.5,107.46,400.78,107.04z M398.7,108.11
		c-0.83-0.08-2.73,1.61-4.16,3.93c-1.38,2.24-1.72,4.52-0.7,4.55c1.07,0.03,2.42-1.64,3.74-3.93
		C399.22,109.8,399.46,108.19,398.7,108.11z"/>
	<path class="st2" d="M415.08,116.8c1.07-0.05,2.47-1.79,3.38-3.59c0.13-0.23,0.31-0.23,0.42-0.03c0.1,0.23,0.13,0.91-0.21,1.61
		c-0.7,1.43-2.31,2.81-3.74,2.73c-1.4-0.08-2.11-0.86-2.11-2.08c-0.83,1.04-2,2-3.22,2c-2.42,0-2.89-3.3-0.75-6.42
		c2.05-3.02,4.13-4.19,5.43-4.19c1.07,0,1.59,0.81,1.56,1.77c1.4-2.68,3.38-6.21,4.32-7.54c0.26-0.36,0.49-0.34,0.62,0
		c0.36,0.86,0.29,1.98-0.81,3.93c-1.25,2.24-3.74,6.53-5.04,9.28C414.23,115.78,414.2,116.85,415.08,116.8z M410.56,112.06
		c-1.4,2.24-1.69,4.5-0.68,4.52c1.04,0.03,2.44-1.51,3.67-3.87c1.51-2.89,1.9-4.52,1.14-4.55
		C413.89,108.14,411.99,109.78,410.56,112.06z"/>
	<path class="st2" d="M421.45,116.74c2.16,0.1,4.06-1.98,5.17-3.69c0.13-0.21,0.34-0.21,0.44,0.03c0.1,0.21,0.03,0.94-0.44,1.61
		c-1.09,1.59-3.09,2.78-5.1,2.81c-3.3,0.05-4.45-3.2-2.76-6.55c1.69-3.35,4.34-4.71,5.64-3.95c0.65,0.39,1.12,0.78,1.53,1.35
		c0.47,0.62,0.26,2.21-0.83,3.54c-1.27,1.56-3.02,2.24-4.84,0.75C419.45,115.03,420.08,116.67,421.45,116.74z M423.61,110.76
		c0.83-1.09,1.4-2.44,1.04-2.73c-0.55-0.44-2.71,1.12-3.93,3.59c-0.08,0.16-0.16,0.31-0.21,0.44
		C421.79,112.87,422.86,111.75,423.61,110.76z"/>
	<path class="st2" d="M442.3,113.18c0.16-0.36,0.44-0.26,0.49,0c0.05,0.23,0.1,0.91-0.34,1.72c-0.99,1.79-2.76,2.65-4.63,2.78
		c-1.66,0.1-2.76-0.13-3.67-0.96c-0.55-0.49-0.81-1.09-0.88-1.74c-1.22,2.24-2.55,4.89-3.8,7.77c-0.1,0.23-0.29,0.29-0.44,0.05
		c-0.39-0.55-0.52-1.27-0.03-2.86c0.78-2.52,5.15-10.76,6.79-12.95c0.26-0.34,0.49-0.29,0.62,0.03c0.13,0.34,0.18,0.73,0.16,1.17
		c1.14-0.99,2.68-1.72,3.8-0.55c1.25,1.33,0.68,3.64-0.29,5.77c-0.78,1.72-1.74,2.96-2.73,3.56
		C439.91,116.82,441.47,114.95,442.3,113.18z M434.69,116.17c0.83,0.68,2.52-1.22,3.74-3.72c1.01-2.08,1.3-4.24,0.65-4.55
		c-0.62-0.31-2.24,0.99-3.46,2.99c-0.29,0.47-0.57,0.94-0.88,1.48C434.09,114.01,433.96,115.57,434.69,116.17z"/>
	<path class="st2" d="M445.61,116.74c2.16,0.1,4.06-1.98,5.17-3.69c0.13-0.21,0.34-0.21,0.44,0.03c0.1,0.21,0.03,0.94-0.44,1.61
		c-1.09,1.59-3.09,2.78-5.1,2.81c-3.3,0.05-4.45-3.2-2.76-6.55c1.69-3.35,4.34-4.71,5.64-3.95c0.65,0.39,1.12,0.78,1.53,1.35
		c0.47,0.62,0.26,2.21-0.83,3.54c-1.27,1.56-3.02,2.24-4.84,0.75C443.61,115.03,444.23,116.67,445.61,116.74z M447.77,110.76
		c0.83-1.09,1.4-2.44,1.04-2.73c-0.55-0.44-2.7,1.12-3.93,3.59c-0.08,0.16-0.16,0.31-0.21,0.44
		C445.95,112.87,447.01,111.75,447.77,110.76z"/>
	<path class="st2" d="M454.24,108.35c0.13-1.01,0.39-1.51,0.94-2c0.57-0.52,1.17-0.62,1.4-0.39c0.26,0.26,0.13,0.55-0.21,1.14
		c-0.1,0.16-0.18,0.31-0.29,0.49c-0.18,2.39,0.31,4.42,0.23,6.21c-0.05,1.01-0.23,2.11-1.17,2.73c1.74-0.65,2.83-2.21,3.48-3.61
		c0.13-0.29,0.39-0.21,0.49,0c0.1,0.23,0.08,0.91-0.36,1.72c-0.99,1.79-2.76,2.78-4.6,2.86c-1.51,0.05-2.96-0.34-3.85-1.95
		c-0.62-1.17-0.55-2.89,0.34-3.61c0.31-0.26,0.52-0.16,0.55,0.26c0.03,0.21,0.03,0.42,0.05,0.62
		C452.31,111.36,453.48,109.67,454.24,108.35z M451.48,114.22c0.39,1.51,1.14,2.57,2,2.31c1.2-0.36,0.81-4.45,0.7-6.53
		C453.43,111.39,452.47,112.82,451.48,114.22z"/>
	<path class="st2" d="M459.65,106.29c-0.26-0.36-0.1-0.55,0.29-0.52c0.73,0.03,1.46-0.03,2.16-0.1c0.81-1.43,1.53-2.65,1.98-3.22
		c0.23-0.34,0.49-0.31,0.62,0c0.29,0.73,0.29,1.59-0.34,2.94c1.01-0.03,1.4,0.44,1.61,0.78c0.18,0.31,0.08,0.49-0.31,0.49
		c-0.57-0.08-1.38,0-2.03,0.1c-1.01,1.74-2.5,4.26-3.48,6.45c-0.86,1.9-0.57,3.51,0.52,3.56c1.17,0.05,2.65-1.79,3.61-3.74
		c0.16-0.31,0.44-0.36,0.55,0c0.13,0.42,0,0.88-0.26,1.48c-0.34,0.75-2.05,3.04-4.13,2.96c-1.72-0.05-3.09-1.98-1.85-4.97
		c0.55-1.3,1.64-3.48,2.76-5.54C460.45,106.97,459.86,106.58,459.65,106.29z"/>
	<path class="st2" d="M473.01,107.04c0.23-0.34,0.44-0.39,0.62-0.16c0.39,0.47,0.6,1.59-0.03,2.89c-0.57,1.17-1.87,3.12-2.5,4.5
		c-0.65,1.46-0.68,2.57,0.21,2.52c1.07-0.05,2.5-1.82,3.41-3.61c0.13-0.23,0.31-0.26,0.42-0.03c0.1,0.23,0.1,0.88-0.23,1.61
		c-0.68,1.43-2.31,2.86-3.74,2.78c-1.4-0.08-2.13-0.91-2.13-2.13c-0.83,1.07-2,2.03-3.25,2.03c-2.42,0-2.91-3.3-0.75-6.45
		c2.11-3.07,4.16-4.24,5.46-4.24c1.12,0,1.64,0.86,1.59,1.87C472.41,108.01,472.72,107.46,473.01,107.04z M470.93,108.11
		c-0.83-0.08-2.73,1.61-4.16,3.93c-1.38,2.24-1.72,4.52-0.7,4.55c1.07,0.03,2.42-1.64,3.74-3.93
		C471.45,109.8,471.68,108.19,470.93,108.11z"/>
	<path class="st2" d="M482.19,106.89c0.86,0.13,1.66,1.4,1.01,2.76c-0.55,1.14-1.82,3.07-2.42,4.42c-0.68,1.51-0.52,2.73,0.42,2.68
		c1.07-0.05,2.34-1.77,3.33-3.59c0.13-0.23,0.31-0.23,0.44-0.03c0.18,0.29,0.13,0.88-0.23,1.64c-0.7,1.46-2.34,2.78-3.85,2.78
		c-2.21,0-2.73-1.61-1.98-3.87c0.86-2.55,3.15-5.3,2.68-5.51c-0.26-0.1-1.77,0.62-3.43,2.44c-1.53,1.66-2.68,4.16-3.8,6.6
		c-0.1,0.23-0.26,0.34-0.49,0.1c-0.52-0.52-0.68-1.38-0.26-2.68c0.52-1.64,2.52-5.25,4.16-7.67c0.18-0.29,0.39-0.26,0.55,0
		c0.39,0.65,0.36,1.53,0.08,2.47C479.56,108.19,481.33,106.76,482.19,106.89z M480.6,104.37c1.2-0.21,2.24,0.75,3.67,0.05
		c0.23-0.1,0.39-0.03,0.26,0.26c-0.26,0.62-0.7,0.99-1.3,1.14c-1.43,0.36-2.7-0.65-3.9-0.03c-0.23,0.13-0.34,0-0.26-0.21
		C479.22,105.12,479.85,104.5,480.6,104.37z"/>
	<path class="st2" d="M493.45,107.04c0.23-0.34,0.44-0.39,0.62-0.16c0.39,0.47,0.6,1.59-0.03,2.89c-0.57,1.17-1.87,3.12-2.5,4.5
		c-0.65,1.46-0.68,2.57,0.21,2.52c1.07-0.05,2.5-1.82,3.41-3.61c0.13-0.23,0.31-0.26,0.42-0.03c0.1,0.23,0.1,0.88-0.23,1.61
		c-0.68,1.43-2.31,2.86-3.74,2.78c-1.4-0.08-2.13-0.91-2.13-2.13c-0.83,1.07-2,2.03-3.25,2.03c-2.42,0-2.91-3.3-0.75-6.45
		c2.11-3.07,4.16-4.24,5.46-4.24c1.12,0,1.64,0.86,1.59,1.87C492.85,108.01,493.16,107.46,493.45,107.04z M491.37,108.11
		c-0.83-0.08-2.73,1.61-4.16,3.93c-1.38,2.24-1.72,4.52-0.7,4.55c1.07,0.03,2.42-1.64,3.74-3.93
		C491.89,109.8,492.12,108.19,491.37,108.11z"/>
</g>
<g class="st0">
	<path class="st2" d="M85.13,64.81c-0.13-0.29-0.08-0.44,0.26-0.47c2.16-0.23,4.11-1.33,5.88-1.4c1.33-0.05,2.47,0.36,3.09,2.16
		c0.55,1.56,0.1,3.07-0.78,4.45c-1.3,2.03-4.11,3.98-7.51,4.63c-0.6,0.1-1.17,0-1.61-0.26c-0.73,1.43-1.51,3.15-2.42,5.3
		c-0.1,0.26-0.23,0.26-0.42,0.08c-0.36-0.39-0.62-1.17-0.23-2.57c0.68-2.37,3.12-7.25,5.38-10.82
		C85.89,65.8,85.39,65.35,85.13,64.81z M93.25,65.33c-0.55-1.43-3.15-0.08-4.86,0.42c0,0.7-0.26,1.61-0.99,2.86
		c-0.68,1.2-1.4,2.39-2.18,3.85C91.04,71.36,93.95,67.15,93.25,65.33z"/>
	<path class="st2" d="M93.58,79.42c-2.39,0-2.91-3.3-0.75-6.42c2.08-2.99,4.13-4.19,5.46-4.19c1.01,0,1.53,0.81,1.53,1.72
		c0.39-0.65,0.73-1.17,0.91-1.43c0.21-0.31,0.42-0.39,0.62-0.16c0.42,0.47,0.6,1.56,0.03,2.86c-0.52,1.17-1.9,3.2-2.47,4.52
		c-0.62,1.48-0.52,2.44,0.29,2.37c1.66-0.16,4-3.35,5.23-7.18c-2.11-0.75,0.36-4.29,1.4-4.37c0.81-0.05,0.55,1.48,0,3.28
		c0.94-0.1,1.9-0.55,2.89-1.22c0.36-0.26,0.55-0.31,0.78-0.05c0.49,0.55,1.12,1.74,0.36,2.63c-1.22,1.4-2.55,3.22-2.96,4.52
		c-0.44,1.43-0.16,2.44,0.65,2.5c1.09,0.08,2.39-1.64,3.22-3.59c0.1-0.21,0.29-0.26,0.39,0c0.13,0.31,0.21,0.96-0.1,1.69
		c-0.68,1.56-2.21,2.7-3.64,2.65c-1.98-0.08-2.76-1.87-2.13-3.95c0.52-1.72,2.11-3.64,3.22-4.89c-1.14,0.68-2.26,0.96-3.07,0.96
		c-1.27,3.67-3.61,7.59-6.4,7.8c-1.43,0.1-2.21-0.81-2.18-2.13C96.03,78.41,94.86,79.42,93.58,79.42z M94.55,74.04
		c-1.4,2.24-1.69,4.5-0.68,4.52c1.04,0.03,2.39-1.56,3.72-3.9c1.61-2.83,1.85-4.47,1.09-4.52C97.87,70.09,95.98,71.75,94.55,74.04z"
		/>
	<path class="st2" d="M119.69,69.1c0.23-0.34,0.44-0.39,0.62-0.16c0.39,0.47,0.6,1.59-0.03,2.89c-0.57,1.17-1.87,3.12-2.5,4.5
		c-0.65,1.46-0.68,2.57,0.21,2.52c1.07-0.05,2.5-1.82,3.41-3.61c0.13-0.23,0.31-0.26,0.42-0.03c0.1,0.23,0.1,0.88-0.23,1.61
		c-0.68,1.43-2.31,2.86-3.74,2.78c-1.4-0.08-2.13-0.91-2.13-2.13c-0.83,1.07-2,2.03-3.25,2.03c-2.42,0-2.91-3.3-0.75-6.45
		c2.11-3.07,4.16-4.24,5.46-4.24c1.12,0,1.64,0.86,1.59,1.87C119.09,70.06,119.4,69.51,119.69,69.1z M117.61,70.16
		c-0.83-0.08-2.73,1.61-4.16,3.93c-1.38,2.24-1.72,4.52-0.7,4.55c1.07,0.03,2.42-1.64,3.74-3.93
		C118.13,71.85,118.36,70.24,117.61,70.16z"/>
	<path class="st2" d="M130.19,78.8c2.16,0.1,4.06-1.98,5.17-3.69c0.13-0.21,0.34-0.21,0.44,0.03c0.1,0.21,0.03,0.94-0.44,1.61
		c-1.09,1.59-3.09,2.78-5.1,2.81c-3.3,0.05-4.45-3.2-2.76-6.55c1.69-3.35,4.34-4.71,5.64-3.95c0.65,0.39,1.12,0.78,1.53,1.35
		c0.47,0.62,0.26,2.21-0.83,3.54c-1.27,1.56-3.02,2.24-4.84,0.75C128.19,77.08,128.81,78.72,130.19,78.8z M132.35,72.82
		c0.83-1.09,1.4-2.44,1.04-2.73c-0.55-0.44-2.7,1.12-3.93,3.59c-0.08,0.16-0.16,0.31-0.21,0.44
		C130.53,74.92,131.6,73.8,132.35,72.82z"/>
	<path class="st2" d="M143.09,68.92c0.88,0.03,1.35,1.4,1.01,2.55c1.25-1.22,2.99-2.44,3.85-2.42c0.94,0.03,1.14,1.56,0.62,2.86
		c-0.47,1.17-1.74,2.89-2.39,4.19c-0.73,1.48-0.36,2.68,0.57,2.65c1.07-0.03,2.24-1.74,3.25-3.56c0.13-0.23,0.34-0.23,0.47-0.05
		c0.13,0.18,0.05,1.04-0.23,1.64c-0.73,1.48-2.39,2.78-3.9,2.78c-2.26,0-3.09-1.79-2.13-3.93c0.96-2.16,3.28-5.07,2.89-5.2
		c-0.21-0.08-1.09,0.21-2.78,1.9c-2.16,2.16-3.43,4.65-4.52,7.1c-0.16,0.31-0.36,0.39-0.6,0.13c-0.44-0.39-0.81-1.4-0.05-3.28
		c0.86-2.16,3.67-5.75,3.15-5.93c-0.31-0.13-1.59,0.57-3.25,2.39c-1.53,1.66-2.78,4.08-3.82,6.53c-0.1,0.23-0.26,0.34-0.49,0.13
		c-0.57-0.49-0.7-1.35-0.26-2.68c0.55-1.64,2.44-5.3,4.08-7.75c0.18-0.29,0.39-0.26,0.55,0c0.44,0.73,0.36,1.74-0.03,2.78
		C140.2,70.42,142.15,68.89,143.09,68.92z"/>
	<path class="st2" d="M160.01,75.23c0.16-0.36,0.44-0.26,0.49,0c0.05,0.23,0.1,0.91-0.34,1.72c-0.99,1.79-2.76,2.65-4.63,2.78
		c-1.66,0.1-2.76-0.13-3.67-0.96c-0.55-0.49-0.81-1.09-0.88-1.74c-1.22,2.24-2.55,4.89-3.8,7.77c-0.1,0.23-0.29,0.29-0.44,0.05
		c-0.39-0.55-0.52-1.27-0.03-2.86c0.78-2.52,5.15-10.76,6.79-12.95c0.26-0.34,0.49-0.29,0.62,0.03c0.13,0.34,0.18,0.73,0.16,1.17
		c1.14-0.99,2.68-1.72,3.8-0.55c1.25,1.33,0.68,3.64-0.29,5.77c-0.78,1.72-1.74,2.96-2.73,3.56C157.62,78.87,159.18,77,160.01,75.23
		z M152.39,78.22c0.83,0.68,2.52-1.22,3.74-3.72c1.01-2.08,1.3-4.24,0.65-4.55c-0.62-0.31-2.24,0.99-3.46,2.99
		c-0.29,0.47-0.57,0.94-0.88,1.48C151.8,76.07,151.67,77.63,152.39,78.22z"/>
	<path class="st2" d="M163.31,78.8c2.16,0.1,4.06-1.98,5.17-3.69c0.13-0.21,0.34-0.21,0.44,0.03c0.1,0.21,0.03,0.94-0.44,1.61
		c-1.09,1.59-3.09,2.78-5.1,2.81c-3.3,0.05-4.45-3.2-2.76-6.55c1.69-3.35,4.34-4.71,5.64-3.95c0.65,0.39,1.12,0.78,1.53,1.35
		c0.47,0.62,0.26,2.21-0.83,3.54c-1.27,1.56-3.02,2.24-4.84,0.75C161.31,77.08,161.94,78.72,163.31,78.8z M165.47,72.82
		c0.83-1.09,1.4-2.44,1.04-2.73c-0.55-0.44-2.7,1.12-3.93,3.59c-0.08,0.16-0.16,0.31-0.21,0.44
		C163.65,74.92,164.72,73.8,165.47,72.82z"/>
	<path class="st2" d="M173.25,77.73c-0.36-0.47-1.95-0.31-3.25,0.6c-0.18,0.13-0.36,0.18-0.44-0.03c-0.39-1.12,0.21-1.92,1.12-2.44
		c3.9-2.24,5.56-4.78,4.86-5.67c-0.7-0.88-4.24,0.96-6.24,3.46c-0.16,0.21-0.34,0.13-0.39-0.08c-0.21-0.68,0.1-1.87,1.07-2.81
		c1.04-1.01,2.52-1.74,3.77-1.9c1.17-0.16,1.92,0,2.57,0.94c0.62,0.88,0.7,2.08-0.1,3.46c-0.68,1.14-2.16,2.42-3.85,3.48
		c0.62-0.03,1.22,0.13,1.64,0.52c0.36,0.34,0.57,0.78,0.68,1.27c1.2-0.62,2.29-1.77,3.12-3.35c0.1-0.21,0.36-0.23,0.47,0
		c0.1,0.21,0,0.94-0.36,1.61c-0.6,1.12-2.08,2-3.17,2.47c0,2.78-2.7,6.71-4.34,7.62c-0.52,0.29-1.07,0.44-1.72-0.36
		c-0.55-0.68-1.22-1.59-0.6-3.04c0.96-2.24,3.12-3.51,5.33-4.42C173.51,78.51,173.48,78.04,173.25,77.73z M169.11,85.64
		c0.47,0.55,3.17-3.09,4.06-5.72C169.71,81.86,168.62,85.04,169.11,85.64z"/>
	<path class="st2" d="M179.41,79.42c-2.39,0-2.91-3.3-0.75-6.42c2.08-2.99,4.13-4.19,5.46-4.19c1.01,0,1.53,0.81,1.53,1.72
		c0.39-0.65,0.73-1.17,0.91-1.43c0.21-0.31,0.42-0.39,0.62-0.16c0.42,0.47,0.6,1.56,0.03,2.86c-0.52,1.17-1.9,3.2-2.47,4.52
		c-0.62,1.48-0.52,2.44,0.29,2.37c1.66-0.16,4-3.35,5.23-7.18c-2.11-0.75,0.36-4.29,1.4-4.37c0.81-0.05,0.55,1.48,0,3.28
		c0.94-0.1,1.9-0.55,2.89-1.22c0.36-0.26,0.55-0.31,0.78-0.05c0.49,0.55,1.12,1.74,0.36,2.63c-1.22,1.4-2.55,3.22-2.96,4.52
		c-0.44,1.43-0.16,2.44,0.65,2.5c1.09,0.08,2.39-1.64,3.22-3.59c0.1-0.21,0.29-0.26,0.39,0c0.13,0.31,0.21,0.96-0.1,1.69
		c-0.68,1.56-2.21,2.7-3.64,2.65c-1.98-0.08-2.76-1.87-2.13-3.95c0.52-1.72,2.11-3.64,3.22-4.89c-1.14,0.68-2.26,0.96-3.07,0.96
		c-1.27,3.67-3.61,7.59-6.4,7.8c-1.43,0.1-2.21-0.81-2.18-2.13C181.85,78.41,180.68,79.42,179.41,79.42z M180.37,74.04
		c-1.4,2.24-1.69,4.5-0.68,4.52c1.04,0.03,2.39-1.56,3.72-3.9c1.61-2.83,1.85-4.47,1.09-4.52C183.7,70.09,181.8,71.75,180.37,74.04z
		"/>
	<path class="st2" d="M211.39,69.1c0.23-0.34,0.44-0.39,0.62-0.16c0.39,0.47,0.6,1.59-0.03,2.89c-0.57,1.17-1.87,3.12-2.5,4.5
		c-0.65,1.46-0.68,2.57,0.21,2.52c1.07-0.05,2.5-1.82,3.41-3.61c0.13-0.23,0.31-0.26,0.42-0.03c0.1,0.23,0.1,0.88-0.23,1.61
		c-0.68,1.43-2.31,2.86-3.74,2.78c-1.4-0.08-2.13-0.91-2.13-2.13c-0.83,1.07-2,2.03-3.25,2.03c-2.42,0-2.91-3.3-0.75-6.45
		c2.11-3.07,4.16-4.24,5.46-4.24c1.12,0,1.64,0.86,1.59,1.87C210.79,70.06,211.1,69.51,211.39,69.1z M209.31,70.16
		c-0.83-0.08-2.73,1.61-4.16,3.93c-1.38,2.24-1.72,4.52-0.7,4.55c1.07,0.03,2.42-1.64,3.74-3.93
		C209.83,71.85,210.06,70.24,209.31,70.16z"/>
	<path class="st2" d="M227.17,68.94c0.29-0.29,0.44-0.23,0.49,0.1c0.08,0.55-0.23,1.22-1.07,2.26c-1.3,1.64-3.67,4.13-6.16,8.09
		c-0.13,0.21-0.26,0.39-0.52,0.26c-1.01-0.49-1.38-1.01-1.3-2.39c0.1-1.82,0.81-5.54,1.69-8.24c0.1-0.29,0.31-0.39,0.52-0.21
		c0.86,0.73,0.99,1.69,0.62,3.28c-0.47,2-0.99,3.46-1.35,6.29C221.94,75.34,225.4,70.76,227.17,68.94z"/>
	<path class="st2" d="M225.79,75.73c0.65-1.9,2.37-4.97,3.33-6.32c0.23-0.31,0.42-0.39,0.62-0.16c0.39,0.42,0.6,1.53-0.03,2.83
		c-0.55,1.14-1.64,2.91-2.18,4.21c-0.62,1.51-0.57,2.52,0.26,2.47c1.17-0.05,2.6-1.77,3.38-3.56c0.13-0.23,0.31-0.21,0.42,0
		c0.21,0.42,0.13,0.96-0.18,1.61c-0.78,1.61-2.42,2.7-3.87,2.7C225.56,79.52,225.06,77.86,225.79,75.73z M231.59,68.94
		c-0.34,0.36-1.07,0.29-1.46-0.39c-0.42-0.7-0.29-1.48,0.13-1.92c0.42-0.44,1.17-0.13,1.51,0.57
		C232.11,67.88,231.93,68.58,231.59,68.94z"/>
	<path class="st2" d="M234.76,70.4c0.13-1.01,0.39-1.51,0.94-2c0.57-0.52,1.17-0.62,1.4-0.39c0.26,0.26,0.13,0.55-0.21,1.14
		c-0.1,0.16-0.18,0.31-0.29,0.49c-0.18,2.39,0.31,4.42,0.23,6.21c-0.05,1.01-0.23,2.11-1.17,2.73c1.74-0.65,2.83-2.21,3.48-3.61
		c0.13-0.29,0.39-0.21,0.49,0c0.1,0.23,0.08,0.91-0.36,1.72c-0.99,1.79-2.76,2.78-4.6,2.86c-1.51,0.05-2.96-0.34-3.85-1.95
		c-0.62-1.17-0.55-2.89,0.34-3.61c0.31-0.26,0.52-0.16,0.55,0.26c0.03,0.21,0.03,0.42,0.05,0.62
		C232.84,73.41,234.01,71.72,234.76,70.4z M232,76.27c0.39,1.51,1.14,2.57,2,2.31c1.2-0.36,0.81-4.45,0.7-6.53
		C233.95,73.44,232.99,74.87,232,76.27z"/>
	<path class="st2" d="M239.96,79.47c-1.85-0.13-1.9-2.05-1.33-3.77c0.57-1.72,1.9-4.26,3.59-6.63c0.21-0.29,0.47-0.26,0.68-0.03
		c0.57,0.86,0.44,2.03-0.49,3.51c-0.96,1.53-1.48,2.57-2.03,3.82c-0.55,1.27-0.47,2.21,0.13,2.26c1.01,0.08,2.44-1.74,3.85-4
		c1.64-2.65,2.39-4.45,3.22-5.56c0.26-0.36,0.44-0.42,0.65-0.16c0.39,0.47,0.6,1.61-0.03,2.91c-0.57,1.17-1.87,3.12-2.47,4.45
		c-0.68,1.48-0.57,2.57,0.36,2.52c1.09-0.05,2.42-1.77,3.43-3.59c0.13-0.23,0.36-0.26,0.47-0.03c0.1,0.21,0.13,0.91-0.23,1.64
		c-0.75,1.46-2.37,2.78-3.9,2.78c-1.69,0-2.37-1.07-2.16-2.57C242.79,78.25,241.42,79.58,239.96,79.47z"/>
	<path class="st2" d="M258.47,69.1c0.23-0.34,0.44-0.39,0.62-0.16c0.39,0.47,0.6,1.59-0.03,2.89c-0.57,1.17-1.87,3.12-2.5,4.5
		c-0.65,1.46-0.68,2.57,0.21,2.52c1.07-0.05,2.5-1.82,3.41-3.61c0.13-0.23,0.31-0.26,0.42-0.03c0.1,0.23,0.1,0.88-0.23,1.61
		c-0.68,1.43-2.31,2.86-3.74,2.78c-1.4-0.08-2.13-0.91-2.13-2.13c-0.83,1.07-2,2.03-3.25,2.03c-2.42,0-2.91-3.3-0.75-6.45
		c2.11-3.07,4.16-4.24,5.46-4.24c1.12,0,1.64,0.86,1.59,1.87C257.87,70.06,258.19,69.51,258.47,69.1z M256.39,70.16
		c-0.83-0.08-2.73,1.61-4.16,3.93c-1.38,2.24-1.72,4.52-0.7,4.55c1.07,0.03,2.42-1.64,3.74-3.93
		C256.91,71.85,257.15,70.24,256.39,70.16z"/>
	<path class="st2" d="M262.09,78.74c1.25,0.1,3.07-1.77,4.08-3.77c0.18-0.34,0.47-0.36,0.57,0c0.13,0.42,0.03,0.99-0.26,1.61
		c-0.36,0.78-2.26,2.94-4.34,2.89c-1.79-0.05-2.76-1.3-2.16-4.11c0.96-4.52,3.93-9.23,6.58-11.99c0.39-0.42,0.75-0.47,1.12-0.13
		c0.75,0.68,0.91,1.64,0.6,2.86c-0.81,3.2-3.72,6.32-6.03,7.83C261.2,76.48,260.92,78.64,262.09,78.74z M267.39,65.56
		c-0.34-0.21-2.26,2.68-4.06,6.01c-0.23,0.42-0.44,0.83-0.62,1.25C266.27,69.93,267.73,65.77,267.39,65.56z"/>
	<path class="st2" d="M265.73,75.73c0.65-1.9,2.37-4.97,3.33-6.32c0.23-0.31,0.42-0.39,0.62-0.16c0.39,0.42,0.6,1.53-0.03,2.83
		c-0.55,1.14-1.64,2.91-2.18,4.21c-0.62,1.51-0.57,2.52,0.26,2.47c1.17-0.05,2.6-1.77,3.38-3.56c0.13-0.23,0.31-0.21,0.42,0
		c0.21,0.42,0.13,0.96-0.18,1.61c-0.78,1.61-2.42,2.7-3.87,2.7C265.49,79.52,265,77.86,265.73,75.73z M271.52,68.94
		c-0.34,0.36-1.07,0.29-1.46-0.39c-0.42-0.7-0.29-1.48,0.13-1.92c0.42-0.44,1.17-0.13,1.51,0.57
		C272.04,67.88,271.86,68.58,271.52,68.94z"/>
	<path class="st2" d="M275.94,77.73c-0.36-0.47-1.95-0.31-3.25,0.6c-0.18,0.13-0.36,0.18-0.44-0.03c-0.39-1.12,0.21-1.92,1.12-2.44
		c3.9-2.24,5.56-4.78,4.86-5.67s-4.24,0.96-6.24,3.46c-0.16,0.21-0.34,0.13-0.39-0.08c-0.21-0.68,0.1-1.87,1.07-2.81
		c1.04-1.01,2.52-1.74,3.77-1.9c1.17-0.16,1.92,0,2.57,0.94c0.62,0.88,0.7,2.08-0.1,3.46c-0.68,1.14-2.16,2.42-3.85,3.48
		c0.62-0.03,1.22,0.13,1.64,0.52c0.36,0.34,0.57,0.78,0.68,1.27c1.2-0.62,2.29-1.77,3.12-3.35c0.1-0.21,0.36-0.23,0.47,0
		c0.1,0.21,0,0.94-0.36,1.61c-0.6,1.12-2.08,2-3.17,2.47c0,2.78-2.7,6.71-4.34,7.62c-0.52,0.29-1.07,0.44-1.72-0.36
		c-0.55-0.68-1.22-1.59-0.6-3.04c0.96-2.24,3.12-3.51,5.33-4.42C276.2,78.51,276.18,78.04,275.94,77.73z M271.81,85.64
		c0.47,0.55,3.17-3.09,4.06-5.72C272.41,81.86,271.32,85.04,271.81,85.64z"/>
	<path class="st2" d="M282.11,79.42c-2.39,0-2.91-3.3-0.75-6.42c2.08-2.99,4.13-4.19,5.46-4.19c1.01,0,1.53,0.81,1.53,1.72
		c0.39-0.65,0.73-1.17,0.91-1.43c0.21-0.31,0.42-0.39,0.62-0.16c0.42,0.47,0.6,1.56,0.03,2.86c-0.52,1.17-1.9,3.2-2.47,4.52
		c-0.62,1.48-0.52,2.44,0.29,2.37c1.66-0.16,4-3.35,5.23-7.18c-2.11-0.75,0.36-4.29,1.4-4.37c0.81-0.05,0.55,1.48,0,3.28
		c0.94-0.1,1.9-0.55,2.89-1.22c0.36-0.26,0.55-0.31,0.78-0.05c0.49,0.55,1.12,1.74,0.36,2.63c-1.22,1.4-2.55,3.22-2.96,4.52
		c-0.44,1.43-0.16,2.44,0.65,2.5c1.09,0.08,2.39-1.64,3.22-3.59c0.1-0.21,0.29-0.26,0.39,0c0.13,0.31,0.21,0.96-0.1,1.69
		c-0.68,1.56-2.21,2.7-3.64,2.65c-1.98-0.08-2.76-1.87-2.13-3.95c0.52-1.72,2.11-3.64,3.22-4.89c-1.14,0.68-2.26,0.96-3.07,0.96
		c-1.27,3.67-3.61,7.59-6.4,7.8c-1.43,0.1-2.21-0.81-2.18-2.13C284.55,78.41,283.38,79.42,282.11,79.42z M283.07,74.04
		c-1.4,2.24-1.69,4.5-0.68,4.52c1.04,0.03,2.39-1.56,3.72-3.9c1.61-2.83,1.85-4.47,1.09-4.52C286.4,70.09,284.5,71.75,283.07,74.04z
		"/>
	<path class="st2" d="M313.56,68.94c0.29-0.29,0.44-0.23,0.49,0.1c0.08,0.55-0.23,1.22-1.07,2.26c-1.3,1.64-3.67,4.13-6.16,8.09
		c-0.13,0.21-0.26,0.39-0.52,0.26c-1.01-0.49-1.38-1.01-1.3-2.39c0.1-1.82,0.81-5.54,1.69-8.24c0.1-0.29,0.31-0.39,0.52-0.21
		c0.86,0.73,0.99,1.69,0.62,3.28c-0.47,2-0.99,3.46-1.35,6.29C308.34,75.34,311.8,70.76,313.56,68.94z"/>
	<path class="st2" d="M314.16,79.42c-2.39,0-2.91-3.3-0.75-6.42c2.08-2.99,4.13-4.19,5.46-4.19c1.01,0,1.53,0.81,1.53,1.72
		c0.39-0.65,0.73-1.17,0.91-1.43c0.21-0.31,0.42-0.39,0.62-0.16c0.42,0.47,0.6,1.56,0.03,2.86c-0.52,1.17-1.9,3.2-2.47,4.52
		c-0.62,1.48-0.52,2.44,0.29,2.37c1.66-0.16,4-3.35,5.23-7.18c-2.11-0.75,0.36-4.29,1.4-4.37c0.81-0.05,0.55,1.48,0,3.28
		c0.94-0.1,1.9-0.55,2.89-1.22c0.36-0.26,0.55-0.31,0.78-0.05c0.49,0.55,1.12,1.74,0.36,2.63c-1.22,1.4-2.55,3.22-2.96,4.52
		c-0.44,1.43-0.16,2.44,0.65,2.5c1.09,0.08,2.39-1.64,3.22-3.59c0.1-0.21,0.29-0.26,0.39,0c0.13,0.31,0.21,0.96-0.1,1.69
		c-0.68,1.56-2.21,2.7-3.64,2.65c-1.98-0.08-2.76-1.87-2.13-3.95c0.52-1.72,2.11-3.64,3.22-4.89c-1.14,0.68-2.26,0.96-3.07,0.96
		c-1.27,3.67-3.61,7.59-6.4,7.8c-1.43,0.1-2.21-0.81-2.18-2.13C316.61,78.41,315.44,79.42,314.16,79.42z M315.13,74.04
		c-1.4,2.24-1.69,4.5-0.68,4.52c1.04,0.03,2.39-1.56,3.72-3.9c1.61-2.83,1.85-4.47,1.09-4.52
		C318.45,70.09,316.55,71.75,315.13,74.04z"/>
	<path class="st2" d="M330.93,75.73c0.65-1.9,2.37-4.97,3.33-6.32c0.23-0.31,0.42-0.39,0.62-0.16c0.39,0.42,0.6,1.53-0.03,2.83
		c-0.55,1.14-1.64,2.91-2.18,4.21c-0.62,1.51-0.57,2.52,0.26,2.47c1.17-0.05,2.6-1.77,3.38-3.56c0.13-0.23,0.31-0.21,0.42,0
		c0.21,0.42,0.13,0.96-0.18,1.61c-0.78,1.61-2.42,2.7-3.87,2.7C330.7,79.52,330.21,77.86,330.93,75.73z M336.73,68.94
		c-0.34,0.36-1.07,0.29-1.46-0.39c-0.42-0.7-0.29-1.48,0.13-1.92c0.42-0.44,1.17-0.13,1.51,0.57
		C337.25,67.88,337.07,68.58,336.73,68.94z"/>
	<path class="st2" d="M345.34,69.1c0.23-0.34,0.44-0.39,0.62-0.16c0.39,0.47,0.6,1.59-0.03,2.89c-0.57,1.17-1.87,3.12-2.5,4.5
		c-0.65,1.46-0.68,2.57,0.21,2.52c1.07-0.05,2.5-1.82,3.41-3.61c0.13-0.23,0.31-0.26,0.42-0.03c0.1,0.23,0.1,0.88-0.23,1.61
		c-0.68,1.43-2.31,2.86-3.74,2.78c-1.4-0.08-2.13-0.91-2.13-2.13c-0.83,1.07-2,2.03-3.25,2.03c-2.42,0-2.91-3.3-0.75-6.45
		c2.11-3.07,4.16-4.24,5.46-4.24c1.12,0,1.64,0.86,1.59,1.87C344.74,70.06,345.05,69.51,345.34,69.1z M343.26,70.16
		c-0.83-0.08-2.73,1.61-4.16,3.93c-1.38,2.24-1.72,4.52-0.7,4.55c1.07,0.03,2.42-1.64,3.74-3.93
		C343.78,71.85,344.01,70.24,343.26,70.16z"/>
	<path class="st2" d="M354.51,68.94c0.86,0.13,1.66,1.4,1.01,2.76c-0.55,1.14-1.82,3.07-2.42,4.42c-0.68,1.51-0.52,2.73,0.42,2.68
		c1.07-0.05,2.34-1.77,3.33-3.59c0.13-0.23,0.31-0.23,0.44-0.03c0.18,0.29,0.13,0.88-0.23,1.64c-0.7,1.46-2.34,2.78-3.85,2.78
		c-2.21,0-2.73-1.61-1.98-3.87c0.86-2.55,3.15-5.3,2.68-5.51c-0.26-0.1-1.77,0.62-3.43,2.44c-1.53,1.66-2.68,4.16-3.8,6.6
		c-0.1,0.23-0.26,0.34-0.49,0.1c-0.52-0.52-0.68-1.38-0.26-2.68c0.52-1.64,2.52-5.25,4.16-7.67c0.18-0.29,0.39-0.26,0.55,0
		c0.39,0.65,0.36,1.53,0.08,2.47C351.89,70.24,353.66,68.81,354.51,68.94z"/>
	<path class="st2" d="M358,68.34c-0.26-0.36-0.1-0.55,0.29-0.52c0.73,0.03,1.46-0.03,2.16-0.1c0.81-1.43,1.53-2.65,1.98-3.22
		c0.23-0.34,0.49-0.31,0.62,0c0.29,0.73,0.29,1.59-0.34,2.94c1.01-0.03,1.4,0.44,1.61,0.78c0.18,0.31,0.08,0.49-0.31,0.49
		c-0.57-0.08-1.38,0-2.03,0.1c-1.01,1.74-2.5,4.26-3.48,6.45c-0.86,1.9-0.57,3.51,0.52,3.56c1.17,0.05,2.65-1.79,3.61-3.74
		c0.16-0.31,0.44-0.36,0.55,0c0.13,0.42,0,0.88-0.26,1.48c-0.34,0.75-2.05,3.04-4.13,2.96c-1.72-0.05-3.09-1.98-1.85-4.97
		c0.55-1.3,1.64-3.48,2.76-5.54C358.8,69.02,358.21,68.63,358,68.34z"/>
	<path class="st2" d="M365.05,78.8c2.16,0.1,4.06-1.98,5.17-3.69c0.13-0.21,0.34-0.21,0.44,0.03c0.1,0.21,0.03,0.94-0.44,1.61
		c-1.09,1.59-3.09,2.78-5.1,2.81c-3.3,0.05-4.45-3.2-2.76-6.55c1.69-3.35,4.34-4.71,5.64-3.95c0.65,0.39,1.12,0.78,1.53,1.35
		c0.47,0.62,0.26,2.21-0.83,3.54c-1.27,1.56-3.02,2.24-4.84,0.75C363.04,77.08,363.67,78.72,365.05,78.8z M367.2,72.82
		c0.83-1.09,1.4-2.44,1.04-2.73c-0.55-0.44-2.7,1.12-3.93,3.59c-0.08,0.16-0.16,0.31-0.21,0.44
		C365.38,74.92,366.45,73.8,367.2,72.82z"/>
	<path class="st2" d="M373.68,70.4c0.13-1.01,0.39-1.51,0.94-2c0.57-0.52,1.17-0.62,1.4-0.39c0.26,0.26,0.13,0.55-0.21,1.14
		c-0.1,0.16-0.18,0.31-0.29,0.49c-0.18,2.39,0.31,4.42,0.23,6.21c-0.05,1.01-0.23,2.11-1.17,2.73c1.74-0.65,2.83-2.21,3.48-3.61
		c0.13-0.29,0.39-0.21,0.49,0c0.1,0.23,0.08,0.91-0.36,1.72c-0.99,1.79-2.76,2.78-4.6,2.86c-1.51,0.05-2.96-0.34-3.85-1.95
		c-0.62-1.17-0.55-2.89,0.34-3.61c0.31-0.26,0.52-0.16,0.55,0.26c0.03,0.21,0.03,0.42,0.05,0.62
		C371.75,73.41,372.92,71.72,373.68,70.4z M370.92,76.27c0.39,1.51,1.14,2.57,2,2.31c1.2-0.36,0.81-4.45,0.7-6.53
		C372.87,73.44,371.91,74.87,370.92,76.27z"/>
</g>
<g>
</g>
<g>
</g>
<g>
</g>
<g>
</g>
<g>
</g>
<g>
</g>
<g>
</g>
</svg>
