<svg id="b33fdfbc-5fdc-4116-8abd-bf8fcef5605a" data-name="Capa 1" xmlns="http://www.w3.org/2000/svg" viewBox="0 0 64.42 47.8"><defs><style>.b12b4b88-3a62-484a-a1a8-856263539a66,.be0cc3b2-ab06-46a4-a32c-6e6a0cdb43d6,.f735ebb6-9bc7-4c6a-b923-0c23153547a6{fill:none;stroke-width:2px;}.b12b4b88-3a62-484a-a1a8-856263539a66,.b87973dc-f867-4cd2-895f-20d82c62fb6e,.be0cc3b2-ab06-46a4-a32c-6e6a0cdb43d6,.f735ebb6-9bc7-4c6a-b923-0c23153547a6{stroke:#070707;}.b12b4b88-3a62-484a-a1a8-856263539a66,.f735ebb6-9bc7-4c6a-b923-0c23153547a6{stroke-linecap:round;}.b12b4b88-3a62-484a-a1a8-856263539a66,.b87973dc-f867-4cd2-895f-20d82c62fb6e,.be0cc3b2-ab06-46a4-a32c-6e6a0cdb43d6{stroke-miterlimit:10;}.ad63d5ab-03b5-4c35-b020-dac4f96b7f42{opacity:0.36;}.aa9795e4-dd11-4a95-9451-9b7fdd661bee{fill:#a51616;}.b4cb30a1-f518-4e09-b694-027adca4edd6{fill:#631616;}.b87973dc-f867-4cd2-895f-20d82c62fb6e{fill:#fff;stroke-width:1.51px;opacity:0.85;}.f735ebb6-9bc7-4c6a-b923-0c23153547a6{stroke-linejoin:round;}</style></defs><title>nopadre</title><line class="b12b4b88-3a62-484a-a1a8-856263539a66" x1="58" y1="22" x2="57.98" y2="32.95"/><g class="ad63d5ab-03b5-4c35-b020-dac4f96b7f42"><polygon class="aa9795e4-dd11-4a95-9451-9b7fdd661bee" points="54.16 42.66 10.85 42.56 32.6 1.25 32.6 1.25 54.16 42.66"/></g><path class="b4cb30a1-f518-4e09-b694-027adca4edd6" d="M54.16,43.71l-43.31-.1a1.09,1.09,0,0,1-.9-.51,1.05,1.05,0,0,1,0-1L31.67.76A1.05,1.05,0,0,1,32.61.2a1,1,0,0,1,.92.56L55.09,42.17a1,1,0,0,1,0,1A1,1,0,0,1,54.16,43.71Zm-41.57-2.2,39.84.1L32.6,3.51Z"/><path class="b87973dc-f867-4cd2-895f-20d82c62fb6e" d="M38.35,16.05a11.53,11.53,0,0,0-5.69,1.5,11.45,11.45,0,1,0-.24,19.77,11.45,11.45,0,1,0,5.93-21.27Z"/><circle class="be0cc3b2-ab06-46a4-a32c-6e6a0cdb43d6" cx="26.76" cy="27.37" r="11.45"/><circle class="be0cc3b2-ab06-46a4-a32c-6e6a0cdb43d6" cx="38.32" cy="27.5" r="11.45"/><line class="b12b4b88-3a62-484a-a1a8-856263539a66" x1="63.4" y1="27.56" x2="49.87" y2="27.53"/><polyline class="f735ebb6-9bc7-4c6a-b923-0c23153547a6" points="7.44 23.76 0.74 27.41 15.21 27.45"/><line class="b12b4b88-3a62-484a-a1a8-856263539a66" x1="7.66" y1="31.38" x2="0.75" y2="27.49"/></svg>