<svg id="f9b2181d-b373-41d1-b53f-daa2b08070ff" data-name="Capa 1" xmlns="http://www.w3.org/2000/svg" xmlns:xlink="http://www.w3.org/1999/xlink" viewBox="0 0 45.38 47.92"><defs><style>.ec78b2b5-1612-435d-ab7c-2d60240b4c6f{fill:none;}.f04c363b-f2b1-430a-88c0-a2770a4dba95{opacity:0.36;}.a9195174-554e-4439-8c7b-dd3e6d69e01b{fill:#a51616;}.ac08f7ac-a156-4dd6-acfc-d80f1551d12a{fill:#631616;}.e546e44b-de12-43ec-a4fa-d63f73beea5d{fill:#fff;}.a349a467-cda4-4559-a075-3cd53d787864{opacity:0.61;}.baa9537c-bc7e-45d1-9dba-e58066d4e731{fill:#7b1616;}.a65a6413-1b3f-49e5-a06f-55a9e6cef5e1{clip-path:url(#f34567d1-0454-4141-9b68-76520faa3ff8);}</style><clipPath id="f34567d1-0454-4141-9b68-76520faa3ff8"><circle class="ec78b2b5-1612-435d-ab7c-2d60240b4c6f" cx="21.96" cy="25.96" r="21.96"/></clipPath></defs><title>nopadre</title><g class="f04c363b-f2b1-430a-88c0-a2770a4dba95"><polygon class="a9195174-554e-4439-8c7b-dd3e6d69e01b" points="44.35 41.57 1.91 41.57 23.13 1.03 23.13 1.03 44.35 41.57"/></g><path class="ac08f7ac-a156-4dd6-acfc-d80f1551d12a" d="M44.35,42.6H1.91A1,1,0,0,1,1,42.1a1,1,0,0,1,0-1L22.22.55A1,1,0,0,1,24,.55L45.26,41.09a1,1,0,0,1-.91,1.51ZM3.6,40.54H42.66L23.13,3.24Z"/><path class="e546e44b-de12-43ec-a4fa-d63f73beea5d" d="M36.41,36.07l-7.3-9.64L27,26.86S23.92,25,24.66,24.74c1.27-.42.76-2.36,1.06-1.91.85,1.27,1.48.22,1.48.22l.85-1.7.21-3L30.59,15c0-.42-3.61-5.37-3.61-5.37l-4-.35L17.68,13.1H14.93L13.56,15,13,17l-2.77,1.09L8.45,20.75v2.43l1.82,2.41L9,24.67l-.57.81,1.59,2.22-3.39,7-.82,5.87H6c1.61.14,3.23-.07,4.86,0s3.26,0,4.9,0a1.12,1.12,0,0,1,.5.11,1,1,0,0,1,.84.57c.43,0,1.8.87,2.38,1v0h.12l1.91,1.06,3,.85,4.91.52,4.43-.94,2.73-3.41Z"/><g class="a349a467-cda4-4559-a075-3cd53d787864"><path class="baa9537c-bc7e-45d1-9dba-e58066d4e731" d="M5.82,40.62H16c.07-.06,8.39,3.64,8.47,3.6.25-.14,3.16.69,3.39.63,0,0,.34.62,3.81-.21,1-.24,3.2-1,4-2.12a7.1,7.1,0,0,0,.85-3.81c0-.5-.92,2.32-3.18-1.27-.12-.2-1.23.08-1.38-.16s-.63.14-.93.26a9.62,9.62,0,0,1-1.48.43,9.78,9.78,0,0,1-2.8.21c-2.05-.17-3.37-1.33-4.68-2.8-.63-.7-1.21-1.51-1.9-2.15a8.21,8.21,0,0,1-1.72-1.66l0,0a4.9,4.9,0,0,1-3.35.3,8.45,8.45,0,0,1-4.73-3,1.28,1.28,0,0,1-.25-.15,1.65,1.65,0,0,1-.39-.44.91.91,0,0,1-.13.33c-.63,1.08-1.32,2.14-1.89,3.26a1.16,1.16,0,0,1-.09.72,17.41,17.41,0,0,0-.91,3.58,32.83,32.83,0,0,0-.89,3.41,1.13,1.13,0,0,1-.33.68A1.82,1.82,0,0,1,5.82,40.62Z"/></g><g class="a65a6413-1b3f-49e5-a06f-55a9e6cef5e1"><path d="M23.7,15.67c0-.12-.23-.46-.46,0-1.07,2.13,2.31,4.16,3.7,1.15C26.94,16.82,23.93,18.67,23.7,15.67Z"/><path d="M23.24,14.51s2.05-.95,3,0c.23.23.23,0,.23,0s-.46-1.15-2.54-.92C23.42,13.64,23.24,14.51,23.24,14.51Z"/><path d="M28.55,18.44h0c0,.7,0,2.08,1.39.7,0,0-.69,1.85-1.39,1.38C27.59,19.88,28.55,18.44,28.55,18.44Z"/><path d="M27.17,23.88a4.16,4.16,0,0,1-2.12-.82l.53-.45,0,0a4.16,4.16,0,0,0,1.55.59c.41-.43.87-3.57.87-4.28a9.17,9.17,0,0,1,1.69-2.75l.55.42a12.19,12.19,0,0,0-1.55,2.35,21.58,21.58,0,0,1-.32,2.53C28,23.46,27.61,23.88,27.17,23.88Z"/><path d="M24.22,25.56l-.35-.6c.53-.31,1.6-1.14,1.54-1.7l.69-.07C26.21,24.35,24.43,25.44,24.22,25.56Z"/><path d="M14.8,16.25a1,1,0,0,1,.06-.46.69.69,0,0,1,.37-.38.77.77,0,0,1,.56,0,.91.91,0,0,1,.22.12,1,1,0,0,1,.2.14,1.64,1.64,0,0,1,.52.8,1.19,1.19,0,0,1-.08.91,2.11,2.11,0,0,0-.26-.78,2,2,0,0,0-.48-.57,1,1,0,0,0-.58-.3C15.15,15.76,15,16,14.8,16.25Z"/><path d="M13,17.4S15.72,6.77,20.58,6.3c0,0,9.44-1.81,11.56,7.17.19.84.92,2.78-1.16,3.24s-1.39-2.55-2.31-3.7a45.91,45.91,0,0,0-4.39-2.54s-3.47,3.69-4.63,3.93A4.14,4.14,0,0,0,17.57,16s-1.85-2.77-3-1.61-.93,3-.47,3.23Z"/><path d="M14.93,17.92l-2.13-.43,0-.12a33.51,33.51,0,0,1,2-5.39c1.74-3.65,3.67-5.6,5.73-5.79.08,0,9.57-1.74,11.68,7.25,0,.08,0,.16.06.26a3,3,0,0,1,0,2.31,1.89,1.89,0,0,1-1.28.81,1.32,1.32,0,0,1-1-.12c-.53-.35-.67-1.11-.82-1.92a4.21,4.21,0,0,0-.57-1.7,38.14,38.14,0,0,0-4.28-2.47c-.48.51-3.52,3.68-4.62,3.9a4,4,0,0,0-2,1.57l-.1.14-.09-.14s-1.18-1.75-2.18-1.85a.78.78,0,0,0-.65.25,2.89,2.89,0,0,0-.78,2.43c.06.38.19.57.29.62Zm-1.84-.61.71.14a1.84,1.84,0,0,1-.16-.5,3.19,3.19,0,0,1,.84-2.64,1,1,0,0,1,.84-.31c.95.1,1.94,1.38,2.25,1.81a4,4,0,0,1,2.06-1.53c1.11-.22,4.53-3.86,4.56-3.89l.06-.07.08,0a41.86,41.86,0,0,1,4.43,2.58,4,4,0,0,1,.61,1.79c.15.76.28,1.48.72,1.77a1.08,1.08,0,0,0,.87.1,1.7,1.7,0,0,0,1.13-.71,2.88,2.88,0,0,0,0-2.14c0-.09-.05-.18-.06-.25C30,4.72,20.69,6.4,20.6,6.42,16.14,6.84,13.42,16.15,13.09,17.31Z"/><path d="M14.18,27.68a7.16,7.16,0,0,1-4.11-1.8,5.21,5.21,0,0,1-2-3.14,4.62,4.62,0,0,1,1.05-3.58c2.87-3.83,7.14-1,7.4-.78s3.38,2.25,1.05,6.92a3.91,3.91,0,0,1-2.71,2.32A3.66,3.66,0,0,1,14.18,27.68Zm-1.35-9.81a3.85,3.85,0,0,0-3.19,1.71,4,4,0,0,0-.92,3.05,4.54,4.54,0,0,0,1.77,2.69l0,0s2.21,2,4.18,1.58A3.19,3.19,0,0,0,16.91,25c2.13-4.26-.66-5.95-.78-6l0,0a6.93,6.93,0,0,0-2.32-1A4.58,4.58,0,0,0,12.83,17.87Z"/><path d="M12.16,25.7a1.4,1.4,0,0,1-.67-.45,1.22,1.22,0,0,1-.21-.39.94.94,0,0,1,0-.53.81.81,0,0,1,.33-.45A1.13,1.13,0,0,1,12,23.7a1.37,1.37,0,0,1,.8.12c-.23.17-.44.28-.61.4a1,1,0,0,0-.21.17.33.33,0,0,0-.07.13A.91.91,0,0,0,12,25C12,25.2,12.1,25.43,12.16,25.7Z"/><path d="M13.4,22.3a1.41,1.41,0,0,1-.42-.69,1.27,1.27,0,0,1,0-.44.92.92,0,0,1,.21-.49.86.86,0,0,1,.49-.27,1,1,0,0,1,.46,0,1.37,1.37,0,0,1,.68.44c-.28.06-.52.07-.72.1a1.38,1.38,0,0,0-.26.07.31.31,0,0,0-.12.09,1,1,0,0,0-.16.45C13.49,21.79,13.46,22,13.4,22.3Z"/><path d="M16.76,32.52c-2.61,0-7.06-2.71-8.42-6.56-.25-.72.08-1,.23-1.11.46-.29,1.21,0,2,.75s4.22,2.23,5.18,1.27a10.84,10.84,0,0,0,1.54-2.66l0-.06A3.42,3.42,0,0,1,19.21,23c1.6-.43,4.63,1.48,7.38,3.42.27.19.55.39.62.42a.35.35,0,0,1,.15.47.34.34,0,0,1-.46.15,7.35,7.35,0,0,1-.71-.47c-1.31-.93-5.29-3.73-6.79-3.32a2.87,2.87,0,0,0-1.52.88,11.14,11.14,0,0,1-1.68,2.85c-.79.79-2.25.55-3.33.21A8.24,8.24,0,0,1,10,26.09c-.56-.57-1-.68-1.09-.66a.6.6,0,0,0,.05.3c1.45,4.13,6.5,6.57,8.36,6s3.08-3.15,3.22-4.11a.34.34,0,0,1,.39-.29.35.35,0,0,1,.3.39c-.15,1-1.51,4-3.72,4.68A2.75,2.75,0,0,1,16.76,32.52Z"/><path d="M10.16,27.9a.35.35,0,0,0-.49.08c-.05.07-4,5.81-4.21,12.55h.69a24.94,24.94,0,0,1,4.09-12.15A.35.35,0,0,0,10.16,27.9Z"/><path d="M25,44.47c-2,0-4.56-1-7.7-2.95a48,48,0,0,1-4.19-3,2.88,2.88,0,0,0-.59,1.23.34.34,0,0,1-.41.27.33.33,0,0,1-.27-.4,3.21,3.21,0,0,1,1.07-1.84.35.35,0,0,1,.42,0c.07.06,7.52,6.24,12,5.93,3.54-.25,6.64-2.31,7.61-4.15A2.15,2.15,0,0,0,33.13,38a3.45,3.45,0,0,1-.16-.33.35.35,0,0,1,.17-.44.34.34,0,0,1,.45.13,1.46,1.46,0,0,1,.18.38c.27.49.76,1.19,1.34,1.28s.9-.19,1.39-.78a.33.33,0,0,1,.48,0,.34.34,0,0,1,.05.48,2.23,2.23,0,0,1-2,1A2.13,2.13,0,0,1,33.85,39a4.08,4.08,0,0,1-.34.91c-1,2-4.25,4.25-8.17,4.52Z"/><path d="M26.74,38.92c-2.57,0-7.94-6.36-8.57-7.11a.35.35,0,1,1,.54-.44c2.34,2.81,6.62,7.15,8.16,6.85a16.28,16.28,0,0,0,4.91-1.53.35.35,0,0,1,.49.49c-.65.66-3.62,1.39-5.27,1.72Z"/><path d="M29.28,45.35a19.69,19.69,0,0,1-6.1-1.12.35.35,0,0,1,.22-.66c7,2.39,10.23.35,11.5-1.07A5.54,5.54,0,0,0,36,36.74c-1-2.08-6-8.67-7-9.91-.87.31-3.82,1.29-5.47,1.09-.84-.11-1,.06-1,.07s.05.19.12.26,1.16,1.1,5.46.14a.35.35,0,0,1,.19.67,24.64,24.64,0,0,1-5,1.17c-.39,0-.67.15-.69.36s.24.49.75.57c1.08.18,4.43-.6,5.63-.91a.34.34,0,0,1,.38.52c-.41.62-2.07,1.28-3.89,2l-.66.25c-.43.17-.55.45-.51.6s.31.25.76.13c2.72-.68,4.57-1.37,4.58-1.37a.34.34,0,0,1,.38.09.35.35,0,0,1,.06.39,6.51,6.51,0,0,1-2.45,2c-.43.26-.84.5-1.12.71s-.21.25-.19.29.15.09.33,0l3.45-1.38a.32.32,0,0,1,.27,0,.34.34,0,0,1,.19.2,3.7,3.7,0,0,0,1.67,2,2.05,2.05,0,0,0,1.77-.16.36.36,0,0,1,.47.16.34.34,0,0,1-.16.46,2.71,2.71,0,0,1-2.34.18,4,4,0,0,1-1.93-2.12L27,36.45a.93.93,0,0,1-1.18-.36.89.89,0,0,1,.38-1.16,13.21,13.21,0,0,1,1.19-.76c.35-.21.74-.44,1.1-.67-.8.25-1.89.57-3.15.89-.89.22-1.44-.14-1.59-.6a1.24,1.24,0,0,1,.91-1.45l.68-.26c.39-.15,1-.37,1.59-.62a13.07,13.07,0,0,1-3.58.39c-1-.16-1.37-.8-1.33-1.32s.48-1,1.38-1a5,5,0,0,0,.86-.09,3.28,3.28,0,0,1-2-.71,1,1,0,0,1-.25-1.06c.3-.62,1.35-.49,1.7-.45,1.74.22,5.34-1.12,5.38-1.14a.37.37,0,0,1,.4.12c.25.32,6.11,7.88,7.2,10.24A6.24,6.24,0,0,1,35.42,43,7.9,7.9,0,0,1,29.28,45.35Z"/></g></svg>