<svg id="Capa_1" data-name="Capa 1" xmlns="http://www.w3.org/2000/svg" viewBox="0 0 771.1 403.87"><defs><style>.cls-1,.cls-2{fill:#0b5c96;}.cls-2{stroke:#0b5c96;stroke-miterlimit:10;stroke-width:44px;}</style></defs><title>sn</title><path class="cls-1" d="M88.25,86.9h32.56V298.56H241.36v28.63H88.25Z"/><path class="cls-1" d="M472.49,121.25q23.88,31.89,23.88,81.62,0,53.82-27.31,89.48Q437,334.22,377.62,334.22q-55.46,0-87.19-36.64-28.29-35.32-28.3-89.31,0-48.74,24.21-83.42,31.08-44.49,91.93-44.5Q441.9,80.35,472.49,121.25ZM443.78,274.41q19.23-30.86,19.22-71,0-42.41-22.16-68.26t-60.6-25.87q-37.31,0-60.85,25.62t-23.56,75.55q0,39.95,20.2,67.37t65.51,27.42Q424.56,305.27,443.78,274.41Z"/><path class="cls-1" d="M709.84,86.9v28.62h-81V327.19H596V115.52H515V86.9Z"/><path class="cls-2" d="M771.1,403.87H0V0H771.1ZM12.81,391.06H758.3V12.81H12.81Z"/></svg>