<svg id="Capa_1" data-name="Capa 1" xmlns="http://www.w3.org/2000/svg" viewBox="0 0 771.1 403.87"><defs><style>.cls-1,.cls-2{fill:#0b5c96;}.cls-2{stroke:#0b5c96;stroke-miterlimit:10;stroke-width:44px;}</style></defs><title>sn</title><path class="cls-1" d="M199.65,249.65q1.09,20.46,9.29,33.21,15.6,23.88,55,23.88a94.09,94.09,0,0,0,32.14-5.23q28.05-10.14,28.05-36.32,0-19.62-11.89-28-12-8.17-37.71-14.23L243,215.63q-30.9-7.2-43.74-15.87-22.18-15-22.18-45,0-32.39,21.8-53.16t61.76-20.77q36.78,0,62.48,18.23t25.71,58.32H318.24q-2.36-19.31-10-29.61Q293.94,109,259.74,109q-27.6,0-39.68,12.1T208,149.22q0,17.67,14.26,25.84,9.36,5.25,42.32,13.09l32.65,7.69q23.61,5.57,36.45,15.21Q355.85,227.9,355.86,260q0,39.92-28.31,57.09t-65.81,17.17q-43.71,0-68.43-22.9-24.75-22.72-24.25-61.67Z"/><path class="cls-1" d="M401.83,86.9h38.34L560,281V86.9h31.08V327.19H554.51L432.91,133.27V327.19H401.83Z"/><path class="cls-2" d="M771.1,403.87H0V0H771.1ZM12.81,391.06H758.3V12.81H12.81Z"/></svg>