<svg id="Capa_1" data-name="Capa 1" xmlns="http://www.w3.org/2000/svg" viewBox="0 0 28.1 24.44"><defs><style>.cls-1{fill:#47bcca;opacity:0.3;}.cls-2{fill:none;stroke:#47bcca;stroke-miterlimit:10;stroke-width:1.44px;}</style></defs><title>icos vistas</title><path class="cls-1" d="M3,.72H24.74a2.65,2.65,0,0,1,2.65,2.65V21.29A2.43,2.43,0,0,1,25,23.72H3A2.28,2.28,0,0,1,.72,21.44V3A2.28,2.28,0,0,1,3,.72Z"/><path class="cls-2" d="M24.33.72H3.43A2.71,2.71,0,0,0,.72,3.43V21a2.71,2.71,0,0,0,2.71,2.71h21.8a2.16,2.16,0,0,0,2.16-2.16V3.77A3.06,3.06,0,0,0,24.33.72Z"/><rect class="cls-1" x="0.72" y="6.47" width="26.09" height="3.83"/><rect class="cls-1" x="0.72" y="14.14" width="26.09" height="3.83"/></svg>