<svg id="Capa_1" data-name="Capa 1" xmlns="http://www.w3.org/2000/svg" viewBox="0 0 28.1 24.44"><defs><style>.cls-1,.cls-3{fill:none;stroke:#47bcca;stroke-miterlimit:10;}.cls-1{stroke-width:1.44px;}.cls-2{fill:#47bcca;opacity:0.3;}.cls-3{stroke-width:1.48px;}</style></defs><title>icos vistas</title><path class="cls-1" d="M24.33.72H1.94A1.22,1.22,0,0,0,.72,1.94V22.5a1.22,1.22,0,0,0,1.22,1.22H25.23a2.16,2.16,0,0,0,2.16-2.16V3.77A3.06,3.06,0,0,0,24.33.72Z"/><path class="cls-2" d="M.72.72H23.79a3.6,3.6,0,0,1,3.6,3.6V15.89a0,0,0,0,1,0,0H.72a0,0,0,0,1,0,0V.72A0,0,0,0,1,.72.72Z"/><rect class="cls-2" x="0.72" y="6.47" width="26.67" height="3.83"/><path class="cls-3" d="M2.14.8H23.81a3.58,3.58,0,0,1,3.58,3.58V15.8a0,0,0,0,1,0,0H.72a0,0,0,0,1,0,0V2.22A1.42,1.42,0,0,1,2.14.8Z"/></svg>