<svg id="Capa_1" data-name="Capa 1" xmlns="http://www.w3.org/2000/svg" viewBox="0 0 28.1 24.44"><defs><style>.cls-1{fill:none;}.cls-1,.cls-3{stroke:#000;stroke-miterlimit:10;stroke-width:1.44px;}.cls-2,.cls-3{opacity:0.3;}</style></defs><title>icos vistas</title><path class="cls-1" d="M1.94.72H8.39a0,0,0,0,1,0,0v23a0,0,0,0,1,0,0H1.94A1.22,1.22,0,0,1,.72,22.5V1.94A1.22,1.22,0,0,1,1.94.72Z"/><path class="cls-1" d="M24.33.72H8.39v23H25.23a2.16,2.16,0,0,0,2.16-2.16V3.77A3.06,3.06,0,0,0,24.33.72Z"/><rect class="cls-2" x="0.72" y="6.47" width="7.5" height="3.83"/><path class="cls-3" d="M1.94.72H8.39a0,0,0,0,1,0,0v23a0,0,0,0,1,0,0H1.94A1.22,1.22,0,0,1,.72,22.5V1.94A1.22,1.22,0,0,1,1.94.72Z"/><rect class="cls-2" x="0.72" y="14.14" width="7.5" height="3.83"/></svg>