<svg id="Capa_1" data-name="Capa 1" xmlns="http://www.w3.org/2000/svg" viewBox="0 0 28.1 24.44"><defs><style>.cls-1,.cls-4{fill:#47bcca;}.cls-1,.cls-2,.cls-3{stroke:#47bcca;stroke-miterlimit:10;}.cls-1,.cls-2{stroke-width:1.44px;}.cls-2,.cls-3{fill:none;}.cls-3{stroke-width:1.44px;}.cls-4{opacity:0.3;}</style></defs><title>icos vistas</title><path class="cls-1" d="M1.94.72H8.39a0,0,0,0,1,0,0v23a0,0,0,0,1,0,0H1.94A1.22,1.22,0,0,1,.72,22.5V1.94A1.22,1.22,0,0,1,1.94.72Z"/><path class="cls-2" d="M8.39,16.05h19a0,0,0,0,1,0,0v5.51a2.16,2.16,0,0,1-2.16,2.16H8.39a0,0,0,0,1,0,0V16.05A0,0,0,0,1,8.39,16.05Z"/><path class="cls-3" d="M8.39.72H24.33a3.05,3.05,0,0,1,3.05,3.05V16.05a0,0,0,0,1,0,0h-19a0,0,0,0,1,0,0V.72A0,0,0,0,1,8.39.72Z"/><path class="cls-4" d="M8.39.72H24.33a3.05,3.05,0,0,1,3.05,3.05V16.05a0,0,0,0,1,0,0h-19a0,0,0,0,1,0,0V.72A0,0,0,0,1,8.39.72Z"/><rect class="cls-4" x="8.39" y="6.47" width="19" height="3.83"/></svg>