<svg id="Capa_1" data-name="Capa 1" xmlns="http://www.w3.org/2000/svg" viewBox="0 0 28.1 24.44"><defs><style>.cls-1,.cls-2{fill:#47bcca;}.cls-1{opacity:0.3;}.cls-2,.cls-3{stroke:#47bcca;stroke-miterlimit:10;}.cls-2{stroke-width:1.44px;}.cls-3{fill:none;stroke-width:1.44px;}</style></defs><title>icos vistas</title><path class="cls-1" d="M8.39.72H23.63a3.75,3.75,0,0,1,3.75,3.75V21a2.9,2.9,0,0,1-2.9,2.9H8.39a0,0,0,0,1,0,0V.72A0,0,0,0,1,8.39.72Z"/><path class="cls-2" d="M1.94.72H8.39a0,0,0,0,1,0,0v23a0,0,0,0,1,0,0H1.94A1.22,1.22,0,0,1,.72,22.5V1.94A1.22,1.22,0,0,1,1.94.72Z"/><path class="cls-3" d="M24.33.72H8.39v23H25.23a2.16,2.16,0,0,0,2.16-2.16V3.77A3.06,3.06,0,0,0,24.33.72Z"/><rect class="cls-1" x="8.39" y="6.47" width="19" height="3.83"/><rect class="cls-1" x="8.72" y="14.14" width="19" height="3.83"/></svg>