<svg id="Capa_1" data-name="Capa 1" xmlns="http://www.w3.org/2000/svg" xmlns:xlink="http://www.w3.org/1999/xlink" viewBox="0 0 20 46"><defs><style>.cls-1{fill:#28385c;}.cls-2{fill:#95a8c6;}.cls-3,.cls-7{fill:#c3cfe6;}.cls-4{fill:#33497a;}.cls-5{fill:#3f5996;}.cls-6{fill:url(#Degradado_sin_nombre_6);}.cls-7{stroke:#c3cfe6;stroke-miterlimit:10;stroke-width:0.5px;}</style><linearGradient id="Degradado_sin_nombre_6" x1="299.55" y1="-638.5" x2="299.55" y2="-630.76" gradientTransform="matrix(1, 0, 0, -1, -289.5, -616.5)" gradientUnits="userSpaceOnUse"><stop offset="0" stop-opacity="0.3"/><stop offset="0.59" stop-opacity="0"/></linearGradient></defs><title>prueba</title><g id="surface1"><path class="cls-1" d="M14.05,14a11.62,11.62,0,0,1-4.18.53c-3,0-3.82-.53-3.82-.53V5h8Z"/><path class="cls-2" d="M12.05,11h-4v3a1.84,1.84,0,0,0,1.66,2,1.93,1.93,0,0,0,.34,0,2,2,0,0,0,2-1.83V14Z"/><path class="cls-3" d="M10.05,13a5,5,0,1,1,5-5,5,5,0,0,1-5,5"/><path class="cls-3" d="M12,14.26A1.85,1.85,0,0,1,10,16h0a1.78,1.78,0,0,1-1.94-1.6.66.66,0,0,1,0-.14,8,8,0,0,0-6,7.74v8l3,2,1,14h8l1-14,3-2V22A8,8,0,0,0,12,14.26Z"/><path class="cls-4" d="M10.05,1c-3,.22-8,4.5-7,10,.19,1,3,3,3,3s.45-4.79,0-6.5c0,0,4.19-.35,6-3.5,0,0,2.52,2.33,2.11,4.9a26.34,26.34,0,0,0-.11,5.1s2.59-2,3-3c.77-1.86,0-9-5-9a5,5,0,0,0-.71-.74A2,2,0,0,0,10.05,1Z"/><path class="cls-5" d="M14.67,22h3.38a8,8,0,0,0-6-7.74,1.86,1.86,0,0,1-2,1.75H10a1.78,1.78,0,0,1-1.94-1.6.66.66,0,0,1,0-.14,8,8,0,0,0-6,7.74H5.46L1,37s2.63,2,9.13,2S19,37,19,37Z"/><path class="cls-6" d="M14.67,22h3.38a8,8,0,0,0-6-7.74,1.86,1.86,0,0,1-2,1.75H10a1.78,1.78,0,0,1-1.94-1.6.66.66,0,0,1,0-.14,8,8,0,0,0-6,7.74H5.46l2.59-7.74h4Z"/></g><path class="cls-7" d="M12.89,23.54a2.78,2.78,0,0,1-.7,1.89,2.64,2.64,0,0,1-1.74.93v1.28h1.07a.15.15,0,0,1,.11,0,.16.16,0,0,1,0,.12v.31a.16.16,0,0,1,0,.12.15.15,0,0,1-.11,0H10.45v1.11a.14.14,0,0,1-.15.15H10a.15.15,0,0,1-.11,0,.21.21,0,0,1,0-.11V28.27H8.77a.15.15,0,0,1-.11,0,.21.21,0,0,1,0-.12V27.8a.21.21,0,0,1,0-.12.15.15,0,0,1,.11,0H9.84V26.36a2.52,2.52,0,0,1-1.29-.51,2.7,2.7,0,0,1-.89-1.11,2.8,2.8,0,0,1-.25-1.43,2.86,2.86,0,0,1,.38-1.23,2.77,2.77,0,0,1,.87-.93,2.64,2.64,0,0,1,1.17-.43,2.56,2.56,0,0,1,1.52.26A2.72,2.72,0,0,1,12.48,22,2.9,2.9,0,0,1,12.89,23.54ZM8.64,22a2.25,2.25,0,0,0,0,3.12,2.08,2.08,0,0,0,3,0,2.27,2.27,0,0,0,0-3.12,2.08,2.08,0,0,0-3,0Z"/></svg>