<svg id="Capa_1" data-name="Capa 1" xmlns="http://www.w3.org/2000/svg" xmlns:xlink="http://www.w3.org/1999/xlink" viewBox="0 0 20 46"><defs><style>.cls-1{fill:#5c5c5c;}.cls-2{fill:#c6c6c6;}.cls-3,.cls-7{fill:#e6e6e6;}.cls-4{fill:#7a7a7a;}.cls-5{fill:#969696;}.cls-6{fill:url(#Degradado_sin_nombre);}.cls-7{stroke:#e6e6e6;stroke-miterlimit:10;stroke-width:0.5px;}</style><linearGradient id="Degradado_sin_nombre" x1="10.05" y1="-239" x2="10.05" y2="-231.26" gradientTransform="matrix(1, 0, 0, -1, 0, -217)" gradientUnits="userSpaceOnUse"><stop offset="0" stop-opacity="0.3"/><stop offset="0.59" stop-opacity="0"/></linearGradient></defs><title>prueba</title><path class="cls-1" d="M14,14a12.24,12.24,0,0,1-4.2.5C6.8,14.5,6,14,6,14V5h8Z"/><path class="cls-2" d="M12,11H8v3a1.88,1.88,0,0,0,2,2,1.88,1.88,0,0,0,2-2Z"/><path class="cls-3" d="M10,13A5,5,0,0,1,5,8,5,5,0,0,1,15,8a5,5,0,0,1-5,5"/><path class="cls-3" d="M12,14.3A1.88,1.88,0,0,1,10,16a1.71,1.71,0,0,1-1.9-1.7,7.93,7.93,0,0,0-6,7.7v8l3,2,1,14h8l1-14,3-2V22A8.15,8.15,0,0,0,12,14.3Z"/><path class="cls-4" d="M10,1C7,1.2,2,5.5,3,11c.2,1,3,3,3,3s.4-4.8,0-6.5c0,0,4.2-.3,6-3.5,0,0,2.5,2.3,2.1,4.9A30.36,30.36,0,0,0,14,14s2.6-2,3-3c.8-1.9,0-9-5-9a4.3,4.3,0,0,0-.7-.7A2.23,2.23,0,0,0,10,1Z"/><path class="cls-5" d="M14.6,22H18a8,8,0,0,0-6-7.7A1.88,1.88,0,0,1,10,16a1.71,1.71,0,0,1-1.9-1.7,7.93,7.93,0,0,0-6,7.7H5.5L1,37s2.6,2,9.1,2S19,37,19,37Z"/><path class="cls-6" d="M14.6,22H18a8,8,0,0,0-6-7.7A1.88,1.88,0,0,1,10,16a1.71,1.71,0,0,1-1.9-1.7,7.93,7.93,0,0,0-6,7.7H5.5l2.6-7.7h4Z"/><path class="cls-7" d="M12.79,23.55a2.79,2.79,0,0,1-.7,1.9,2.64,2.64,0,0,1-1.74.93v1.28h1.07a.14.14,0,0,1,.15.15v.32a.14.14,0,0,1,0,.11.16.16,0,0,1-.11.05H10.35v1.1a.16.16,0,0,1,0,.12.15.15,0,0,1-.11,0H9.89a.15.15,0,0,1-.11,0,.16.16,0,0,1,0-.12v-1.1H8.67a.16.16,0,0,1-.11-.05.14.14,0,0,1,0-.11v-.32a.14.14,0,0,1,.15-.15H9.74V26.38a2.78,2.78,0,0,1-1.3-.51,2.88,2.88,0,0,1,.12-4.7A2.64,2.64,0,0,1,11.25,21a2.72,2.72,0,0,1,1.13,1.05A2.89,2.89,0,0,1,12.79,23.55ZM8.54,22a2.18,2.18,0,0,0-.63,1.56,2.15,2.15,0,0,0,.63,1.56,2.07,2.07,0,0,0,3,0,2.15,2.15,0,0,0,.63-1.56A2.18,2.18,0,0,0,11.55,22a2.09,2.09,0,0,0-3,0Z"/></svg>