<svg id="Capa_1" data-name="Capa 1" xmlns="http://www.w3.org/2000/svg" viewBox="0 0 20 46"><defs><style>.cls-1{fill:#963f3f;}.cls-2{fill:#c69595;}.cls-3{fill:#e6c3c3;}</style></defs><title>prueba</title><path class="cls-1" d="M11.9,14.3a1.88,1.88,0,0,1-2,1.7A1.71,1.71,0,0,1,8,14.3,7.93,7.93,0,0,0,2,22s-.94,6.24,0,8c.43.79,3,2,3,2L6,46h8l1-14s2.57-1.21,3-2c.94-1.76,0-8,0-8A8.15,8.15,0,0,0,11.9,14.3Z"/><path class="cls-2" d="M12,11.3H8v3a1.88,1.88,0,0,0,2,2,1.88,1.88,0,0,0,2-2Z"/><path class="cls-3" d="M10,13.3a5,5,0,0,1-5-5,5,5,0,1,1,10,0,5,5,0,0,1-5,5"/><path class="cls-3" d="M9.16,26.76A5.27,5.27,0,0,1,9.21,26a2.07,2.07,0,0,1,.17-.58,2.88,2.88,0,0,1,.3-.5,6.6,6.6,0,0,1,.46-.49c.13-.14.26-.26.38-.38a3.31,3.31,0,0,0,.31-.36,2.24,2.24,0,0,0,.22-.4,1.41,1.41,0,0,0,.07-.47,1.2,1.2,0,0,0-.28-.86,1.06,1.06,0,0,0-.82-.3,1.52,1.52,0,0,0-.42.06,1.24,1.24,0,0,0-.36.19,1,1,0,0,0-.26.34,1.07,1.07,0,0,0-.1.49H7.42a2.4,2.4,0,0,1,.2-1,2,2,0,0,1,.56-.72A2.31,2.31,0,0,1,9,20.61a3.67,3.67,0,0,1,2.11,0,2,2,0,0,1,.8.46,1.87,1.87,0,0,1,.5.73,2.52,2.52,0,0,1,.17,1,2.25,2.25,0,0,1-.12.74,3,3,0,0,1-.34.64,5.09,5.09,0,0,1-.48.58l-.56.54a1.45,1.45,0,0,0-.44.66,3.29,3.29,0,0,0-.12.81Zm-.1,1.87a.78.78,0,0,1,0-.31.87.87,0,0,1,.16-.26.76.76,0,0,1,.26-.16,1.05,1.05,0,0,1,.7,0,.76.76,0,0,1,.26.16.87.87,0,0,1,.16.26.78.78,0,0,1,.06.31.74.74,0,0,1-.22.55.8.8,0,0,1-.61.22.8.8,0,0,1-.61-.22A.77.77,0,0,1,9.06,28.63Z"/></svg>