<svg id="Capa_1" data-name="Capa 1" xmlns="http://www.w3.org/2000/svg" viewBox="0 0 20 46"><defs><style>.cls-1{fill:#a7a7a8;}.cls-2{fill:#c6c6c6;}.cls-3{fill:#e6e6e6;}</style></defs><title>prueba</title><path class="cls-1" d="M11.9,14.3a1.88,1.88,0,0,1-2,1.7A1.71,1.71,0,0,1,8,14.3,7.93,7.93,0,0,0,2,22s-.94,6.24,0,8c.43.79,3,2,3,2L6,46h8l1-14s2.57-1.21,3-2c.94-1.76,0-8,0-8A8.15,8.15,0,0,0,11.9,14.3Z"/><path class="cls-2" d="M12,11.3H8v3a1.88,1.88,0,0,0,2,2,1.88,1.88,0,0,0,2-2Z"/><path class="cls-3" d="M10,13.3a5,5,0,0,1-5-5,5,5,0,1,1,10,0,5,5,0,0,1-5,5"/><path class="cls-3" d="M9.16,26.76A5.27,5.27,0,0,1,9.21,26a2.38,2.38,0,0,1,.17-.57,2.55,2.55,0,0,1,.3-.5c.13-.15.28-.32.46-.5l.38-.37a3.31,3.31,0,0,0,.31-.36,1.71,1.71,0,0,0,.21-.4,1.19,1.19,0,0,0,.08-.47,1.2,1.2,0,0,0-.28-.86,1.06,1.06,0,0,0-.82-.3,2,2,0,0,0-.42.06,1.27,1.27,0,0,0-.36.2.85.85,0,0,0-.26.33,1.09,1.09,0,0,0-.1.5H7.42a2.26,2.26,0,0,1,.21-1,2.16,2.16,0,0,1,.55-.72A2.49,2.49,0,0,1,9,20.62a3.75,3.75,0,0,1,1-.14,3.52,3.52,0,0,1,1.08.15,2.29,2.29,0,0,1,.81.46,2,2,0,0,1,.5.73,2.72,2.72,0,0,1,.17,1,2,2,0,0,1-.13.74,2.78,2.78,0,0,1-.33.64,4.26,4.26,0,0,1-.48.57c-.18.19-.37.37-.56.55a1.45,1.45,0,0,0-.44.66,3.2,3.2,0,0,0-.12.8Zm-.1,1.87a1,1,0,0,1,0-.31.72.72,0,0,1,.16-.25.65.65,0,0,1,.26-.17,1.05,1.05,0,0,1,.7,0,.65.65,0,0,1,.26.17.72.72,0,0,1,.16.25.78.78,0,0,1,.06.31.74.74,0,0,1-.22.55.8.8,0,0,1-.61.22.8.8,0,0,1-.61-.22A.77.77,0,0,1,9.06,28.63Z"/></svg>