<svg id="Capa_1" data-name="Capa 1" xmlns="http://www.w3.org/2000/svg" xmlns:xlink="http://www.w3.org/1999/xlink" viewBox="0 0 20 46"><defs><style>.cls-1{fill:#963f3f;}.cls-2{fill:#e6c3c3;}.cls-3{fill:#c69595;}.cls-4{fill:#5c2828;}.cls-5{fill:url(#Degradado_sin_nombre_4);}</style><linearGradient id="Degradado_sin_nombre_4" x1="10" y1="-249" x2="10" y2="-231" gradientTransform="matrix(1, 0, 0, -1, 0, -217)" gradientUnits="userSpaceOnUse"><stop offset="0" stop-opacity="0.4"/><stop offset="0.39" stop-opacity="0"/></linearGradient></defs><title>prueba</title><path class="cls-1" d="M2,22v8l3,2L6,46h8l1-14,3-2V22A8,8,0,0,0,2,22"/><path class="cls-2" d="M13.6,21.68a.29.29,0,0,1,.21.09.31.31,0,0,1,.09.22v2.06a.15.15,0,0,1,0,.11.14.14,0,0,1-.11,0h-.3a.14.14,0,0,1-.11,0,.16.16,0,0,1-.05-.11v-1.3l-1.82,1.89a2.83,2.83,0,0,1,.6,1.77,2.87,2.87,0,0,1-.21,1.1,2.75,2.75,0,0,1-.59.91,2.72,2.72,0,0,1-.88.61,2.69,2.69,0,0,1-2.13,0,2.89,2.89,0,0,1-1.68-2.62,2.77,2.77,0,0,1,.22-1.1,3,3,0,0,1,.58-.91,2.86,2.86,0,0,1,.88-.6,2.64,2.64,0,0,1,2.78.39l1.82-1.88H11.62a.16.16,0,0,1-.11,0,.17.17,0,0,1,0-.12v-.31a.17.17,0,0,1,0-.12.12.12,0,0,1,.11,0ZM7.82,28a2.08,2.08,0,0,0,3,0,2.27,2.27,0,0,0,0-3.12,2.08,2.08,0,0,0-3,0,2.25,2.25,0,0,0,0,3.12Z"/><path class="cls-2" d="M9.33,29.5a2.92,2.92,0,0,1-1.17-.24,3.28,3.28,0,0,1-1-.66,3.16,3.16,0,0,1-.63-1,3.06,3.06,0,0,1-.24-1.2,3.1,3.1,0,0,1,.24-1.2,3.23,3.23,0,0,1,.63-1,3,3,0,0,1,2.13-.91,2.79,2.79,0,0,1,1.68.54l1.26-1.3h-.65a.37.37,0,0,1-.29-.12.4.4,0,0,1-.12-.29v-.31a.38.38,0,0,1,.12-.29.37.37,0,0,1,.29-.12h2a.52.52,0,0,1,.39.17.53.53,0,0,1,.16.39v2.06a.39.39,0,0,1-.4.4h-.3a.37.37,0,0,1-.29-.12.39.39,0,0,1-.12-.28v-.68l-1.24,1.3a3,3,0,0,1,.52,1.74,3.24,3.24,0,0,1-.23,1.2,3.19,3.19,0,0,1-.64,1,3.28,3.28,0,0,1-1,.66A2.9,2.9,0,0,1,9.33,29.5Zm0-5.68a2.32,2.32,0,0,0-1,.21,2.48,2.48,0,0,0-.8.55,2.62,2.62,0,0,0-.53.83,2.59,2.59,0,0,0-.2,1,2.67,2.67,0,0,0,.2,1,2.62,2.62,0,0,0,.53.83,2.65,2.65,0,0,0,.8.55,2.4,2.4,0,0,0,1.93,0,2.53,2.53,0,0,0,.8-.55,2.62,2.62,0,0,0,.53-.83,2.5,2.5,0,0,0,.2-1,2.56,2.56,0,0,0-.54-1.61l-.14-.18,2.4-2.49V24h.11V22l-.05-.06H11.71v.13h1.74l-2.39,2.47-.18-.15A2.38,2.38,0,0,0,9.33,23.82Zm0,5.05a2.26,2.26,0,0,1-1.69-.72,2.5,2.5,0,0,1,0-3.47A2.27,2.27,0,0,1,9.33,24a2.3,2.3,0,0,1,1.69.73,2.53,2.53,0,0,1,0,3.47A2.29,2.29,0,0,1,9.33,28.87Zm0-4.42A1.74,1.74,0,0,0,8,25a1.87,1.87,0,0,0-.56,1.38A1.89,1.89,0,0,0,8,27.8a1.77,1.77,0,0,0,1.33.57,1.8,1.8,0,0,0,1.33-.57,1.92,1.92,0,0,0,.55-1.39A1.9,1.9,0,0,0,10.66,25,1.77,1.77,0,0,0,9.33,24.45Z"/><path class="cls-3" d="M12,11H8v3a1.88,1.88,0,0,0,2,2,1.88,1.88,0,0,0,2-2Z"/><path class="cls-2" d="M10,13A5,5,0,0,1,5,8,5,5,0,0,1,15,8a5,5,0,0,1-5,5"/><path class="cls-4" d="M9.7,1c-2.4.2-4.8,1.9-4.8,5.6V8l1,1V6l6.3-2.2L14,6V9l1-1V6.8c0-2.4-.1-4.2-3-4.8l-.5-1Z"/><path class="cls-5" d="M2,22v8l3,2-.8-9.4,11.1-.1L15,32l3-2V22A8,8,0,0,0,2,22"/></svg>