<svg id="Capa_1" data-name="Capa 1" xmlns="http://www.w3.org/2000/svg" xmlns:xlink="http://www.w3.org/1999/xlink" viewBox="0 0 20 46"><defs><style>.cls-1{fill:#3f5996;}.cls-2{fill:#95a8c6;}.cls-3{fill:#c3cfe6;}.cls-4{fill:#28385c;}.cls-5{fill:url(#Degradado_sin_nombre_7);}</style><linearGradient id="Degradado_sin_nombre_7" x1="299.5" y1="-648.5" x2="299.5" y2="-630.5" gradientTransform="matrix(1, 0, 0, -1, -289.5, -616.5)" gradientUnits="userSpaceOnUse"><stop offset="0" stop-opacity="0.4"/><stop offset="0.39" stop-opacity="0"/></linearGradient></defs><title>prueba</title><g id="surface1"><path class="cls-1" d="M2,22v8l3,2L6,46h8l1-14,3-2V22A8,8,0,0,0,2,22"/><path class="cls-2" d="M12,11H8v3a1.85,1.85,0,0,0,1.69,2A1.61,1.61,0,0,0,10,16a1.94,1.94,0,0,0,2-1.88V11Z"/><path class="cls-3" d="M10,13a5,5,0,1,1,5-5,5,5,0,0,1-5,5"/><path class="cls-4" d="M9.78,1C7.34,1.22,5,2.93,5,6.57V8L6,9V6l6.31-2.2L14,6V9l1-1V6.8c0-2.42-.14-4.21-3-4.8l-.49-1Z"/><path class="cls-3" d="M13.88,21.68a.29.29,0,0,1,.22.09.31.31,0,0,1,.09.22V24a.21.21,0,0,1,0,.12.15.15,0,0,1-.11,0h-.31a.15.15,0,0,1-.11,0,.16.16,0,0,1,0-.12V22.75l-1.82,1.89a2.79,2.79,0,0,1,.6,1.77,2.74,2.74,0,0,1-.22,1.1,2.7,2.7,0,0,1-.59.91,2.58,2.58,0,0,1-.87.61,2.63,2.63,0,0,1-1.07.22A2.55,2.55,0,0,1,8.55,29a2.62,2.62,0,0,1-.88-.61,2.86,2.86,0,0,1-.59-.91,2.92,2.92,0,0,1-.22-1.1,2.94,2.94,0,0,1,.81-2,2.75,2.75,0,0,1,.88-.6,2.56,2.56,0,0,1,1.06-.23,2.59,2.59,0,0,1,1.71.62l1.83-1.88H11.9a.16.16,0,0,1-.11,0,.14.14,0,0,1,0-.11v-.32a.14.14,0,0,1,.15-.15ZM8.1,28a2.08,2.08,0,0,0,3,0,2.25,2.25,0,0,0,0-3.12,2.08,2.08,0,0,0-3,0A2.27,2.27,0,0,0,8.1,28Z"/><path class="cls-3" d="M9.61,29.5a2.87,2.87,0,0,1-1.16-.24,3.13,3.13,0,0,1-1-.67,3,3,0,0,1-.64-1,3.06,3.06,0,0,1-.24-1.2,3.1,3.1,0,0,1,.24-1.2,3.14,3.14,0,0,1,.64-1,3,3,0,0,1,.95-.66,2.77,2.77,0,0,1,1.17-.25,2.81,2.81,0,0,1,1.69.54l1.26-1.3H11.9a.4.4,0,0,1-.29-.12.44.44,0,0,1-.11-.29v-.32a.39.39,0,0,1,.11-.28.4.4,0,0,1,.29-.12h2a.56.56,0,0,1,.4.17.57.57,0,0,1,.16.39V24a.44.44,0,0,1-.11.29.4.4,0,0,1-.29.12h-.31a.4.4,0,0,1-.29-.12.44.44,0,0,1-.11-.29v-.67l-1.25,1.29a3.14,3.14,0,0,1,.29,2.95,3,3,0,0,1-.64,1,3.1,3.1,0,0,1-1,.66A2.92,2.92,0,0,1,9.61,29.5Zm0-5.68a2.43,2.43,0,0,0-1,.2,2.56,2.56,0,0,0-.8.56,2.48,2.48,0,0,0-.54.83,2.59,2.59,0,0,0-.2,1,2.67,2.67,0,0,0,.2,1,2.65,2.65,0,0,0,.54.83,2.53,2.53,0,0,0,.8.55,2.4,2.4,0,0,0,1.93,0,2.61,2.61,0,0,0,.79-.55,2.48,2.48,0,0,0,.54-.83,2.67,2.67,0,0,0,.2-1,2.51,2.51,0,0,0-.55-1.61l-.13-.18,2.4-2.49V24h.11V22l-.06-.06H12v.13h1.74l-2.4,2.47-.18-.15A2.36,2.36,0,0,0,9.61,23.82Zm0,5.05a2.29,2.29,0,0,1-1.69-.72,2.53,2.53,0,0,1,0-3.47,2.32,2.32,0,0,1,3.38,0,2.5,2.5,0,0,1,0,3.47A2.26,2.26,0,0,1,9.61,28.87Zm0-4.42A1.8,1.8,0,0,0,8.28,25a2,2,0,0,0,0,2.78,1.84,1.84,0,0,0,2.66,0,2,2,0,0,0,0-2.78A1.79,1.79,0,0,0,9.61,24.45Z"/></g><path class="cls-5" d="M2,22v8l3,2-.8-9.42,11.14-.08L15,32l3-2V22A8,8,0,0,0,2,22"/></svg>