<?xml version="1.0" encoding="utf-8"?>
<!-- Generator: Adobe Illustrator 23.0.2, SVG Export Plug-In . SVG Version: 6.00 Build 0)  -->
<svg version="1.1" id="Capa_1" xmlns="http://www.w3.org/2000/svg" xmlns:xlink="http://www.w3.org/1999/xlink" x="0px" y="0px"
	 viewBox="0 0 300 250" style="enable-background:new 0 0 300 250;" xml:space="preserve">
<style type="text/css">
	.st0{fill:#FFFFFF;}
</style>
<path class="st0" d="M237.4,103.2c0.6-3.4,0.9-6.9,0.9-10.5c0-32.4-26.3-58.7-58.7-58.7c-19.7,0-37.2,9.8-47.8,24.7
	c-4.5-1.2-9.1-1.9-14-1.9c-29.1,0-52.6,23.6-52.6,52.6c0,0.8,0,1.7,0.1,2.5C44,118.7,28.6,138.6,28.6,162c0,27.5,21.1,50.1,48,52.4
	l139,0.1c30.6-2,54.8-27.5,54.8-58.6C270.4,132.8,257,112.7,237.4,103.2z M149,182.4l-43.3-43.3h27.8V94.4h31v44.7h27.8L149,182.4z"
	/>
</svg>
