<?xml version="1.0" encoding="utf-8"?>
<!-- Generator: Adobe Illustrator 23.0.2, SVG Export Plug-In . SVG Version: 6.00 Build 0)  -->
<svg version="1.1" id="Capa_1" xmlns="http://www.w3.org/2000/svg" xmlns:xlink="http://www.w3.org/1999/xlink" x="0px" y="0px"
	 viewBox="0 0 300 250" style="enable-background:new 0 0 300 250;" xml:space="preserve">
<style type="text/css">
	.st0{fill:#FFFFFF;}
</style>
<path class="st0" d="M233.2,163.4c-0.4-0.6-0.8-1.2-1.3-1.7c5.5-11.6,8.6-24.5,8.6-38.1c0.1-49.1-39.9-89.1-89-89.1
	c-12.2,0-23.8,2.5-34.4,6.9l7.7,11.2c8.3-3.2,17.3-4.9,26.7-4.9c20.9,0,39.8,8.5,53.6,22.2c13.7,13.7,22.2,32.7,22.2,53.6
	c0,10.1-2,19.7-5.6,28.5c-7.7-5.1-18.6-8.9-34-8.6c-0.2-12.3-2.5-30.6-16-43.2c-10.4-9.7-25.3-13.9-44.4-12.6
	c-0.1-8.7-0.6-14.6-1.4-18.8h-12.9c1.4,4,1.2,12.4,1.1,19.9c-10.9,0.4-19.8-1.6-26.6-5.8c2.8-4.5,6.2-8.7,9.8-12.4l-7.7-11
	c-4.4,4.3-8.3,8.9-11.8,14c-8.4-13.3-6.8-31.8-5.6-36.4H58.8c-1.7,10.6-1.4,30.5,9.1,45.5c0.8,1.2,1.7,2.4,2.8,3.5
	c-5.3,11.4-8.3,24.1-8.3,37.5c0,49.1,39.9,89.1,89.1,89.1c17.7,0,34.2-5.2,48-14.1l-8.2-10.5c-11.6,7.2-25.2,11.3-39.8,11.3
	c-41.8,0-75.8-34-75.8-75.8c0-10.1,2-19.8,5.6-28.6c7.7,4.5,18.1,7.7,32.3,7.3c0.1,12.3,2.5,30.4,15.8,43c1.1,1,2.2,2,3.4,2.9
	l0.3,0.4l0.1-0.1c10.1,7.5,23.8,10.6,40.7,9.5c0.1,12,1.1,18.6,2.5,22.8L190,178c-1.6-2.1-2.6-12.3-2.7-21.1
	c11.8-0.3,21.2,2.1,28.1,7.1c-3.2,5-6.9,9.6-11.2,13.8l8.6,10.2c4.3-4.1,8.2-8.6,11.6-13.5c6.3,11.9,5.6,26.8,4.5,32.8h13.4
	C243.9,196.5,243.2,177.7,233.2,163.4z M143.7,139.4l10.8-9.5l-8.7-10l-11.7,10.2c-6-9-7.1-20.7-7.1-28.9c15.9-1.3,27.9,1.7,35.7,9
	c10,9.3,11.7,24.3,11.7,34.5C161.6,145.6,151.3,143.9,143.7,139.4z"/>
</svg>
