<?xml version="1.0" encoding="utf-8"?>
<!-- Generator: Adobe Illustrator 23.0.2, SVG Export Plug-In . SVG Version: 6.00 Build 0)  -->
<svg version="1.1" id="Capa_1" xmlns="http://www.w3.org/2000/svg" xmlns:xlink="http://www.w3.org/1999/xlink" x="0px" y="0px"
	 viewBox="0 0 300 250" style="enable-background:new 0 0 300 250;" xml:space="preserve">
<style type="text/css">
	.st0{fill:#FFFFFF;}
	.st1{opacity:0.5;fill:#FFFFFF;}
</style>
<g>
	<g>
		<g>
			<g>
				<path class="st0" d="M81.7,47H24.1c-8.3,0-15,6.7-15,15v34h87.5V62C96.7,53.7,89.9,47,81.7,47z M32.8,79.8
					c-3.5,0-6.4-2.9-6.4-6.4s2.9-6.4,6.4-6.4s6.4,2.9,6.4,6.4S36.3,79.8,32.8,79.8z M52.9,79.8c-3.5,0-6.4-2.9-6.4-6.4
					s2.9-6.4,6.4-6.4s6.4,2.9,6.4,6.4S56.4,79.8,52.9,79.8z M73,79.8c-3.5,0-6.4-2.9-6.4-6.4s2.9-6.4,6.4-6.4s6.4,2.9,6.4,6.4
					S76.6,79.8,73,79.8z"/>
				<rect x="9.1" y="130.9" class="st0" width="87.5" height="13.7"/>
				<path class="st0" d="M9.1,179.4v6.5c0,8.3,6.7,15,15,15h57.5c8.3,0,15-6.7,15-15v-6.5H9.1z"/>
				<rect x="9.1" y="106.6" class="st0" width="87.5" height="13.7"/>
				<rect x="9.1" y="155.2" class="st0" width="87.5" height="13.7"/>
			</g>
			<rect x="9.1" y="85.1" class="st1" width="87.5" height="99.1"/>
		</g>
		<g>
			<g>
				<path class="st0" d="M178.8,47h-57.5c-8.3,0-15,6.7-15,15v34h87.5V62C193.8,53.7,187,47,178.8,47z M129.9,79.8
					c-3.5,0-6.4-2.9-6.4-6.4s2.9-6.4,6.4-6.4s6.4,2.9,6.4,6.4S133.4,79.8,129.9,79.8z M150,79.8c-3.5,0-6.4-2.9-6.4-6.4
					s2.9-6.4,6.4-6.4s6.4,2.9,6.4,6.4S153.5,79.8,150,79.8z M170.1,79.8c-3.5,0-6.4-2.9-6.4-6.4s2.9-6.4,6.4-6.4s6.4,2.9,6.4,6.4
					S173.7,79.8,170.1,79.8z"/>
				<rect x="106.2" y="130.9" class="st0" width="87.5" height="13.7"/>
				<path class="st0" d="M106.2,179.4v6.5c0,8.3,6.7,15,15,15h57.5c8.3,0,15-6.7,15-15v-6.5H106.2z"/>
				<rect x="106.2" y="106.6" class="st0" width="87.5" height="13.7"/>
				<rect x="106.2" y="155.2" class="st0" width="87.5" height="13.7"/>
			</g>
			<rect x="106.2" y="85.1" class="st1" width="87.5" height="99.1"/>
		</g>
		<g>
			<g>
				<path class="st0" d="M275.9,47h-57.5c-8.3,0-15,6.7-15,15v34h87.5V62C290.9,53.7,284.1,47,275.9,47z M227,79.8
					c-3.5,0-6.4-2.9-6.4-6.4s2.9-6.4,6.4-6.4s6.4,2.9,6.4,6.4S230.5,79.8,227,79.8z M247.1,79.8c-3.5,0-6.4-2.9-6.4-6.4
					s2.9-6.4,6.4-6.4s6.4,2.9,6.4,6.4S250.6,79.8,247.1,79.8z M267.2,79.8c-3.5,0-6.4-2.9-6.4-6.4s2.9-6.4,6.4-6.4s6.4,2.9,6.4,6.4
					S270.8,79.8,267.2,79.8z"/>
				<rect x="203.3" y="130.9" class="st0" width="87.5" height="13.7"/>
				<path class="st0" d="M203.3,179.4v6.5c0,8.3,6.7,15,15,15h57.5c8.3,0,15-6.7,15-15v-6.5H203.3z"/>
				<rect x="203.3" y="106.6" class="st0" width="87.5" height="13.7"/>
				<rect x="203.3" y="155.2" class="st0" width="87.5" height="13.7"/>
			</g>
			<rect x="203.3" y="85.1" class="st1" width="87.5" height="99.1"/>
		</g>
	</g>
</g>
</svg>
