<?xml version="1.0" encoding="utf-8"?>
<!-- Generator: Adobe Illustrator 23.0.2, SVG Export Plug-In . SVG Version: 6.00 Build 0)  -->
<svg version="1.1" id="Capa_1" xmlns="http://www.w3.org/2000/svg" xmlns:xlink="http://www.w3.org/1999/xlink" x="0px" y="0px"
	 viewBox="0 0 300 250" style="enable-background:new 0 0 300 250;" xml:space="preserve">
<style type="text/css">
	.st0{opacity:0.5;}
	.st1{fill:#FFFFFF;}
</style>
<g>
	<g>
		<g class="st0">
			<circle class="st1" cx="78.7" cy="119.8" r="8"/>
		</g>
		<g class="st0">
			<circle class="st1" cx="109.2" cy="78.7" r="8"/>
		</g>
		<g class="st0">
			<circle class="st1" cx="209.1" cy="70" r="8"/>
		</g>
		<g class="st0">
			<circle class="st1" cx="158.6" cy="92.7" r="8"/>
		</g>
		<g class="st0">
			<circle class="st1" cx="131.1" cy="166.3" r="8"/>
		</g>
		<g class="st0">
			<circle class="st1" cx="179" cy="145.2" r="8"/>
		</g>
		<g class="st0">
			<circle class="st1" cx="173.2" cy="188.7" r="8"/>
		</g>
		<path class="st1" d="M242.3,127.5c-1.3,25.3-12.9,50-34.1,67.3c-0.5,0.4-1.1,0.8-1.6,1.2c1.7-8.7-0.4-18-6.6-25.2
			c-2.4-2.8-5.3-5-8.5-6.7c0.9-0.6,1.8-1.3,2.6-2c12.3-10.7,13.6-29.4,2.9-41.6c-3.9-4.5-9.1-7.7-14.8-9.2c2.9-3.5,4.9-7.7,5.8-12.1
			c4.8,4.1,10.8,6.6,17.2,7.1c0.7,0,1.4,0.1,2.1,0.1c7.1,0,13.9-2.5,19.3-7.3c5.9-5.2,9.5-12.4,10.1-20.2c0.4-6.3-1.1-12.4-4.4-17.7
			c-0.1-0.9-0.4-1.8-1-2.5c-1.2-1.5-2.4-3-3.7-4.5c-27.9-32.1-71.4-42.9-109.6-31l2.6,10.4c28.2-9,59.6-4.1,83.9,13.9
			c-6.1,0.6-11.9,3-16.6,7.1c-4.8,4.2-8.1,9.7-9.4,15.8c-10.9-9.4-27.3-9.6-38.5,0c-0.7,0.6-1.3,1.2-1.9,1.8
			c-1.2-3.4-3.1-6.5-5.5-9.3l0,0c-5.2-5.9-12.4-9.5-20.2-10.1c-7.9-0.5-15.5,2-21.4,7.2c-5.9,5.2-9.5,12.4-10.1,20.2
			c-0.2,2.9,0,5.7,0.6,8.5c-1.6-0.4-3.2-0.6-4.9-0.8c-7.9-0.5-15.5,2-21.4,7.2c-7.3,6.3-10.7,15.5-10,24.4l-0.2,0
			c-0.8,26.5,8.5,53.4,28.2,74.4c37.3,39.7,99.8,43.7,141.9,9.1c23.6-19.4,36.4-46.9,37.8-75L242.3,127.5z M187.9,75.5
			c0.4-5.2,2.7-9.9,6.7-13.4c3.6-3.1,8.1-4.8,12.8-4.8c0.5,0,0.9,0,1.4,0c4.6,0.3,8.9,2.2,12.2,5.4c0.7,0.8,1.3,1.6,2,2.5
			c0.2,0.2,0.4,0.5,0.6,0.7c2.4,3.6,3.6,7.9,3.3,12.3c-0.4,5.2-2.7,9.9-6.7,13.4c-3.9,3.4-9,5.1-14.1,4.7c-5.2-0.4-9.9-2.7-13.4-6.7
			C189.2,85.7,187.5,80.7,187.9,75.5z M189.5,127c7.1,8.1,6.2,20.5-1.9,27.5c-8.1,7.1-20.5,6.2-27.5-1.9c-5.3-6.1-8.2-18.7,1.9-27.5
			c3.6-3.1,8.1-4.8,12.8-4.8c0.5,0,0.9,0,1.4,0C181.3,120.7,186,123.1,189.5,127z M146.6,78c3.7-3.2,8.3-4.7,12.8-4.7
			c5.4,0,10.9,2.3,14.7,6.8l0,0c3.4,3.9,5.1,9,4.7,14.2c-0.4,5.2-2.8,9.9-6.7,13.3c-8.1,7-20.5,6.1-27.5-2
			C137.5,97.3,138.4,85,146.6,78z M90.9,80.9c0.4-5.2,2.7-9.9,6.7-13.4c3.7-3.2,8.2-4.8,12.8-4.8c5.4,0,10.9,2.3,14.7,6.7l0,0
			c3.4,3.9,5.1,9,4.7,14.2c-0.4,5.2-2.7,9.9-6.7,13.4c-3.9,3.4-8.9,5.1-14.1,4.7c-5.2-0.4-9.9-2.7-13.4-6.6S90.6,86.1,90.9,80.9z
			 M55.7,120.9l-0.3,0c-1.2-6.5,1-13.5,6.4-18.2c3.6-3.1,8.1-4.8,12.8-4.8c0.5,0,0.9,0,1.4,0c5.2,0.4,9.9,2.7,13.4,6.6l0,0
			c3.4,3.9,5.1,9,4.7,14.1c-0.4,5.2-2.7,9.9-6.6,13.4c-3.9,3.4-9,5.1-14.1,4.7c-5.2-0.4-9.9-2.7-13.4-6.7c-2.1-2.4-3.5-5.2-4.2-8.1
			C55.8,121.7,55.7,121.3,55.7,120.9z M79.8,185.1c-11.6-12.8-18.9-27.9-22.1-43.6c4.4,3.1,9.5,4.9,14.9,5.3c0.7,0,1.4,0.1,2.1,0.1
			c7.1,0,13.9-2.5,19.3-7.3c5.9-5.2,9.5-12.4,10.1-20.2c0.2-2.9,0-5.7-0.6-8.5c1.6,0.4,3.2,0.6,4.9,0.8c0.7,0,1.4,0.1,2.1,0.1
			c7.1,0,13.9-2.5,19.3-7.3c0.6-0.5,1.2-1.1,1.8-1.7c1.2,3.3,3,6.4,5.4,9.2c4,4.7,9.3,7.8,14.8,9.3c-4.3,5.2-6.6,11.5-6.6,18.2
			c-3.1-1.4-6.4-2.2-9.9-2.4c-7.9-0.5-15.5,2-21.4,7.2c-5.9,5.2-9.5,12.4-10.1,20.2c-0.5,7.9,2,15.5,7.2,21.4
			c5.8,6.7,14,10.1,22.3,10.1c5.2,0,10.3-1.3,15-4.1c0.4,6.5,2.8,12.7,7.2,17.7c1.8,2.1,3.9,3.9,6.2,5.4
			C132,218.9,101.1,208.7,79.8,185.1z M152.7,167.8c-0.4,5.2-2.7,9.9-6.6,13.4c-8.1,7.1-20.5,6.2-27.5-1.9c-3.4-3.9-5.1-9-4.7-14.2
			c0.4-5.2,2.7-9.9,6.7-13.4c3.6-3.1,8.1-4.8,12.8-4.8c0.5,0,0.9,0,1.4,0c5.2,0.4,9.9,2.7,13.4,6.7S153.1,162.6,152.7,167.8z
			 M190.5,204.9c-8.1,7.1-20.5,6.2-27.5-1.9c-3.4-3.9-5.1-9-4.7-14.2c0.4-5.2,2.7-9.9,6.6-13.4c3.6-3.1,8.1-4.8,12.8-4.8
			c0.5,0,0.9,0,1.4,0c5.2,0.4,9.9,2.7,13.4,6.7C199.5,185.5,198.6,197.9,190.5,204.9z"/>
	</g>
</g>
</svg>
