<?xml version="1.0" encoding="utf-8"?>
<!-- Generator: Adobe Illustrator 23.0.2, SVG Export Plug-In . SVG Version: 6.00 Build 0)  -->
<svg version="1.1" id="Capa_1" xmlns="http://www.w3.org/2000/svg" xmlns:xlink="http://www.w3.org/1999/xlink" x="0px" y="0px"
	 viewBox="0 0 300 250" style="enable-background:new 0 0 300 250;" xml:space="preserve">
<style type="text/css">
	.st0{fill:#FFFFFF;}
</style>
<g>
	<path class="st0" d="M287.8,168.1l-95.7-37l-7.1,8.7l-16.8-6.5c1.3-5.9,2.1-11.9,2.1-18.2c0.2-45.6-36.6-82.8-82.2-83
		C42.4,31.8,5.3,68.6,5,114.3s36.6,82.8,82.2,83c29.6,0.1,55.6-15.3,70.3-38.6l17.3,6.7l-0.4,11.3l95.7,37
		c6.7,2.6,18.3-11.4,20.9-18.1S294.5,170.7,287.8,168.1z M87.3,176.9c-34.4-0.2-62.1-28.2-61.9-62.5C25.6,80,53.6,52.3,88,52.5
		c34.4,0.2,62.1,28.2,61.9,62.5C149.7,149.3,121.7,177.1,87.3,176.9z"/>
	<g>
		<g>
			<g>
				<path class="st0" d="M81.5,131.6c-12.7-4.9-17.7-21.5-17.9-22.2l-0.6-2.1l1.9-1.1c0.6-0.4,15.5-9.3,28.2-4.4
					c12.7,4.9,17.7,21.5,17.9,22.2l0.6,2.1l-1.9,1.1C109.1,127.6,94.3,136.6,81.5,131.6z M69.9,110c1.6,4.2,6,13.3,13.7,16.3
					c7.7,3,17.1-0.8,21.1-2.8c-1.6-4.2-6-13.3-13.7-16.3C83.3,104.2,73.9,108,69.9,110z"/>
			</g>
		</g>
		<g>
			<path class="st0" d="M68.9,107.7C68.7,107,63.7,90.4,51,85.5c-1.5-0.6-3.1-1-4.6-1.2l-2.1,5.5c1.6,0.1,3.2,0.4,4.7,1
				c7.7,3,12.1,12.1,13.7,16.3c-4.1,2-13.4,5.8-21.1,2.8c-1.5-0.6-2.9-1.4-4.1-2.4l-2.1,5.5c1.3,0.9,2.7,1.6,4.2,2.2
				c12.7,4.9,27.6-4,28.2-4.4l1.9-1.1L68.9,107.7z"/>
		</g>
		<g>
			<path class="st0" d="M129.5,143.4c-1.5-0.1-2.9-0.5-4.3-1c-7.7-3-12.1-12.1-13.7-16.3c4.1-2,13.4-5.8,21.1-2.8
				c1.4,0.5,2.7,1.3,3.9,2.2l2.1-5.5c-1.2-0.8-2.5-1.5-3.9-2c-12.7-4.9-27.6,4-28.2,4.4l-1.9,1.1l0.6,2.1
				c0.2,0.7,5.2,17.3,17.9,22.2c1.4,0.5,2.8,0.9,4.3,1.1L129.5,143.4z"/>
		</g>
		<g>
			<line class="st0" x1="48" y1="90.5" x2="40.6" y2="109.7"/>
			
				<rect x="34" y="99.1" transform="matrix(0.3609 -0.9326 0.9326 0.3609 -65.0166 105.286)" class="st0" width="20.5" height="1.9"/>
		</g>
		<g>
			<line class="st0" x1="50.7" y1="91.5" x2="43.3" y2="110.7"/>
			
				<rect x="36.7" y="100.2" transform="matrix(0.3609 -0.9326 0.9326 0.3609 -64.2729 108.4405)" class="st0" width="20.5" height="1.9"/>
		</g>
		<g>
			<line class="st0" x1="58.7" y1="94.6" x2="51.3" y2="113.8"/>
			
				<rect x="44.7" y="103.3" transform="matrix(0.3609 -0.9326 0.9326 0.3609 -62.0418 117.904)" class="st0" width="20.5" height="1.9"/>
		</g>
		<g>
			<line class="st0" x1="61.4" y1="95.7" x2="54" y2="114.8"/>
			
				<rect x="47.4" y="104.3" transform="matrix(0.3609 -0.9326 0.9326 0.3609 -61.2981 121.0585)" class="st0" width="20.5" height="1.9"/>
		</g>
		<g>
			<g>
				<line class="st0" x1="79.9" y1="102.8" x2="72.5" y2="122"/>
				
					<rect x="65.9" y="111.5" transform="matrix(0.3609 -0.9326 0.9326 0.3609 -56.1574 142.8639)" class="st0" width="20.5" height="1.9"/>
			</g>
			<g>
				<line class="st0" x1="82.5" y1="103.9" x2="75.1" y2="123"/>
				
					<rect x="68.6" y="112.5" transform="matrix(0.3609 -0.9326 0.9326 0.3609 -55.4137 146.0184)" class="st0" width="20.5" height="1.9"/>
			</g>
			<g>
				<line class="st0" x1="89.7" y1="106.6" x2="82.3" y2="125.8"/>
				
					<rect x="75.7" y="115.2" transform="matrix(0.3609 -0.9326 0.9326 0.3609 -53.4305 154.4304)" class="st0" width="20.5" height="1.9"/>
			</g>
			<g>
				<line class="st0" x1="92.3" y1="107.7" x2="84.9" y2="126.8"/>
				
					<rect x="78.4" y="116.3" transform="matrix(0.3609 -0.9326 0.9326 0.3609 -52.6868 157.5849)" class="st0" width="20.5" height="1.9"/>
			</g>
			<g>
				<line class="st0" x1="99.5" y1="110.4" x2="92.1" y2="129.6"/>
				
					<rect x="85.5" y="119" transform="matrix(0.3609 -0.9326 0.9326 0.3609 -50.7036 165.9969)" class="st0" width="20.5" height="1.9"/>
			</g>
			<g>
				<line class="st0" x1="102.1" y1="111.5" x2="94.7" y2="130.6"/>
				
					<rect x="88.2" y="120.1" transform="matrix(0.3609 -0.9326 0.9326 0.3609 -49.9599 169.1514)" class="st0" width="20.5" height="1.9"/>
			</g>
		</g>
		<g>
			<line class="st0" x1="120.4" y1="118.5" x2="113" y2="137.7"/>
			
				<rect x="106.4" y="127.1" transform="matrix(0.3609 -0.9326 0.9326 0.3609 -44.8892 190.6597)" class="st0" width="20.5" height="1.9"/>
		</g>
		<g>
			<line class="st0" x1="123" y1="119.5" x2="115.6" y2="138.7"/>
			
				<rect x="109.1" y="128.2" transform="matrix(0.3609 -0.9326 0.9326 0.3609 -44.1455 193.8142)" class="st0" width="20.5" height="1.9"/>
		</g>
		<g>
			<line class="st0" x1="131.1" y1="122.6" x2="123.7" y2="141.8"/>
			
				<rect x="117.1" y="131.3" transform="matrix(0.3609 -0.9326 0.9326 0.3609 -41.9144 203.2777)" class="st0" width="20.5" height="1.9"/>
		</g>
		<g>
			<line class="st0" x1="133.7" y1="123.7" x2="126.3" y2="142.8"/>
			
				<rect x="119.8" y="132.3" transform="matrix(0.3609 -0.9326 0.9326 0.3609 -41.1707 206.4322)" class="st0" width="20.5" height="1.9"/>
		</g>
	</g>
</g>
</svg>
