<?xml version="1.0" encoding="utf-8"?>
<!-- Generator: Adobe Illustrator 23.0.2, SVG Export Plug-In . SVG Version: 6.00 Build 0)  -->
<svg version="1.1" id="Capa_1" xmlns="http://www.w3.org/2000/svg" xmlns:xlink="http://www.w3.org/1999/xlink" x="0px" y="0px"
	 viewBox="0 0 300 250" style="enable-background:new 0 0 300 250;" xml:space="preserve">
<style type="text/css">
	.st0{fill:#FFFFFF;}
</style>
<g>
	<g>
		<g>
			<path class="st0" d="M83.1,140.6L83.1,140.6c3.4,0,6.4,2.1,7.6,5.3c0.8,2,0.7,4.2-0.2,6.2c-0.9,2-2.5,3.5-4.5,4.2
				c-0.9,0.3-1.9,0.5-2.8,0.5c-3.4,0-6.4-2.1-7.6-5.3c-1.6-4.2,0.6-8.9,4.8-10.4C81.2,140.8,82.1,140.6,83.1,140.6 M83.1,136.2
				c-1.5,0-2.9,0.3-4.4,0.8c-6.5,2.4-9.8,9.7-7.4,16.2c1.9,5.1,6.7,8.2,11.8,8.2c1.5,0,2.9-0.3,4.4-0.8c6.5-2.4,9.8-9.7,7.4-16.2
				C93,139.3,88.2,136.2,83.1,136.2L83.1,136.2z"/>
		</g>
		<g>
			<circle class="st0" cx="97.1" cy="116.7" r="12.6"/>
		</g>
		<g>
			<circle class="st0" cx="120" cy="90.7" r="12.6"/>
		</g>
		<g>
			<circle class="st0" cx="150.9" cy="79.1" r="12.6"/>
		</g>
		<g>
			<circle class="st0" cx="185.5" cy="83.8" r="12.6"/>
		</g>
		<g>
			<path class="st0" d="M217.1,90.7L217.1,90.7c3.4,0,6.4,2.1,7.6,5.3c0.8,2,0.7,4.2-0.2,6.2c-0.9,2-2.5,3.5-4.5,4.2
				c-0.9,0.3-1.9,0.5-2.8,0.5c-3.4,0-6.4-2.1-7.6-5.3c-1.6-4.2,0.6-8.9,4.8-10.4C215.1,90.9,216.1,90.7,217.1,90.7 M217.1,86.3
				c-1.5,0-2.9,0.3-4.4,0.8c-6.5,2.4-9.8,9.7-7.4,16.2c1.9,5.1,6.7,8.2,11.8,8.2c1.5,0,2.9-0.3,4.4-0.8c6.5-2.4,9.8-9.7,7.4-16.2
				C226.9,89.4,222.2,86.3,217.1,86.3L217.1,86.3z"/>
		</g>
		<g>
			<path class="st0" d="M114.6,155.7L114.6,155.7c3.4,0,6.4,2.1,7.6,5.3c1.6,4.2-0.6,8.9-4.8,10.4c-0.9,0.3-1.9,0.5-2.8,0.5
				c-3.4,0-6.4-2.1-7.6-5.3c-1.6-4.2,0.6-8.9,4.8-10.4C112.7,155.9,113.7,155.7,114.6,155.7 M114.6,151.3c-1.5,0-2.9,0.3-4.4,0.8
				c-6.5,2.4-9.8,9.7-7.4,16.2c1.9,5.1,6.7,8.2,11.8,8.2c1.5,0,2.9-0.3,4.4-0.8c6.5-2.4,9.8-9.7,7.4-16.2
				C124.5,154.4,119.7,151.3,114.6,151.3L114.6,151.3z"/>
		</g>
		<g>
			<path class="st0" d="M149.1,160.8L149.1,160.8c3.4,0,6.4,2.1,7.6,5.3c0.8,2,0.7,4.2-0.2,6.2c-0.9,2-2.5,3.5-4.5,4.2
				c-0.9,0.3-1.9,0.5-2.8,0.5c-3.4,0-6.4-2.1-7.6-5.3c-1.6-4.2,0.6-8.9,4.8-10.4C147.2,160.9,148.1,160.8,149.1,160.8 M149.1,156.3
				c-1.5,0-2.9,0.3-4.4,0.8c-6.5,2.4-9.8,9.7-7.4,16.2c1.9,5.1,6.7,8.2,11.8,8.2c1.5,0,2.9-0.3,4.4-0.8c6.5-2.4,9.8-9.7,7.4-16.2
				C159,159.4,154.2,156.3,149.1,156.3L149.1,156.3z"/>
		</g>
		<g>
			<path class="st0" d="M180,149.2L180,149.2c3.4,0,6.4,2.1,7.6,5.3c1.6,4.2-0.6,8.9-4.8,10.4c-0.9,0.3-1.9,0.5-2.8,0.5
				c-3.4,0-6.4-2.1-7.6-5.3c-1.6-4.2,0.6-8.9,4.8-10.4C178.1,149.4,179.1,149.2,180,149.2 M180,144.8c-1.5,0-2.9,0.3-4.4,0.8
				c-6.5,2.4-9.8,9.7-7.4,16.2c1.9,5.1,6.7,8.2,11.8,8.2c1.5,0,2.9-0.3,4.4-0.8c6.5-2.4,9.8-9.7,7.4-16.2
				C189.9,147.9,185.1,144.8,180,144.8L180,144.8z"/>
		</g>
		<g>
			<path class="st0" d="M203.1,122.8L203.1,122.8c3.4,0,6.4,2.1,7.6,5.3c1.6,4.2-0.6,8.9-4.8,10.4c-0.9,0.3-1.9,0.5-2.8,0.5
				c-3.4,0-6.4-2.1-7.6-5.3c-1.6-4.2,0.6-8.9,4.8-10.4C201.1,122.9,202.1,122.8,203.1,122.8 M203.1,118.3c-1.5,0-2.9,0.3-4.4,0.8
				c-6.5,2.4-9.8,9.7-7.4,16.2c1.9,5.1,6.7,8.2,11.8,8.2c1.5,0,2.9-0.3,4.4-0.8c6.5-2.4,9.8-9.7,7.4-16.2
				C212.9,121.4,208.1,118.3,203.1,118.3L203.1,118.3z"/>
		</g>
		<g>
			<path class="st0" d="M108.3,148.7c-0.8,0-1.5-0.5-1.8-1.2l-4.9-13.2c-0.4-1,0.1-2.1,1.1-2.4c1-0.4,2.1,0.1,2.4,1.1l4.9,13.2
				c0.4,1-0.1,2.1-1.1,2.4C108.7,148.7,108.5,148.7,108.3,148.7z"/>
		</g>
		<g>
			<path class="st0" d="M142.9,153.8c-0.8,0-1.5-0.5-1.8-1.2l-16-43.1c-0.4-1,0.1-2.1,1.1-2.4c1-0.4,2.1,0.1,2.4,1.1l16,43.1
				c0.4,1-0.1,2.1-1.1,2.4C143.3,153.7,143.1,153.8,142.9,153.8z"/>
		</g>
		<g>
			<path class="st0" d="M173.9,142.2c-0.8,0-1.5-0.5-1.8-1.2l-16-43.1c-0.4-1,0.1-2.1,1.1-2.4c1-0.4,2.1,0.1,2.4,1.1l16,43.1
				c0.4,1-0.1,2.1-1.1,2.4C174.3,142.2,174.1,142.2,173.9,142.2z"/>
		</g>
		<g>
			<path class="st0" d="M196.7,115.7c-0.8,0-1.5-0.5-1.8-1.2l-4.9-13.2c-0.4-1,0.1-2.1,1.1-2.4c1-0.4,2.1,0.1,2.4,1.1l4.9,13.2
				c0.4,1-0.1,2.1-1.1,2.4C197.2,115.7,196.9,115.7,196.7,115.7z"/>
		</g>
		<g>
			<path class="st0" d="M16.6,121.1L16.6,121.1c3.4,0,6.4,2.1,7.6,5.3c1.6,4.2-0.6,8.9-4.8,10.4c-0.9,0.3-1.9,0.5-2.8,0.5
				c-3.4,0-6.4-2.1-7.6-5.3c-1.6-4.2,0.6-8.9,4.8-10.4C14.6,121.2,15.6,121.1,16.6,121.1 M16.6,116.6c-1.5,0-2.9,0.3-4.4,0.8
				c-6.5,2.4-9.8,9.7-7.4,16.2c1.9,5.1,6.7,8.2,11.8,8.2c1.5,0,2.9-0.3,4.4-0.8c6.5-2.4,9.8-9.7,7.4-16.2
				C26.4,119.7,21.7,116.6,16.6,116.6L16.6,116.6z"/>
		</g>
		<g>
			<path class="st0" d="M51.2,125.7L51.2,125.7c3.4,0,6.4,2.1,7.6,5.3c1.6,4.2-0.6,8.9-4.8,10.4c-0.9,0.3-1.9,0.5-2.8,0.5
				c-3.4,0-6.4-2.1-7.6-5.3c-1.6-4.2,0.6-8.9,4.8-10.4C49.3,125.9,50.2,125.7,51.2,125.7 M51.2,121.3c-1.5,0-2.9,0.3-4.4,0.8
				c-6.5,2.4-9.8,9.7-7.4,16.2c1.9,5.1,6.7,8.2,11.8,8.2c1.5,0,2.9-0.3,4.4-0.8c6.5-2.4,9.8-9.7,7.4-16.2
				C61.1,124.4,56.3,121.3,51.2,121.3L51.2,121.3z"/>
		</g>
		<g>
			<circle class="st0" cx="45.7" cy="207.4" r="12.6"/>
		</g>
		<g>
			<circle class="st0" cx="68.7" cy="180.9" r="12.6"/>
		</g>
		<g>
			<path class="st0" d="M39.5,192.3c-0.8,0-1.5-0.5-1.8-1.2l-16-43.1c-0.4-1,0.1-2.1,1.1-2.4s2.1,0.1,2.4,1.1l16,43.1
				c0.4,1-0.1,2.1-1.1,2.4C40,192.2,39.7,192.3,39.5,192.3z"/>
		</g>
		<g>
			<path class="st0" d="M62.4,165.8c-0.8,0-1.5-0.5-1.8-1.2l-4.9-13.2c-0.4-1,0.1-2.1,1.1-2.4c1-0.4,2.1,0.1,2.4,1.1l4.9,13.2
				c0.4,1-0.1,2.1-1.1,2.4C62.8,165.8,62.6,165.8,62.4,165.8z"/>
		</g>
		<g>
			<path class="st0" d="M231.4,58.6L231.4,58.6c3.4,0,6.4,2.1,7.6,5.3c1.6,4.2-0.6,8.9-4.8,10.4c-0.9,0.3-1.9,0.5-2.8,0.5
				c-3.4,0-6.4-2.1-7.6-5.3c-0.8-2-0.7-4.2,0.2-6.2c0.9-2,2.5-3.5,4.5-4.2C229.5,58.7,230.5,58.6,231.4,58.6 M231.4,54.1
				c-1.5,0-2.9,0.3-4.4,0.8c-6.5,2.4-9.8,9.7-7.4,16.2c1.9,5.1,6.7,8.2,11.8,8.2c1.5,0,2.9-0.3,4.4-0.8c6.5-2.4,9.8-9.7,7.4-16.2
				C241.3,57.2,236.5,54.1,231.4,54.1L231.4,54.1z"/>
		</g>
		<g>
			<path class="st0" d="M254.3,32.5L254.3,32.5c3.4,0,6.4,2.1,7.6,5.3c0.8,2,0.7,4.2-0.2,6.2c-0.9,2-2.5,3.5-4.5,4.2
				c-0.9,0.3-1.9,0.5-2.8,0.5c-3.4,0-6.4-2.1-7.6-5.3c-1.6-4.2,0.6-8.9,4.8-10.4C252.4,32.7,253.3,32.5,254.3,32.5 M254.3,28
				c-1.5,0-2.9,0.3-4.4,0.8c-6.5,2.4-9.8,9.7-7.4,16.2c1.9,5.1,6.7,8.2,11.8,8.2c1.5,0,2.9-0.3,4.4-0.8c6.5-2.4,9.8-9.7,7.4-16.2
				C264.2,31.1,259.4,28,254.3,28L254.3,28z"/>
		</g>
		<g>
			<circle class="st0" cx="249" cy="113.8" r="12.6"/>
		</g>
		<g>
			<circle class="st0" cx="283.4" cy="118.8" r="12.6"/>
		</g>
		<g>
			<path class="st0" d="M242.6,98.6c-0.8,0-1.5-0.5-1.8-1.2l-4.9-13.2c-0.4-1,0.1-2.1,1.1-2.4c1-0.4,2.1,0.1,2.4,1.1l4.9,13.2
				c0.4,1-0.1,2.1-1.1,2.4C243.1,98.6,242.9,98.6,242.6,98.6z"/>
		</g>
		<g>
			<path class="st0" d="M277.2,103.7c-0.8,0-1.5-0.5-1.8-1.2l-16-43.1c-0.4-1,0.1-2.1,1.1-2.4c1-0.4,2.1,0.1,2.4,1.1l16,43.1
				c0.4,1-0.1,2.1-1.1,2.4C277.7,103.7,277.5,103.7,277.2,103.7z"/>
		</g>
	</g>
</g>
</svg>
