<?xml version="1.0" encoding="utf-8"?>
<!-- Generator: Adobe Illustrator 23.0.2, SVG Export Plug-In . SVG Version: 6.00 Build 0)  -->
<svg version="1.1" id="Capa_1" xmlns="http://www.w3.org/2000/svg" xmlns:xlink="http://www.w3.org/1999/xlink" x="0px" y="0px"
	 viewBox="0 0 300 250" style="enable-background:new 0 0 300 250;" xml:space="preserve">
<style type="text/css">
	.st0{fill:#FFFFFF;}
	.st1{opacity:0.7;}
	.st2{opacity:0.64;fill:#FFFFFF;}
	.st3{opacity:0.38;}
	.st4{opacity:0.26;}
	.st5{opacity:0.72;}
	.st6{opacity:0.36;}
	.st7{opacity:0.56;}
	.st8{opacity:0.3;}
	.st9{opacity:0.43;}
</style>
<g>
	<g>
		<g>
			<path class="st0" d="M30.4,22.1v203.7h237.2V22.1H30.4z M259.6,30.1v21.2H38.4V30.1H259.6z M38.4,217.9V59.3h221.2v158.6H38.4z"
				/>
		</g>
		<g>
			<rect x="104" y="150.5" class="st0" width="156.6" height="8"/>
		</g>
		<g>
			<rect x="102" y="57.3" class="st0" width="8" height="161.7"/>
		</g>
		<g class="st1">
			<polygon class="st0" points="251.6,66.9 117.9,66.9 117.9,75 251.6,75 251.6,66.9 			"/>
			<polygon class="st2" points="251.6,83.7 117.9,83.7 117.9,91.8 251.6,91.8 251.6,83.7 			"/>
			<polygon class="st0" points="251.6,100.5 117.9,100.5 117.9,108.6 251.6,108.6 251.6,100.5 			"/>
			<polygon class="st2" points="251.6,117.3 117.9,117.3 117.9,125.4 251.6,125.4 251.6,117.3 			"/>
			<polygon class="st0" points="251.6,134.1 117.9,134.1 117.9,142.2 251.6,142.2 251.6,134.1 			"/>
		</g>
		<g>
			<g>
				<path class="st0" d="M137.6,188.2l-8.8-14c-4.7,2.9-7.8,8.1-7.8,14c0,9.2,7.4,16.6,16.6,16.6s16.6-7.4,16.6-16.6
					c0-3.9-1.4-7.6-3.7-10.4L137.6,188.2z"/>
			</g>
			<g class="st3">
				<circle class="st0" cx="184.4" cy="188.2" r="16.6"/>
			</g>
			<g class="st4">
				<circle class="st0" cx="231.3" cy="188.2" r="16.6"/>
			</g>
			<g class="st5">
				<path class="st0" d="M200.8,185.3c-1.6-9-10.2-15-19.2-13.4c-9,1.6-15,10.2-13.4,19.2c0.5,3,1.8,5.6,3.6,7.8l12.7-10.7
					l-1.5,16.5c1.4,0.1,2.9,0.1,4.4-0.2C196.4,202.9,202.4,194.3,200.8,185.3z"/>
			</g>
			<g class="st6">
				<path class="st0" d="M231.3,171.6c-4,0-7.6,1.4-10.5,3.7l10.5,12.8l-14.5,8c2.8,5.1,8.3,8.6,14.5,8.6c9.2,0,16.6-7.4,16.6-16.6
					S240.5,171.6,231.3,171.6z"/>
			</g>
			<g>
				<path class="st0" d="M232.1,171.6l-0.8,16.5l-14.5,8c2.8,5.1,8.3,8.6,14.5,8.6c9.2,0,16.6-7.4,16.6-16.6
					C247.9,179.3,240.9,172.1,232.1,171.6z"/>
			</g>
		</g>
		<g class="st7">
			<rect x="45.5" y="66.9" class="st0" width="48.7" height="24.7"/>
		</g>
		<g>
			<rect x="46.8" y="36.8" class="st0" width="27.8" height="8"/>
		</g>
		<g class="st8">
			<rect x="45.5" y="99.9" class="st0" width="48.7" height="26"/>
		</g>
		<g class="st8">
			<rect x="45.5" y="134.1" class="st0" width="48.7" height="24.7"/>
		</g>
		<g class="st8">
			<rect x="45.5" y="167.1" class="st0" width="48.7" height="26"/>
		</g>
		<g class="st8">
			<rect x="45.5" y="201.3" class="st0" width="48.7" height="7.9"/>
		</g>
		<g class="st9">
			<circle class="st0" cx="137.6" cy="188.2" r="16.6"/>
		</g>
	</g>
</g>
</svg>
