<?xml version="1.0" encoding="utf-8"?>
<!-- Generator: Adobe Illustrator 23.0.2, SVG Export Plug-In . SVG Version: 6.00 Build 0)  -->
<svg version="1.1" id="Capa_1" xmlns="http://www.w3.org/2000/svg" xmlns:xlink="http://www.w3.org/1999/xlink" x="0px" y="0px"
	 viewBox="0 0 300 250" style="enable-background:new 0 0 300 250;" xml:space="preserve">
<style type="text/css">
	.st0{fill:#FFFFFF;}
	.st1{opacity:0.6;fill:#FFFFFF;}
</style>
<g>
	<g>
		<g>
			<path class="st0" d="M109,43.3H73.8c-5,0-9,4-9,9v6.8c0,3.8,2.4,7.1,5.8,8.4v88.8c0,5.1,2.8,10,7.6,13.6
				c3.9,2.8,8.7,4.4,13.1,4.4c9.8,0,20.8-7.7,20.8-18V67.5c3.4-1.3,5.8-4.6,5.8-8.4v-6.8C118,47.4,113.9,43.3,109,43.3z M110,59.1
				c0,0.6-0.4,1-1,1h-4.8v96.2c0,5.5-7.3,10-12.8,10s-12.8-4.5-12.8-10V60.1h-4.8c-0.6,0-1-0.4-1-1v-6.8c0-0.6,0.4-1,1-1H109
				c0.6,0,1,0.4,1,1V59.1z"/>
			<path class="st1" d="M82.2,154.5c0,4.9,5.2,8.8,9.2,8.8s9.2-3.9,9.2-8.8v-45.7H82.2V154.5z"/>
			<path class="st0" d="M167.7,43.3h-35.2c-5,0-9,4-9,9v6.8c0,3.8,2.4,7.1,5.8,8.4v88.8c0,5.1,2.8,10,7.6,13.6
				c3.9,2.8,8.7,4.4,13.1,4.4c9.8,0,20.8-7.7,20.8-18V67.5c3.4-1.3,5.8-4.6,5.8-8.4v-6.8C176.7,47.4,172.7,43.3,167.7,43.3z
				 M168.7,59.1c0,0.6-0.4,1-1,1h-4.8v96.2c0,5.5-7.3,10-12.8,10s-12.8-4.5-12.8-10V60.1h-4.8c-0.6,0-1-0.4-1-1v-6.8
				c0-0.6,0.4-1,1-1h35.2c0.6,0,1,0.4,1,1V59.1z"/>
			<path class="st1" d="M140.9,154.5c0,4.9,5.2,8.8,9.2,8.8c4,0,9.2-3.9,9.2-8.8v-12.1h-18.5V154.5z"/>
			<path class="st0" d="M226.4,43.3h-35.2c-5,0-9,4-9,9v6.8c0,3.8,2.4,7.1,5.8,8.4v88.8c0,5.1,2.8,10,7.6,13.6
				c3.9,2.8,8.7,4.4,13.1,4.4c9.8,0,20.8-7.7,20.8-18V67.5c3.4-1.3,5.8-4.6,5.8-8.4v-6.8C235.4,47.4,231.4,43.3,226.4,43.3z
				 M227.4,59.1c0,0.6-0.4,1-1,1h-4.8v96.2c0,5.5-7.3,10-12.8,10s-12.8-4.5-12.8-10V60.1h-4.8c-0.6,0-1-0.4-1-1v-6.8
				c0-0.6,0.4-1,1-1h35.2c0.6,0,1,0.4,1,1V59.1z"/>
			<path class="st1" d="M199.6,154.5c0,4.9,5.2,8.8,9.2,8.8s9.2-3.9,9.2-8.8v-22.8h-18.5V154.5z"/>
		</g>
	</g>
	<polygon class="st0" points="235.4,118.5 235.4,127.7 253,127.7 253,184.6 47.8,184.6 47.8,127.7 64.8,127.7 64.8,118.5 
		37.3,118.5 37.3,204.9 262.9,204.9 262.9,118.5 	"/>
</g>
</svg>
