<?xml version="1.0" encoding="utf-8"?>
<!-- Generator: Adobe Illustrator 23.0.2, SVG Export Plug-In . SVG Version: 6.00 Build 0)  -->
<svg version="1.1" id="Capa_1" xmlns="http://www.w3.org/2000/svg" xmlns:xlink="http://www.w3.org/1999/xlink" x="0px" y="0px"
	 viewBox="0 0 300 250" style="enable-background:new 0 0 300 250;" xml:space="preserve">
<style type="text/css">
	.st0{fill:#FFFFFF;}
</style>
<g>
	<ellipse class="st0" cx="176.4" cy="129.4" rx="25" ry="45.1"/>
	<path class="st0" d="M96.4,77.7H147V55.8c0,0-25.5,0.6-25.8-28.2C121,9.7,97.7,8.4,90.6,22l-16.3,0.6v22h22.1V77.7z"/>
	<path class="st0" d="M204.1,44.6h22.1v-22L209.9,22c-7.1-13.6-30.4-12.3-30.5,5.6c-0.3,28.8-25.8,28.2-25.8,28.2v21.9h50.6V44.6z"
		/>
	<path class="st0" d="M146.9,189.1c-7.2,0-14.3,0.3-21.4,1v-15.6h19.1V84.3h-43.8v90.2h19.1v16.2c-20.7,2.4-40.7,7.5-59.4,14.9
		l10.9,27.5c15.3-6.3,31.6-10.7,48.5-13v17h5.6v-17.7c7-0.8,14.1-1.2,21.4-1.2c28.8,0,56.1,6.1,80.8,17.2l11.7-27.2
		C211.1,195.9,179.8,189.1,146.9,189.1z"/>
</g>
</svg>
