<?xml version="1.0" encoding="utf-8"?>
<!-- Generator: Adobe Illustrator 23.0.2, SVG Export Plug-In . SVG Version: 6.00 Build 0)  -->
<svg version="1.1" id="Capa_1" xmlns="http://www.w3.org/2000/svg" xmlns:xlink="http://www.w3.org/1999/xlink" x="0px" y="0px"
	 viewBox="0 0 351.5 356.7" style="enable-background:new 0 0 351.5 356.7;" xml:space="preserve">
<style type="text/css">
	.st0{fill:#FFFFFF;}
</style>
<g>
	<path class="st0" d="M340.1,10L340.1,10c-14.6-13.9-37.7-13.2-51.5,1.4l-100.7,106l-2.2-2.1c-2.4-2.3-6.3-2.2-8.6,0.2l0,0
		c-2.3,2.4-2.2,6.3,0.2,8.6l22,20.9L79.2,271.7l-13.5-6l-55.2,75.1l8.4,8l8.4,8l72.1-59.2l-6.8-13.1l120.1-126.6l22,20.9
		c2.4,2.3,6.3,2.2,8.6-0.2h0c2.3-2.4,2.2-6.3-0.2-8.6l-2.3-2.2L341.5,61.5C355.4,46.9,354.8,23.9,340.1,10z M203.7,119.9L296,22.6
		c6.7-7,16.8-8.8,25.2-5.4l-88.1,92.9L214,129.6L203.7,119.9z M329.9,54.7L237.7,152l-10.2-9.7l18.8-19.9l87.9-92.7
		C337.9,37.9,336.5,47.8,329.9,54.7z"/>
	<path class="st0" d="M93.4,144.9L93.4,144.9l42.2,51.8l48.4-48.4l-46.7-44.3c10.1-24.9,5.7-54.4-13.7-75.4
		C103.9,7.7,74.7,1.1,49.1,9.5l0.1,0.1c-0.4,0.1-0.7,0.2-1.1,0.3l23,23.3L82,44.9c6.9,10.3,5.7,24.3-3.4,33.2l-4.8,4.8
		c-10.3,10.2-26.9,10-37.1-0.3L5.3,50.8c-0.2,0.6-0.4,1.1-0.5,1.7l-0.2-0.3c-9.1,24.4-4.5,53,14.5,73.4
		C38.5,146.7,67.8,153.2,93.4,144.9z"/>
	<path class="st0" d="M210.3,176.4l-50.4,50.3l91.2,112.1c17,18.3,45.3,19.7,64,3.5c0.4-0.3,0.7-0.6,1.1-1c0,0,0,0,0.1,0l0,0h0
		c0.4-0.4,0.7-0.7,1.1-1.1c17.6-17.4,18.3-45.8,1.3-64.1L210.3,176.4z M303.5,327.5c-10.2,9.5-26.2,8.9-35.7-1.3
		c-9.5-10.2-8.9-26.2,1.3-35.7c10.2-9.5,26.2-8.9,35.7,1.3C314.3,302,313.7,318,303.5,327.5z"/>
</g>
</svg>
