<?xml version="1.0" encoding="utf-8"?>
<!-- Generator: Adobe Illustrator 23.0.2, SVG Export Plug-In . SVG Version: 6.00 Build 0)  -->
<svg version="1.1" id="Capa_1" xmlns="http://www.w3.org/2000/svg" xmlns:xlink="http://www.w3.org/1999/xlink" x="0px" y="0px"
	 viewBox="0 0 300 168" style="enable-background:new 0 0 300 168;" xml:space="preserve">
<style type="text/css">
	.st0{clip-path:url(#SVGID_2_);}
	.st1{fill:#FFFFFF;}
	.st2{opacity:0.73;}
	.st3{opacity:0.84;}
</style>
<g>
	<g>
		<defs>
			<path id="SVGID_1_" d="M293.3,74.4c0,0-32.6-11.7-97.8-0.1l-39.8,55.6c12.8,0.8,102.5,37.4,102.5,37.4
				C324.8,132.8,220.5,108.3,293.3,74.4z"/>
		</defs>
		<clipPath id="SVGID_2_">
			<use xlink:href="#SVGID_1_"  style="overflow:visible;"/>
		</clipPath>
		<g class="st0">
			<g>
				<path class="st1" d="M316.4,119.8c-0.1-0.3-3.6-6.3-10.3-12.9c-3.9-3.8-8.2-7-12.7-9.5c-5.6-3.1-11.5-5-17.7-5.7
					c-6.1-0.7-12.3-0.2-18.5,1.5c-4.9,1.3-9.9,3.5-14.6,6.3c-5.6,3.3-9.6,6.7-11.6,8.6c-1.3-2.1-4.5-6.7-9.5-11.6
					c-3.9-3.8-8.2-7-12.7-9.5c-3.1-1.7-6.3-3-9.5-4l0.9,3.2c0.1,0.1,0.3,0.1,0.4,0.2l-0.1,1l1,3.4l0.5-3.9c1.9,0.7,3.7,1.6,5.5,2.6
					c1.1,0.6,2.1,1.2,3.2,1.9l-3.8,32.4c-1.1,0.4-2.3,0.8-3.5,1.1c-2,0.5-4,1-6,1.2l1.4-11.7l-1.4,0.5l-1.3,11.3
					c-3.1,0.3-6.1,0.4-9.2,0.1l0.9-7.3l-1.5,1.1l-0.7,6c-2-0.3-3.9-0.6-5.8-1.2l-2,1.5l-0.5,0.7c2.8,0.9,5.6,1.5,8.4,1.8
					c1.8,0.2,3.6,0.3,5.5,0.3c4.3,0,8.7-0.6,13-1.8c4.9-1.3,9.8-3.5,14.5-6.3c5.5-3.3,9.5-6.7,11.5-8.6c1.4,2.1,4.6,6.8,9.6,11.6
					c4,3.8,8.3,7,12.8,9.5c5.6,3.1,11.6,5,17.7,5.7c1.8,0.2,3.6,0.3,5.5,0.3c4.3,0,8.7-0.6,13-1.8c4.9-1.3,9.8-3.5,14.5-6.3
					c8-4.8,12.8-9.9,13-10.1l0.7-0.7L316.4,119.8z M218,118.2c-0.3,0.2-0.5,0.3-0.8,0.5c-2.9,1.8-5.9,3.2-9,4.4l3.7-31
					c2.7,1.8,5.2,3.9,7.6,6.3c0.2,0.2,0.5,0.5,0.7,0.7L218,118.2z M219.5,117.2l2-16.9c3.9,4.1,6.4,7.8,7.4,9.5
					C227.5,111.1,224.2,114.1,219.5,117.2z M232.2,110.7c1.4-1.4,5-4.6,10.1-7.9l-2.1,17.8C236,116.3,233.3,112.4,232.2,110.7z
					 M241.7,122.1c-0.1-0.1-0.2-0.1-0.2-0.2l2.4-20c0.1,0,0.1-0.1,0.2-0.1c3.1-1.8,6.3-3.4,9.5-4.6l-3.7,31.5
					C247,126.8,244.3,124.6,241.7,122.1z M253.8,131.1c-0.9-0.5-1.8-1-2.7-1.6l3.9-32.8c1-0.3,2-0.6,3-0.9c2.2-0.6,4.3-1,6.5-1.3
					l-4.7,39.4C257.8,133.1,255.8,132.2,253.8,131.1z M270,136.5c-3-0.4-6-1.1-8.9-2.1l4.7-40c3.1-0.3,6.1-0.3,9.2,0L270,136.5z
					 M271.4,136.6l5-42.1c3,0.4,6,1.2,8.9,2.2l-4.7,39.8C277.5,136.9,274.4,136.9,271.4,136.6z M287.9,135.2c-2,0.5-4,0.9-6,1.2
					l4.6-39.1c1.9,0.7,3.7,1.6,5.5,2.6c1.1,0.6,2.1,1.2,3.2,1.9l-3.8,32.4C290.2,134.5,289.1,134.8,287.9,135.2z M302.6,128.7
					c-0.3,0.2-0.6,0.3-0.9,0.5c-2.9,1.7-5.9,3.2-8.9,4.3l3.7-31c2.7,1.8,5.2,3.9,7.6,6.3c0.2,0.2,0.5,0.5,0.7,0.7L302.6,128.7z
					 M304.1,127.7l2-16.9c3.9,4.1,6.4,7.8,7.4,9.5C312.1,121.6,308.8,124.6,304.1,127.7z"/>
				<path class="st1" d="M275.6,140.2c-1.9,0-3.7-0.1-5.6-0.3c-6.2-0.7-12.2-2.7-17.9-5.8c-4.5-2.5-8.9-5.7-12.9-9.6
					c-4.6-4.4-7.6-8.6-9.3-11.1c-2.1,1.9-5.9,5.1-11,8.1c-4.8,2.8-9.7,5-14.7,6.3c-4.4,1.2-8.8,1.8-13.2,1.8c-1.9,0-3.7-0.1-5.6-0.3
					c-2.9-0.3-5.7-1-8.6-1.8l-1-0.3l1.2-1.5l2.3-1.7l0.3,0.1c1.7,0.4,3.4,0.8,5,1l0.7-5.6l3-2.3l-1,8.2c2.6,0.2,5.2,0.2,7.8-0.1
					l1.3-11.2l2.9-1l-1.4,11.9c1.7-0.3,3.4-0.6,5-1.1c1-0.3,2-0.6,3-0.9l3.7-31.5c-0.9-0.6-1.8-1.1-2.7-1.6c-1.5-0.8-3-1.6-4.6-2.2
					l-0.8,6.4l-2-6.9l0.1-0.6l-0.3-0.1l-1.4-4.7l1.2,0.4c3.3,1,6.6,2.4,9.7,4.1c4.5,2.5,8.8,5.7,12.8,9.6c4.5,4.4,7.6,8.6,9.2,11
					c2.1-1.9,6-5.1,11.1-8.1c4.8-2.8,9.8-5,14.8-6.3c6.3-1.7,12.6-2.2,18.8-1.5c6.2,0.7,12.2,2.7,17.9,5.8c4.5,2.5,8.8,5.7,12.8,9.6
					c6.8,6.6,10.2,12.8,10.4,13v0l0.7,1.3l-1,1.1c-0.2,0.2-5,5.4-13.1,10.2c-4.8,2.8-9.7,5-14.7,6.3
					C284.5,139.6,280,140.2,275.6,140.2z M230.2,111.3l0.5,0.7c1.4,2.3,4.6,6.7,9.5,11.5c3.9,3.8,8.2,7,12.6,9.4
					c5.5,3,11.4,4.9,17.4,5.7c1.8,0.2,3.6,0.3,5.4,0.3c4.3,0,8.6-0.6,12.8-1.8c4.9-1.3,9.7-3.4,14.4-6.2c8-4.7,12.6-9.8,12.8-10
					l0.3-0.4l-0.2-0.4c-0.1-0.3-3.5-6.2-10.1-12.7c-3.9-3.8-8.1-6.9-12.5-9.4c-5.5-3-11.4-4.9-17.4-5.7c-6-0.7-12.2-0.2-18.3,1.4
					c-4.9,1.3-9.7,3.4-14.4,6.2c-5.6,3.3-9.6,6.8-11.5,8.5l-0.6,0.6l-0.5-0.7c-1.4-2.2-4.5-6.7-9.4-11.5c-3.9-3.8-8.1-6.9-12.5-9.4
					c-2.6-1.4-5.4-2.6-8.2-3.6l0.4,1.6c0,0,0.1,0,0.1,0l0.5,0.2l0,0l0.8,0.3c1.9,0.7,3.8,1.6,5.6,2.6c1.1,0.6,2.1,1.2,3.2,1.9
					l0.3,0.2l0,0l1,0.7c2.7,1.8,5.3,4,7.7,6.4c0.2,0.2,0.5,0.5,0.7,0.7l0.2,0.2l0,0l1,1.1c3.9,4.1,6.3,7.8,7.5,9.6l0.3,0.5l-0.4,0.4
					c-1.5,1.5-4.8,4.5-9.5,7.6l-1.2,0.8l0,0l-0.2,0.2c-0.3,0.2-0.5,0.3-0.8,0.5c-3,1.8-6,3.3-9.1,4.4l-1.1,0.4l0,0l-0.4,0.1
					c-1.2,0.4-2.3,0.8-3.5,1.1c-2,0.5-4.1,1-6.1,1.3l-0.9,0.1l0,0l-0.5,0.1c-3.1,0.3-6.3,0.4-9.3,0.1l-0.7-0.1l0,0l-0.7-0.1
					c-1.9-0.2-3.7-0.6-5.6-1.1l-1.4,1c2.4,0.7,4.8,1.2,7.3,1.5c1.8,0.2,3.6,0.3,5.4,0.3c4.3,0,8.6-0.6,12.8-1.8
					c4.9-1.3,9.7-3.4,14.4-6.2c5.5-3.3,9.5-6.8,11.4-8.5L230.2,111.3z M212.5,93.3l-3.4,28.7c2.6-1.1,5.2-2.4,7.8-3.9
					c0.2-0.1,0.3-0.2,0.5-0.3l2.2-18.5c-0.2-0.2-0.3-0.3-0.5-0.5C217,96.8,214.8,94.9,212.5,93.3z M222,101.9l-1.6,13.9
					c3.7-2.5,6.3-4.9,7.6-6.2C227,108.1,225,105.2,222,101.9z M275.6,137.5c-1.5,0-2.9-0.1-4.3-0.2l-0.7-0.1l0,0l-0.7-0.1
					c-3.1-0.4-6.1-1.1-9.1-2.1l-0.5-0.2l0,0l-0.8-0.3c-2-0.8-4.1-1.7-6-2.8c-0.9-0.5-1.8-1-2.8-1.6l-0.3-0.2l0,0l-0.9-0.6
					c-2.9-1.9-5.6-4.2-8.2-6.7l-0.4-0.4l0,0l-1-1c-4.3-4.4-7.1-8.5-8.1-10.1l-0.3-0.5l0.4-0.4c1.3-1.3,5-4.6,10.2-7.9l1.2-0.8l0,0
					l0.5-0.3c3.2-1.9,6.4-3.4,9.7-4.6l1.1-0.4l0,0l0.4-0.1c1-0.3,2-0.7,3-0.9c2.2-0.6,4.4-1,6.6-1.3l0.9-0.1l0,0l0.5-0.1
					c3.1-0.3,6.3-0.3,9.3,0l0.7,0.1l0,0l0.7,0.1c3.1,0.4,6.1,1.2,9.1,2.2l0.5,0.2l0,0l0.8,0.3c1.9,0.7,3.8,1.6,5.6,2.6
					c1.1,0.6,2.1,1.2,3.2,1.9l0.3,0.2l0,0l1,0.7c2.7,1.8,5.3,4,7.7,6.4c0.2,0.2,0.5,0.5,0.7,0.7l0.2,0.2l0,0l1,1.1
					c3.9,4.1,6.3,7.8,7.5,9.6l0.3,0.5l-0.4,0.4c-1.5,1.5-4.8,4.5-9.5,7.6l-1.2,0.8l0,0l-0.2,0.2c-0.3,0.2-0.6,0.3-0.9,0.5
					c-2.9,1.7-6,3.2-9,4.4l-1.1,0.4l0,0l-0.4,0.1c-1.2,0.4-2.4,0.8-3.5,1.1l0,0c-2,0.5-4,1-6,1.2l-0.9,0.1l0,0l-0.5,0.1
					C279,137.4,277.3,137.5,275.6,137.5z M272.1,136c2.6,0.2,5.2,0.2,7.8-0.1l4.6-38.7c-2.5-0.9-5-1.5-7.6-1.9L272.1,136z
					 M261.8,133.9c2.5,0.8,5,1.4,7.6,1.8l4.8-40.7c-2.6-0.2-5.2-0.2-7.8,0L261.8,133.9z M287.2,98.2l-4.4,37.3
					c1.7-0.3,3.3-0.6,5-1.1l0,0c1-0.3,2-0.6,3-0.9l3.7-31.5c-0.9-0.6-1.8-1.1-2.7-1.6C290.3,99.6,288.7,98.9,287.2,98.2z
					 M251.8,129.2c0.8,0.5,1.6,0.9,2.3,1.4l0,0c1.6,0.9,3.3,1.7,5,2.4l4.4-37.6c-1.8,0.3-3.7,0.7-5.5,1.2c-0.8,0.2-1.7,0.5-2.5,0.8
					L251.8,129.2z M297,103.8l-3.4,28.7c2.6-1.1,5.2-2.4,7.7-3.9c0.2-0.1,0.4-0.2,0.6-0.3l2.2-18.5c-0.2-0.2-0.3-0.3-0.5-0.5
					C301.6,107.3,299.3,105.4,297,103.8z M242.2,121.6c2.3,2.2,4.6,4.1,7.1,5.9l3.4-29.2c-2.8,1.1-5.6,2.5-8.3,4L242.2,121.6z
					 M306.6,112.4l-1.6,13.9c3.7-2.5,6.3-4.9,7.6-6.2C311.6,118.6,309.6,115.7,306.6,112.4z M233.1,110.8c1.1,1.6,3.3,4.8,6.6,8.3
					l1.8-14.9C237.4,106.9,234.5,109.4,233.1,110.8z"/>
			</g>
		</g>
	</g>
	<g>
		<g>
			<g>
				<path class="st1" d="M141,58.5c4.9,0,8.8,3.9,8.8,8.8c0,4.9-3.9,8.8-8.8,8.8s-8.8-3.9-8.8-8.8C132.2,62.4,136.1,58.5,141,58.5
					 M141,53.6c-7.5,0-13.7,6.1-13.7,13.7S133.5,81,141,81s13.7-6.1,13.7-13.7S148.5,53.6,141,53.6L141,53.6z"/>
			</g>
			<g>
				<path class="st1" d="M141.8,99.5c2.4,0,4.4,2,4.4,4.4c0,2.4-2,4.4-4.4,4.4s-4.4-2-4.4-4.4C137.4,101.4,139.4,99.5,141.8,99.5
					 M141.8,94.6c-5.1,0-9.3,4.2-9.3,9.3c0,5.1,4.2,9.3,9.3,9.3s9.3-4.2,9.3-9.3C151.1,98.7,147,94.6,141.8,94.6L141.8,94.6z"/>
			</g>
			<g>
				<path class="st1" d="M175.4,81.9c4.9,0,8.8,3.9,8.8,8.8s-3.9,8.8-8.8,8.8c-4.9,0-8.8-3.9-8.8-8.8S170.6,81.9,175.4,81.9
					 M175.4,77c-7.5,0-13.7,6.1-13.7,13.7s6.1,13.7,13.7,13.7s13.7-6.1,13.7-13.7S183,77,175.4,77L175.4,77z"/>
			</g>
			<g>
				<g>
					<path class="st1" d="M110.1,82.2l2.2,4.4c-0.1-0.9-0.1-1.9-0.1-2.8c0-0.4,0-0.9,0-1.3C111.5,82.4,110.8,82.3,110.1,82.2z"/>
				</g>
				<g>
					<path class="st1" d="M216.7,66.6c0-10-8.2-18.2-18.2-18.2c-3,0-5.9,0.7-8.5,2.1c-1.8-1.9-3.8-3.7-6-5.3c0.5-1.5,0.8-3,0.8-4.6
						c0-7.5-6.1-13.7-13.7-13.7c-5.9,0-10.9,3.7-12.8,8.9c-1-0.1-2-0.1-3-0.1c-2.4,0-4.7,0.2-7.1,0.5c-2.2-4.6-6.9-7.7-12.3-7.7
						c-7.5,0-13.7,6.1-13.7,13.7c0,1.9,0.4,3.8,1.2,5.5c-1.8,1.6-3.5,3.3-5,5.1c-1.9-0.6-3.8-1-5.8-1c-5.7,0-10.8,2.7-14,6.9
						l2.5,5.1c2.1-4.3,6.4-7.2,11.5-7.2c2.7,0,5.2,0.8,7.2,2.2c2.8-4,6.2-7.5,10.1-10.3c-1.8-1.6-2.9-3.9-2.9-6.5
						c0-4.9,3.9-8.8,8.8-8.8c4.7,0,8.6,3.7,8.8,8.4c3.4-0.8,6.9-1.3,10.6-1.3c2.4,0,4.7,0.2,7,0.6c0-0.2,0-0.4,0-0.6
						c0-4.9,3.9-8.8,8.8-8.8c4.9,0,8.8,3.9,8.8,8.8c0,2.4-0.9,4.5-2.5,6.1c4.5,2.7,8.5,6.2,11.7,10.3c2.4-2.3,5.7-3.8,9.3-3.8
						c7.4,0,13.3,6,13.3,13.3c0,7.4-6,13.3-13.3,13.3c-0.1,0-0.1,0-0.2,0c0.1,1.3,0.2,2.6,0.2,3.9c0,4.4-0.7,8.6-1.9,12.6
						c4.1,0.7,7.3,4.3,7.3,8.6c0,4.8-3.9,8.8-8.8,8.8c-2.5,0-4.8-1-6.4-2.7c-4.7,5.7-10.8,10.2-17.8,12.9c1.4,1.6,2.3,3.7,2.3,5.9
						c0,4.8-3.9,8.8-8.8,8.8c-4.8,0-8.8-3.9-8.8-8.8c0-1.1,0.2-2.1,0.5-3c-0.3,0-0.6,0-1,0c-5.1,0-10-0.9-14.5-2.5
						c0.3,0.8,0.5,1.6,0.5,2.5c0,3.6-2.9,6.6-6.6,6.6c-3.6,0-6.6-2.9-6.6-6.6c0-3,2-5.5,4.7-6.3c-2.1-1.3-4.2-2.8-6-4.5l0.7,1.4
						l-4.1,2c0.5,0.5,1.1,0.9,1.6,1.4c-1.1,1.8-1.7,3.8-1.7,6c0,6.3,5.1,11.4,11.4,11.4c5,0,9.2-3.2,10.8-7.6
						c1.8,0.4,3.6,0.7,5.5,0.8c0.8,6.7,6.6,12,13.5,12c7.5,0,13.6-6.1,13.6-13.6c0-1.3-0.2-2.5-0.5-3.7c4.4-2.3,8.4-5.3,11.9-8.8
						c1.7,0.8,3.6,1.2,5.6,1.2c7.5,0,13.6-6.1,13.6-13.6c0-4.8-2.5-9.1-6.4-11.5c0.6-3.1,1-6.2,1-9.4C211,82,216.7,74.9,216.7,66.6z
						"/>
				</g>
			</g>
		</g>
		<g>
			<g class="st2">
				
					<rect x="103.5" y="109.4" transform="matrix(0.8973 -0.4413 0.4413 0.8973 -37.9217 59.613)" class="st1" width="11.3" height="3.8"/>
			</g>
			<g class="st2">
				
					<rect x="76.2" y="53.8" transform="matrix(0.8973 -0.4414 0.4414 0.8973 -16.2007 41.8421)" class="st1" width="11.3" height="3.8"/>
			</g>
			<g class="st2">
				
					<rect x="81.7" y="64.9" transform="matrix(0.8973 -0.4413 0.4413 0.8973 -20.5339 45.3867)" class="st1" width="11.3" height="3.8"/>
			</g>
			<g class="st2">
				
					<rect x="87.4" y="76.6" transform="matrix(0.8973 -0.4413 0.4413 0.8973 -25.0909 49.115)" class="st1" width="11.3" height="3.8"/>
			</g>
			<g class="st2">
				
					<rect x="92.8" y="87.7" transform="matrix(0.8973 -0.4414 0.4414 0.8973 -29.4243 52.6605)" class="st1" width="11.3" height="3.8"/>
			</g>
			<g class="st2">
				
					<rect x="98.1" y="98.3" transform="matrix(0.8973 -0.4413 0.4413 0.8973 -33.5882 56.0674)" class="st1" width="11.3" height="3.8"/>
			</g>
			<g>
				<polygon class="st1" points="130.7,116.3 91.1,35.6 89.5,32.5 86.4,34.1 69.1,42.6 70.6,45.7 88,37.2 127.6,117.8 73,144.6 
					68.3,134.9 65.1,136.5 69.9,146.2 71.5,149.3 74.6,147.8 129.1,120.9 132.3,119.4 				"/>
			</g>
		</g>
		<g>
			<g>
				<g>
					<path class="st1" d="M65.9,35.8l39.7,80.6L51,143.2L11.4,62.6L65.9,35.8 M67.5,31.1l-3.1,1.5L9.8,59.5L6.7,61l1.5,3.1
						l39.7,80.6l1.5,3.1l3.1-1.5l54.6-26.8l3.1-1.5l-1.5-3.1L69.1,34.2L67.5,31.1L67.5,31.1z"/>
				</g>
				<g>
					<path class="st1" d="M36.9,50l-12.8,6.3c-2.2,5.4-4.7,12.8-5.6,20.8l20,40.6c4.4,2.3,11.4,5.7,17.6,7.2
						c10.4,2.5,16.9,2.9,23.7,4.2l15.3-7.5c-6.8-0.7-17.8-2.7-36-7C6.9,102,36.9,50,36.9,50z"/>
				</g>
				<g class="st3">
					<g>
						<path class="st1" d="M38.5,117.7l0.1,0.2l0.1-0.1C38.6,117.8,38.6,117.8,38.5,117.7z"/>
					</g>
					<g>
						<path class="st1" d="M75.5,55.1l-47,23.1c-0.7,12.7,3.7,26.4,22.3,33.7l42.4-20.9L75.5,55.1z"/>
					</g>
				</g>
			</g>
			<g>
				
					<rect x="40.1" y="48.9" transform="matrix(0.8973 -0.4413 0.4413 0.8973 -16.7662 30.327)" class="st1" width="33.4" height="4.7"/>
			</g>
		</g>
	</g>
</g>
</svg>
