<?xml version="1.0" encoding="utf-8"?>
<!-- Generator: Adobe Illustrator 23.0.2, SVG Export Plug-In . SVG Version: 6.00 Build 0)  -->
<svg version="1.1" id="Capa_1" xmlns="http://www.w3.org/2000/svg" xmlns:xlink="http://www.w3.org/1999/xlink" x="0px" y="0px"
	 viewBox="0 0 300 250" style="enable-background:new 0 0 300 250;" xml:space="preserve">
<style type="text/css">
	.st0{fill:#FFFFFF;}
</style>
<g>
	<polygon class="st0" points="214,108 202,90.3 181.8,90.3 205.5,124 205.5,155.1 222.3,155.1 222.3,124 246.1,90.3 226,90.3 	"/>
	<polygon class="st0" points="72.6,155 87.9,133.9 100.8,155 121.4,155 97.2,120.5 118.6,90.2 97.8,90.2 87,107 78.2,90.2 
		57.4,90.2 77.6,120.5 52.3,155 	"/>
	<path class="st0" d="M292.7,122.7c0-46.4-37.8-84.2-84.2-84.2c-21.8,0-41.8,8.4-56.7,22.1c-14.9-13.5-34.7-21.8-56.4-21.8
		C49,38.8,11.3,76.6,11.3,123c0,46.4,37.8,84.2,84.2,84.2c21.8,0,41.6-8.3,56.6-21.9c15,13.6,34.8,21.9,56.6,21.9
		c43.6,0,79.5-33.3,83.7-75.8C292.6,128.5,292.7,125.6,292.7,122.7z M95.4,49.8c18.7,0,35.9,7.1,48.8,18.7
		c-10.7,12.7-17.7,28.5-19.4,45.8c-0.3,2.8-0.4,5.7-0.4,8.6c0,20.7,7.5,39.6,20,54.3c-13,11.7-30.1,18.8-48.9,18.8
		c-40.3,0-73.2-32.8-73.2-73.2C22.3,82.7,55.1,49.8,95.4,49.8z M281.4,130.2c-3.8,36.8-35,65.7-72.8,65.7
		c-18.7,0-35.9-7.1-48.8-18.7c12.3-14.6,19.8-33.5,19.8-54.1c0-20.7-7.5-39.6-20-54.3c13-11.7,30.1-18.8,48.9-18.8
		c40.3,0,73.2,32.8,73.2,73.2C281.7,125.4,281.6,127.8,281.4,130.2z M135.8,115.5c1.5-14.7,7.3-28,16.2-38.8
		c10.4,12.6,16.6,28.8,16.6,46.3c0,17.5-6.2,33.6-16.5,46.2c-10.4-12.6-16.7-28.8-16.7-46.5C135.4,120.3,135.6,117.9,135.8,115.5z"
		/>
	<path class="st0" d="M157,90.7h-9.8c-0.5,0.8-0.9,1.6-1.3,2.4h12.5C157.9,92.3,157.5,91.5,157,90.7z"/>
	<path class="st0" d="M161.9,101.3h-19.6c-0.3,0.8-0.5,1.6-0.7,2.4h21.1C162.4,102.9,162.1,102.1,161.9,101.3z"/>
	<path class="st0" d="M164.5,111.9h-24.8c-0.1,0.8-0.2,1.6-0.3,2.4h25.5C164.8,113.4,164.7,112.6,164.5,111.9z"/>
	<path class="st0" d="M165.4,122.4h-26.5c0,0.8,0,1.6,0,2.4h26.4C165.4,124,165.4,123.2,165.4,122.4z"/>
	<path class="st0" d="M164.6,133h-25c0.1,0.8,0.2,1.6,0.4,2.4h24.2C164.4,134.6,164.5,133.8,164.6,133z"/>
	<path class="st0" d="M162.2,143.6h-20.3c0.2,0.8,0.5,1.6,0.8,2.4h18.7C161.7,145.1,162,144.4,162.2,143.6z"/>
	<path class="st0" d="M156.4,156.5c0.5-0.8,0.9-1.6,1.4-2.4h-11.6c0.4,0.8,0.9,1.6,1.3,2.4H156.4z"/>
</g>
</svg>
