<?xml version="1.0" encoding="utf-8"?>
<!-- Generator: Adobe Illustrator 23.0.2, SVG Export Plug-In . SVG Version: 6.00 Build 0)  -->
<svg version="1.1" id="Capa_1" xmlns="http://www.w3.org/2000/svg" xmlns:xlink="http://www.w3.org/1999/xlink" x="0px" y="0px"
	 viewBox="0 0 300 251" style="enable-background:new 0 0 300 251;" xml:space="preserve">
<style type="text/css">
	.st0{fill:#FFFFFF;}
</style>
<g>
	<g>
		<g>
			<path class="st0" d="M256.6,25.4H43.4c-6.1,0-11.1,5-11.1,11.1v145.3c0,6.1,5,11.1,11.1,11.1h78.1V211h-14.9
				c-4,0-7.3,3.3-7.3,7.3s3.3,7.3,7.3,7.3h86.7c4,0,7.3-3.3,7.3-7.3s-3.3-7.3-7.3-7.3h-14.9v-18.1h78.1c6.1,0,11.1-5,11.1-11.1V36.5
				C267.7,30.4,262.7,25.4,256.6,25.4z M254,179.1H46V39.3H254V179.1z"/>
		</g>
		<g>
			<g>
				<g>
					<rect x="69.2" y="57.8" class="st0" width="161.9" height="4.4"/>
				</g>
				<g>
					<rect x="69.2" y="74.2" class="st0" width="161.9" height="4.4"/>
				</g>
				<g>
					<rect x="69.2" y="90.6" class="st0" width="161.9" height="4.4"/>
				</g>
				<g>
					<rect x="142.2" y="123.3" class="st0" width="88.8" height="4.4"/>
				</g>
				<g>
					<rect x="142.2" y="139.7" class="st0" width="88.8" height="4.4"/>
				</g>
				<g>
					<rect x="142.2" y="156.1" class="st0" width="88.8" height="4.4"/>
				</g>
			</g>
			<g>
				<rect x="142.2" y="105.8" class="st0" width="88.7" height="4.4"/>
			</g>
		</g>
		<g>
			<rect x="69.2" y="105.8" class="st0" width="58.5" height="54.8"/>
		</g>
	</g>
	<g>
		<path class="st0" d="M75.7,69.7h-2.6l-0.7,1.5h-1l3-6.4l2.9,6.4h-1L75.7,69.7z M75.3,68.9l-0.9-2.1l-0.9,2.1H75.3z"/>
		<path class="st0" d="M80.9,68h2.5v0.2c0,0.5-0.1,0.9-0.2,1.2c-0.1,0.3-0.3,0.6-0.5,0.9c-0.6,0.6-1.3,0.9-2.1,0.9
			c-0.8,0-1.6-0.3-2.2-0.9c-0.6-0.6-0.9-1.3-0.9-2.2c0-0.9,0.3-1.6,0.9-2.2c0.6-0.6,1.4-0.9,2.2-0.9c0.5,0,0.9,0.1,1.3,0.3
			c0.4,0.2,0.8,0.5,1.2,0.9l-0.6,0.6c-0.5-0.7-1.1-1-1.8-1c-0.6,0-1.2,0.2-1.6,0.7c-0.4,0.4-0.6,1-0.6,1.6c0,0.7,0.2,1.2,0.7,1.7
			c0.5,0.4,0.9,0.6,1.5,0.6c0.4,0,0.9-0.2,1.2-0.5c0.4-0.3,0.6-0.7,0.6-1.1h-1.5V68z"/>
		<path class="st0" d="M87.7,68h2.5v0.2c0,0.5-0.1,0.9-0.2,1.2c-0.1,0.3-0.3,0.6-0.5,0.9c-0.6,0.6-1.3,0.9-2.1,0.9
			c-0.8,0-1.6-0.3-2.2-0.9c-0.6-0.6-0.9-1.3-0.9-2.2c0-0.9,0.3-1.6,0.9-2.2c0.6-0.6,1.4-0.9,2.2-0.9c0.5,0,0.9,0.1,1.3,0.3
			c0.4,0.2,0.8,0.5,1.2,0.9l-0.6,0.6c-0.5-0.7-1.1-1-1.8-1c-0.6,0-1.2,0.2-1.6,0.7c-0.4,0.4-0.6,1-0.6,1.6c0,0.7,0.2,1.2,0.7,1.7
			c0.5,0.4,0.9,0.6,1.5,0.6c0.4,0,0.9-0.2,1.2-0.5c0.4-0.3,0.6-0.7,0.6-1.1h-1.5V68z"/>
		<path class="st0" d="M93,66v5.2H92V66h-1.4v-0.9h3.7V66H93z"/>
		<path class="st0" d="M99.4,65.5v1.1c-0.5-0.4-1.1-0.7-1.6-0.7c-0.6,0-1.1,0.2-1.6,0.7c-0.4,0.4-0.6,1-0.6,1.6
			c0,0.6,0.2,1.2,0.6,1.6s1,0.7,1.6,0.7c0.3,0,0.6-0.1,0.8-0.2c0.1-0.1,0.3-0.1,0.4-0.2s0.3-0.2,0.4-0.3v1.1
			c-0.5,0.3-1.1,0.4-1.6,0.4c-0.9,0-1.6-0.3-2.2-0.9c-0.6-0.6-0.9-1.3-0.9-2.2c0-0.8,0.3-1.5,0.8-2.1c0.6-0.7,1.4-1.1,2.4-1.1
			C98.4,65,98.9,65.2,99.4,65.5z"/>
		<path class="st0" d="M104.2,69.7h-2.6l-0.7,1.5h-1l3-6.4l2.9,6.4h-1L104.2,69.7z M103.9,68.9l-0.9-2.1l-0.9,2.1H103.9z"/>
		<path class="st0" d="M107.9,66v5.2H107V66h-1.4v-0.9h3.7V66H107.9z"/>
		<path class="st0" d="M114.4,65.5v1.1c-0.5-0.4-1.1-0.7-1.6-0.7c-0.6,0-1.1,0.2-1.6,0.7c-0.4,0.4-0.6,1-0.6,1.6
			c0,0.6,0.2,1.2,0.6,1.6s1,0.7,1.6,0.7c0.3,0,0.6-0.1,0.8-0.2c0.1-0.1,0.3-0.1,0.4-0.2s0.3-0.2,0.4-0.3v1.1
			c-0.5,0.3-1.1,0.4-1.6,0.4c-0.9,0-1.6-0.3-2.2-0.9c-0.6-0.6-0.9-1.3-0.9-2.2c0-0.8,0.3-1.5,0.8-2.1c0.6-0.7,1.4-1.1,2.4-1.1
			C113.3,65,113.9,65.2,114.4,65.5z"/>
		<path class="st0" d="M119.2,69.7h-2.6l-0.7,1.5h-1l3-6.4l2.9,6.4h-1L119.2,69.7z M118.8,68.9l-0.9-2.1l-0.9,2.1H118.8z"/>
		<path class="st0" d="M124.4,68h2.5v0.2c0,0.5-0.1,0.9-0.2,1.2c-0.1,0.3-0.3,0.6-0.5,0.9c-0.6,0.6-1.3,0.9-2.1,0.9
			c-0.8,0-1.6-0.3-2.2-0.9c-0.6-0.6-0.9-1.3-0.9-2.2c0-0.9,0.3-1.6,0.9-2.2c0.6-0.6,1.4-0.9,2.2-0.9c0.5,0,0.9,0.1,1.3,0.3
			c0.4,0.2,0.8,0.5,1.2,0.9l-0.6,0.6c-0.5-0.7-1.1-1-1.8-1c-0.6,0-1.2,0.2-1.6,0.7c-0.4,0.4-0.6,1-0.6,1.6c0,0.7,0.2,1.2,0.7,1.7
			c0.5,0.4,0.9,0.6,1.5,0.6c0.4,0,0.9-0.2,1.2-0.5c0.4-0.3,0.6-0.7,0.6-1.1h-1.5V68z"/>
		<path class="st0" d="M131.3,69.7h-2.6l-0.7,1.5h-1l3-6.4l2.9,6.4h-1L131.3,69.7z M131,68.9l-0.9-2.1l-0.9,2.1H131z"/>
		<path class="st0" d="M135,66v5.2h-0.9V66h-1.4v-0.9h3.7V66H135z"/>
		<path class="st0" d="M140.4,69.7h-2.6l-0.7,1.5h-1l3-6.4l2.9,6.4h-1L140.4,69.7z M140.1,68.9l-0.9-2.1l-0.9,2.1H140.1z"/>
		<path class="st0" d="M146.4,69.7h-2.6l-0.7,1.5h-1l3-6.4l2.9,6.4h-1L146.4,69.7z M146,68.9l-0.9-2.1l-0.9,2.1H146z"/>
		<path class="st0" d="M151.6,68h2.5v0.2c0,0.5-0.1,0.9-0.2,1.2c-0.1,0.3-0.3,0.6-0.5,0.9c-0.6,0.6-1.3,0.9-2.1,0.9
			c-0.8,0-1.6-0.3-2.2-0.9c-0.6-0.6-0.9-1.3-0.9-2.2c0-0.9,0.3-1.6,0.9-2.2c0.6-0.6,1.4-0.9,2.2-0.9c0.5,0,0.9,0.1,1.3,0.3
			c0.4,0.2,0.8,0.5,1.2,0.9l-0.6,0.6c-0.5-0.7-1.1-1-1.8-1c-0.6,0-1.2,0.2-1.6,0.7c-0.4,0.4-0.6,1-0.6,1.6c0,0.7,0.2,1.2,0.7,1.7
			c0.5,0.4,0.9,0.6,1.5,0.6c0.4,0,0.9-0.2,1.2-0.5c0.4-0.3,0.6-0.7,0.6-1.1h-1.5V68z"/>
		<path class="st0" d="M156.9,66v5.2H156V66h-1.4v-0.9h3.7V66H156.9z"/>
		<path class="st0" d="M162.3,69.7h-2.6l-0.7,1.5h-1l3-6.4l2.9,6.4h-1L162.3,69.7z M161.9,68.9l-0.9-2.1l-0.9,2.1H161.9z"/>
		<path class="st0" d="M168.8,65.5v1.1c-0.5-0.4-1.1-0.7-1.6-0.7c-0.6,0-1.1,0.2-1.6,0.7c-0.4,0.4-0.6,1-0.6,1.6
			c0,0.6,0.2,1.2,0.6,1.6s1,0.7,1.6,0.7c0.3,0,0.6-0.1,0.8-0.2c0.1-0.1,0.3-0.1,0.4-0.2s0.3-0.2,0.4-0.3v1.1
			c-0.5,0.3-1.1,0.4-1.6,0.4c-0.9,0-1.6-0.3-2.2-0.9c-0.6-0.6-0.9-1.3-0.9-2.2c0-0.8,0.3-1.5,0.8-2.1c0.6-0.7,1.4-1.1,2.4-1.1
			C167.8,65,168.3,65.2,168.8,65.5z"/>
		<path class="st0" d="M174.4,65.5v1.1c-0.5-0.4-1.1-0.7-1.6-0.7c-0.6,0-1.1,0.2-1.6,0.7c-0.4,0.4-0.6,1-0.6,1.6
			c0,0.6,0.2,1.2,0.6,1.6s1,0.7,1.6,0.7c0.3,0,0.6-0.1,0.8-0.2c0.1-0.1,0.3-0.1,0.4-0.2s0.3-0.2,0.4-0.3v1.1
			c-0.5,0.3-1.1,0.4-1.6,0.4c-0.9,0-1.6-0.3-2.2-0.9c-0.6-0.6-0.9-1.3-0.9-2.2c0-0.8,0.3-1.5,0.8-2.1c0.6-0.7,1.4-1.1,2.4-1.1
			C173.4,65,173.9,65.2,174.4,65.5z"/>
		<path class="st0" d="M179.3,69.7h-2.6l-0.7,1.5h-1l3-6.4l2.9,6.4h-1L179.3,69.7z M178.9,68.9l-0.9-2.1l-0.9,2.1H178.9z"/>
		<path class="st0" d="M185.2,69.7h-2.6l-0.7,1.5h-1l3-6.4l2.9,6.4h-1L185.2,69.7z M184.8,68.9l-0.9-2.1l-0.9,2.1H184.8z"/>
		<path class="st0" d="M188.9,66v5.2H188V66h-1.4v-0.9h3.7V66H188.9z"/>
		<path class="st0" d="M194,68h2.5v0.2c0,0.5-0.1,0.9-0.2,1.2c-0.1,0.3-0.3,0.6-0.5,0.9c-0.6,0.6-1.3,0.9-2.1,0.9
			c-0.8,0-1.6-0.3-2.2-0.9c-0.6-0.6-0.9-1.3-0.9-2.2c0-0.9,0.3-1.6,0.9-2.2c0.6-0.6,1.4-0.9,2.2-0.9c0.5,0,0.9,0.1,1.3,0.3
			c0.4,0.2,0.8,0.5,1.2,0.9l-0.6,0.6c-0.5-0.7-1.1-1-1.8-1c-0.6,0-1.2,0.2-1.6,0.7c-0.4,0.4-0.6,1-0.6,1.6c0,0.7,0.2,1.2,0.7,1.7
			c0.5,0.4,0.9,0.6,1.5,0.6c0.4,0,0.9-0.2,1.2-0.5c0.4-0.3,0.6-0.7,0.6-1.1H194V68z"/>
		<path class="st0" d="M200.9,69.7h-2.6l-0.7,1.5h-1l3-6.4l2.9,6.4h-1L200.9,69.7z M200.5,68.9l-0.9-2.1l-0.9,2.1H200.5z"/>
		<path class="st0" d="M206.1,68h2.5v0.2c0,0.5-0.1,0.9-0.2,1.2c-0.1,0.3-0.3,0.6-0.5,0.9c-0.6,0.6-1.3,0.9-2.1,0.9
			c-0.8,0-1.6-0.3-2.2-0.9c-0.6-0.6-0.9-1.3-0.9-2.2c0-0.9,0.3-1.6,0.9-2.2c0.6-0.6,1.4-0.9,2.2-0.9c0.5,0,0.9,0.1,1.3,0.3
			c0.4,0.2,0.8,0.5,1.2,0.9l-0.6,0.6c-0.5-0.7-1.1-1-1.8-1c-0.6,0-1.2,0.2-1.6,0.7c-0.4,0.4-0.6,1-0.6,1.6c0,0.7,0.2,1.2,0.7,1.7
			c0.5,0.4,0.9,0.6,1.5,0.6c0.4,0,0.9-0.2,1.2-0.5c0.4-0.3,0.6-0.7,0.6-1.1h-1.5V68z"/>
		<path class="st0" d="M211.4,66v5.2h-0.9V66h-1.4v-0.9h3.7V66H211.4z"/>
		<path class="st0" d="M217.9,65.5v1.1c-0.5-0.4-1.1-0.7-1.6-0.7c-0.6,0-1.1,0.2-1.6,0.7c-0.4,0.4-0.6,1-0.6,1.6
			c0,0.6,0.2,1.2,0.6,1.6s1,0.7,1.6,0.7c0.3,0,0.6-0.1,0.8-0.2c0.1-0.1,0.3-0.1,0.4-0.2s0.3-0.2,0.4-0.3v1.1
			c-0.5,0.3-1.1,0.4-1.6,0.4c-0.9,0-1.6-0.3-2.2-0.9c-0.6-0.6-0.9-1.3-0.9-2.2c0-0.8,0.3-1.5,0.8-2.1c0.6-0.7,1.4-1.1,2.4-1.1
			C216.8,65,217.3,65.2,217.9,65.5z"/>
		<path class="st0" d="M220.7,66v5.2h-0.9V66h-1.4v-0.9h3.7V66H220.7z"/>
		<path class="st0" d="M226.1,69.7h-2.6l-0.7,1.5h-1l3-6.4l2.9,6.4h-1L226.1,69.7z M225.7,68.9l-0.9-2.1l-0.9,2.1H225.7z"/>
	</g>
	<g>
		<path class="st0" d="M75.7,86.1h-2.6l-0.7,1.5h-1l3-6.4l2.9,6.4h-1L75.7,86.1z M75.3,85.2l-0.9-2.1l-0.9,2.1H75.3z"/>
		<path class="st0" d="M80.9,84.4h2.5v0.2c0,0.5-0.1,0.9-0.2,1.2c-0.1,0.3-0.3,0.6-0.5,0.9c-0.6,0.6-1.3,0.9-2.1,0.9
			c-0.8,0-1.6-0.3-2.2-0.9c-0.6-0.6-0.9-1.3-0.9-2.2c0-0.9,0.3-1.6,0.9-2.2c0.6-0.6,1.4-0.9,2.2-0.9c0.5,0,0.9,0.1,1.3,0.3
			c0.4,0.2,0.8,0.5,1.2,0.9l-0.6,0.6c-0.5-0.7-1.1-1-1.8-1c-0.6,0-1.2,0.2-1.6,0.7c-0.4,0.4-0.6,1-0.6,1.6c0,0.7,0.2,1.2,0.7,1.7
			c0.5,0.4,0.9,0.6,1.5,0.6c0.4,0,0.9-0.2,1.2-0.5c0.4-0.3,0.6-0.7,0.6-1.1h-1.5V84.4z"/>
		<path class="st0" d="M87.7,84.4h2.5v0.2c0,0.5-0.1,0.9-0.2,1.2c-0.1,0.3-0.3,0.6-0.5,0.9c-0.6,0.6-1.3,0.9-2.1,0.9
			c-0.8,0-1.6-0.3-2.2-0.9c-0.6-0.6-0.9-1.3-0.9-2.2c0-0.9,0.3-1.6,0.9-2.2c0.6-0.6,1.4-0.9,2.2-0.9c0.5,0,0.9,0.1,1.3,0.3
			c0.4,0.2,0.8,0.5,1.2,0.9l-0.6,0.6c-0.5-0.7-1.1-1-1.8-1c-0.6,0-1.2,0.2-1.6,0.7c-0.4,0.4-0.6,1-0.6,1.6c0,0.7,0.2,1.2,0.7,1.7
			c0.5,0.4,0.9,0.6,1.5,0.6c0.4,0,0.9-0.2,1.2-0.5c0.4-0.3,0.6-0.7,0.6-1.1h-1.5V84.4z"/>
		<path class="st0" d="M93,82.4v5.2H92v-5.2h-1.4v-0.9h3.7v0.9H93z"/>
		<path class="st0" d="M99.4,81.8v1.1c-0.5-0.4-1.1-0.7-1.6-0.7c-0.6,0-1.1,0.2-1.6,0.7c-0.4,0.4-0.6,1-0.6,1.6
			c0,0.6,0.2,1.2,0.6,1.6s1,0.7,1.6,0.7c0.3,0,0.6-0.1,0.8-0.2c0.1-0.1,0.3-0.1,0.4-0.2s0.3-0.2,0.4-0.3v1.1
			c-0.5,0.3-1.1,0.4-1.6,0.4c-0.9,0-1.6-0.3-2.2-0.9c-0.6-0.6-0.9-1.3-0.9-2.2c0-0.8,0.3-1.5,0.8-2.1c0.6-0.7,1.4-1.1,2.4-1.1
			C98.4,81.4,98.9,81.5,99.4,81.8z"/>
		<path class="st0" d="M104.2,86.1h-2.6l-0.7,1.5h-1l3-6.4l2.9,6.4h-1L104.2,86.1z M103.9,85.2l-0.9-2.1l-0.9,2.1H103.9z"/>
		<path class="st0" d="M107.9,82.4v5.2H107v-5.2h-1.4v-0.9h3.7v0.9H107.9z"/>
		<path class="st0" d="M114.4,81.8v1.1c-0.5-0.4-1.1-0.7-1.6-0.7c-0.6,0-1.1,0.2-1.6,0.7c-0.4,0.4-0.6,1-0.6,1.6
			c0,0.6,0.2,1.2,0.6,1.6s1,0.7,1.6,0.7c0.3,0,0.6-0.1,0.8-0.2c0.1-0.1,0.3-0.1,0.4-0.2s0.3-0.2,0.4-0.3v1.1
			c-0.5,0.3-1.1,0.4-1.6,0.4c-0.9,0-1.6-0.3-2.2-0.9c-0.6-0.6-0.9-1.3-0.9-2.2c0-0.8,0.3-1.5,0.8-2.1c0.6-0.7,1.4-1.1,2.4-1.1
			C113.3,81.4,113.9,81.5,114.4,81.8z"/>
		<path class="st0" d="M119.2,86.1h-2.6l-0.7,1.5h-1l3-6.4l2.9,6.4h-1L119.2,86.1z M118.8,85.2l-0.9-2.1l-0.9,2.1H118.8z"/>
		<path class="st0" d="M124.4,84.4h2.5v0.2c0,0.5-0.1,0.9-0.2,1.2c-0.1,0.3-0.3,0.6-0.5,0.9c-0.6,0.6-1.3,0.9-2.1,0.9
			c-0.8,0-1.6-0.3-2.2-0.9c-0.6-0.6-0.9-1.3-0.9-2.2c0-0.9,0.3-1.6,0.9-2.2c0.6-0.6,1.4-0.9,2.2-0.9c0.5,0,0.9,0.1,1.3,0.3
			c0.4,0.2,0.8,0.5,1.2,0.9l-0.6,0.6c-0.5-0.7-1.1-1-1.8-1c-0.6,0-1.2,0.2-1.6,0.7c-0.4,0.4-0.6,1-0.6,1.6c0,0.7,0.2,1.2,0.7,1.7
			c0.5,0.4,0.9,0.6,1.5,0.6c0.4,0,0.9-0.2,1.2-0.5c0.4-0.3,0.6-0.7,0.6-1.1h-1.5V84.4z"/>
		<path class="st0" d="M131.3,86.1h-2.6l-0.7,1.5h-1l3-6.4l2.9,6.4h-1L131.3,86.1z M131,85.2l-0.9-2.1l-0.9,2.1H131z"/>
		<path class="st0" d="M135,82.4v5.2h-0.9v-5.2h-1.4v-0.9h3.7v0.9H135z"/>
		<path class="st0" d="M140.4,86.1h-2.6l-0.7,1.5h-1l3-6.4l2.9,6.4h-1L140.4,86.1z M140.1,85.2l-0.9-2.1l-0.9,2.1H140.1z"/>
		<path class="st0" d="M146.4,86.1h-2.6l-0.7,1.5h-1l3-6.4l2.9,6.4h-1L146.4,86.1z M146,85.2l-0.9-2.1l-0.9,2.1H146z"/>
		<path class="st0" d="M151.6,84.4h2.5v0.2c0,0.5-0.1,0.9-0.2,1.2c-0.1,0.3-0.3,0.6-0.5,0.9c-0.6,0.6-1.3,0.9-2.1,0.9
			c-0.8,0-1.6-0.3-2.2-0.9c-0.6-0.6-0.9-1.3-0.9-2.2c0-0.9,0.3-1.6,0.9-2.2c0.6-0.6,1.4-0.9,2.2-0.9c0.5,0,0.9,0.1,1.3,0.3
			c0.4,0.2,0.8,0.5,1.2,0.9l-0.6,0.6c-0.5-0.7-1.1-1-1.8-1c-0.6,0-1.2,0.2-1.6,0.7c-0.4,0.4-0.6,1-0.6,1.6c0,0.7,0.2,1.2,0.7,1.7
			c0.5,0.4,0.9,0.6,1.5,0.6c0.4,0,0.9-0.2,1.2-0.5c0.4-0.3,0.6-0.7,0.6-1.1h-1.5V84.4z"/>
		<path class="st0" d="M156.9,82.4v5.2H156v-5.2h-1.4v-0.9h3.7v0.9H156.9z"/>
		<path class="st0" d="M162.3,86.1h-2.6l-0.7,1.5h-1l3-6.4l2.9,6.4h-1L162.3,86.1z M161.9,85.2l-0.9-2.1l-0.9,2.1H161.9z"/>
		<path class="st0" d="M168.8,81.8v1.1c-0.5-0.4-1.1-0.7-1.6-0.7c-0.6,0-1.1,0.2-1.6,0.7c-0.4,0.4-0.6,1-0.6,1.6
			c0,0.6,0.2,1.2,0.6,1.6s1,0.7,1.6,0.7c0.3,0,0.6-0.1,0.8-0.2c0.1-0.1,0.3-0.1,0.4-0.2s0.3-0.2,0.4-0.3v1.1
			c-0.5,0.3-1.1,0.4-1.6,0.4c-0.9,0-1.6-0.3-2.2-0.9c-0.6-0.6-0.9-1.3-0.9-2.2c0-0.8,0.3-1.5,0.8-2.1c0.6-0.7,1.4-1.1,2.4-1.1
			C167.8,81.4,168.3,81.5,168.8,81.8z"/>
		<path class="st0" d="M174.4,81.8v1.1c-0.5-0.4-1.1-0.7-1.6-0.7c-0.6,0-1.1,0.2-1.6,0.7c-0.4,0.4-0.6,1-0.6,1.6
			c0,0.6,0.2,1.2,0.6,1.6s1,0.7,1.6,0.7c0.3,0,0.6-0.1,0.8-0.2c0.1-0.1,0.3-0.1,0.4-0.2s0.3-0.2,0.4-0.3v1.1
			c-0.5,0.3-1.1,0.4-1.6,0.4c-0.9,0-1.6-0.3-2.2-0.9c-0.6-0.6-0.9-1.3-0.9-2.2c0-0.8,0.3-1.5,0.8-2.1c0.6-0.7,1.4-1.1,2.4-1.1
			C173.4,81.4,173.9,81.5,174.4,81.8z"/>
		<path class="st0" d="M179.3,86.1h-2.6l-0.7,1.5h-1l3-6.4l2.9,6.4h-1L179.3,86.1z M178.9,85.2l-0.9-2.1l-0.9,2.1H178.9z"/>
		<path class="st0" d="M185.2,86.1h-2.6l-0.7,1.5h-1l3-6.4l2.9,6.4h-1L185.2,86.1z M184.8,85.2l-0.9-2.1l-0.9,2.1H184.8z"/>
		<path class="st0" d="M188.9,82.4v5.2H188v-5.2h-1.4v-0.9h3.7v0.9H188.9z"/>
		<path class="st0" d="M194,84.4h2.5v0.2c0,0.5-0.1,0.9-0.2,1.2c-0.1,0.3-0.3,0.6-0.5,0.9c-0.6,0.6-1.3,0.9-2.1,0.9
			c-0.8,0-1.6-0.3-2.2-0.9c-0.6-0.6-0.9-1.3-0.9-2.2c0-0.9,0.3-1.6,0.9-2.2c0.6-0.6,1.4-0.9,2.2-0.9c0.5,0,0.9,0.1,1.3,0.3
			c0.4,0.2,0.8,0.5,1.2,0.9l-0.6,0.6c-0.5-0.7-1.1-1-1.8-1c-0.6,0-1.2,0.2-1.6,0.7c-0.4,0.4-0.6,1-0.6,1.6c0,0.7,0.2,1.2,0.7,1.7
			c0.5,0.4,0.9,0.6,1.5,0.6c0.4,0,0.9-0.2,1.2-0.5c0.4-0.3,0.6-0.7,0.6-1.1H194V84.4z"/>
		<path class="st0" d="M200.9,86.1h-2.6l-0.7,1.5h-1l3-6.4l2.9,6.4h-1L200.9,86.1z M200.5,85.2l-0.9-2.1l-0.9,2.1H200.5z"/>
		<path class="st0" d="M206.1,84.4h2.5v0.2c0,0.5-0.1,0.9-0.2,1.2c-0.1,0.3-0.3,0.6-0.5,0.9c-0.6,0.6-1.3,0.9-2.1,0.9
			c-0.8,0-1.6-0.3-2.2-0.9c-0.6-0.6-0.9-1.3-0.9-2.2c0-0.9,0.3-1.6,0.9-2.2c0.6-0.6,1.4-0.9,2.2-0.9c0.5,0,0.9,0.1,1.3,0.3
			c0.4,0.2,0.8,0.5,1.2,0.9l-0.6,0.6c-0.5-0.7-1.1-1-1.8-1c-0.6,0-1.2,0.2-1.6,0.7c-0.4,0.4-0.6,1-0.6,1.6c0,0.7,0.2,1.2,0.7,1.7
			c0.5,0.4,0.9,0.6,1.5,0.6c0.4,0,0.9-0.2,1.2-0.5c0.4-0.3,0.6-0.7,0.6-1.1h-1.5V84.4z"/>
		<path class="st0" d="M211.4,82.4v5.2h-0.9v-5.2h-1.4v-0.9h3.7v0.9H211.4z"/>
		<path class="st0" d="M217.9,81.8v1.1c-0.5-0.4-1.1-0.7-1.6-0.7c-0.6,0-1.1,0.2-1.6,0.7c-0.4,0.4-0.6,1-0.6,1.6
			c0,0.6,0.2,1.2,0.6,1.6s1,0.7,1.6,0.7c0.3,0,0.6-0.1,0.8-0.2c0.1-0.1,0.3-0.1,0.4-0.2s0.3-0.2,0.4-0.3v1.1
			c-0.5,0.3-1.1,0.4-1.6,0.4c-0.9,0-1.6-0.3-2.2-0.9c-0.6-0.6-0.9-1.3-0.9-2.2c0-0.8,0.3-1.5,0.8-2.1c0.6-0.7,1.4-1.1,2.4-1.1
			C216.8,81.4,217.3,81.5,217.9,81.8z"/>
		<path class="st0" d="M220.7,82.4v5.2h-0.9v-5.2h-1.4v-0.9h3.7v0.9H220.7z"/>
		<path class="st0" d="M226.1,86.1h-2.6l-0.7,1.5h-1l3-6.4l2.9,6.4h-1L226.1,86.1z M225.7,85.2l-0.9-2.1l-0.9,2.1H225.7z"/>
	</g>
	<g>
		<path class="st0" d="M146.4,102.4h-2.6l-0.7,1.5h-1l3-6.4l2.9,6.4h-1L146.4,102.4z M146,101.6l-0.9-2.1l-0.9,2.1H146z"/>
		<path class="st0" d="M151.6,100.8h2.5v0.2c0,0.5-0.1,0.9-0.2,1.2c-0.1,0.3-0.3,0.6-0.5,0.9c-0.6,0.6-1.3,0.9-2.1,0.9
			c-0.8,0-1.6-0.3-2.2-0.9c-0.6-0.6-0.9-1.3-0.9-2.2c0-0.9,0.3-1.6,0.9-2.2c0.6-0.6,1.4-0.9,2.2-0.9c0.5,0,0.9,0.1,1.3,0.3
			c0.4,0.2,0.8,0.5,1.2,0.9l-0.6,0.6c-0.5-0.7-1.1-1-1.8-1c-0.6,0-1.2,0.2-1.6,0.7c-0.4,0.4-0.6,1-0.6,1.6c0,0.7,0.2,1.2,0.7,1.7
			c0.5,0.4,0.9,0.6,1.5,0.6c0.4,0,0.9-0.2,1.2-0.5c0.4-0.3,0.6-0.7,0.6-1.1h-1.5V100.8z"/>
		<path class="st0" d="M156.9,98.7v5.2H156v-5.2h-1.4v-0.9h3.7v0.9H156.9z"/>
		<path class="st0" d="M162.3,102.4h-2.6l-0.7,1.5h-1l3-6.4l2.9,6.4h-1L162.3,102.4z M161.9,101.6l-0.9-2.1l-0.9,2.1H161.9z"/>
		<path class="st0" d="M168.8,98.2v1.1c-0.5-0.4-1.1-0.7-1.6-0.7c-0.6,0-1.1,0.2-1.6,0.7c-0.4,0.4-0.6,1-0.6,1.6
			c0,0.6,0.2,1.2,0.6,1.6s1,0.7,1.6,0.7c0.3,0,0.6-0.1,0.8-0.2c0.1-0.1,0.3-0.1,0.4-0.2s0.3-0.2,0.4-0.3v1.1
			c-0.5,0.3-1.1,0.4-1.6,0.4c-0.9,0-1.6-0.3-2.2-0.9c-0.6-0.6-0.9-1.3-0.9-2.2c0-0.8,0.3-1.5,0.8-2.1c0.6-0.7,1.4-1.1,2.4-1.1
			C167.8,97.8,168.3,97.9,168.8,98.2z"/>
		<path class="st0" d="M174.4,98.2v1.1c-0.5-0.4-1.1-0.7-1.6-0.7c-0.6,0-1.1,0.2-1.6,0.7c-0.4,0.4-0.6,1-0.6,1.6
			c0,0.6,0.2,1.2,0.6,1.6s1,0.7,1.6,0.7c0.3,0,0.6-0.1,0.8-0.2c0.1-0.1,0.3-0.1,0.4-0.2s0.3-0.2,0.4-0.3v1.1
			c-0.5,0.3-1.1,0.4-1.6,0.4c-0.9,0-1.6-0.3-2.2-0.9c-0.6-0.6-0.9-1.3-0.9-2.2c0-0.8,0.3-1.5,0.8-2.1c0.6-0.7,1.4-1.1,2.4-1.1
			C173.4,97.8,173.9,97.9,174.4,98.2z"/>
		<path class="st0" d="M179.3,102.4h-2.6l-0.7,1.5h-1l3-6.4l2.9,6.4h-1L179.3,102.4z M178.9,101.6l-0.9-2.1l-0.9,2.1H178.9z"/>
		<path class="st0" d="M185.2,102.4h-2.6l-0.7,1.5h-1l3-6.4l2.9,6.4h-1L185.2,102.4z M184.8,101.6l-0.9-2.1l-0.9,2.1H184.8z"/>
		<path class="st0" d="M188.9,98.7v5.2H188v-5.2h-1.4v-0.9h3.7v0.9H188.9z"/>
		<path class="st0" d="M194,100.8h2.5v0.2c0,0.5-0.1,0.9-0.2,1.2c-0.1,0.3-0.3,0.6-0.5,0.9c-0.6,0.6-1.3,0.9-2.1,0.9
			c-0.8,0-1.6-0.3-2.2-0.9c-0.6-0.6-0.9-1.3-0.9-2.2c0-0.9,0.3-1.6,0.9-2.2c0.6-0.6,1.4-0.9,2.2-0.9c0.5,0,0.9,0.1,1.3,0.3
			c0.4,0.2,0.8,0.5,1.2,0.9l-0.6,0.6c-0.5-0.7-1.1-1-1.8-1c-0.6,0-1.2,0.2-1.6,0.7c-0.4,0.4-0.6,1-0.6,1.6c0,0.7,0.2,1.2,0.7,1.7
			c0.5,0.4,0.9,0.6,1.5,0.6c0.4,0,0.9-0.2,1.2-0.5c0.4-0.3,0.6-0.7,0.6-1.1H194V100.8z"/>
		<path class="st0" d="M200.9,102.4h-2.6l-0.7,1.5h-1l3-6.4l2.9,6.4h-1L200.9,102.4z M200.5,101.6l-0.9-2.1l-0.9,2.1H200.5z"/>
		<path class="st0" d="M206.1,100.8h2.5v0.2c0,0.5-0.1,0.9-0.2,1.2c-0.1,0.3-0.3,0.6-0.5,0.9c-0.6,0.6-1.3,0.9-2.1,0.9
			c-0.8,0-1.6-0.3-2.2-0.9c-0.6-0.6-0.9-1.3-0.9-2.2c0-0.9,0.3-1.6,0.9-2.2c0.6-0.6,1.4-0.9,2.2-0.9c0.5,0,0.9,0.1,1.3,0.3
			c0.4,0.2,0.8,0.5,1.2,0.9l-0.6,0.6c-0.5-0.7-1.1-1-1.8-1c-0.6,0-1.2,0.2-1.6,0.7c-0.4,0.4-0.6,1-0.6,1.6c0,0.7,0.2,1.2,0.7,1.7
			c0.5,0.4,0.9,0.6,1.5,0.6c0.4,0,0.9-0.2,1.2-0.5c0.4-0.3,0.6-0.7,0.6-1.1h-1.5V100.8z"/>
		<path class="st0" d="M211.4,98.7v5.2h-0.9v-5.2h-1.4v-0.9h3.7v0.9H211.4z"/>
		<path class="st0" d="M217.9,98.2v1.1c-0.5-0.4-1.1-0.7-1.6-0.7c-0.6,0-1.1,0.2-1.6,0.7c-0.4,0.4-0.6,1-0.6,1.6
			c0,0.6,0.2,1.2,0.6,1.6s1,0.7,1.6,0.7c0.3,0,0.6-0.1,0.8-0.2c0.1-0.1,0.3-0.1,0.4-0.2s0.3-0.2,0.4-0.3v1.1
			c-0.5,0.3-1.1,0.4-1.6,0.4c-0.9,0-1.6-0.3-2.2-0.9c-0.6-0.6-0.9-1.3-0.9-2.2c0-0.8,0.3-1.5,0.8-2.1c0.6-0.7,1.4-1.1,2.4-1.1
			C216.8,97.8,217.3,97.9,217.9,98.2z"/>
		<path class="st0" d="M220.7,98.7v5.2h-0.9v-5.2h-1.4v-0.9h3.7v0.9H220.7z"/>
		<path class="st0" d="M226.1,102.4h-2.6l-0.7,1.5h-1l3-6.4l2.9,6.4h-1L226.1,102.4z M225.7,101.6l-0.9-2.1l-0.9,2.1H225.7z"/>
	</g>
	<g>
		<path class="st0" d="M146.4,118.9h-2.6l-0.7,1.5h-1l3-6.4l2.9,6.4h-1L146.4,118.9z M146,118.1l-0.9-2.1l-0.9,2.1H146z"/>
		<path class="st0" d="M151.6,117.3h2.5v0.2c0,0.5-0.1,0.9-0.2,1.2c-0.1,0.3-0.3,0.6-0.5,0.9c-0.6,0.6-1.3,0.9-2.1,0.9
			c-0.8,0-1.6-0.3-2.2-0.9c-0.6-0.6-0.9-1.3-0.9-2.2c0-0.9,0.3-1.6,0.9-2.2c0.6-0.6,1.4-0.9,2.2-0.9c0.5,0,0.9,0.1,1.3,0.3
			c0.4,0.2,0.8,0.5,1.2,0.9l-0.6,0.6c-0.5-0.7-1.1-1-1.8-1c-0.6,0-1.2,0.2-1.6,0.7c-0.4,0.4-0.6,1-0.6,1.6c0,0.7,0.2,1.2,0.7,1.7
			c0.5,0.4,0.9,0.6,1.5,0.6c0.4,0,0.9-0.2,1.2-0.5c0.4-0.3,0.6-0.7,0.6-1.1h-1.5V117.3z"/>
		<path class="st0" d="M156.9,115.2v5.2H156v-5.2h-1.4v-0.9h3.7v0.9H156.9z"/>
		<path class="st0" d="M162.3,118.9h-2.6l-0.7,1.5h-1l3-6.4l2.9,6.4h-1L162.3,118.9z M161.9,118.1L161,116l-0.9,2.1H161.9z"/>
		<path class="st0" d="M168.8,114.7v1.1c-0.5-0.4-1.1-0.7-1.6-0.7c-0.6,0-1.1,0.2-1.6,0.7c-0.4,0.4-0.6,1-0.6,1.6
			c0,0.6,0.2,1.2,0.6,1.6s1,0.7,1.6,0.7c0.3,0,0.6-0.1,0.8-0.2c0.1-0.1,0.3-0.1,0.4-0.2s0.3-0.2,0.4-0.3v1.1
			c-0.5,0.3-1.1,0.4-1.6,0.4c-0.9,0-1.6-0.3-2.2-0.9c-0.6-0.6-0.9-1.3-0.9-2.2c0-0.8,0.3-1.5,0.8-2.1c0.6-0.7,1.4-1.1,2.4-1.1
			C167.8,114.2,168.3,114.4,168.8,114.7z"/>
		<path class="st0" d="M174.4,114.7v1.1c-0.5-0.4-1.1-0.7-1.6-0.7c-0.6,0-1.1,0.2-1.6,0.7c-0.4,0.4-0.6,1-0.6,1.6
			c0,0.6,0.2,1.2,0.6,1.6s1,0.7,1.6,0.7c0.3,0,0.6-0.1,0.8-0.2c0.1-0.1,0.3-0.1,0.4-0.2s0.3-0.2,0.4-0.3v1.1
			c-0.5,0.3-1.1,0.4-1.6,0.4c-0.9,0-1.6-0.3-2.2-0.9c-0.6-0.6-0.9-1.3-0.9-2.2c0-0.8,0.3-1.5,0.8-2.1c0.6-0.7,1.4-1.1,2.4-1.1
			C173.4,114.2,173.9,114.4,174.4,114.7z"/>
		<path class="st0" d="M179.3,118.9h-2.6l-0.7,1.5h-1l3-6.4l2.9,6.4h-1L179.3,118.9z M178.9,118.1L178,116l-0.9,2.1H178.9z"/>
		<path class="st0" d="M185.2,118.9h-2.6l-0.7,1.5h-1l3-6.4l2.9,6.4h-1L185.2,118.9z M184.8,118.1l-0.9-2.1l-0.9,2.1H184.8z"/>
		<path class="st0" d="M188.9,115.2v5.2H188v-5.2h-1.4v-0.9h3.7v0.9H188.9z"/>
		<path class="st0" d="M194,117.3h2.5v0.2c0,0.5-0.1,0.9-0.2,1.2c-0.1,0.3-0.3,0.6-0.5,0.9c-0.6,0.6-1.3,0.9-2.1,0.9
			c-0.8,0-1.6-0.3-2.2-0.9c-0.6-0.6-0.9-1.3-0.9-2.2c0-0.9,0.3-1.6,0.9-2.2c0.6-0.6,1.4-0.9,2.2-0.9c0.5,0,0.9,0.1,1.3,0.3
			c0.4,0.2,0.8,0.5,1.2,0.9l-0.6,0.6c-0.5-0.7-1.1-1-1.8-1c-0.6,0-1.2,0.2-1.6,0.7c-0.4,0.4-0.6,1-0.6,1.6c0,0.7,0.2,1.2,0.7,1.7
			c0.5,0.4,0.9,0.6,1.5,0.6c0.4,0,0.9-0.2,1.2-0.5c0.4-0.3,0.6-0.7,0.6-1.1H194V117.3z"/>
		<path class="st0" d="M200.9,118.9h-2.6l-0.7,1.5h-1l3-6.4l2.9,6.4h-1L200.9,118.9z M200.5,118.1l-0.9-2.1l-0.9,2.1H200.5z"/>
		<path class="st0" d="M206.1,117.3h2.5v0.2c0,0.5-0.1,0.9-0.2,1.2c-0.1,0.3-0.3,0.6-0.5,0.9c-0.6,0.6-1.3,0.9-2.1,0.9
			c-0.8,0-1.6-0.3-2.2-0.9c-0.6-0.6-0.9-1.3-0.9-2.2c0-0.9,0.3-1.6,0.9-2.2c0.6-0.6,1.4-0.9,2.2-0.9c0.5,0,0.9,0.1,1.3,0.3
			c0.4,0.2,0.8,0.5,1.2,0.9l-0.6,0.6c-0.5-0.7-1.1-1-1.8-1c-0.6,0-1.2,0.2-1.6,0.7c-0.4,0.4-0.6,1-0.6,1.6c0,0.7,0.2,1.2,0.7,1.7
			c0.5,0.4,0.9,0.6,1.5,0.6c0.4,0,0.9-0.2,1.2-0.5c0.4-0.3,0.6-0.7,0.6-1.1h-1.5V117.3z"/>
		<path class="st0" d="M211.4,115.2v5.2h-0.9v-5.2h-1.4v-0.9h3.7v0.9H211.4z"/>
		<path class="st0" d="M217.9,114.7v1.1c-0.5-0.4-1.1-0.7-1.6-0.7c-0.6,0-1.1,0.2-1.6,0.7c-0.4,0.4-0.6,1-0.6,1.6
			c0,0.6,0.2,1.2,0.6,1.6s1,0.7,1.6,0.7c0.3,0,0.6-0.1,0.8-0.2c0.1-0.1,0.3-0.1,0.4-0.2s0.3-0.2,0.4-0.3v1.1
			c-0.5,0.3-1.1,0.4-1.6,0.4c-0.9,0-1.6-0.3-2.2-0.9c-0.6-0.6-0.9-1.3-0.9-2.2c0-0.8,0.3-1.5,0.8-2.1c0.6-0.7,1.4-1.1,2.4-1.1
			C216.8,114.2,217.3,114.4,217.9,114.7z"/>
		<path class="st0" d="M220.7,115.2v5.2h-0.9v-5.2h-1.4v-0.9h3.7v0.9H220.7z"/>
		<path class="st0" d="M226.1,118.9h-2.6l-0.7,1.5h-1l3-6.4l2.9,6.4h-1L226.1,118.9z M225.7,118.1l-0.9-2.1l-0.9,2.1H225.7z"/>
	</g>
	<g>
		<path class="st0" d="M146.4,135.4h-2.6l-0.7,1.5h-1l3-6.4l2.9,6.4h-1L146.4,135.4z M146,134.6l-0.9-2.1l-0.9,2.1H146z"/>
		<path class="st0" d="M151.6,133.8h2.5v0.2c0,0.5-0.1,0.9-0.2,1.2c-0.1,0.3-0.3,0.6-0.5,0.9c-0.6,0.6-1.3,0.9-2.1,0.9
			c-0.8,0-1.6-0.3-2.2-0.9c-0.6-0.6-0.9-1.3-0.9-2.2c0-0.9,0.3-1.6,0.9-2.2c0.6-0.6,1.4-0.9,2.2-0.9c0.5,0,0.9,0.1,1.3,0.3
			c0.4,0.2,0.8,0.5,1.2,0.9l-0.6,0.6c-0.5-0.7-1.1-1-1.8-1c-0.6,0-1.2,0.2-1.6,0.7c-0.4,0.4-0.6,1-0.6,1.6c0,0.7,0.2,1.2,0.7,1.7
			c0.5,0.4,0.9,0.6,1.5,0.6c0.4,0,0.9-0.2,1.2-0.5c0.4-0.3,0.6-0.7,0.6-1.1h-1.5V133.8z"/>
		<path class="st0" d="M156.9,131.7v5.2H156v-5.2h-1.4v-0.9h3.7v0.9H156.9z"/>
		<path class="st0" d="M162.3,135.4h-2.6l-0.7,1.5h-1l3-6.4l2.9,6.4h-1L162.3,135.4z M161.9,134.6l-0.9-2.1l-0.9,2.1H161.9z"/>
		<path class="st0" d="M168.8,131.2v1.1c-0.5-0.4-1.1-0.7-1.6-0.7c-0.6,0-1.1,0.2-1.6,0.7c-0.4,0.4-0.6,1-0.6,1.6
			c0,0.6,0.2,1.2,0.6,1.6c0.4,0.4,1,0.7,1.6,0.7c0.3,0,0.6-0.1,0.8-0.2c0.1-0.1,0.3-0.1,0.4-0.2c0.1-0.1,0.3-0.2,0.4-0.3v1.1
			c-0.5,0.3-1.1,0.4-1.6,0.4c-0.9,0-1.6-0.3-2.2-0.9c-0.6-0.6-0.9-1.3-0.9-2.2c0-0.8,0.3-1.5,0.8-2.1c0.6-0.7,1.4-1.1,2.4-1.1
			C167.8,130.8,168.3,130.9,168.8,131.2z"/>
		<path class="st0" d="M174.4,131.2v1.1c-0.5-0.4-1.1-0.7-1.6-0.7c-0.6,0-1.1,0.2-1.6,0.7c-0.4,0.4-0.6,1-0.6,1.6
			c0,0.6,0.2,1.2,0.6,1.6c0.4,0.4,1,0.7,1.6,0.7c0.3,0,0.6-0.1,0.8-0.2c0.1-0.1,0.3-0.1,0.4-0.2c0.1-0.1,0.3-0.2,0.4-0.3v1.1
			c-0.5,0.3-1.1,0.4-1.6,0.4c-0.9,0-1.6-0.3-2.2-0.9c-0.6-0.6-0.9-1.3-0.9-2.2c0-0.8,0.3-1.5,0.8-2.1c0.6-0.7,1.4-1.1,2.4-1.1
			C173.4,130.8,173.9,130.9,174.4,131.2z"/>
		<path class="st0" d="M179.3,135.4h-2.6l-0.7,1.5h-1l3-6.4l2.9,6.4h-1L179.3,135.4z M178.9,134.6l-0.9-2.1l-0.9,2.1H178.9z"/>
		<path class="st0" d="M185.2,135.4h-2.6l-0.7,1.5h-1l3-6.4l2.9,6.4h-1L185.2,135.4z M184.8,134.6l-0.9-2.1l-0.9,2.1H184.8z"/>
		<path class="st0" d="M188.9,131.7v5.2H188v-5.2h-1.4v-0.9h3.7v0.9H188.9z"/>
		<path class="st0" d="M194,133.8h2.5v0.2c0,0.5-0.1,0.9-0.2,1.2c-0.1,0.3-0.3,0.6-0.5,0.9c-0.6,0.6-1.3,0.9-2.1,0.9
			c-0.8,0-1.6-0.3-2.2-0.9c-0.6-0.6-0.9-1.3-0.9-2.2c0-0.9,0.3-1.6,0.9-2.2c0.6-0.6,1.4-0.9,2.2-0.9c0.5,0,0.9,0.1,1.3,0.3
			c0.4,0.2,0.8,0.5,1.2,0.9l-0.6,0.6c-0.5-0.7-1.1-1-1.8-1c-0.6,0-1.2,0.2-1.6,0.7c-0.4,0.4-0.6,1-0.6,1.6c0,0.7,0.2,1.2,0.7,1.7
			c0.5,0.4,0.9,0.6,1.5,0.6c0.4,0,0.9-0.2,1.2-0.5c0.4-0.3,0.6-0.7,0.6-1.1H194V133.8z"/>
		<path class="st0" d="M200.9,135.4h-2.6l-0.7,1.5h-1l3-6.4l2.9,6.4h-1L200.9,135.4z M200.5,134.6l-0.9-2.1l-0.9,2.1H200.5z"/>
		<path class="st0" d="M206.1,133.8h2.5v0.2c0,0.5-0.1,0.9-0.2,1.2c-0.1,0.3-0.3,0.6-0.5,0.9c-0.6,0.6-1.3,0.9-2.1,0.9
			c-0.8,0-1.6-0.3-2.2-0.9c-0.6-0.6-0.9-1.3-0.9-2.2c0-0.9,0.3-1.6,0.9-2.2c0.6-0.6,1.4-0.9,2.2-0.9c0.5,0,0.9,0.1,1.3,0.3
			c0.4,0.2,0.8,0.5,1.2,0.9l-0.6,0.6c-0.5-0.7-1.1-1-1.8-1c-0.6,0-1.2,0.2-1.6,0.7c-0.4,0.4-0.6,1-0.6,1.6c0,0.7,0.2,1.2,0.7,1.7
			c0.5,0.4,0.9,0.6,1.5,0.6c0.4,0,0.9-0.2,1.2-0.5c0.4-0.3,0.6-0.7,0.6-1.1h-1.5V133.8z"/>
		<path class="st0" d="M211.4,131.7v5.2h-0.9v-5.2h-1.4v-0.9h3.7v0.9H211.4z"/>
		<path class="st0" d="M217.9,131.2v1.1c-0.5-0.4-1.1-0.7-1.6-0.7c-0.6,0-1.1,0.2-1.6,0.7c-0.4,0.4-0.6,1-0.6,1.6
			c0,0.6,0.2,1.2,0.6,1.6c0.4,0.4,1,0.7,1.6,0.7c0.3,0,0.6-0.1,0.8-0.2c0.1-0.1,0.3-0.1,0.4-0.2c0.1-0.1,0.3-0.2,0.4-0.3v1.1
			c-0.5,0.3-1.1,0.4-1.6,0.4c-0.9,0-1.6-0.3-2.2-0.9c-0.6-0.6-0.9-1.3-0.9-2.2c0-0.8,0.3-1.5,0.8-2.1c0.6-0.7,1.4-1.1,2.4-1.1
			C216.8,130.8,217.3,130.9,217.9,131.2z"/>
		<path class="st0" d="M220.7,131.7v5.2h-0.9v-5.2h-1.4v-0.9h3.7v0.9H220.7z"/>
		<path class="st0" d="M226.1,135.4h-2.6l-0.7,1.5h-1l3-6.4l2.9,6.4h-1L226.1,135.4z M225.7,134.6l-0.9-2.1l-0.9,2.1H225.7z"/>
	</g>
	<g>
		<path class="st0" d="M146.4,151.9h-2.6l-0.7,1.5h-1l3-6.4l2.9,6.4h-1L146.4,151.9z M146,151.1l-0.9-2.1l-0.9,2.1H146z"/>
		<path class="st0" d="M151.6,150.3h2.5v0.2c0,0.5-0.1,0.9-0.2,1.2c-0.1,0.3-0.3,0.6-0.5,0.9c-0.6,0.6-1.3,0.9-2.1,0.9
			c-0.8,0-1.6-0.3-2.2-0.9c-0.6-0.6-0.9-1.3-0.9-2.2c0-0.9,0.3-1.6,0.9-2.2c0.6-0.6,1.4-0.9,2.2-0.9c0.5,0,0.9,0.1,1.3,0.3
			c0.4,0.2,0.8,0.5,1.2,0.9l-0.6,0.6c-0.5-0.7-1.1-1-1.8-1c-0.6,0-1.2,0.2-1.6,0.7c-0.4,0.4-0.6,1-0.6,1.6c0,0.7,0.2,1.2,0.7,1.7
			c0.5,0.4,0.9,0.6,1.5,0.6c0.4,0,0.9-0.2,1.2-0.5c0.4-0.3,0.6-0.7,0.6-1.1h-1.5V150.3z"/>
		<path class="st0" d="M156.9,148.2v5.2H156v-5.2h-1.4v-0.9h3.7v0.9H156.9z"/>
		<path class="st0" d="M162.3,151.9h-2.6l-0.7,1.5h-1l3-6.4l2.9,6.4h-1L162.3,151.9z M161.9,151.1L161,149l-0.9,2.1H161.9z"/>
		<path class="st0" d="M168.8,147.7v1.1c-0.5-0.4-1.1-0.7-1.6-0.7c-0.6,0-1.1,0.2-1.6,0.7c-0.4,0.4-0.6,1-0.6,1.6
			c0,0.6,0.2,1.2,0.6,1.6c0.4,0.4,1,0.7,1.6,0.7c0.3,0,0.6-0.1,0.8-0.2c0.1-0.1,0.3-0.1,0.4-0.2c0.1-0.1,0.3-0.2,0.4-0.3v1.1
			c-0.5,0.3-1.1,0.4-1.6,0.4c-0.9,0-1.6-0.3-2.2-0.9c-0.6-0.6-0.9-1.3-0.9-2.2c0-0.8,0.3-1.5,0.8-2.1c0.6-0.7,1.4-1.1,2.4-1.1
			C167.8,147.2,168.3,147.4,168.8,147.7z"/>
		<path class="st0" d="M174.4,147.7v1.1c-0.5-0.4-1.1-0.7-1.6-0.7c-0.6,0-1.1,0.2-1.6,0.7c-0.4,0.4-0.6,1-0.6,1.6
			c0,0.6,0.2,1.2,0.6,1.6c0.4,0.4,1,0.7,1.6,0.7c0.3,0,0.6-0.1,0.8-0.2c0.1-0.1,0.3-0.1,0.4-0.2c0.1-0.1,0.3-0.2,0.4-0.3v1.1
			c-0.5,0.3-1.1,0.4-1.6,0.4c-0.9,0-1.6-0.3-2.2-0.9c-0.6-0.6-0.9-1.3-0.9-2.2c0-0.8,0.3-1.5,0.8-2.1c0.6-0.7,1.4-1.1,2.4-1.1
			C173.4,147.2,173.9,147.4,174.4,147.7z"/>
		<path class="st0" d="M179.3,151.9h-2.6l-0.7,1.5h-1l3-6.4l2.9,6.4h-1L179.3,151.9z M178.9,151.1L178,149l-0.9,2.1H178.9z"/>
		<path class="st0" d="M185.2,151.9h-2.6l-0.7,1.5h-1l3-6.4l2.9,6.4h-1L185.2,151.9z M184.8,151.1l-0.9-2.1l-0.9,2.1H184.8z"/>
		<path class="st0" d="M188.9,148.2v5.2H188v-5.2h-1.4v-0.9h3.7v0.9H188.9z"/>
		<path class="st0" d="M194,150.3h2.5v0.2c0,0.5-0.1,0.9-0.2,1.2c-0.1,0.3-0.3,0.6-0.5,0.9c-0.6,0.6-1.3,0.9-2.1,0.9
			c-0.8,0-1.6-0.3-2.2-0.9c-0.6-0.6-0.9-1.3-0.9-2.2c0-0.9,0.3-1.6,0.9-2.2c0.6-0.6,1.4-0.9,2.2-0.9c0.5,0,0.9,0.1,1.3,0.3
			c0.4,0.2,0.8,0.5,1.2,0.9l-0.6,0.6c-0.5-0.7-1.1-1-1.8-1c-0.6,0-1.2,0.2-1.6,0.7c-0.4,0.4-0.6,1-0.6,1.6c0,0.7,0.2,1.2,0.7,1.7
			c0.5,0.4,0.9,0.6,1.5,0.6c0.4,0,0.9-0.2,1.2-0.5c0.4-0.3,0.6-0.7,0.6-1.1H194V150.3z"/>
		<path class="st0" d="M200.9,151.9h-2.6l-0.7,1.5h-1l3-6.4l2.9,6.4h-1L200.9,151.9z M200.5,151.1l-0.9-2.1l-0.9,2.1H200.5z"/>
		<path class="st0" d="M206.1,150.3h2.5v0.2c0,0.5-0.1,0.9-0.2,1.2c-0.1,0.3-0.3,0.6-0.5,0.9c-0.6,0.6-1.3,0.9-2.1,0.9
			c-0.8,0-1.6-0.3-2.2-0.9c-0.6-0.6-0.9-1.3-0.9-2.2c0-0.9,0.3-1.6,0.9-2.2c0.6-0.6,1.4-0.9,2.2-0.9c0.5,0,0.9,0.1,1.3,0.3
			c0.4,0.2,0.8,0.5,1.2,0.9l-0.6,0.6c-0.5-0.7-1.1-1-1.8-1c-0.6,0-1.2,0.2-1.6,0.7c-0.4,0.4-0.6,1-0.6,1.6c0,0.7,0.2,1.2,0.7,1.7
			c0.5,0.4,0.9,0.6,1.5,0.6c0.4,0,0.9-0.2,1.2-0.5c0.4-0.3,0.6-0.7,0.6-1.1h-1.5V150.3z"/>
		<path class="st0" d="M211.4,148.2v5.2h-0.9v-5.2h-1.4v-0.9h3.7v0.9H211.4z"/>
		<path class="st0" d="M217.9,147.7v1.1c-0.5-0.4-1.1-0.7-1.6-0.7c-0.6,0-1.1,0.2-1.6,0.7c-0.4,0.4-0.6,1-0.6,1.6
			c0,0.6,0.2,1.2,0.6,1.6c0.4,0.4,1,0.7,1.6,0.7c0.3,0,0.6-0.1,0.8-0.2c0.1-0.1,0.3-0.1,0.4-0.2c0.1-0.1,0.3-0.2,0.4-0.3v1.1
			c-0.5,0.3-1.1,0.4-1.6,0.4c-0.9,0-1.6-0.3-2.2-0.9c-0.6-0.6-0.9-1.3-0.9-2.2c0-0.8,0.3-1.5,0.8-2.1c0.6-0.7,1.4-1.1,2.4-1.1
			C216.8,147.2,217.3,147.4,217.9,147.7z"/>
		<path class="st0" d="M220.7,148.2v5.2h-0.9v-5.2h-1.4v-0.9h3.7v0.9H220.7z"/>
		<path class="st0" d="M226.1,151.9h-2.6l-0.7,1.5h-1l3-6.4l2.9,6.4h-1L226.1,151.9z M225.7,151.1l-0.9-2.1l-0.9,2.1H225.7z"/>
	</g>
</g>
</svg>
