<?xml version="1.0" encoding="utf-8"?>
<!-- Generator: Adobe Illustrator 23.0.2, SVG Export Plug-In . SVG Version: 6.00 Build 0)  -->
<svg version="1.1" id="Capa_1" xmlns="http://www.w3.org/2000/svg" xmlns:xlink="http://www.w3.org/1999/xlink" x="0px" y="0px"
	 viewBox="0 0 300 250" style="enable-background:new 0 0 300 250;" xml:space="preserve">
<style type="text/css">
	.st0{fill:#FDFEFF;}
</style>
<g>
	<path class="st0" d="M150,240l-2.4-1c-2.9-1.2-68-28.3-68-64.5c0-14.1,9.6-28.4,28.8-42.4l0.2-0.2l11.8,6.9L120,139
		c-12.8,8.6-28,21.9-28,35.5c0,21.2,36.4,42.6,58.1,52c21.6-9.4,58.1-30.8,58.1-52c0-23.2-43.4-45.3-59.9-52.7l-1.5-0.7
		c-7.6-3.6-45.4-22.4-45.4-48.3c0-26.4,39.8-45.6,45.9-48.5l0.3-0.2c5.6-2.5,14.8-7.7,22.7-14l0.2-0.2l11.8,6.4l-0.5,0.3
		c-5.2,4.6-11.3,8.9-18.4,13c13.5,7.7,35.4,23.4,35.4,43.1c0,19.4-21.6,35-34.8,42.8c21.4,10.5,56.5,32.2,56.5,59
		c0,36.2-65.3,63.3-68,64.5L150,240z M150,36.6c-4.6,2.2-36.4,18.7-36.4,36.2s31.8,34,36.4,36.2c4.4-2.2,36.4-18.7,36.4-36.2
		C186.2,55.3,154.4,38.8,150,36.6z"/>
</g>
</svg>
