<?xml version="1.0" encoding="utf-8"?>
<!-- Generator: Adobe Illustrator 23.0.2, SVG Export Plug-In . SVG Version: 6.00 Build 0)  -->
<svg version="1.1" id="Capa_1" xmlns="http://www.w3.org/2000/svg" xmlns:xlink="http://www.w3.org/1999/xlink" x="0px" y="0px"
	 viewBox="0 0 300 250" style="enable-background:new 0 0 300 250;" xml:space="preserve">
<style type="text/css">
	.st0{fill:#FFFFFF;}
</style>
<g>
	<g>
		<path class="st0" d="M203.2,45.8c0-3.3-2.7-6-6-6h-21.6c-3.3,0-6,2.7-6,6v9c-2.7,1.2-5.3,2.6-7.7,4.3l-7.7-4.7
			c-2.8-1.7-6.5-0.9-8.3,2l-11.3,18.4c-1.7,2.8-0.9,6.5,2,8.3l7.7,4.7c-0.3,2-0.4,4.1-0.4,6.2s0.2,4.1,0.4,6.2l-7.7,4.7
			c-2.8,1.7-3.7,5.4-2,8.3l11.3,18.4c1.7,2.8,5.4,3.7,8.3,2l7.7-4.7c2.4,1.7,5,3.1,7.7,4.3v9c0,3.3,2.7,6,6,6h21.6c3.3,0,6-2.7,6-6
			v-9c2.7-1.2,5.3-2.6,7.7-4.3l7.7,4.7c2.8,1.7,6.5,0.9,8.3-2l11.3-18.4c1.7-2.8,0.9-6.5-2-8.3l-7.7-4.7c0.3-2,0.4-4.1,0.4-6.2
			s-0.2-4.1-0.4-6.2l7.7-4.7c2.8-1.7,3.7-5.4,2-8.3l-11.3-18.4c-1.7-2.8-5.4-3.7-8.3-2l-7.7,4.7c-2.4-1.7-5-3.1-7.7-4.3V45.8z
			 M212.5,93.9c0,14.4-11.7,26.1-26.1,26.1c-6.1,0-11.7-2.1-16.2-5.6c-0.3-0.2-0.6-0.5-0.9-0.7c-1.7-1.4-3.1-3.1-4.4-4.9
			c-0.2-0.2-0.3-0.4-0.5-0.7c-0.3-0.4-0.5-0.9-0.8-1.3c-0.2-0.3-0.4-0.7-0.5-1c-0.5-1.1-1-2.2-1.4-3.3c-0.9-2.7-1.4-5.6-1.4-8.6
			s0.5-5.9,1.4-8.6c0.4-1.1,0.9-2.3,1.4-3.3c0.2-0.3,0.4-0.7,0.5-1c0.3-0.4,0.5-0.9,0.8-1.3c0.1-0.2,0.3-0.5,0.5-0.7
			c1.3-1.8,2.7-3.4,4.4-4.9c0.3-0.2,0.6-0.5,0.9-0.7c4.4-3.5,10.1-5.6,16.2-5.6C200.8,67.9,212.5,79.5,212.5,93.9z"/>
		
			<ellipse transform="matrix(0.9871 -0.1602 0.1602 0.9871 -12.6424 31.068)" class="st0" cx="186.4" cy="93.9" rx="19.4" ry="19.4"/>
		<path class="st0" d="M138.1,125.4l-9.6-4.4c0.5-2.8,0.7-5.7,0.4-8.6s-1-5.8-2-8.4l8.6-6.1c1.9-1.3,2.4-4,1-5.9l-3.8-5.3
			c-1.3-1.9-4-2.4-5.9-1l-8.6,6.1c-4.3-3.7-9.7-6.3-15.5-7.1l-1-10.5c-0.2-2.3-2.3-4-4.6-3.8l-6.5,0.6c-2.3,0.2-4,2.3-3.8,4.6
			l1,10.5c-5.6,1.9-10.4,5.4-13.9,9.9l-9.6-4.4c-2.1-1-4.6,0-5.6,2.1L56,99.5c-1,2.1,0,4.6,2.1,5.6l9.6,4.4
			c-0.5,2.8-0.7,5.7-0.4,8.6s1,5.8,2,8.4l-8.6,6.1c-1.9,1.3-2.4,4-1,5.9l3.8,5.3c1.3,1.9,4,2.4,5.9,1l8.6-6.1
			c4.3,3.7,9.7,6.3,15.5,7.1l1,10.5c0.2,2.3,2.3,4,4.6,3.8l6.5-0.6c2.3-0.2,4-2.3,3.8-4.6l-1-10.5c5.6-1.9,10.4-5.4,13.9-9.9
			l9.6,4.4c2.1,1,4.6,0,5.6-2.1l2.7-5.9C141.1,128.9,140.2,126.4,138.1,125.4z M99.1,126c-5.9,0.6-11.2-3.8-11.7-9.7
			c-0.6-5.9,3.8-11.2,9.7-11.7c5.9-0.6,11.2,3.8,11.7,9.7C109.4,120.2,105,125.4,99.1,126z"/>
		<path class="st0" d="M243.8,26.6H56.2c-10.5,0-19,8.5-19,19v111c0,10.5,8.5,19,19,19h62.1v8.1c-13.1,2.4-23,13.8-23,27.5v8.3
			c0,2.2,1.8,4,4,4h102.4c2.2,0,4-1.8,4-4v-8.3c0-13.5-9.6-24.8-22.4-27.4v-8.2h60.5c10.5,0,19-8.5,19-19v-111
			C262.8,35.1,254.3,26.6,243.8,26.6z M191.6,209.4h-82.2c0.9-6.9,6.8-12.3,13.9-12.3h54.4C184.9,197.2,190.8,202.5,191.6,209.4z
			 M246.4,159H114.6c-0.4,1.1-1,2-1.7,2.9c-1.7,2.1-4.2,3.4-6.9,3.7l-6.5,0.6c-0.3,0-0.6,0-1,0c-2.4,0-4.7-0.8-6.5-2.4
			c-1.6-1.3-2.7-3-3.3-4.9H53.6v-19.2c-0.7-1.7-0.9-3.6-0.6-5.5c0.1-0.7,0.3-1.4,0.6-2v-23c-3.7-2.8-5.1-7.9-3-12.3l2.7-5.9
			c0.1-0.2,0.2-0.4,0.3-0.6V43.2h109.3c1.2-5.9,6.5-10.3,12.7-10.3h21.6c6.3,0,11.5,4.4,12.7,10.3h36.5V159z"/>
	</g>
</g>
</svg>
